<?xml version="1.0" encoding="UTF-8"?>
<svg width="86px" height="372px" viewBox="0 0 86 372" version="1.1" xmlns="http://www.w3.org/2000/svg" xmlns:xlink="http://www.w3.org/1999/xlink">
    <title>ai-connector-left</title>
    <defs>
        <polygon id="path-1" points="0.271138679 0.751 5.60429551 0.751 5.60429551 7.1518464 0.271138679 7.1518464"></polygon>
        <polygon id="path-3" points="0.408244797 0.889779258 7 0.889779258 7 5.66885357 0.408244797 5.66885357"></polygon>
    </defs>
    <g id="Page-1" stroke="none" stroke-width="1" fill="none" fill-rule="evenodd">
        <g id="ai-connector-left" transform="translate(0.137178, 0.045969)">
            <g id="Group-2" transform="translate(42.483117, 299.970191) rotate(8.000000) translate(-42.483117, -299.970191) translate(9.983117, 233.470191)" fill="#FFFFFF" fill-rule="nonzero">
                <path d="M3.15516846,129.797153 C3.84416846,129.691153 4.33316846,129.516153 4.61816846,129.273153 C4.90416846,129.031153 5.01416846,128.700153 4.94916846,128.280153 C4.88516846,127.863153 4.68116846,127.584153 4.33816846,127.441153 C3.99316846,127.299153 3.49616846,127.276153 2.84316846,127.370153 L1.54016846,127.571153 C0.847168461,127.678153 0.351168461,127.858153 0.0521684608,128.110153 C-0.246831539,128.362153 -0.365831539,128.693153 -0.302831539,129.100153 C-0.239831539,129.503153 -0.0388315392,129.777153 0.303168461,129.924153 C0.644168461,130.071153 1.15016846,130.098153 1.82116846,130.003153 L3.15516846,129.797153 Z M2.16716846,130.783153 C1.21316846,130.931153 0.479168461,130.878153 -0.0348315392,130.624153 C-0.549831539,130.370153 -0.859831539,129.896153 -0.966831539,129.203153 C-1.07283154,128.519153 -0.924831539,127.978153 -0.521831539,127.579153 C-0.118831539,127.180153 0.532168461,126.905153 1.43116846,126.754153 L2.51916846,126.586153 C3.46216846,126.441153 4.18616846,126.495153 4.69516846,126.751153 C5.20316846,127.005153 5.51116846,127.481153 5.61816846,128.176153 C5.72516846,128.866153 5.58316846,129.408153 5.19116846,129.802153 C4.80016846,130.197153 4.14416846,130.469153 3.22316846,130.620153 L2.16716846,130.783153 Z" id="Fill-1" transform="translate(2.326322, 128.685970) rotate(-90.000000) translate(-2.326322, -128.685970) "></path>
                <polygon id="Fill-3" transform="translate(7.117204, 127.135123) rotate(-90.000000) translate(-7.117204, -127.135123) " points="4.24870401 129.342123 3.93870401 128.573123 9.03570401 126.522123 7.84870401 125.208123 8.54270401 124.928123 10.247704 126.787123 10.295704 126.907123"></polygon>
                <path d="M13.3733566,125.456223 C13.9573566,125.074223 14.3303566,124.714223 14.4903566,124.375223 C14.6503566,124.037223 14.6143566,123.689223 14.3823566,123.334223 C14.1513566,122.981223 13.8503566,122.810223 13.4783566,122.823223 C13.1063566,122.834223 12.6443566,123.018223 12.0883566,123.374223 L10.9843566,124.095223 C10.3973566,124.478223 10.0193566,124.846223 9.85135653,125.200223 C9.68235653,125.553223 9.71135653,125.902223 9.93635653,126.248223 C10.1593566,126.588223 10.4563566,126.755223 10.8273566,126.748223 C11.1993566,126.742223 11.6713566,126.557223 12.2433566,126.194223 L13.3733566,125.456223 Z M12.8803566,126.763223 C12.0723566,127.290223 11.3813566,127.544223 10.8083566,127.525223 C10.2353566,127.506223 9.75635653,127.202223 9.37335653,126.616223 C8.99535653,126.036223 8.90735653,125.481223 9.10935653,124.952223 C9.31135653,124.422223 9.79135653,123.903223 10.5483566,123.395223 L11.4693566,122.793223 C12.2683566,122.272223 12.9513566,122.023223 13.5193566,122.045223 C14.0873566,122.068223 14.5643566,122.374223 14.9493566,122.964223 C15.3313566,123.548223 15.4243566,124.101223 15.2303566,124.621223 C15.0363566,125.142223 14.5513566,125.660223 13.7753566,126.178223 L12.8803566,126.763223 Z" id="Fill-5" transform="translate(12.166230, 124.785049) rotate(-90.000000) translate(-12.166230, -124.785049) "></path>
                <polygon id="Fill-7" transform="translate(16.198304, 121.338523) rotate(-90.000000) translate(-16.198304, -121.338523) " points="14.091304 124.167023 13.528304 123.560023 17.553304 119.822023 15.975304 119.019023 16.524304 118.510023 18.780304 119.637023 18.868304 119.732023"></polygon>
                <path d="M21.2428532,117.94095 C21.6808532,117.39795 21.9248532,116.94095 21.9718532,116.56895 C22.0198532,116.19695 21.8788532,115.87795 21.5478532,115.61095 C21.2198532,115.34695 20.8808532,115.27695 20.5308532,115.40295 C20.1808532,115.52895 19.7968532,115.84695 19.3788532,116.35695 L18.5498532,117.38295 C18.1098532,117.92795 17.8638532,118.39495 17.8128532,118.78295 C17.7608532,119.16995 17.8958532,119.49495 18.2178532,119.75295 C18.5348532,120.00895 18.8678532,120.07595 19.2198532,119.95495 C19.5708532,119.83495 19.9628532,119.51295 20.3948532,118.99195 L21.2428532,117.94095 Z M21.1768532,119.33595 C20.5708532,120.08695 19.9918532,120.54195 19.4398532,120.69995 C18.8888532,120.85795 18.3408532,120.71695 17.7948532,120.27695 C17.2568532,119.84195 17.0018532,119.34195 17.0308532,118.77595 C17.0598532,118.20995 17.3568532,117.56795 17.9198532,116.85195 L18.6108532,115.99495 C19.2098532,115.25295 19.7828532,114.80495 20.3308532,114.65095 C20.8778532,114.49795 21.4258532,114.64195 21.9738532,115.08395 C22.5168532,115.52295 22.7768532,116.01895 22.7518532,116.57395 C22.7278532,117.12895 22.4268532,117.77295 21.8478532,118.50295 L21.1768532,119.33595 Z" id="Fill-9" transform="translate(19.891065, 117.677211) rotate(-90.000000) translate(-19.891065, -117.677211) "></path>
                <polygon id="Fill-11" transform="translate(22.983704, 113.189023) rotate(-90.000000) translate(-22.983704, -113.189023) " points="21.602704 116.236023 20.900704 115.796023 23.820704 111.142023 22.087704 110.776023 22.485704 110.142023 24.956704 110.646023 25.066704 110.715023"></polygon>
                <path d="M26.8438097,108.818668 C27.1558097,108.193668 27.2938097,107.694668 27.2608097,107.321668 C27.2278097,106.948668 27.0208097,106.667668 26.6408097,106.477668 C26.2628097,106.289668 25.9168097,106.295668 25.6028097,106.493668 C25.2878097,106.692668 24.9818097,107.085668 24.6818097,107.672668 L24.0948097,108.852668 C23.7818097,109.480668 23.6418097,109.989668 23.6758097,110.379668 C23.7088097,110.768668 23.9108097,111.055668 24.2798097,111.239668 C24.6438097,111.421668 24.9848097,111.414668 25.3018097,111.220668 C25.6188097,111.026668 25.9328097,110.629668 26.2428097,110.026668 L26.8438097,108.818668 Z M27.0798097,110.194668 C26.6498097,111.059668 26.1818097,111.627668 25.6778097,111.901668 C25.1738097,112.173668 24.6078097,112.154668 23.9798097,111.841668 C23.3608097,111.533668 23.0048097,111.099668 22.9108097,110.540668 C22.8178097,109.982668 22.9688097,109.291668 23.3648097,108.469668 L23.8548097,107.484668 C24.2798097,106.630668 24.7428097,106.070668 25.2448097,105.802668 C25.7468097,105.534668 26.3128097,105.557668 26.9428097,105.871668 C27.5678097,106.182668 27.9278097,106.611668 28.0238097,107.158668 C28.1198097,107.705668 27.9638097,108.399668 27.5558097,109.237668 L27.0798097,110.194668 Z" id="Fill-13" transform="translate(25.467735, 108.854798) rotate(-90.000000) translate(-25.467735, -108.854798) "></path>
                <polygon id="Fill-15" transform="translate(27.772104, 103.876323) rotate(-90.000000) translate(-27.772104, -103.876323) " points="26.944604 106.953323 26.175604 106.645323 28.217604 101.545323 26.448604 101.494323 26.726604 100.799323 29.248604 100.854323 29.368604 100.902323"></polygon>
                <path d="M30.7049389,98.9871859 C30.9199389,98.3221859 30.9829389,97.8081859 30.8949389,97.4451859 C30.8069389,97.0801859 30.5599389,96.8331859 30.1559389,96.7021859 C29.7549389,96.5721859 29.4129389,96.6291859 29.1319389,96.8721859 C28.8499389,97.1151859 28.6049389,97.5501859 28.3969389,98.1751859 L27.9909389,99.4301859 C27.7759389,100.097186 27.7129389,100.621186 27.8039389,101.001186 C27.8949389,101.382186 28.1369389,101.635186 28.5299389,101.762186 C28.9169389,101.888186 29.2529389,101.831186 29.5379389,101.592186 C29.8219389,101.353186 30.0729389,100.913186 30.2899389,100.271186 L30.7049389,98.9871859 Z M31.1429389,100.313186 C30.8459389,101.232186 30.4689389,101.863186 30.0109389,102.209186 C29.5529389,102.553186 28.9899389,102.618186 28.3229389,102.403186 C27.6639389,102.190186 27.2469389,101.814186 27.0719389,101.275186 C26.8959389,100.736186 26.9429389,100.030186 27.2119389,99.1601859 L27.5509389,98.1121859 C27.8439389,97.2051859 28.2189389,96.5821859 28.6749389,96.2421859 C29.1309389,95.9031859 29.6949389,95.8411859 30.3639389,96.0581859 C31.0289389,96.2721859 31.4489389,96.6431859 31.6249389,97.1701859 C31.8009389,97.6961859 31.7499389,98.4051859 31.4719389,99.2951859 L31.1429389,100.313186 Z" id="Fill-17" transform="translate(29.347490, 99.229272) rotate(-90.000000) translate(-29.347490, -99.229272) "></path>
                <polygon id="Fill-19" transform="translate(30.934004, 94.192523) rotate(-90.000000) translate(-30.934004, -94.192523) " points="30.7000041 97.3625233 29.8980041 97.1535233 31.2840041 91.8375234 29.5230041 92.0085234 29.7110041 91.2845234 32.2210041 91.0225234 32.3450041 91.0555234"></polygon>
                <path d="M33.2932531,88.8590257 C33.4362531,88.1760257 33.4432531,87.6580257 33.3172531,87.3050257 C33.1902531,86.9530257 32.9192531,86.7330257 32.5032531,86.6460257 C32.0902531,86.5600257 31.7572531,86.6530257 31.5032531,86.9240257 C31.2492531,87.1960257 31.0522531,87.6540257 30.9112531,88.2980257 L30.6422531,89.5890257 C30.4982531,90.2760257 30.4922531,90.8020257 30.6232531,91.1720257 C30.7542531,91.5400257 31.0212531,91.7670257 31.4252531,91.8510257 C31.8242531,91.9340257 32.1512531,91.8420257 32.4092531,91.5740257 C32.6672531,91.3060257 32.8702531,90.8420257 33.0172531,90.1810257 L33.2932531,88.8590257 Z M33.8692531,90.1310257 C33.6722531,91.0760257 33.3642531,91.7450257 32.9452531,92.1360257 C32.5262531,92.5280257 31.9742531,92.6530257 31.2882531,92.5090257 C30.6102531,92.3680257 30.1552531,92.0390257 29.9242531,91.5220257 C29.6922531,91.0050257 29.6642531,90.2980257 29.8382531,89.4030257 L30.0632531,88.3260257 C30.2582531,87.3920257 30.5642531,86.7330257 30.9822531,86.3470257 C31.3992531,85.9610257 31.9532531,85.8390257 32.6422531,85.9830257 C33.3252531,86.1260257 33.7822531,86.4500257 34.0142531,86.9550257 C34.2452531,87.4600257 34.2702531,88.1700257 34.0882531,89.0850257 L33.8692531,90.1310257 Z" id="Fill-21" transform="translate(31.967177, 89.245699) rotate(-90.000000) translate(-31.967177, -89.245699) "></path>
                <polygon id="Fill-23" transform="translate(32.999604, 84.317423) rotate(-90.000000) translate(-32.999604, -84.317423) " points="33.3021041 87.5439234 32.4841041 87.4089234 33.3771041 81.9889234 31.6381041 82.3209234 31.7591041 81.5829234 34.2331041 81.0909234 34.3611041 81.1119234"></polygon>
                <path d="M34.947095,78.5695271 C35.034095,77.8775271 35.001095,77.3605271 34.846095,77.0185271 C34.692095,76.6775271 34.404095,76.4805271 33.983095,76.4265271 C33.564095,76.3735271 33.239095,76.4925271 33.008095,76.7835271 C32.777095,77.0745271 32.617095,77.5475271 32.528095,78.2005271 L32.363095,79.5085271 C32.275095,80.2045271 32.310095,80.7305271 32.470095,81.0885271 C32.630095,81.4445271 32.915095,81.6495271 33.324095,81.7005271 C33.728095,81.7525271 34.048095,81.6335271 34.283095,81.3465271 C34.519095,81.0585271 34.683095,80.5795271 34.777095,79.9085271 L34.947095,78.5695271 Z M35.623095,79.7915271 C35.502095,80.7485271 35.248095,81.4405271 34.862095,81.8635271 C34.476095,82.2885271 33.935095,82.4565271 33.240095,82.3685271 C32.553095,82.2815271 32.074095,81.9895271 31.802095,81.4925271 C31.529095,80.9955271 31.444095,80.2945271 31.547095,79.3875271 L31.685095,78.2965271 C31.804095,77.3505271 32.057095,76.6685271 32.443095,76.2495271 C32.827095,75.8315271 33.369095,75.6665271 34.068095,75.7555271 C34.760095,75.8425271 35.242095,76.1285271 35.513095,76.6135271 C35.784095,77.0985271 35.865095,77.8035271 35.758095,78.7305271 L35.623095,79.7915271 Z" id="Fill-25" transform="translate(33.654248, 79.061671) rotate(-90.000000) translate(-33.654248, -79.061671) "></path>
                <polygon id="Fill-27" transform="translate(34.252904, 74.314723) rotate(-90.000000) translate(-34.252904, -74.314723) " points="34.9619041 77.5657234 34.1369041 77.4887234 34.6479041 72.0187234 32.9369041 72.4717234 33.0059041 71.7267234 35.4399041 71.0637234 35.5689041 71.0757234"></polygon>
                <path d="M35.868088,68.4281317 C35.916088,67.7321317 35.853088,67.2181317 35.680088,66.8861317 C35.506088,66.5531317 35.207088,66.3731317 34.784088,66.3441317 C34.362088,66.3151317 34.045088,66.4521317 33.830088,66.7561317 C33.616088,67.0601317 33.483088,67.5411317 33.432088,68.1981317 L33.342088,69.5141317 C33.293088,70.2131317 33.359088,70.7371317 33.539088,71.0841317 C33.720088,71.4311317 34.015088,71.6191317 34.428088,71.6471317 C34.833088,71.6751317 35.145088,71.5391317 35.364088,71.2381317 C35.583088,70.9381317 35.721088,70.4501317 35.776088,69.7751317 L35.868088,68.4281317 Z M36.613088,69.6091317 C36.547088,70.5731317 36.333088,71.2771317 35.972088,71.7221317 C35.611088,72.1681317 35.080088,72.3661317 34.382088,72.3191317 C33.691088,72.2711317 33.196088,72.0071317 32.895088,71.5271317 C32.595088,71.0461317 32.470088,70.3501317 32.520088,69.4401317 L32.596088,68.3421317 C32.661088,67.3901317 32.875088,66.6951317 33.235088,66.2551317 C33.596088,65.8161317 34.127088,65.6201317 34.829088,65.6681317 C35.526088,65.7161317 36.023088,65.9741317 36.322088,66.4431317 C36.620088,66.9111317 36.742088,67.6121317 36.686088,68.5431317 L36.613088,69.6091317 Z" id="Fill-29" transform="translate(34.604342, 68.993470) rotate(-90.000000) translate(-34.604342, -68.993470) "></path>
                <polygon id="Fill-31" transform="translate(34.986704, 64.219123) rotate(-90.000000) translate(-34.986704, -64.219123) " points="35.7642041 67.4731234 34.9382041 67.4051234 35.3852041 61.9301234 33.6792041 62.4031234 33.7402041 61.6571234 36.1652041 60.9651234 36.2942041 60.9761234"></polygon>
                <path d="M36.7440713,58.2012202 C36.8240713,57.5082202 36.7840713,56.9912202 36.6260713,56.6522202 C36.4680713,56.3122202 36.1780713,56.1182202 35.7560713,56.0692202 C35.3370713,56.0212202 35.0130713,56.1442202 34.7850713,56.4382202 C34.5570713,56.7312202 34.4020713,57.2052202 34.3210713,57.8602202 L34.1700713,59.1702202 C34.0900713,59.8672202 34.1320713,60.3922202 34.2960713,60.7472202 C34.4600713,61.1022202 34.7470713,61.3042202 35.1580713,61.3512202 C35.5610713,61.3972202 35.8800713,61.2752202 36.1120713,60.9852202 C36.3450713,60.6952202 36.5030713,60.2142202 36.5900713,59.5422202 L36.7440713,58.2012202 Z M37.4340713,59.4152202 C37.3240713,60.3742202 37.0780713,61.0682202 36.6970713,61.4962202 C36.3160713,61.9252202 35.7770713,62.0992202 35.0800713,62.0192202 C34.3930713,61.9402202 33.9110713,61.6542202 33.6320713,61.1602202 C33.3540713,60.6662202 33.2610713,59.9662202 33.3530713,59.0582202 L33.4790713,57.9652202 C33.5880713,57.0172202 33.8330713,56.3322202 34.2130713,55.9092202 C34.5940713,55.4872202 35.1340713,55.3162202 35.8330713,55.3962202 C36.5260713,55.4762202 37.0120713,55.7572202 37.2880713,56.2392202 C37.5640713,56.7212202 37.6540713,57.4252202 37.5560713,58.3522202 L37.4340713,59.4152202 Z" id="Fill-33" transform="translate(35.456589, 58.707605) rotate(-90.000000) translate(-35.456589, -58.707605) "></path>
                <polygon id="Fill-35" transform="translate(36.217204, 53.765823) rotate(-90.000000) translate(-36.217204, -53.765823) " points="36.5922041 56.9978234 35.7732041 56.8728234 36.5972041 51.4418234 34.8632041 51.7958234 34.9752041 51.0568234 37.4432041 50.5338234 37.5712041 50.5528234"></polygon>
                <path d="M38.3397967,48.0563278 C38.4717967,47.3703278 38.4717967,46.8523278 38.3397967,46.5023278 C38.2087967,46.1513278 37.9337967,45.9353278 37.5167967,45.8553278 C37.1027967,45.7753278 36.7707967,45.8733278 36.5207967,46.1483278 C36.2707967,46.4233278 36.0807967,46.8853278 35.9497967,47.5313278 L35.6997967,48.8263278 C35.5667967,49.5143278 35.5687967,50.0413278 35.7047967,50.4083278 C35.8407967,50.7753278 36.1117967,50.9973278 36.5177967,51.0753278 C36.9167967,51.1533278 37.2437967,51.0553278 37.4977967,50.7843278 C37.7507967,50.5123278 37.9457967,50.0453278 38.0837967,49.3813278 L38.3397967,48.0563278 Z M38.9347967,49.3193278 C38.7517967,50.2663278 38.4547967,50.9403278 38.0417967,51.3383278 C37.6287967,51.7373278 37.0777967,51.8693278 36.3897967,51.7363278 C35.7107967,51.6053278 35.2507967,51.2823278 35.0107967,50.7693278 C34.7717967,50.2553278 34.7327967,49.5493278 34.8937967,48.6523278 L35.1027967,47.5713278 C35.2827967,46.6353278 35.5797967,45.9713278 35.9907967,45.5783278 C36.4027967,45.1863278 36.9537967,45.0563278 37.6457967,45.1903278 C38.3307967,45.3233278 38.7927967,45.6393278 39.0317967,46.1413278 C39.2707967,46.6423278 39.3057967,47.3523278 39.1377967,48.2693278 L38.9347967,49.3193278 Z" id="Fill-37" transform="translate(37.019297, 48.462822) rotate(-90.000000) translate(-37.019297, -48.462822) "></path>
                <polygon id="Fill-39" transform="translate(38.247604, 43.351023) rotate(-90.000000) translate(-38.247604, -43.351023) " points="38.1291041 46.5355234 37.3231041 46.3425234 38.6041041 41.0005234 36.8461041 41.2065234 37.0201041 40.4785234 39.5241041 40.1665234 39.6491041 40.1975234"></polygon>
                <path d="M40.8053467,38.0608976 C41.0013467,37.3908976 41.0503467,36.8748976 40.9513467,36.5138976 C40.8523467,36.1518976 40.5993467,35.9118976 40.1923467,35.7918976 C39.7873467,35.6738976 39.4473467,35.7398976 39.1733467,35.9908976 C38.8983467,36.2418976 38.6653467,36.6828976 38.4743467,37.3138976 L38.1043467,38.5798976 C37.9083467,39.2518976 37.8603467,39.7778976 37.9613467,40.1558976 C38.0623467,40.5338976 38.3113467,40.7798976 38.7083467,40.8958976 C39.0983467,41.0108976 39.4323467,40.9438976 39.7113467,40.6978976 C39.9893467,40.4508976 40.2273467,40.0038976 40.4263467,39.3558976 L40.8053467,38.0608976 Z M41.2793467,39.3738976 C41.0083467,40.3008976 40.6483467,40.9418976 40.2003467,41.2998976 C39.7523467,41.6588976 39.1923467,41.7388976 38.5193467,41.5418976 C37.8543467,41.3478976 37.4273467,40.9828976 37.2373467,40.4498976 C37.0463467,39.9158976 37.0743467,39.2098976 37.3183467,38.3308976 L37.6273467,37.2748976 C37.8953467,36.3598976 38.2523467,35.7258976 38.6993467,35.3738976 C39.1453467,35.0218976 39.7063467,34.9448976 40.3823467,35.1428976 C41.0523467,35.3378976 41.4823467,35.6968976 41.6733467,36.2188976 C41.8643467,36.7408976 41.8333467,37.4498976 41.5793467,38.3478976 L41.2793467,39.3738976 Z" id="Fill-41" transform="translate(39.454338, 38.341432) rotate(-90.000000) translate(-39.454338, -38.341432) "></path>
                <polygon id="Fill-43" transform="translate(41.240404, 33.136323) rotate(-90.000000) translate(-41.240404, -33.136323) " points="40.5464041 36.2313234 39.7644041 35.9553234 41.5934041 30.7743234 39.8234041 30.7973234 40.0724041 30.0913234 42.5944041 30.0413234 42.7164041 30.0843234"></polygon>
                <path d="M44.3039869,28.3995034 C44.5759869,27.7565034 44.6839869,27.2505034 44.6279869,26.8795034 C44.5729869,26.5085034 44.3479869,26.2415034 43.9569869,26.0755034 C43.5689869,25.9115034 43.2239869,25.9375034 42.9229869,26.1545034 C42.6199869,26.3725034 42.3379869,26.7835034 42.0759869,27.3885034 L41.5619869,28.6025034 C41.2879869,29.2485034 41.1799869,29.7645034 41.2379869,30.1515034 C41.2939869,30.5385034 41.5129869,30.8125034 41.8929869,30.9735034 C42.2679869,31.1325034 42.6079869,31.1055034 42.9119869,30.8925034 C43.2169869,30.6795034 43.5049869,30.2625034 43.7779869,29.6425034 L44.3039869,28.3995034 Z M44.6229869,29.7585034 C44.2469869,30.6475034 43.8159869,31.2445034 43.3289869,31.5475034 C42.8419869,31.8515034 42.2769869,31.8665034 41.6309869,31.5935034 C40.9939869,31.3235034 40.6109869,30.9125034 40.4839869,30.3595034 C40.3569869,29.8075034 40.4649869,29.1095034 40.8099869,28.2645034 L41.2389869,27.2525034 C41.6099869,26.3735034 42.0379869,25.7855034 42.5229869,25.4875034 C43.0069869,25.1895034 43.5739869,25.1775034 44.2209869,25.4515034 C44.8639869,25.7245034 45.2499869,26.1305034 45.3799869,26.6705034 C45.5089869,27.2115034 45.3959869,27.9125034 45.0409869,28.7745034 L44.6229869,29.7585034 Z" id="Fill-45" transform="translate(42.932055, 28.521054) rotate(-90.000000) translate(-42.932055, -28.521054) "></path>
                <polygon id="Fill-47" transform="translate(45.266804, 23.522723) rotate(-90.000000) translate(-45.266804, -23.522723) " points="44.1638041 26.5972234 43.4248041 26.2232234 45.9068041 21.3222234 44.1488041 21.1162234 44.4868041 20.4482234 46.9938041 20.7242234 47.1088041 20.7832234"></polygon>
                <path d="M49.0518137,19.259781 C49.4138137,18.662781 49.5938137,18.176781 49.5918618,17.802781 C49.5888137,17.427781 49.4058137,17.130781 49.0438137,16.909781 C48.6818137,16.691781 48.3368137,16.668781 48.0078137,16.839781 C47.6768137,17.010781 47.3388137,17.377781 46.9918137,17.938781 L46.3088137,19.066781 C45.9458137,19.665781 45.7638137,20.160781 45.7648015,20.551781 C45.7658137,20.943781 45.9428137,21.245781 46.2958137,21.459781 C46.6438137,21.671781 46.9838137,21.692781 47.3158137,21.526781 C47.6478137,21.359781 47.9928137,20.988781 48.3518137,20.414781 L49.0518137,19.259781 Z M49.1718137,20.650781 C48.6718137,21.476781 48.1588137,22.004781 47.6338137,22.234781 C47.1088137,22.465781 46.5458137,22.398781 45.9468137,22.035781 C45.3548137,21.676781 45.0358137,21.214781 44.9898137,20.649781 C44.9428137,20.084781 45.1508137,19.409781 45.6128137,18.623781 L46.1828137,17.682781 C46.6768137,16.866781 47.1858137,16.346781 47.7078137,16.121781 C48.2298137,15.896781 48.7918137,15.966781 49.3948137,16.330781 C49.9908137,16.692781 50.3148137,17.150781 50.3648137,17.703781 C50.4148137,18.256781 50.2018137,18.933781 49.7258137,19.736781 L49.1718137,20.650781 Z" id="Fill-49" transform="translate(47.677629, 19.181107) rotate(-90.000000) translate(-47.677629, -19.181107) "></path>
                <polygon id="Fill-51" transform="translate(50.602304, 14.585223) rotate(-90.000000) translate(-50.602304, -14.585223) " points="49.0188041 17.5947234 48.3488041 17.1067234 51.5828041 12.6657234 49.8798041 12.1807234 50.3208041 11.5757234 52.7518041 12.2497234 52.8558041 12.3257234"></polygon>
                <path d="M55.2161353,11.0191374 C55.6771353,10.4961374 55.9411353,10.0501374 56.0051353,9.68013745 C56.0701353,9.31113745 55.9421353,8.98613745 55.6241353,8.70513745 C55.3081353,8.42613745 54.9721353,8.34213745 54.6171353,8.45313745 C54.2611353,8.56313745 53.8631353,8.86313745 53.4231353,9.35413745 L52.5501353,10.3421374 C52.0871353,10.8681374 51.8201353,11.3241374 51.7521353,11.7091374 C51.6831353,12.0941374 51.8041353,12.4231374 52.1131353,12.6961374 C52.4181353,12.9661374 52.7491353,13.0471374 53.1061353,12.9421374 C53.4621353,12.8371374 53.8681353,12.5331374 54.3221353,12.0321374 L55.2161353,11.0191374 Z M55.0881353,12.4101374 C54.4491353,13.1331374 53.8511353,13.5621374 53.2941353,13.6961374 C52.7361353,13.8301374 52.1941353,13.6651374 51.6681353,13.2011374 C51.1501353,12.7431374 50.9171353,12.2311374 50.9711353,11.6671374 C51.0261353,11.1031374 51.3501353,10.4751374 51.9451353,9.78413745 L52.6731353,8.95813745 C53.3031353,8.24413745 53.8961353,7.82213745 54.4491353,7.69313745 C55.0041353,7.56313745 55.5441353,7.73113745 56.0721353,8.19813745 C56.5951353,8.65913745 56.8331353,9.16713745 56.7841353,9.72013745 C56.7361353,10.2731374 56.4061353,10.9031374 55.7961353,11.6081374 L55.0881353,12.4101374 Z" id="Fill-53" transform="translate(53.876962, 10.695896) rotate(-90.000000) translate(-53.876962, -10.695896) "></path>
                <polygon id="Fill-55" transform="translate(57.457204, 6.723123) rotate(-90.000000) translate(-57.457204, -6.723123) " points="55.3412041 9.54662341 54.7792041 8.93762341 58.8202041 5.21462341 57.2452041 4.40662338 57.7962041 3.89962338 60.0482041 5.03562341 60.1352041 5.13062341"></polygon>
                <path d="M62.9057612,4.1530607 C63.4687612,3.7410607 63.8227612,3.3620607 63.9647612,3.0150607 C64.1067612,2.6690607 64.0517612,2.3240607 63.8017612,1.9810607 C63.5527612,1.6400607 63.2427612,1.4860607 62.8727612,1.5170607 C62.5017612,1.5490607 62.0487612,1.7570607 61.5127612,2.1410607 L60.4477612,2.9190607 C59.8817612,3.3330607 59.5237612,3.7200607 59.3737612,4.0810607 C59.2247612,4.4430607 59.2717612,4.7900607 59.5147612,5.12406072 C59.7547612,5.45206072 60.0597612,5.60306072 60.4307612,5.57706072 C60.8017612,5.55106072 61.2627612,5.34106072 61.8157612,4.9490607 L62.9057612,4.1530607 Z M62.4817612,5.48406072 C61.7017612,6.05306072 61.0257612,6.34306072 60.4517612,6.35306072 C59.8787612,6.36406072 59.3847612,6.08706072 58.9717612,5.52006072 C58.5637612,4.9620607 58.4467612,4.4120607 58.6207612,3.8730607 C58.7947612,3.3340607 59.2467612,2.7900607 59.9757612,2.2430607 L60.8647612,1.5930607 C61.6347612,1.0310607 62.3037612,0.747060701 62.8727612,0.739060701 C63.4407612,0.733060701 63.9337612,1.0130607 64.3487612,1.5820607 C64.7597612,2.1450607 64.8827612,2.6920607 64.7167612,3.2220607 C64.5497612,3.7520607 64.0927612,4.2960607 63.3447612,4.8530607 L62.4817612,5.48406072 Z" id="Fill-57" transform="translate(61.665514, 3.546171) rotate(-90.000000) translate(-61.665514, -3.546171) "></path>
            </g>
            <g id="Group-3" transform="translate(16.815285, 199.297379)" fill="#FFFFFF" fill-rule="nonzero">
                <path d="M4.98002157,36.0303558 C5.30102157,35.4103558 5.44702157,34.9133558 5.42002157,34.5393558 C5.39202157,34.1663558 5.18902157,33.8823558 4.81202157,33.6873558 C4.43802157,33.4933558 4.09202157,33.4933558 3.77402157,33.6873558 C3.45702157,33.8813558 3.14402157,34.2693558 2.83502157,34.8523558 L2.23002157,36.0233558 C1.90902157,36.6463558 1.76102157,37.1533558 1.78902157,37.5433558 C1.81602157,37.9333558 2.01302157,38.2233558 2.37902157,38.4123558 C2.74102157,38.5993558 3.08202157,38.5983558 3.40202157,38.4093558 C3.72202157,38.2203558 4.04202157,37.8273558 4.36002157,37.2303558 L4.98002157,36.0303558 Z M5.19502157,37.4103558 C4.75102157,38.2683558 4.27602157,38.8293558 3.76702157,39.0943558 C3.25902157,39.3603558 2.69302157,39.3323558 2.07102157,39.0103558 C1.45602157,38.6933558 1.10602157,38.2543558 1.02202157,37.6933558 C0.937021564,37.1333558 1.09802157,36.4453558 1.50602157,35.6293558 L2.01102157,34.6513558 C2.44902157,33.8043558 2.92102157,33.2513558 3.42702157,32.9903558 C3.93302157,32.7303558 4.49802157,32.7623558 5.12302157,33.0853558 C5.74302157,33.4053558 6.09702157,33.8403558 6.18502157,34.3883558 C6.27202157,34.9373558 6.10602157,35.6283558 5.68602157,36.4603558 L5.19502157,37.4103558 Z" id="Fill-63" transform="translate(3.603727, 36.045747) rotate(-90.000000) translate(-3.603727, -36.045747) "></path>
                <polygon id="Fill-65" transform="translate(6.265937, 31.263852) rotate(-90.000000) translate(-6.265937, -31.263852) " points="4.898937 34.3128523 4.194937 33.8758523 7.092937 29.2088523 5.358937 28.8508523 5.753937 28.2148523 8.227937 28.7078523 8.336937 28.7758523"></polygon>
                <path d="M10.4857964,27.3352332 C10.8967964,26.7712332 11.1157964,26.3012332 11.1447964,25.9282332 C11.1737964,25.5542332 11.0167964,25.2432332 10.6727964,24.9932332 C10.3317964,24.7452332 9.98979647,24.6932332 9.64679647,24.8362332 C9.30379647,24.9812332 8.93579647,25.3172332 8.54379647,25.8472332 L7.76879647,26.9142332 C7.35679647,27.4812332 7.13479647,27.9602332 7.10279647,28.3502332 C7.07079647,28.7392332 7.22179647,29.0562332 7.55579647,29.2982332 C7.88479647,29.5382332 8.22179647,29.5882332 8.56679647,29.4492332 C8.91179647,29.3112332 9.28679647,28.9702332 9.69279647,28.4282332 L10.4857964,27.3352332 Z M10.4897964,28.7322332 C9.92279647,29.5132332 9.36779647,29.9962332 8.82479647,30.1822332 C8.28279647,30.3682332 7.72779647,30.2552332 7.16079647,29.8432332 C6.60079647,29.4362332 6.32079647,28.9492332 6.32178817,28.3822332 C6.32178817,27.8152332 6.58579647,27.1602332 7.11179647,26.4152332 L7.75879647,25.5252332 C8.31879647,24.7532332 8.86879647,24.2772332 9.40779647,24.0962332 C9.94679647,23.9152332 10.5017964,24.0312332 11.0707964,24.4452332 C11.6357964,24.8562332 11.9207964,25.3382332 11.9239259,25.8942332 C11.9277964,26.4492332 11.6597964,27.1072332 11.1187964,27.8672332 L10.4897964,28.7322332 Z" id="Fill-67" transform="translate(9.122876, 27.141272) rotate(-90.000000) translate(-9.122876, -27.141272) "></path>
                <polygon id="Fill-69" transform="translate(12.320937, 22.813552) rotate(-90.000000) translate(-12.320937, -22.813552) " points="10.530937 25.7670523 9.89893701 25.2310523 13.447937 21.0390523 11.785937 20.4310523 12.269937 19.8600523 14.644937 20.7090523 14.742937 20.7930523"></polygon>
                <path d="M17.2270929,19.5480006 C17.7190929,19.0530006 18.0080929,18.6230006 18.0940929,18.2580006 C18.1800929,17.8940006 18.0730929,17.5620006 17.7710929,17.2620006 C17.4720929,16.9650006 17.1430929,16.8610006 16.7810929,16.9500006 C16.4200929,17.0390006 16.0050929,17.3160006 15.5370929,17.7790006 L14.6060929,18.7150006 C14.1120929,19.2120006 13.8200929,19.6510006 13.7280929,20.0310006 C13.6370929,20.4110006 13.7380929,20.7470006 14.0310929,21.0380006 C14.3190929,21.3250006 14.6440929,21.4260006 15.0070929,21.3420006 C15.3690929,21.2580006 15.7910929,20.9800006 16.2750929,20.5060006 L17.2270929,19.5480006 Z M17.0170929,20.9280006 C16.3360929,21.6130006 15.7140929,22.0060006 15.1490929,22.1060006 C14.5850929,22.2060006 14.0540929,22.0090006 13.5570929,21.5150006 C13.0650929,21.0270006 12.8640929,20.5030006 12.9520929,19.9440006 C13.0390929,19.3830006 13.4000929,18.7760006 14.0350929,18.1210006 L14.8100929,17.3400006 C15.4820929,16.6640006 16.0990929,16.2770006 16.6600929,16.1810006 C17.2200929,16.0860006 17.7500929,16.2860006 18.2490929,16.7810006 C18.7440929,17.2740006 18.9510929,17.7950006 18.8700929,18.3440006 C18.7890929,18.8930006 18.4220929,19.5020006 17.7710929,20.1700006 L17.0170929,20.9280006 Z" id="Fill-71" transform="translate(15.909591, 19.144654) rotate(-90.000000) translate(-15.909591, -19.144654) "></path>
                <polygon id="Fill-73" transform="translate(19.616237, 15.403052) rotate(-90.000000) translate(-19.616237, -15.403052) " points="17.396737 18.1730523 16.860737 17.5400523 21.054737 13.9910523 19.514737 13.1170523 20.085737 12.6330523 22.288737 13.8620523 22.371737 13.9610523"></polygon>
                <path d="M25.1648006,13.0017411 C25.7378006,12.6027411 26.0988006,12.2307411 26.2478006,11.8877411 C26.3978006,11.5447411 26.3518006,11.1987411 26.1088006,10.8497411 C25.8678006,10.5037411 25.5608006,10.3427411 25.1898006,10.3657411 C24.8188006,10.3897411 24.3608006,10.5877411 23.8168006,10.9597411 L22.7348006,11.7137411 C22.1598006,12.1147411 21.7938006,12.4947411 21.6358006,12.8527411 C21.4778006,13.2107411 21.5178006,13.5597411 21.7538006,13.8977411 C21.9868006,14.2317411 22.2888006,14.3897411 22.6598006,14.3717411 C23.0308006,14.3537411 23.4978006,14.1537411 24.0578006,13.7737411 L25.1648006,13.0017411 Z M24.7118006,14.3227411 C23.9198006,14.8747411 23.2378006,15.1497411 22.6638006,15.1477732 C22.0908006,15.1467411 21.6028006,14.8577411 21.2018006,14.2827411 C20.8058006,13.7147411 20.7018006,13.1637411 20.8878006,12.6277411 C21.0738006,12.0927411 21.5378006,11.5597411 22.2778006,11.0277411 L23.1808006,10.3987411 C23.9628006,9.85374111 24.6378006,9.58374111 25.2068006,9.58874111 C25.7758006,9.59374111 26.2618006,9.88474111 26.6638006,10.4627411 C27.0628006,11.0357411 27.1738006,11.5847411 26.9958006,12.1107411 C26.8178006,12.6367411 26.3488006,13.1697411 25.5888006,13.7107411 L24.7118006,14.3227411 Z" id="Fill-75" transform="translate(23.938224, 12.368228) rotate(-90.000000) translate(-23.938224, -12.368228) "></path>
                <polygon id="Fill-77" transform="translate(28.142537, 9.423352) rotate(-90.000000) translate(-28.142537, -9.423352) " points="25.497037 11.8818523 25.094037 11.1578523 29.893037 8.48385228 28.551037 7.32885228 29.205037 6.96485228 31.128037 8.59685228 31.191037 8.70985228"></polygon>
                <path d="M34.2480332,8.11203153 C34.8910332,7.84003153 35.3210332,7.55003153 35.5380332,7.24503153 C35.7550332,6.94003153 35.7810332,6.59203153 35.6150332,6.20103153 C35.4500332,5.81303153 35.1840332,5.59103153 34.8160332,5.53803153 C34.4480332,5.48503153 33.9590332,5.58403153 33.3500332,5.83603153 L32.1360332,6.35103153 C31.4910332,6.62503153 31.0540332,6.92103153 30.8260332,7.23903153 C30.5980332,7.55603153 30.5640332,7.90503153 30.7260332,8.28503153 C30.8850332,8.66003153 31.1470332,8.87703153 31.5150332,8.93603153 C31.8820332,8.99503153 32.3790332,8.89603153 33.0050332,8.64003153 L34.2480332,8.11203153 Z M33.5330332,9.31103153 C32.6440332,9.68903153 31.9190332,9.81703153 31.3580332,9.69603153 C30.7970332,9.57703153 30.3800332,9.19403153 30.1060332,8.54903153 C29.8360332,7.91103153 29.8470332,7.35003153 30.1400332,6.86403153 C30.4320332,6.37903153 30.9960332,5.95203153 31.8310332,5.58603153 L32.8430332,5.15503153 C33.7210332,4.78303153 34.4370332,4.65803153 34.9930332,4.78103153 C35.5480332,4.90303153 35.9630332,5.28803153 36.2380332,5.93703153 C36.5110332,6.57903153 36.5060332,7.13903153 36.2240332,7.61703153 C35.9410332,8.09503153 35.3720332,8.52103153 34.5170332,8.89403153 L33.5330332,9.31103153 Z" id="Fill-79" transform="translate(33.175395, 7.237690) rotate(-90.000000) translate(-33.175395, -7.237690) "></path>
                <polygon id="Fill-81" transform="translate(37.753837, 5.349052) rotate(-90.000000) translate(-37.753837, -5.349052) " points="34.749837 7.3490523 34.512837 6.5550523 39.775837 4.9800523 38.713837 3.5630523 39.431837 3.3490523 40.957837 5.3570523 40.994837 5.4810523"></polygon>
                <path d="M44.1603169,5.29858961 C44.8473169,5.17358961 45.3293169,4.98658961 45.6093169,4.73658961 C45.8883169,4.48658961 45.9893169,4.15258961 45.9133169,3.73558961 C45.8383169,3.31958961 45.6273169,3.04658961 45.2803169,2.91258961 C44.9323169,2.77958961 44.4343169,2.76858961 43.7853169,2.88058961 L42.4873169,3.11658961 C41.7973169,3.24158961 41.3063169,3.43458961 41.0143169,3.69458961 C40.7213169,3.95358961 40.6123169,4.28658961 40.6853169,4.69258961 C40.7583169,5.09358961 40.9673169,5.36258961 41.3123169,5.50058961 C41.6573169,5.63858961 42.1633169,5.65258961 42.8313169,5.53958961 L44.1603169,5.29858961 Z M43.1983169,6.31158961 C42.2483169,6.48358961 41.5133169,6.44858961 40.9923169,6.20858961 C40.4723169,5.96758961 40.1493169,5.50258961 40.0233169,4.81358961 C39.9003169,4.13258961 40.0343169,3.58758961 40.4263169,3.17758961 C40.8183169,2.76858961 41.4623169,2.47658961 42.3573169,2.30158961 L43.4403169,2.10558961 C44.3783169,1.93558961 45.1043169,1.97058961 45.6193169,2.21258961 C46.1343169,2.45458961 46.4543169,2.92158961 46.5803169,3.61358961 C46.7053169,4.30058961 46.5773169,4.84658961 46.1963169,5.25058961 C45.8153169,5.65458961 45.1663169,5.94458961 44.2503169,6.11958961 L43.1983169,6.31158961 Z" id="Fill-83" transform="translate(43.302908, 4.209461) rotate(-90.000000) translate(-43.302908, -4.209461) "></path>
            </g>
            <g id="Group-4" transform="translate(16.111722, 133.954031)">
                <path d="M43.9173284,33.0909708 C43.2393284,32.9269708 42.7223284,32.9039708 42.3653284,33.0189708 C42.0093284,33.1349708 41.7803284,33.3999708 41.6823284,33.8119708 C41.5833284,34.2219708 41.6653284,34.5589708 41.9293284,34.8199708 C42.1923284,35.0829708 42.6443284,35.2939708 43.2833284,35.4539708 L44.5663284,35.7629708 C45.2483284,35.9269708 45.7743284,35.9499708 46.1463284,35.8299708 C46.5203284,35.7109708 46.7543284,35.4499708 46.8513284,35.0489708 C46.9463284,34.6529708 46.8643284,34.3219708 46.6043284,34.0569708 C46.3453284,33.7909708 45.8863284,33.5739708 45.2293284,33.4069708 L43.9173284,33.0909708 Z M45.2073284,32.5539708 C46.1453284,32.7799708 46.8043284,33.1079708 47.1833284,33.5389708 C47.5623284,33.9689708 47.6693284,34.5249708 47.5053284,35.2069708 C47.3433284,35.8789708 46.9993284,36.3239708 46.4763284,36.5399708 C45.9513284,36.7559708 45.2453284,36.7619708 44.3553284,36.5609708 L43.2853284,36.3019708 C42.3583284,36.0789708 41.7083284,35.7529708 41.3353284,35.3239708 C40.9623284,34.8949708 40.8583284,34.3379708 41.0233284,33.6539708 C41.1873284,32.9749708 41.5233284,32.5279708 42.0363284,32.3119708 C42.5483284,32.0959708 43.2583284,32.0929708 44.1673284,32.3029708 L45.2073284,32.5539708 Z" id="Fill-85" fill="#FFFFFF" fill-rule="nonzero" transform="translate(44.263579, 34.427349) rotate(-90.000000) translate(-44.263579, -34.427349) "></path>
                <polygon id="Fill-87" fill="#FFFFFF" fill-rule="nonzero" transform="translate(39.699888, 33.212694) rotate(90.000000) translate(-39.699888, -33.212694) " points="42.8098878 33.8486939 42.5458878 34.6346939 37.3378878 32.8836939 37.3868878 34.6536939 36.6778878 34.4156939 36.5898878 31.8946939 36.6308878 31.7716939"></polygon>
                <path d="M34.1717976,29.7022116 C33.5317976,29.4232116 33.0267976,29.3092116 32.6557976,29.3612116 C32.2847976,29.4132116 32.0147976,29.6332116 31.8447976,30.0232116 C31.6767976,30.4092116 31.6977976,30.7552116 31.9117976,31.0582116 C32.1257976,31.3632116 32.5337976,31.6492116 33.1367976,31.9182116 L34.3447976,32.4462116 C34.9867976,32.7272116 35.5027976,32.8402116 35.8907976,32.7882116 C36.2777976,32.7352116 36.5537976,32.5192116 36.7197976,32.1412116 C36.8817976,31.7682116 36.8597976,31.4282116 36.6497976,31.1212116 C36.4407976,30.8142116 36.0257976,30.5212116 35.4097976,30.2422116 L34.1717976,29.7022116 Z M35.5347976,29.3972116 C36.4197976,29.7842116 37.0117976,30.2222116 37.3097976,30.7122116 C37.6087976,31.2012116 37.6157976,31.7672116 37.3367976,32.4102116 C37.0597976,33.0442116 36.6447976,33.4222116 36.0907976,33.5432116 C35.5357976,33.6642116 34.8397976,33.5482116 33.9987976,33.1952116 L32.9897976,32.7542116 C32.1157976,32.3732116 31.5337976,31.9382116 31.2397976,31.4512116 C30.9477976,30.9632116 30.9427976,30.3972116 31.2237976,29.7522116 C31.5037976,29.1122116 31.9127976,28.7312116 32.4547976,28.6072116 C32.9967976,28.4842116 33.6957976,28.6042116 34.5557976,28.9702116 L35.5347976,29.3972116 Z" id="Fill-89" fill="#FFFFFF" fill-rule="nonzero" transform="translate(34.278543, 31.075055) rotate(-90.000000) translate(-34.278543, -31.075055) "></path>
                <polygon id="Fill-91" fill="#FFFFFF" fill-rule="nonzero" transform="translate(29.841554, 28.703415) rotate(90.000000) translate(-29.841554, -28.703415) " points="32.9100538 29.8979151 32.5140538 30.6259151 27.6890538 27.9979151 27.4310538 29.7499151 26.7730538 29.3919151 27.1240538 26.8939151 27.1850538 26.7809151"></polygon>
                <path d="M25.1786524,24.677178 C24.5966524,24.291178 24.1186524,24.092178 23.7436524,24.078178 C23.3686524,24.066178 23.0646524,24.236178 22.8296524,24.590178 C22.5966524,24.942178 22.5596524,25.285178 22.7176524,25.622178 C22.8756524,25.959178 23.2286524,26.312178 23.7756524,26.681178 L24.8736524,27.410178 C25.4576524,27.798178 25.9456524,27.998178 26.3366524,28.013178 C26.7276524,28.029178 27.0366524,27.864178 27.2656524,27.520178 C27.4906524,27.181178 27.5256524,26.842178 27.3716524,26.504178 C27.2186524,26.165178 26.8626524,25.804178 26.3036524,25.423178 L25.1786524,24.677178 Z M26.5736524,24.613178 C27.3776524,25.146178 27.8846524,25.680178 28.0926524,26.215178 C28.3026524,26.749178 28.2136524,27.308178 27.8256524,27.892178 C27.4436524,28.469178 26.9686524,28.769178 26.4036524,28.792178 C25.8356524,28.816178 25.1696524,28.581178 24.4036524,28.087178 L23.4866524,27.479178 C22.6916524,26.952178 22.1926524,26.423178 21.9886524,25.892178 C21.7836524,25.361178 21.8766524,24.802178 22.2656524,24.216178 C22.6516524,23.634178 23.1216524,23.329178 23.6766524,23.302178 C24.2316524,23.274178 24.8996524,23.514178 25.6816524,24.022178 L26.5736524,24.613178 Z" id="Fill-93" fill="#FFFFFF" fill-rule="nonzero" transform="translate(25.043037, 26.046915) rotate(-90.000000) translate(-25.043037, -26.046915) "></path>
                <polygon id="Fill-95" fill="#FFFFFF" fill-rule="nonzero" transform="translate(21.149000, 22.956136) rotate(90.000000) translate(-21.149000, -22.956136) " points="24.1284998 24.658136 23.6124998 25.307136 19.3114998 21.891136 18.7554998 23.573136 18.1694998 23.108136 18.9424998 20.706136 19.0234998 20.605136"></polygon>
                <path d="M17.1905206,18.1999322 C16.6815206,17.7219322 16.2435206,17.4449322 15.8775206,17.3689322 C15.5095206,17.2939322 15.1805206,17.4109322 14.8895206,17.7209322 C14.6005206,18.0279322 14.5065206,18.3609322 14.6065206,18.7189322 C14.7055206,19.0779322 14.9945206,19.4849322 15.4705206,19.9399322 L16.4305206,20.8429322 C16.9425206,21.3239322 17.3885206,21.6029322 17.7725206,21.6839322 C18.1555206,21.7639322 18.4875206,21.6539322 18.7705206,21.3529322 C19.0485206,21.0559322 19.1405206,20.7279322 19.0465206,20.3689322 C18.9535206,20.0099322 18.6615206,19.5949322 18.1735206,19.1239322 L17.1905206,18.1999322 Z M18.5765206,18.3709322 C19.2805206,19.0319322 19.6895206,19.6429322 19.8055206,20.2039322 C19.9225206,20.7659322 19.7405206,21.3029322 19.2605206,21.8129322 C18.7875206,22.3179322 18.2685206,22.5339322 17.7075206,22.4629322 C17.1445206,22.3909322 16.5275206,22.0469322 15.8535206,21.4319322 L15.0515206,20.6789322 C14.3565206,20.0249322 13.9535206,19.4199322 13.8415206,18.8629322 C13.7295206,18.3049322 13.9155206,17.7699322 14.3955206,17.2569322 C14.8745206,16.7479322 15.3885206,16.5269322 15.9405206,16.5929322 C16.4925206,16.6579322 17.1115206,17.0069322 17.7955206,17.6389322 L18.5765206,18.3709322 Z" id="Fill-97" fill="#FFFFFF" fill-rule="nonzero" transform="translate(16.824894, 19.528826) rotate(-90.000000) translate(-16.824894, -19.528826) "></path>
                <polygon id="Fill-99" fill="#FFFFFF" fill-rule="nonzero" transform="translate(13.239264, 15.923759) rotate(90.000000) translate(-13.239264, -15.923759) " points="16.0537641 18.0592591 15.4397641 18.6162591 11.7487641 14.5472591 10.9277641 16.1152591 10.4247641 15.5612591 11.5777641 13.3182591 11.6737641 13.2312591"></polygon>
                <path d="M10.3456064,10.5116384 C9.91660636,9.96063848 9.52760636,9.61863848 9.17660636,9.48763848 C8.82560636,9.35563848 8.48360636,9.41963848 8.14860636,9.67963848 C7.81460636,9.93863848 7.66960636,10.2536384 7.71160636,10.6226384 C7.75360636,10.9916384 7.97560636,11.4386384 8.37460636,11.9636384 L9.18460636,13.0046384 C9.61460636,13.5576384 10.0126064,13.9046384 10.3776064,14.0436384 C10.7436064,14.1826384 11.0896064,14.1256384 11.4156064,13.8726384 C11.7376064,13.6226384 11.8786064,13.3126384 11.8426064,12.9426384 C11.8046064,12.5736384 11.5816064,12.1176384 11.1726064,11.5776384 L10.3456064,10.5116384 Z M11.6886064,10.8956384 C12.2806064,11.6586384 12.5896064,12.3256384 12.6166064,12.8986384 C12.6456064,13.4716384 12.3826064,13.9736384 11.8286064,14.4036384 C11.2826064,14.8276384 10.7366064,14.9616384 10.1926064,14.8036384 C9.64860636,14.6446384 9.09160636,14.2086384 8.52360636,13.4966384 L7.84760636,12.6276384 C7.26260636,11.8746384 6.95760636,11.2136384 6.93460636,10.6456384 C6.90960636,10.0776384 7.17660636,9.57663848 7.73160636,9.14563848 C8.28260636,8.71763848 8.82560636,8.57863848 9.36060636,8.72863848 C9.89560636,8.87963848 10.4516064,9.32063848 11.0316064,10.0516384 L11.6886064,10.8956384 Z" id="Fill-101" fill="#FFFFFF" fill-rule="nonzero" transform="translate(9.775884, 11.769023) rotate(-90.000000) translate(-9.775884, -11.769023) "></path>
                <polygon id="Fill-103" fill="#FFFFFF" fill-rule="nonzero" transform="translate(6.835884, 7.698816) rotate(90.000000) translate(-6.835884, -7.698816) " points="9.43538417 10.1788162 8.74638417 10.6388162 5.69438418 6.07181629 4.65138418 7.50181629 4.23638418 6.87981629 5.70638418 4.83081629 5.81438418 4.75881629"></polygon>
                <g id="Group-107" transform="translate(4.000000, 3.000000) rotate(-90.000000) translate(-4.000000, -3.000000) translate(1.000000, -1.000000)">
                    <g id="Fill-105-Clipped">
                        <g>
                            <mask id="mask-2" fill="white">
                                <use xlink:href="#path-1"></use>
                            </mask>
                            <g id="path-1"></g>
                            <path d="M3.6757,2.7831 C3.3267,2.1781 2.9887,1.7861 2.6597,1.6071 C2.3307,1.4281 1.9817,1.4451 1.6127,1.6561 C1.2477,1.8671 1.0617,2.1581 1.0527,2.5291 C1.0427,2.9011 1.2007,3.3741 1.5247,3.9491 L2.1827,5.0921 C2.5307,5.7001 2.8777,6.0971 3.2217,6.2861 C3.5647,6.4741 3.9137,6.4651 4.2727,6.2591 C4.6247,6.0561 4.8087,5.7691 4.8217,5.3971 C4.8367,5.0261 4.6787,4.5451 4.3497,3.9531 L3.6757,2.7831 Z M4.9517,3.3491 C5.4337,4.1861 5.6487,4.8901 5.5967,5.4611 C5.5447,6.0321 5.2157,6.4921 4.6077,6.8421 C4.0077,7.1871 3.4487,7.2441 2.9327,7.0121 C2.4147,6.7801 1.9237,6.2721 1.4587,5.4881 L0.9097,4.5341 C0.4347,3.7071 0.2247,3.0111 0.2797,2.4451 C0.3327,1.8791 0.6657,1.4201 1.2767,1.0691 C1.8807,0.7211 2.4377,0.6581 2.9467,0.8821 C3.4547,1.1051 3.9467,1.6181 4.4187,2.4221 L4.9517,3.3491 Z" id="Fill-105" fill="#FFFFFF" fill-rule="nonzero" mask="url(#mask-2)"></path>
                        </g>
                    </g>
                </g>
            </g>
            <g id="Group" transform="translate(42.000000, 71.000000) rotate(-8.000000) translate(-42.000000, -71.000000) translate(9.000000, 4.000000)">
                <path d="M63.0509246,128.812889 C62.4949246,128.390889 62.0309246,128.160889 61.6579246,128.123889 C61.2859246,128.085889 60.9709246,128.236889 60.7139246,128.574889 C60.4579246,128.909889 60.3989246,129.250889 60.5339246,129.596889 C60.6709246,129.942889 60.9989246,130.318889 61.5209246,130.721889 L62.5699246,131.520889 C63.1279246,131.944889 63.6019246,132.176889 63.9899246,132.217889 C64.3799246,132.257889 64.6989246,132.113889 64.9489246,131.784889 C65.1969246,131.461889 65.2529246,131.125889 65.1219246,130.777889 C64.9909246,130.429889 64.6589246,130.047889 64.1259246,129.630889 L63.0509246,128.812889 Z M64.4469246,128.839889 C65.2159246,129.423889 65.6869246,129.989889 65.8609246,130.535889 C66.0339246,131.082889 65.9089246,131.634889 65.4849246,132.192889 C65.0659246,132.743889 64.5729246,133.012889 64.0059246,132.999889 C63.4399246,132.985889 62.7899246,132.708889 62.0569246,132.165889 L61.1809246,131.499889 C60.4219246,130.921889 59.9579246,130.361889 59.7889246,129.819889 C59.6189246,129.275889 59.7479246,128.724889 60.1749246,128.164889 C60.5969246,127.608889 61.0859246,127.334889 61.6419246,127.343889 C62.1969246,127.351889 62.8489246,127.634889 63.5969246,128.191889 L64.4469246,128.839889 Z" id="Fill-112" fill="#FFFFFF" fill-rule="nonzero" transform="translate(62.826317, 130.172007) rotate(-90.000000) translate(-62.826317, -130.172007) "></path>
                <polygon id="Fill-114" fill="#FFFFFF" fill-rule="nonzero" transform="translate(58.994430, 126.849447) rotate(90.000000) translate(-58.994430, -126.849447) " points="61.89243 128.796947 61.32143 129.396947 57.34243 125.608947 56.63843 127.233947 56.09643 126.716947 57.08243 124.395947 57.17143 124.301947"></polygon>
                <path d="M55.6627241,121.611638 C55.2077241,121.081638 54.8017241,120.759638 54.4447241,120.644638 C54.0887241,120.529638 53.7487241,120.610638 53.4267241,120.887638 C53.1067241,121.161638 52.9757241,121.482638 53.0367241,121.849638 C53.0977241,122.216638 53.3407241,122.652638 53.7647241,123.156638 L54.6237241,124.157638 C55.0797241,124.690638 55.4937241,125.016638 55.8657241,125.137638 C56.2367241,125.258638 56.5797241,125.184638 56.8937241,124.916638 C57.2017241,124.651638 57.3297241,124.335638 57.2737241,123.967638 C57.2197241,123.600638 56.9747241,123.156638 56.5407241,122.636638 L55.6627241,121.611638 Z M57.0207241,121.930638 C57.6487241,122.663638 57.9917241,123.315638 58.0467241,123.885638 C58.1017241,124.456638 57.8627241,124.970638 57.3317241,125.426638 C56.8067241,125.877638 56.2677241,126.036638 55.7167241,125.904638 C55.1647241,125.773638 54.5887241,125.365638 53.9857241,124.680638 L53.2697241,123.845638 C52.6487241,123.121638 52.3127241,122.476638 52.2617241,121.910638 C52.2107241,121.343638 52.4517241,120.831638 52.9847241,120.373638 C53.5157241,119.918638 54.0517241,119.753638 54.5927241,119.878638 C55.1337241,120.003638 55.7117241,120.416638 56.3247241,121.118638 L57.0207241,121.930638 Z" id="Fill-116" fill="#FFFFFF" fill-rule="nonzero" transform="translate(55.154743, 122.893881) rotate(-90.000000) translate(-55.154743, -122.893881) "></path>
                <polygon id="Fill-118" fill="#FFFFFF" fill-rule="nonzero" transform="translate(52.089800, 119.048863) rotate(90.000000) translate(-52.089800, -119.048863) " points="54.7343 121.467863 54.0583 121.946863 50.8803 117.465863 49.8783 118.924863 49.4453 118.313863 50.8593 116.224863 50.9643 116.150863"></polygon>
                <path d="M49.7778572,113.132087 C49.4238572,112.531087 49.0798572,112.143087 48.7488572,111.967087 C48.4178572,111.792087 48.0698572,111.812087 47.7038572,112.028087 C47.3398572,112.242087 47.1558572,112.535087 47.1508572,112.907087 C47.1458572,113.279087 47.3078572,113.750087 47.6388572,114.321087 L48.3078572,115.457087 C48.6648572,116.061087 49.0148572,116.455087 49.3608572,116.639087 C49.7058572,116.824087 50.0548572,116.811087 50.4118572,116.602087 C50.7608572,116.395087 50.9418572,116.106087 50.9518572,115.734087 C50.9628572,115.362087 50.7988572,114.882087 50.4628572,114.295087 L49.7778572,113.132087 Z M51.0598572,113.684087 C51.5498572,114.516087 51.7728572,115.217087 51.7268572,115.789087 C51.6818572,116.361087 51.3568572,116.825087 50.7538572,117.181087 C50.1568572,117.532087 49.5978572,117.595087 49.0788572,117.369087 C48.5588572,117.142087 48.0628572,116.640087 47.5898572,115.860087 L47.0308572,114.913087 C46.5468572,114.091087 46.3288572,113.397087 46.3778572,112.831087 C46.4248572,112.264087 46.7538572,111.802087 47.3588572,111.444087 C47.9608572,111.090087 48.5168572,111.021087 49.0278572,111.238087 C49.5388572,111.457087 50.0348572,111.965087 50.5158572,112.763087 L51.0598572,113.684087 Z" id="Fill-120" fill="#FFFFFF" fill-rule="nonzero" transform="translate(49.051935, 114.308122) rotate(-90.000000) translate(-49.051935, -114.308122) "></path>
                <polygon id="Fill-122" fill="#FFFFFF" fill-rule="nonzero" transform="translate(46.598434, 109.780021) rotate(90.000000) translate(-46.598434, -109.780021) " points="48.959434 112.521021 48.216434 112.887021 45.789434 107.959021 44.567434 109.240021 44.237434 108.569021 45.964434 106.730021 46.081434 106.673021"></polygon>
                <path d="M45.3109472,103.871139 C45.0459472,103.225139 44.7619472,102.792139 44.4599472,102.571139 C44.1569472,102.350139 43.8099472,102.320139 43.4159472,102.481139 C43.0269472,102.642139 42.8019472,102.905139 42.7439472,103.273139 C42.6859472,103.640139 42.7799472,104.130139 43.0249472,104.742139 L43.5249472,105.962139 C43.7909472,106.611139 44.0819472,107.051139 44.3969472,107.283139 C44.7119472,107.515139 45.0609472,107.552139 45.4429472,107.395139 C45.8189472,107.241139 46.0399472,106.980139 46.1019472,106.614139 C46.1649472,106.248139 46.0729472,105.750139 45.8239472,105.120139 L45.3109472,103.871139 Z M46.5009472,104.601139 C46.8679472,105.494139 46.9879472,106.221139 46.8619472,106.780139 C46.7339472,107.339139 46.3459472,107.752139 45.6979472,108.018139 C45.0579472,108.281139 44.4969472,108.263139 44.0139472,107.965139 C43.5329472,107.666139 43.1129472,107.098139 42.7559472,106.259139 L42.3379472,105.241139 C41.9769472,104.358139 41.8599472,103.641139 41.9889472,103.086139 C42.1189472,102.533139 42.5069472,102.122139 43.1589472,101.855139 C43.8049472,101.590139 44.3659472,101.601139 44.8389472,101.890139 C45.3149472,102.179139 45.7339472,102.752139 46.0959472,103.612139 L46.5009472,104.601139 Z" id="Fill-124" fill="#FFFFFF" fill-rule="nonzero" transform="translate(44.424255, 104.933693) rotate(-90.000000) translate(-44.424255, -104.933693) "></path>
                <polygon id="Fill-126" fill="#FFFFFF" fill-rule="nonzero" transform="translate(42.521590, 100.124410) rotate(90.000000) translate(-42.521590, -100.124410) " points="44.60809 103.07641 43.82309 103.34341 42.05209 98.1424103 40.67609 99.2564103 40.43509 98.5484103 42.38409 96.9474103 42.50609 96.9054103"></polygon>
                <path d="M42.0622041,94.1227463 C41.8742041,93.4507463 41.6422041,92.9867463 41.3682041,92.7327463 C41.0922041,92.4777463 40.7502041,92.4077463 40.3412041,92.5227463 C39.9352041,92.6367463 39.6822041,92.8727463 39.5822041,93.2307463 C39.4822041,93.5887463 39.5172041,94.0857463 39.6892041,94.7227463 L40.0452041,95.9927463 C40.2352041,96.6667463 40.4722041,97.1387463 40.7582041,97.4057463 C41.0442041,97.6717463 41.3862041,97.7497463 41.7842041,97.6387463 C42.1752041,97.5287463 42.4242041,97.2957463 42.5292041,96.9387463 C42.6342041,96.5827463 42.6002041,96.0767463 42.4262041,95.4227463 L42.0622041,94.1227463 Z M43.1602041,94.9857463 C43.4202041,95.9147463 43.4552041,96.6507463 43.2642041,97.1917463 C43.0742041,97.7317463 42.6402041,98.0977463 41.9652041,98.2867463 C41.2982041,98.4737463 40.7442041,98.3907463 40.2992041,98.0387463 C39.8552041,97.6857463 39.5042041,97.0727463 39.2482041,96.1977463 L38.9512041,95.1377463 C38.6932041,94.2197463 38.6602041,93.4937463 38.8532041,92.9577463 C39.0452041,92.4227463 39.4812041,92.0607463 40.1592041,91.8707463 C40.8312041,91.6827463 41.3862041,91.7587463 41.8242041,92.1007463 C42.2622041,92.4417463 42.6112041,93.0607463 42.8722041,93.9557463 L43.1602041,94.9857463 Z" id="Fill-128" fill="#FFFFFF" fill-rule="nonzero" transform="translate(41.057429, 95.077176) rotate(-90.000000) translate(-41.057429, -95.077176) "></path>
                <polygon id="Fill-130" fill="#FFFFFF" fill-rule="nonzero" transform="translate(39.632514, 90.079900) rotate(90.000000) translate(-39.632514, -90.079900) " points="41.471014 93.1658997 40.663014 93.3498997 39.446014 87.9928997 37.960014 88.9558997 37.794014 88.2268997 39.902014 86.8378997 40.027014 86.8098997"></polygon>
                <path d="M39.8316595,84.0730761 C39.7076595,83.3860761 39.5216595,82.9030761 39.2706595,82.6240761 C39.0216595,82.3440761 38.6876595,82.2420761 38.2706595,82.3180761 C37.8546595,82.3920761 37.5806595,82.6040761 37.4466595,82.9500761 C37.3136595,83.2980761 37.3036595,83.7960761 37.4146595,84.4460761 L37.6476595,85.7440761 C37.7716595,86.4340761 37.9656595,86.9250761 38.2246595,87.2180761 C38.4836595,87.5110761 38.8166595,87.6200761 39.2236595,87.5470761 C39.6236595,87.4750761 39.8936595,87.2660761 40.0316595,86.9210761 C40.1696595,86.5760761 40.1846595,86.0700761 40.0716595,85.4020761 L39.8316595,84.0730761 Z M40.8436595,85.0360761 C41.0156595,85.9860761 40.9796595,86.7210761 40.7386595,87.2410761 C40.4976595,87.7620761 40.0316595,88.0840761 39.3426595,88.2090761 C38.6616595,88.3320761 38.1166595,88.1970761 37.7076595,87.8040761 C37.2986595,87.4120761 37.0076595,86.7680761 36.8346595,85.8730761 L36.6386595,84.7900761 C36.4696595,83.8510761 36.5056595,83.1250761 36.7476595,82.6100761 C36.9886595,82.0960761 37.4566595,81.7760761 38.1496595,81.6510761 C38.8366595,81.5270761 39.3816595,81.6560761 39.7866595,82.0370761 C40.1896595,82.4190761 40.4786595,83.0670761 40.6526595,83.9840761 L40.8436595,85.0360761 Z" id="Fill-132" fill="#FFFFFF" fill-rule="nonzero" transform="translate(38.742392, 84.929268) rotate(-90.000000) translate(-38.742392, -84.929268) "></path>
                <polygon id="Fill-134" fill="#FFFFFF" fill-rule="nonzero" transform="translate(37.916772, 79.681820) rotate(90.000000) translate(-37.916772, -79.681820) " points="39.5372721 82.8533199 38.7172721 82.9673199 37.9612721 77.5253199 36.3982721 78.3593199 36.2962721 77.6173199 38.5132721 76.4153199 38.6402721 76.3963199"></polygon>
                <path d="M38.4641951,73.9065991 C38.3941951,73.2125991 38.2451951,72.7165991 38.0181951,72.4185991 C37.7901951,72.1205991 37.4651951,71.9925991 37.0431951,72.0355991 C36.6231951,72.0785991 36.3331951,72.2675991 36.1731951,72.6035991 C36.0141951,72.9395991 35.9641951,73.4355991 36.0251951,74.0925991 L36.1581951,75.4045991 C36.2301951,76.1015991 36.3831951,76.6065991 36.6181951,76.9175991 C36.8551951,77.2295991 37.1781951,77.3645991 37.5891951,77.3235991 C37.9931951,77.2815991 38.2781951,77.0945991 38.4431951,76.7615991 C38.6091951,76.4285991 38.6601951,75.9245991 38.6021951,75.2495991 L38.4641951,73.9065991 Z M39.3991951,74.9445991 C39.4961951,75.9055991 39.4041951,76.6355991 39.1241951,77.1355991 C38.8441951,77.6355991 38.3551951,77.9215991 37.6561951,77.9925991 C36.9691951,78.0625991 36.4361951,77.8855991 36.0581951,77.4625991 C35.6811951,77.0395991 35.4401951,76.3755991 35.3361951,75.4695991 L35.2251951,74.3745991 C35.1291951,73.4265991 35.2211951,72.7045991 35.5021951,72.2105991 C35.7821951,71.7165991 36.2741951,71.4335991 36.9741951,71.3625991 C37.6681951,71.2915991 38.2031951,71.4615991 38.5751951,71.8735991 C38.9481951,72.2845991 39.1871951,72.9535991 39.2901951,73.8815991 L39.3991951,74.9445991 Z" id="Fill-136" fill="#FFFFFF" fill-rule="nonzero" transform="translate(37.312498, 74.677198) rotate(-90.000000) translate(-37.312498, -74.677198) "></path>
                <polygon id="Fill-138" fill="#FFFFFF" fill-rule="nonzero" transform="translate(36.828022, 69.564715) rotate(90.000000) translate(-36.828022, -69.564715) " points="38.279022 72.7842149 37.452022 72.8452149 37.044022 67.3672149 35.432022 68.0992149 35.377022 67.3532149 37.665022 66.2932149 37.795022 66.2842149"></polygon>
                <path d="M37.66568,63.7198972 C37.60368,63.0248972 37.46268,62.5268972 37.23868,62.2258972 C37.01668,61.9248972 36.69168,61.7928972 36.26968,61.8298972 C35.84968,61.8668972 35.55768,62.0528972 35.39268,62.3858972 C35.22768,62.7198972 35.17168,63.2148972 35.22368,63.8718972 L35.33868,65.1858972 C35.39968,65.8838972 35.54668,66.3908972 35.77868,66.7058972 C36.01068,67.0208972 36.33268,67.1598972 36.74368,67.1238972 C37.14868,67.0888972 37.43668,66.9048972 37.60568,66.5738972 C37.77468,66.2428972 37.83368,65.7398972 37.78368,65.0648972 L37.66568,63.7198972 Z M38.58568,64.7708972 C38.66968,65.7328972 38.56768,66.4608972 38.28068,66.9578972 C37.99368,67.4538972 37.50068,67.7328972 36.80368,67.7948972 C36.11268,67.8548972 35.58268,67.6718972 35.21168,67.2428972 C34.83968,66.8148972 34.60768,66.1478972 34.51668,65.2398972 L34.42068,64.1438972 C34.33668,63.1938972 34.43868,62.4738972 34.72768,61.9838972 C35.01468,61.4928972 35.50968,61.2168972 36.21068,61.1558972 C36.90568,61.0948972 37.43668,61.2718972 37.80468,61.6878972 C38.17168,62.1048972 38.40168,62.7768972 38.49168,63.7058972 L38.58568,64.7708972 Z" id="Fill-140" fill="#FFFFFF" fill-rule="nonzero" transform="translate(36.503191, 64.475088) rotate(-90.000000) translate(-36.503191, -64.475088) "></path>
                <polygon id="Fill-142" fill="#FFFFFF" fill-rule="nonzero" transform="translate(36.101889, 59.276219) rotate(90.000000) translate(-36.101889, -59.276219) " points="37.6718893 62.4632187 36.8498893 62.5612187 36.1978893 57.1062187 34.6208893 57.9102187 34.5318893 57.1672187 36.7718893 56.0062187 36.8998893 55.9912187"></polygon>
                <path d="M36.3939191,53.5025369 C36.2869191,52.8135369 36.1109191,52.3255369 35.8689191,52.0395369 C35.6259191,51.7545369 35.2949191,51.6435369 34.8749191,51.7095369 C34.4579191,51.7735369 34.1789191,51.9785369 34.0369191,52.3215369 C33.8949191,52.6655369 33.8719191,53.1635369 33.9669191,53.8155369 L34.1679191,55.1195369 C34.2769191,55.8125369 34.4569191,56.3075369 34.7079191,56.6065369 C34.9599191,56.9055369 35.2909191,57.0235369 35.6999191,56.9605369 C36.1009191,56.8975369 36.3749191,56.6955369 36.5229191,56.3545369 C36.6689191,56.0135369 36.6959191,55.5065369 36.5999191,54.8365369 L36.3939191,53.5025369 Z M37.3809191,54.4895369 C37.5289191,55.4435369 37.4759191,56.1785369 37.2219191,56.6925369 C36.9679191,57.2075369 36.4959191,57.5175369 35.8019191,57.6255369 C35.1189191,57.7315369 34.5769191,57.5835369 34.1769191,57.1805369 C33.7789191,56.7775369 33.5029191,56.1275369 33.3509191,55.2275369 L33.1829191,54.1405369 C33.0369191,53.1985369 33.0909191,52.4735369 33.3459191,51.9645369 C33.6009191,51.4555369 34.0759191,51.1485369 34.7719191,51.0395369 C35.4609191,50.9325369 36.0029191,51.0745369 36.3969191,51.4655369 C36.7909191,51.8565369 37.0649191,52.5135369 37.2169191,53.4335369 L37.3809191,54.4895369 Z" id="Fill-144" fill="#FFFFFF" fill-rule="nonzero" transform="translate(35.282842, 54.331878) rotate(-90.000000) translate(-35.282842, -54.331878) "></path>
                <polygon id="Fill-146" fill="#FFFFFF" fill-rule="nonzero" transform="translate(34.452395, 49.210100) rotate(90.000000) translate(-34.452395, -49.210100) " points="36.214895 52.3285996 35.401895 52.4875996 34.346895 47.0965996 32.832895 48.0155996 32.689895 47.2805996 34.835895 45.9565996 34.963895 45.9325996"></polygon>
                <path d="M34.3324309,43.2983863 C34.1684309,42.6203863 33.9524309,42.1493863 33.6874309,41.8843863 C33.4224309,41.6203863 33.0824309,41.5383863 32.6694309,41.6383863 C32.2604309,41.7373863 31.9984309,41.9643863 31.8864309,42.3183863 C31.7724309,42.6733863 31.7914309,43.1713863 31.9394309,43.8133863 L32.2514309,45.0943863 C32.4154309,45.7773863 32.6364309,46.2553863 32.9124309,46.5323863 C33.1884309,46.8093863 33.5274309,46.8993863 33.9294309,46.8023863 C34.3244309,46.7063863 34.5814309,46.4823863 34.6984309,46.1303863 C34.8174309,45.7773863 34.8004309,45.2713863 34.6494309,44.6103863 L34.3324309,43.2983863 Z M35.3974309,44.2003863 C35.6254309,45.1383863 35.6344309,45.8743863 35.4244309,46.4083863 C35.2144309,46.9423863 34.7684309,47.2913863 34.0874309,47.4563863 C33.4144309,47.6193863 32.8624309,47.5163863 32.4314309,47.1483863 C31.9994309,46.7803863 31.6714309,46.1553863 31.4454309,45.2723863 L31.1864309,44.2023863 C30.9624309,43.2753863 30.9554309,42.5483863 31.1674309,42.0203863 C31.3784309,41.4923863 31.8264309,41.1453863 32.5104309,40.9803863 C33.1884309,40.8153863 33.7404309,40.9123863 34.1664309,41.2693863 C34.5924309,41.6263863 34.9194309,42.2563863 35.1464309,43.1603863 L35.3974309,44.2003863 Z" id="Fill-148" fill="#FFFFFF" fill-rule="nonzero" transform="translate(33.294372, 44.216859) rotate(-90.000000) translate(-33.294372, -44.216859) "></path>
                <polygon id="Fill-150" fill="#FFFFFF" fill-rule="nonzero" transform="translate(31.985441, 39.036536) rotate(90.000000) translate(-31.985441, -39.036536) " points="33.9779415 42.0440355 33.1829415 42.2790355 31.6239415 37.0110355 30.2049415 38.0680355 29.9929415 37.3510355 32.0039415 35.8300355 32.1279415 35.7940355"></polygon>
                <path d="M31.2745534,33.263222 C31.0385534,32.606222 30.7745534,32.161222 30.4815534,31.927222 C30.1895534,31.693222 29.8435534,31.647222 29.4435534,31.791222 C29.0465534,31.933222 28.8105534,32.187222 28.7365534,32.552222 C28.6635534,32.916222 28.7345534,33.409222 28.9525534,34.032222 L29.3975534,35.273222 C29.6345534,35.933222 29.9055534,36.386222 30.2105534,36.631222 C30.5155534,36.876222 30.8615534,36.930222 31.2505534,36.790222 C31.6325534,36.652222 31.8645534,36.402222 31.9435534,36.039222 C32.0225534,35.676222 31.9525534,35.174222 31.7315534,34.534222 L31.2745534,33.263222 Z M32.4315534,34.045222 C32.7575534,34.953222 32.8455534,35.684222 32.6945534,36.238222 C32.5425534,36.791222 32.1365534,37.186222 31.4775534,37.423222 C30.8265534,37.657222 30.2665534,37.615222 29.7975534,37.295222 C29.3305534,36.976222 28.9365534,36.389222 28.6165534,35.535222 L28.2445534,34.499222 C27.9205534,33.602222 27.8365534,32.880222 27.9915534,32.332222 C28.1435534,31.785222 28.5515534,31.392222 29.2135534,31.154222 C29.8715534,30.917222 30.4305534,30.954222 30.8925534,31.263222 C31.3535534,31.572222 31.7465534,32.164222 32.0705534,33.039222 L32.4315534,34.045222 Z" id="Fill-152" fill="#FFFFFF" fill-rule="nonzero" transform="translate(30.341166, 34.286088) rotate(-90.000000) translate(-30.341166, -34.286088) "></path>
                <polygon id="Fill-154" fill="#FFFFFF" fill-rule="nonzero" transform="translate(28.427120, 29.543264) rotate(90.000000) translate(-28.427120, -29.543264) " points="30.6931199 32.3657641 29.9321199 32.6967641 27.7401199 27.6597641 26.4601199 28.8837641 26.1611199 28.1967641 27.9711199 26.4417641 28.0891199 26.3897641"></polygon>
                <path d="M26.9681234,23.6558836 C26.6421234,23.0388836 26.3181234,22.6348836 25.9951234,22.4448836 C25.6721234,22.2538836 25.3231234,22.2578836 24.9471234,22.4558836 C24.5741234,22.6538836 24.3771234,22.9378836 24.3561234,23.3088836 C24.3331234,23.6798836 24.4731234,24.1588836 24.7761234,24.7448836 L25.3931234,25.9098836 C25.7211234,26.5298836 26.0521234,26.9398836 26.3891234,27.1398836 C26.7251234,27.3408836 27.0751234,27.3438836 27.4411234,27.1508836 C27.7991234,26.9608836 27.9931234,26.6798836 28.0221234,26.3098836 C28.0481234,25.9388836 27.9071234,25.4518836 27.5991234,24.8498836 L26.9681234,23.6558836 Z M28.2241234,24.2668836 C28.6741234,25.1208836 28.8641234,25.8318836 28.7921234,26.4008836 C28.7201234,26.9698836 28.3741234,27.4178836 27.7551234,27.7458836 C27.1431234,28.0688836 26.5821234,28.1058836 26.0741234,27.8558836 C25.5661234,27.6058836 25.0921234,27.0808836 24.6551234,26.2798836 L24.1421234,25.3068836 C23.6961234,24.4638836 23.5111234,23.7608836 23.5851234,23.1968836 C23.6601234,22.6328836 24.0091234,22.1868836 24.6311234,21.8578836 C25.2481234,21.5308836 25.8071234,21.4888836 26.3071234,21.7298836 C26.8081234,21.9708836 27.2801234,22.5018836 27.7241234,23.3218836 L28.2241234,24.2668836 Z" id="Fill-156" fill="#FFFFFF" fill-rule="nonzero" transform="translate(26.188120, 24.797703) rotate(-90.000000) translate(-26.188120, -24.797703) "></path>
                <polygon id="Fill-158" fill="#FFFFFF" fill-rule="nonzero" transform="translate(23.899600, 20.530700) rotate(90.000000) translate(-23.899600, -20.530700) " points="26.4751 23.0422 25.7791 23.4922 22.7941 18.8792 21.7311 20.2952 21.3241 19.6672 22.8261 17.6392 22.9341 17.5692"></polygon>
                <path d="M21.0513209,14.7915813 C20.6143209,14.2475813 20.2203209,13.9115813 19.8663209,13.7845813 C19.5143209,13.6585813 19.1733209,13.7285813 18.8413209,13.9935813 C18.5123209,14.2575813 18.3713209,14.5735813 18.4203209,14.9425813 C18.4683209,15.3115813 18.6963209,15.7545813 19.1043209,16.2725813 L19.9293209,17.3015813 C20.3673209,17.8485813 20.7713209,18.1885813 21.1393209,18.3225813 C21.5053209,18.4565813 21.8523209,18.3935813 22.1733209,18.1355813 C22.4903209,17.8805813 22.6273209,17.5685813 22.5843209,17.1995813 C22.5423209,16.8305813 22.3123209,16.3785813 21.8963209,15.8445813 L21.0513209,14.7915813 Z M22.4003209,15.1555813 C23.0033209,15.9085813 23.3233209,16.5715813 23.3603209,17.1435813 C23.3973209,17.7155813 23.1413209,18.2215813 22.5943209,18.6605813 C22.0543209,19.0925813 21.5113209,19.2345813 20.9643209,19.0845813 C20.4173209,18.9345813 19.8553209,18.5075813 19.2753209,17.8035813 L18.5863209,16.9455813 C17.9893209,16.2015813 17.6753209,15.5455813 17.6433209,14.9775813 C17.6103209,14.4105813 17.8683209,13.9055813 18.4173209,13.4655813 C18.9613209,13.0285813 19.5023209,12.8815813 20.0393209,13.0245813 C20.5763209,13.1665813 21.1403209,13.5995813 21.7303209,14.3205813 L22.4003209,15.1555813 Z" id="Fill-160" fill="#FFFFFF" fill-rule="nonzero" transform="translate(20.502170, 16.057051) rotate(-90.000000) translate(-20.502170, -16.057051) "></path>
                <polygon id="Fill-162" fill="#FFFFFF" fill-rule="nonzero" transform="translate(17.318400, 12.269700) rotate(90.000000) translate(-17.318400, -12.269700) " points="20.1974 14.2637 19.6154 14.8537 15.7054 10.9957 14.9714 12.6077 14.4394 12.0817 15.4674 9.7777 15.5564 9.6857"></polygon>
                <path d="M13.2685542,7.39285385 C12.7105542,6.97385385 12.2465542,6.74585385 11.8725542,6.70985385 C11.4995542,6.67485385 11.1855542,6.82685385 10.9295542,7.16585385 C10.6755542,7.50285385 10.6185542,7.84385385 10.7555542,8.18885385 C10.8925542,8.53485385 11.2235542,8.90785385 11.7475542,9.30985385 L12.8005542,10.1028538 C13.3605542,10.5248538 13.8345542,10.7548538 14.2245542,10.7928538 C14.6145542,10.8318538 14.9325542,10.6858538 15.1805542,10.3558538 C15.4255542,10.0308538 15.4825542,9.69485385 15.3495542,9.34785385 C15.2165542,8.99985385 14.8825542,8.61985385 14.3465542,8.20485385 L13.2685542,7.39285385 Z M14.6645542,7.41285385 C15.4355542,7.99385385 15.9105542,8.55685385 16.0855542,9.10185385 C16.2625542,9.64785385 16.1405542,10.2008538 15.7175542,10.7608538 C15.3015542,11.3138538 14.8115542,11.5848538 14.2445542,11.5748538 C13.6775542,11.5648538 13.0265542,11.2898538 12.2895542,10.7498538 L11.4125542,10.0888538 C10.6495542,9.51485385 10.1825542,8.95685385 10.0105542,8.41485385 C9.83955424,7.87285385 9.96555424,7.32085385 10.3885542,6.75885385 C10.8085542,6.20085385 11.2965542,5.92485385 11.8515542,5.92985385 C12.4075542,5.93585385 13.0605542,6.21485385 13.8105542,6.76985385 L14.6645542,7.41285385 Z" id="Fill-164" fill="#FFFFFF" fill-rule="nonzero" transform="translate(13.050400, 8.752454) rotate(-90.000000) translate(-13.050400, -8.752454) "></path>
                <polygon id="Fill-166" fill="#FFFFFF" fill-rule="nonzero" transform="translate(8.875600, 5.785400) rotate(90.000000) translate(-8.875600, -5.785400) " points="11.9451 6.9669 11.5511 7.6959 6.7161 5.0899 6.4651 6.8429 5.8061 6.4879 6.1451 3.9879 6.2071 3.8749"></polygon>
                <g id="Group-170" transform="translate(3.500000, 4.000000) rotate(-90.000000) translate(-3.500000, -4.000000) translate(0.000000, 1.000000)">
                    <g id="Fill-168-Clipped">
                        <g>
                            <mask id="mask-4" fill="white">
                                <use xlink:href="#path-3"></use>
                            </mask>
                            <g id="path-3"></g>
                            <path d="M3.4716,1.9198 C2.8096,1.7008 2.2956,1.6338 1.9306,1.7198 C1.5666,1.8048 1.3166,2.0498 1.1826,2.4528 C1.0496,2.8528 1.1046,3.1948 1.3456,3.4778 C1.5866,3.7618 2.0196,4.0098 2.6436,4.2228 L3.8956,4.6378 C4.5616,4.8578 5.0836,4.9238 5.4656,4.8358 C5.8456,4.7478 6.1016,4.5078 6.2316,4.1158 C6.3596,3.7298 6.3046,3.3928 6.0686,3.1068 C5.8316,2.8198 5.3936,2.5658 4.7536,2.3448 L3.4716,1.9198 Z M4.8006,1.4918 C5.7176,1.7958 6.3466,2.1778 6.6886,2.6378 C7.0306,3.0988 7.0906,3.6618 6.8706,4.3268 C6.6526,4.9838 6.2736,5.3988 5.7336,5.5698 C5.1936,5.7418 4.4896,5.6898 3.6186,5.4138 L2.5756,5.0678 C1.6696,4.7688 1.0486,4.3888 0.7126,3.9298 C0.3766,3.4718 0.3186,2.9078 0.5396,2.2398 C0.7596,1.5778 1.1336,1.1598 1.6606,0.9878 C2.1896,0.8148 2.8976,0.8708 3.7856,1.1558 L4.8006,1.4918 Z" id="Fill-168" fill="#FFFFFF" fill-rule="nonzero" mask="url(#mask-4)"></path>
                        </g>
                    </g>
                </g>
            </g>
        </g>
    </g>
</svg>