<?xml version="1.0" encoding="UTF-8"?>
<svg width="81px" height="361px" viewBox="0 0 81 361" version="1.1" xmlns="http://www.w3.org/2000/svg" xmlns:xlink="http://www.w3.org/1999/xlink">
    <title>ai-connector-right</title>
    <g id="Page-1" stroke="none" stroke-width="1" fill="none" fill-rule="evenodd">
        <g id="ai-connector-right" fill="#FFFFFF" fill-rule="nonzero">
            <g id="Page-1">
                <g id="Group-5" transform="translate(0.404470, 0.807050)">
                    <g id="Group-2" transform="translate(19.160267, 130.954849)">
                        <path d="M2.95490318,27.9634527 C3.65290318,27.9794527 4.16390318,27.8934527 4.48790318,27.7044527 C4.81090318,27.5154527 4.97790318,27.2094527 4.98790318,26.7844527 C4.99790318,26.3634527 4.84590318,26.0524527 4.53190318,25.8514527 C4.21890318,25.6504527 3.73290318,25.5404527 3.07390318,25.5194527 L1.75490318,25.4884527 C1.05490318,25.4724527 0.534903183,25.5634527 0.195903183,25.7584527 C-0.143096817,25.9544527 -0.316096817,26.2584527 -0.326096817,26.6714527 C-0.335096817,27.0784527 -0.185096817,27.3834527 0.124903183,27.5884527 C0.434903183,27.7934527 0.928903183,27.9074527 1.60490318,27.9324527 L2.95490318,27.9634527 Z M1.80890318,28.7614527 C0.844903183,28.7394527 0.130903183,28.5574527 -0.331096817,28.2174527 C-0.793096817,27.8774527 -1.01609682,27.3564527 -0.999096817,26.6554527 C-0.983096817,25.9634527 -0.742096817,25.4574527 -0.275096817,25.1344527 C0.190903183,24.8134527 0.879903183,24.6564527 1.79290318,24.6654527 L2.89290318,24.6914527 C3.84590318,24.7134527 4.55090318,24.8934527 5.00590318,25.2344527 C5.46090318,25.5744527 5.68190318,26.0964527 5.66490318,26.8004527 C5.64890318,27.4984527 5.41390318,28.0064527 4.95890318,28.3264527 C4.50490318,28.6454527 3.80990318,28.7984527 2.87890318,28.7864527 L1.80890318,28.7614527 Z" id="Fill-1" transform="translate(2.332907, 26.726097) rotate(-90.000000) translate(-2.332907, -26.726097) "></path>
                        <polygon id="Fill-3" transform="translate(7.057463, 26.485001) rotate(-90.000000) translate(-7.057463, -26.485001) " points="3.8524629 27.9905012 3.7734629 27.1655012 9.2434629 26.6465012 8.4784629 25.0495012 9.2234629 24.9795012 10.3294629 27.2465012 10.3414629 27.3745012"></polygon>
                        <path d="M13.6146257,26.8327098 C14.2996257,26.6947098 14.7786257,26.4977098 15.0526257,26.2427098 C15.3266257,25.9877098 15.4226257,25.6517098 15.3386257,25.2357098 C15.2556257,24.8227098 15.0386257,24.5527098 14.6896257,24.4257098 C14.3396257,24.2987098 13.8416257,24.2977098 13.1936257,24.4217098 L11.9006257,24.6827098 C11.2136257,24.8207098 10.7256257,25.0217098 10.4376257,25.2877098 C10.1516257,25.5537098 10.0486257,25.8887098 10.1306257,26.2927098 C10.2106257,26.6917098 10.4246257,26.9577098 10.7716257,27.0887098 C11.1196257,27.2197098 11.6266257,27.2237098 12.2916257,27.0987098 L13.6146257,26.8327098 Z M12.6726257,27.8627098 C11.7256257,28.0537098 10.9906257,28.0337098 10.4656257,27.8027098 C9.93962564,27.5717098 9.60862564,27.1127098 9.46962564,26.4257098 C9.33362564,25.7477098 9.45762564,25.1997098 9.84162564,24.7827098 C10.2256257,24.3667098 10.8646257,24.0617098 11.7556257,23.8707098 L12.8346257,23.6537098 C13.7686257,23.4657098 14.4966257,23.4877098 15.0146257,23.7187098 C15.5346257,23.9507098 15.8636257,24.4117098 16.0026257,25.1027098 C16.1396257,25.7867098 16.0226257,26.3337098 15.6496257,26.7457098 C15.2756257,27.1567098 14.6336257,27.4587098 13.7206257,27.6517098 L12.6726257,27.8627098 Z" id="Fill-5" transform="translate(12.737139, 25.759886) rotate(-90.000000) translate(-12.737139, -25.759886) "></path>
                        <polygon id="Fill-7" transform="translate(17.387563, 24.376801) rotate(-90.000000) translate(-17.387563, -24.376801) " points="14.3965629 26.3988012 14.1515629 25.6068012 19.3985629 23.9828012 18.3255629 22.5758012 19.0395629 22.3548012 20.5845629 24.3488012 20.6235629 24.4718012"></polygon>
                        <path d="M23.7583444,23.5557633 C24.4013444,23.2837633 24.8303444,22.9937633 25.0483444,22.6887633 C25.2663444,22.3837633 25.2913444,22.0357633 25.1253444,21.6447633 C24.9613444,21.2567633 24.6953444,21.0357633 24.3263444,20.9817633 C23.9583444,20.9287633 23.4703444,21.0277633 22.8613444,21.2787633 L21.6463444,21.7937633 C21.0013444,22.0677633 20.5643444,22.3627633 20.3363444,22.6807633 C20.1083444,22.9977633 20.0743444,23.3477633 20.2363444,23.7277633 C20.3943444,24.1027633 20.6563444,24.3187633 21.0243444,24.3777633 C21.3913444,24.4367633 21.8873444,24.3387633 22.5153444,24.0817633 L23.7583444,23.5557633 Z M23.0413444,24.7537633 C22.1533444,25.1307633 21.4283444,25.2597633 20.8673444,25.1387633 C20.3073444,25.0187633 19.8903444,24.6357633 19.6163444,23.9907633 C19.3463444,23.3527633 19.3573444,22.7917633 19.6503444,22.3057633 C19.9433444,21.8207633 20.5063444,21.3947633 21.3413444,21.0287633 L22.3553444,20.5987633 C23.2323444,20.2257633 23.9483444,20.1017633 24.5033444,20.2237633 C25.0603444,20.3467633 25.4743444,20.7327633 25.7493444,21.3807633 C26.0213444,22.0227633 26.0163444,22.5837633 25.7343444,23.0617633 C25.4503444,23.5397633 24.8813444,23.9647633 24.0263444,24.3367633 L23.0413444,24.7537633 Z" id="Fill-9" transform="translate(22.685772, 22.680573) rotate(-90.000000) translate(-22.685772, -22.680573) "></path>
                        <polygon id="Fill-11" transform="translate(27.093963, 20.267801) rotate(-90.000000) translate(-27.093963, -20.267801) " points="24.4344629 22.7128012 24.0364629 21.9858012 28.8544629 19.3468012 27.5204629 18.1828012 28.1774629 17.8228012 30.0894629 19.4678012 30.1514629 19.5818012"></polygon>
                        <path d="M33.0360525,18.3278877 C33.6130525,17.9338877 33.9780525,17.5668877 34.1320525,17.2238877 C34.2840525,16.8828877 34.2410525,16.5358877 34.0010525,16.1848877 C33.7640525,15.8368877 33.4590525,15.6728877 33.0880525,15.6928877 C32.7170525,15.7118877 32.2570525,15.9058877 31.7090525,16.2728877 L30.6200525,17.0158877 C30.0410525,17.4108877 29.6710525,17.7868877 29.5100525,18.1438877 C29.3480525,18.4998877 29.3840525,18.8488877 29.6170525,19.1898877 C29.8470525,19.5258877 30.1460525,19.6868877 30.5180525,19.6728877 C30.8900525,19.6578877 31.3570525,19.4638877 31.9220525,19.0888877 L33.0360525,18.3278877 Z M32.5700525,19.6438877 C31.7730525,20.1888877 31.0890525,20.4568877 30.5150525,20.4498877 C29.9400525,20.4418877 29.4570525,20.1488877 29.0610525,19.5698877 C28.6710525,18.9978877 28.5720525,18.4458877 28.7630525,17.9118877 C28.9540525,17.3788877 29.4230525,16.8498877 30.1700525,16.3258877 L31.0790525,15.7048877 C31.8650525,15.1668877 32.5440525,14.9038877 33.1120525,14.9148877 C33.6820525,14.9258877 34.1640525,15.2218877 34.5610525,15.8038877 C34.9550525,16.3798877 35.0590525,16.9308877 34.8770525,17.4548877 C34.6930525,17.9788877 34.2190525,18.5078877 33.4530525,19.0408877 L32.5700525,19.6438877 Z" id="Fill-13" transform="translate(31.816264, 17.682289) rotate(-90.000000) translate(-31.816264, -17.682289) "></path>
                        <polygon id="Fill-15" transform="translate(35.828363, 14.356801) rotate(-90.000000) translate(-35.828363, -14.356801) " points="33.5878629 17.1148012 33.0578629 16.4778012 37.2808629 12.9648012 35.7488629 12.0778012 36.3248629 11.5988012 38.5158629 12.8468012 38.5988629 12.9468012"></polygon>
                        <path d="M41.1495137,11.4366952 C41.6435137,10.9436952 41.9355137,10.5166952 42.0225137,10.1516952 C42.1115137,9.78769518 42.0045137,9.45469518 41.7055137,9.15369518 C41.4085137,8.85469518 41.0785137,8.74869518 40.7175137,8.83669518 C40.3555137,8.92369518 39.9395137,9.19769518 39.4675137,9.65969518 L38.5335137,10.5896952 C38.0365137,11.0836952 37.7415137,11.5216952 37.6485137,11.9016952 C37.5545137,12.2816952 37.6535137,12.6176952 37.9455137,12.9106952 C38.2325137,13.1986952 38.5565137,13.3016952 38.9195137,13.2196952 C39.2825137,13.1376952 39.7065137,12.8606952 40.1925137,12.3896952 L41.1495137,11.4366952 Z M40.9315137,12.8156952 C40.2485137,13.4976952 39.6235137,13.8866952 39.0575137,13.9836952 C38.4925137,14.0816952 37.9625137,13.8816952 37.4685137,13.3846952 C36.9805137,12.8946952 36.7815137,12.3696952 36.8715137,11.8096952 C36.9625137,11.2496952 37.3265137,10.6446952 37.9635137,9.99269518 L38.7445137,9.21669518 C39.4205137,8.54369518 40.0385137,8.16069518 40.5985137,8.06769518 C41.1605137,7.97469518 41.6885137,8.17769518 42.1855137,8.67569518 C42.6775137,9.17069518 42.8815137,9.69269518 42.7975137,10.2416952 C42.7125137,10.7906952 42.3445137,11.3966952 41.6895137,12.0616952 L40.9315137,12.8156952 Z" id="Fill-17" transform="translate(39.833191, 11.026824) rotate(-90.000000) translate(-39.833191, -11.026824) "></path>
                        <polygon id="Fill-19" transform="translate(43.323363, 7.000501) rotate(-90.000000) translate(-43.323363, -7.000501) " points="41.5273629 9.9525012 40.8963629 9.4155012 44.4553629 5.2295012 42.7933629 4.6185012 43.2773629 4.0485012 45.6513629 4.9025012 45.7503629 4.9855012"></polygon>
                        <path d="M47.9257225,3.3216821 C48.3347225,2.7566821 48.5547225,2.2876821 48.5837225,1.9136821 C48.6127225,1.5406821 48.4547225,1.2286821 48.1117225,0.979682093 C47.7707225,0.731682093 47.4277225,0.679682093 47.0847225,0.822682093 C46.7417225,0.967682093 46.3747225,1.3036821 45.9827225,1.8336821 L45.2077225,2.9016821 C44.7957225,3.4676821 44.5737225,3.9466821 44.5427225,4.3376821 C44.5107225,4.7266821 44.6617225,5.0436821 44.9957225,5.2856821 C45.3247225,5.5246821 45.6617225,5.5746821 46.0067225,5.4366821 C46.3517225,5.2976821 46.7267225,4.9566821 47.1317225,4.4136821 L47.9257225,3.3216821 Z M47.9297225,4.7176821 C47.3637225,5.4986821 46.8077225,5.9826821 46.2657225,6.1686821 C45.7227225,6.3546821 45.1677225,6.2416821 44.6007225,5.8296821 C44.0397225,5.4236821 43.7607225,4.9366821 43.7617142,4.3696821 C43.7617142,3.8026821 44.0257225,3.1476821 44.5507225,2.4026821 L45.1967225,1.5116821 C45.7577225,0.739682093 46.3077225,0.263682093 46.8467225,0.0826820933 C47.3857225,-0.0983179067 47.9397225,0.0176820933 48.5097225,0.431682093 C49.0737225,0.841682093 49.3597225,1.3236821 49.3628519,1.8796821 C49.3667225,2.4346821 49.0987225,3.0926821 48.5577225,3.8526821 L47.9297225,4.7176821 Z" id="Fill-21" transform="translate(46.562302, 3.127721) rotate(-90.000000) translate(-46.562302, -3.127721) "></path>
                    </g>
                    <g id="Group-3" transform="translate(19.571833, 194.655193)">
                        <path d="M45.808542,29.7251442 C45.431542,29.1381442 45.074542,28.7631442 44.736542,28.6001442 C44.398542,28.4381442 44.051542,28.4711442 43.694542,28.7011442 C43.339542,28.9291442 43.166542,29.2291442 43.176542,29.6011442 C43.184542,29.9731442 43.366542,30.4371442 43.718542,30.9961442 L44.431542,32.1051442 C44.809542,32.6941442 45.175542,33.0751442 45.526542,33.2461442 C45.878542,33.4171442 46.228542,33.3911442 46.575542,33.1671442 C46.917542,32.9471442 47.087542,32.6511442 47.083542,32.2801442 C47.079542,31.9081442 46.897542,31.4351442 46.539542,30.8611442 L45.808542,29.7251442 Z M47.112542,30.2271442 C47.633542,31.0391442 47.883542,31.7321442 47.859542,32.3051442 C47.835542,32.8781442 47.529542,33.3541442 46.940542,33.7331442 C46.357542,34.1071442 45.802542,34.1921442 45.274542,33.9851442 C44.746542,33.7801442 44.231542,33.2961442 43.727542,32.5361442 L43.132542,31.6101442 C42.617542,30.8081442 42.372542,30.1231442 42.399542,29.5551442 C42.426542,28.9871442 42.736542,28.5121442 43.327542,28.1311442 C43.914542,27.7541442 44.468542,27.6641442 44.987542,27.8621442 C45.506542,28.0591442 46.021542,28.5481442 46.534542,29.3281442 L47.112542,30.2271442 Z" id="Fill-23" transform="translate(45.129325, 30.927673) rotate(-90.000000) translate(-45.129325, -30.927673) "></path>
                        <polygon id="Fill-25" transform="translate(42.321325, 26.691859) rotate(90.000000) translate(-42.321325, -26.691859) " points="45.0493246 28.9838593 44.4003246 29.4998593 40.9793246 25.2018593 40.0593246 26.7138593 39.5933246 26.1288593 40.8883246 23.9638593 40.9893246 23.8838593"></polygon>
                        <path d="M39.1024491,21.4601449 C38.6214491,20.9541449 38.1994491,20.6531449 37.8374491,20.5571449 C37.4764491,20.4601449 37.1414491,20.5581449 36.8324491,20.8511449 C36.5274491,21.1421449 36.4144491,21.4681449 36.4924491,21.8321449 C36.5714491,22.1951449 36.8364491,22.6181449 37.2864491,23.1001449 L38.1944491,24.0561449 C38.6774491,24.5641449 39.1074491,24.8691449 39.4854491,24.9711449 C39.8634491,25.0731449 40.2024491,24.9821449 40.5004491,24.6971449 C40.7954491,24.4171449 40.9064491,24.0951449 40.8324491,23.7311449 C40.7584491,23.3671449 40.4924491,22.9361449 40.0314491,22.4391449 L39.1024491,21.4601449 Z M40.4764491,21.7101449 C41.1414491,22.4091449 41.5154491,23.0431449 41.6004491,23.6101449 C41.6844491,24.1771449 41.4724491,24.7021449 40.9644491,25.1851449 C40.4624491,25.6621449 39.9334491,25.8491449 39.3754491,25.7451449 C38.8184491,25.6421449 38.2224491,25.2641449 37.5844491,24.6111449 L36.8264491,23.8131449 C36.1694491,23.1221449 35.8014491,22.4951449 35.7214491,21.9321449 C35.6414491,21.3691449 35.8554491,20.8451449 36.3664491,20.3601449 C36.8724491,19.8791449 37.3984491,19.6871449 37.9454491,19.7841449 C38.4924491,19.8811449 39.0904491,20.2641449 39.7394491,20.9341449 L40.4764491,21.7101449 Z" id="Fill-27" transform="translate(38.661729, 22.766377) rotate(-90.000000) translate(-38.661729, -22.766377) "></path>
                        <polygon id="Fill-29" transform="translate(35.259752, 19.384798) rotate(90.000000) translate(-35.259752, -19.384798) " points="38.1922515 21.2372979 37.6422515 21.8582979 33.5332515 18.2112979 32.8862515 19.8592979 32.3272515 19.3622979 33.2322515 17.0082979 33.3172515 16.9112979"></polygon>
                        <path d="M31.0956365,14.5063203 C30.5356365,14.0893203 30.0706365,13.8633203 29.6966365,13.8293203 C29.3236365,13.7963203 29.0096365,13.9493203 28.7556365,14.2903203 C28.5046365,14.6283203 28.4476365,14.9693203 28.5876365,15.3143203 C28.7266365,15.6593203 29.0586365,16.0313203 29.5836365,16.4303203 L30.6416365,17.2183203 C31.2026365,17.6373203 31.6786365,17.8653203 32.0676365,17.9023203 C32.4576365,17.9383203 32.7756365,17.7913203 33.0226365,17.4603203 C33.2656365,17.1333203 33.3206365,16.7973203 33.1866365,16.4513203 C33.0516365,16.1053203 32.7156365,15.7253203 32.1786365,15.3133203 L31.0956365,14.5063203 Z M32.4916365,14.5193203 C33.2666365,15.0963203 33.7416365,15.6573203 33.9216365,16.2023203 C34.1016365,16.7473203 33.9816365,17.3003203 33.5626365,17.8623203 C33.1476365,18.4173203 32.6576365,18.6913203 32.0916365,18.6833203 C31.5246365,18.6753203 30.8716365,18.4043203 30.1346365,17.8683203 L29.2526365,17.2103203 C28.4876365,16.6403203 28.0176365,16.0853203 27.8436365,15.5443203 C27.6696365,15.0023203 27.7926365,14.4493203 28.2136365,13.8853203 C28.6306365,13.3253203 29.1166365,13.0473203 29.6726365,13.0502494 C30.2276365,13.0533203 30.8816365,13.3303203 31.6346365,13.8803203 L32.4916365,14.5193203 Z" id="Fill-31" transform="translate(30.884935, 15.866859) rotate(-90.000000) translate(-30.884935, -15.866859) "></path>
                        <polygon id="Fill-33" transform="translate(26.989643, 12.876342) rotate(90.000000) translate(-26.989643, -12.876342) " points="30.0386427 14.2433425 29.6016427 14.9473425 24.9346427 12.0503425 24.5766427 13.7843425 23.9406427 13.3893425 24.4326427 10.9153425 24.5016427 10.8053425"></polygon>
                        <path d="M22.0315611,9.01176282 C21.4095611,8.69576282 20.9115611,8.55276282 20.5385611,8.58276282 C20.1645611,8.61276282 19.8825611,8.81776282 19.6905611,9.19676282 C19.4985611,9.57276282 19.5015611,9.91876282 19.6975611,10.2347629 C19.8935611,10.5507629 20.2835611,10.8607629 20.8685611,11.1647629 L22.0445611,11.7617629 C22.6695611,12.0787629 23.1775611,12.2227629 23.5675611,12.1927629 C23.9575611,12.1627629 24.2455611,11.9637629 24.4325611,11.5947629 C24.6165611,11.2327629 24.6135611,10.8917629 24.4225611,10.5737629 C24.2305611,10.2547629 23.8355611,9.93776282 23.2355611,9.62376282 L22.0315611,9.01176282 Z M23.4105611,8.78776282 C24.2715611,9.22476282 24.8365611,9.69676282 25.1055611,10.2027629 C25.3745611,10.7097629 25.3505611,11.2757629 25.0325611,11.8997629 C24.7195611,12.5167629 24.2825611,12.8697629 23.7225611,12.9587629 C23.1625611,13.0477629 22.4735611,12.8907629 21.6555611,12.4887629 L20.6735611,11.9907629 C19.8245611,11.5587629 19.2675611,11.0907629 19.0025611,10.5867629 C18.7395611,10.0827629 18.7665611,9.51676282 19.0855611,8.88976282 C19.4025611,8.26676282 19.8345611,7.90976282 20.3825611,7.81876282 C20.9295611,7.72676282 21.6215611,7.88876282 22.4565611,8.30376282 L23.4105611,8.78776282 Z" id="Fill-35" transform="translate(22.057275, 10.388341) rotate(-90.000000) translate(-22.057275, -10.388341) "></path>
                        <polygon id="Fill-37" transform="translate(17.853199, 8.319104) rotate(90.000000) translate(-17.853199, -8.319104) " points="20.9306988 9.1606038 20.6186988 9.9286038 15.5286988 7.8626038 15.4696988 9.6316038 14.7756988 9.3506038 14.8426988 6.8286038 14.8906988 6.7096038"></polygon>
                        <path d="M12.187763,5.12437735 C11.520763,4.91637735 11.006763,4.85737735 10.643763,4.94937735 C10.279763,5.04137735 10.034763,5.29037735 9.90876307,5.69537735 C9.78276307,6.09837735 9.84276307,6.43837735 10.087763,6.71737735 C10.333763,6.99737735 10.770763,7.23737735 11.397763,7.44037735 L12.657763,7.83337735 C13.325763,8.04337735 13.850763,8.10037735 14.229763,8.00537735 C14.609763,7.91137735 14.860763,7.66737735 14.983763,7.27337735 C15.105763,6.88537735 15.044763,6.54937735 14.803763,6.26737735 C14.562763,5.98437735 14.119763,5.73837735 13.476763,5.52737735 L12.187763,5.12437735 Z M13.508763,4.67437735 C14.430763,4.96237735 15.065763,5.33337735 15.416763,5.78837735 C15.765763,6.24337735 15.835763,6.80537735 15.625763,7.47437735 C15.419763,8.13437735 15.047763,8.55537735 14.510763,8.73537735 C13.973763,8.91637735 13.267763,8.87537735 12.393763,8.61537735 L11.343763,8.28737735 C10.433763,8.00237735 9.80676307,7.63337735 9.46276307,7.18137735 C9.11876307,6.72837735 9.05176307,6.16537735 9.26276307,5.49337735 C9.47076307,4.82737735 9.83676307,4.40337735 10.361763,4.22237735 C10.887763,4.04137735 11.595763,4.08537735 12.488763,4.35537735 L13.508763,4.67437735 Z" id="Fill-39" transform="translate(12.443269, 6.479750) rotate(-90.000000) translate(-12.443269, -6.479750) "></path>
                        <polygon id="Fill-41" transform="translate(7.635521, 5.092533) rotate(90.000000) translate(-7.635521, -5.092533) " points="10.8280214 5.1410331 10.6440214 5.9490331 5.28802144 4.7320331 5.51502144 6.4880331 4.78502143 6.3220331 4.44302144 3.8230331 4.47202144 3.6970331"></polygon>
                        <path d="M1.86456454,2.87034049 C1.17456454,2.76734049 0.65656454,2.78934049 0.31256454,2.93634049 C-0.0324354594,3.08334049 -0.23643546,3.36734049 -0.29843546,3.78734049 C-0.36043546,4.20434049 -0.24943546,4.53234049 0.0365645406,4.76934049 C0.32256454,5.00734049 0.79156454,5.17834049 1.44256454,5.28134049 L2.74756454,5.47434049 C3.44056454,5.57834049 3.96756454,5.55334049 4.32856454,5.40134049 C4.68856454,5.24934049 4.89956454,4.96934049 4.95956454,4.56034049 C5.01956454,4.15834049 4.90856454,3.83634049 4.62656454,3.59434049 C4.34356454,3.35334049 3.86856454,3.17834049 3.19956454,3.06934049 L1.86456454,2.87034049 Z M3.10156454,2.22134049 C4.05556454,2.36334049 4.74056454,2.63134049 5.15656454,3.02734049 C5.57256454,3.42234049 5.72856454,3.96634049 5.62556454,4.66034049 C5.52356454,5.34434049 5.22056454,5.81734049 4.71856454,6.07834049 C4.21556454,6.34034049 3.51156454,6.41034049 2.60856454,6.28734049 L1.52056454,6.12534049 C0.57656454,5.98534049 -0.0994354594,5.71834049 -0.50943546,5.32334049 C-0.91943546,4.92934049 -1.07243546,4.38434049 -0.96843546,3.68734049 C-0.86543546,2.99734049 -0.56943546,2.52234049 -0.0784354594,2.26134049 C0.41156454,2.00134049 1.11956454,1.93534049 2.04356454,2.06334049 L3.10156454,2.22134049 Z" id="Fill-43" transform="translate(2.328139, 4.173082) rotate(-90.000000) translate(-2.328139, -4.173082) "></path>
                    </g>
                    <g id="Group" transform="translate(39.722085, 70.261469) rotate(6.000000) translate(-39.722085, -70.261469) translate(7.222085, 3.761469)">
                        <path d="M4.35921979,130.107488 C4.94421979,129.726488 5.31621979,129.365488 5.47621979,129.027488 C5.63621979,128.688488 5.60021979,128.341488 5.36821979,127.985488 C5.13721979,127.632488 4.83721979,127.461488 4.46421979,127.474488 C4.09221979,127.486488 3.63021979,127.669488 3.07421979,128.025488 L1.97021979,128.746488 C1.38221979,129.129488 1.00521979,129.498488 0.837219761,129.851488 C0.669219761,130.204488 0.697219761,130.553488 0.922219761,130.899488 C1.14521979,131.239488 1.44221979,131.406488 1.81321979,131.400488 C2.18521979,131.393488 2.65721979,131.208488 3.22921979,130.845488 L4.35921979,130.107488 Z M3.86621979,131.414488 C3.05821979,131.941488 2.36821979,132.195488 1.79421979,132.176488 C1.22021979,132.157488 0.742219761,131.853488 0.359219761,131.267488 C-0.0187802391,130.687488 -0.106780239,130.133488 0.0952197609,129.603488 C0.297219761,129.074488 0.777219761,128.555488 1.53521979,128.046488 L2.45621979,127.445488 C3.25521979,126.923488 3.93721979,126.674488 4.50521979,126.697488 C5.07421979,126.719488 5.55021979,127.025488 5.93521979,127.615488 C6.31721979,128.199488 6.41121979,128.752488 6.21621979,129.273488 C6.02321979,129.793488 5.53721979,130.312488 4.76121979,130.829488 L3.86621979,131.414488 Z" id="Fill-49" transform="translate(3.152316, 129.436754) rotate(-90.000000) translate(-3.152316, -129.436754) "></path>
                        <polygon id="Fill-51" transform="translate(7.184449, 125.991050) rotate(-90.000000) translate(-7.184449, -125.991050) " points="5.078449 128.81955 4.514449 128.21255 8.540449 124.47455 6.962449 123.67155 7.511449 123.16255 9.766449 124.28955 9.854449 124.38455"></polygon>
                        <path d="M12.229069,122.592892 C12.667069,122.049892 12.911069,121.592892 12.958069,121.220892 C13.005069,120.848892 12.865069,120.529892 12.535069,120.262892 C12.206069,119.998892 11.867069,119.928892 11.517069,120.054892 C11.167069,120.180892 10.784069,120.498892 10.365069,121.008892 L9.53606903,122.034892 C9.09506903,122.579892 8.85006903,123.046892 8.79906903,123.434892 C8.74806903,123.821892 8.88106903,124.146892 9.20406903,124.404892 C9.52006903,124.660892 9.85406903,124.727892 10.206069,124.606892 C10.557069,124.486892 10.949069,124.164892 11.381069,123.643892 L12.229069,122.592892 Z M12.163069,123.987892 C11.556069,124.738892 10.978069,125.193892 10.426069,125.351892 C9.87506903,125.509892 9.32706903,125.369892 8.78106903,124.928892 C8.24206903,124.493892 7.98806903,123.993892 8.01606903,123.427892 C8.04606903,122.861892 8.34206903,122.219892 8.90606903,121.503892 L9.59706903,120.646892 C10.195069,119.904892 10.769069,119.456892 11.316069,119.302892 C11.864069,119.149892 12.412069,119.293892 12.959069,119.735892 C13.502069,120.174892 13.762069,120.671892 13.738069,121.225892 C13.714069,121.780892 13.413069,122.424892 12.833069,123.154892 L12.163069,123.987892 Z" id="Fill-53" transform="translate(10.876787, 122.329231) rotate(-90.000000) translate(-10.876787, -122.329231) "></path>
                        <polygon id="Fill-55" transform="translate(13.982049, 117.822550) rotate(-90.000000) translate(-13.982049, -117.822550) " points="12.602049 120.87005 11.900049 120.43005 14.818049 115.77505 13.085049 115.41005 13.483049 114.77505 15.955049 115.27905 16.064049 115.34705"></polygon>
                        <path d="M17.8304479,113.470687 C18.1424479,112.845687 18.2794479,112.346687 18.2474479,111.973687 C18.2144479,111.600687 18.0074479,111.319687 17.6274479,111.129687 C17.2504479,110.941687 16.9034479,110.947687 16.5894479,111.145687 C16.2734479,111.344687 15.9684479,111.737687 15.6684479,112.324687 L15.0814479,113.504687 C14.7674479,114.132687 14.6284479,114.641687 14.6624479,115.031687 C14.6954479,115.420687 14.8964479,115.707687 15.2664479,115.891687 C15.6314479,116.073687 15.9714479,116.066687 16.2884479,115.872687 C16.6054479,115.678687 16.9194479,115.281687 17.2284479,114.678687 L17.8304479,113.470687 Z M18.0654479,114.846687 C17.6364479,115.711687 17.1694479,116.279687 16.6644479,116.553687 C16.1604479,116.825687 15.5944479,116.806687 14.9664479,116.493687 C14.3474479,116.185687 13.9904479,115.751687 13.8964479,115.192687 C13.8044479,114.634687 13.9544479,113.943687 14.3514479,113.121687 L14.8414479,112.136687 C15.2664479,111.282687 15.7294479,110.722687 16.2314479,110.454687 C16.7324479,110.186687 17.2994479,110.209687 17.9294479,110.523687 C18.5544479,110.834687 18.9144479,111.263687 19.0104479,111.810687 C19.1054479,112.357687 18.9504479,113.051687 18.5434479,113.889687 L18.0654479,114.846687 Z" id="Fill-57" transform="translate(16.453880, 113.506818) rotate(-90.000000) translate(-16.453880, -113.506818) "></path>
                        <polygon id="Fill-59" transform="translate(18.768549, 108.501950) rotate(-90.000000) translate(-18.768549, -108.501950) " points="17.942049 111.57895 17.173049 111.27095 19.213049 106.16995 17.443049 106.11995 17.721049 105.42495 20.243049 105.47895 20.364049 105.52695"></polygon>
                        <path d="M21.6909091,103.638936 C21.9059091,102.973936 21.9689091,102.459936 21.8799091,102.096936 C21.7929091,101.731936 21.5459091,101.484936 21.1419091,101.353936 C20.7409091,101.223936 20.3999091,101.280936 20.1179091,101.523936 C19.8369091,101.766936 19.5909091,102.201936 19.3829091,102.826936 L18.9779091,104.081936 C18.7619091,104.748936 18.6999091,105.272936 18.7909091,105.652936 C18.8809091,106.033936 19.1229091,106.286936 19.5159091,106.413936 C19.9039091,106.539936 20.2399091,106.482936 20.5239091,106.243936 C20.8089091,106.004936 21.0589091,105.564936 21.2769091,104.922936 L21.6909091,103.638936 Z M22.1289091,104.964936 C21.8319091,105.883936 21.4549091,106.514936 20.9969091,106.860936 C20.5389091,107.204936 19.9749091,107.269936 19.3089091,107.054936 C18.6509091,106.841936 18.2339091,106.465936 18.0579091,105.926936 C17.8819091,105.387936 17.9289091,104.681936 18.1989091,103.811936 L18.5379091,102.763936 C18.8309091,101.856936 19.2049091,101.233936 19.6609091,100.893936 C20.1179091,100.554936 20.6799091,100.492936 21.3499091,100.709936 C22.0139091,100.923936 22.4349091,101.294936 22.6119091,101.821936 C22.7869091,102.347936 22.7359091,103.056936 22.4589091,103.946936 L22.1289091,104.964936 Z" id="Fill-61" transform="translate(20.333635, 103.881023) rotate(-90.000000) translate(-20.333635, -103.881023) "></path>
                        <polygon id="Fill-63" transform="translate(21.920149, 98.844550) rotate(-90.000000) translate(-21.920149, -98.844550) " points="21.6871488 102.01455 20.8841488 101.80555 22.2711488 96.4895497 20.5081488 96.6605497 20.6981488 95.9365497 23.2071488 95.6745497 23.3321488 95.7075497"></polygon>
                        <path d="M24.2788632,93.5109163 C24.4218632,92.8279163 24.4298632,92.3099163 24.3028632,91.9579163 C24.1758632,91.6049163 23.9048632,91.3849163 23.4898632,91.2979163 C23.0768632,91.2119163 22.7428632,91.3049163 22.4888632,91.5759163 C22.2348632,91.8479163 22.0388632,92.3059163 21.8968632,92.9499163 L21.6278632,94.2409163 C21.4838632,94.9279163 21.4778632,95.4549163 21.6088632,95.8239163 C21.7398632,96.1919163 22.0078632,96.4189163 22.4118632,96.5029163 C22.8098632,96.5859163 23.1378632,96.4939163 23.3948632,96.2259163 C23.6528632,95.9589163 23.8558632,95.4939163 24.0038632,94.8329163 L24.2788632,93.5109163 Z M24.8548632,94.7829163 C24.6578632,95.7279163 24.3488632,96.3959163 23.9308632,96.7879163 C23.5118632,97.1799163 22.9598632,97.3049163 22.2728632,97.1609163 C21.5958632,97.0199163 21.1418632,96.6909163 20.9098632,96.1739163 C20.6778632,95.6569163 20.6498632,94.9499163 20.8248632,94.0549163 L21.0498632,92.9779163 C21.2448632,92.0439163 21.5498632,91.3849163 21.9668632,90.9989163 C22.3848632,90.6129163 22.9388632,90.4909163 23.6278632,90.6349163 C24.3108632,90.7779163 24.7678632,91.1019163 25.0008632,91.6069163 C25.2308632,92.1119163 25.2558632,92.8219163 25.0738632,93.7369163 L24.8548632,94.7829163 Z" id="Fill-65" transform="translate(22.952922, 93.897590) rotate(-90.000000) translate(-22.952922, -93.897590) "></path>
                        <polygon id="Fill-67" transform="translate(23.985749, 88.969350) rotate(-90.000000) translate(-23.985749, -88.969350) " points="24.2887486 92.1958499 23.4707486 92.0608499 24.3627486 86.6408499 22.6237486 86.9728499 22.7457486 86.2348499 25.2197486 85.7428499 25.3477486 85.7638499"></polygon>
                        <path d="M25.9324675,83.2211796 C26.0204675,82.5291796 25.9874675,82.0121796 25.8324675,81.6701796 C25.6774675,81.3291796 25.3904675,81.1321796 24.9684675,81.0781796 C24.5504675,81.0251796 24.2254675,81.1441796 23.9944675,81.4351796 C23.7624675,81.7261796 23.6024675,82.1991796 23.5144675,82.8521796 L23.3484675,84.1601796 C23.2604675,84.8561796 23.2954675,85.3821796 23.4564675,85.7401796 C23.6164675,86.0961796 23.9014675,86.3011796 24.3114675,86.3521796 C24.7144675,86.4041796 25.0344675,86.2851796 25.2694675,85.9981796 C25.5044675,85.7101796 25.6694675,85.2311796 25.7634675,84.5601796 L25.9324675,83.2211796 Z M26.6094675,84.4431796 C26.4884675,85.4001796 26.2354675,86.0921796 25.8484675,86.5151796 C25.4624675,86.9401796 24.9214675,87.1081796 24.2264675,87.0201796 C23.5384675,86.9331796 23.0604675,86.6411796 22.7874675,86.1441796 C22.5154675,85.6471796 22.4294675,84.9461796 22.5334675,84.0391796 L22.6714675,82.9481796 C22.7904675,82.0021796 23.0424675,81.3201796 23.4284675,80.9011796 C23.8134675,80.4831796 24.3554675,80.3181796 25.0544675,80.4071796 C25.7464675,80.4941796 26.2274675,80.7801796 26.4994675,81.2651796 C26.7704675,81.7501796 26.8514675,82.4551796 26.7444675,83.3821796 L26.6094675,84.4431796 Z" id="Fill-69" transform="translate(24.640393, 83.713324) rotate(-90.000000) translate(-24.640393, -83.713324) "></path>
                        <polygon id="Fill-71" transform="translate(25.239049, 78.967150) rotate(-90.000000) translate(-25.239049, -78.967150) " points="25.9480486 82.2181499 25.1230486 82.1411499 25.6350486 76.6711499 23.9230486 77.1241499 23.9930486 76.3791499 26.4270486 75.7161499 26.5550486 75.7281499"></polygon>
                        <path d="M26.8544325,73.0798572 C26.9024325,72.3838572 26.8394325,71.8698572 26.6664325,71.5378572 C26.4924325,71.2048572 26.1934325,71.0248572 25.7694325,70.9958572 C25.3484325,70.9668572 25.0304325,71.1038572 24.8164325,71.4078572 C24.6014325,71.7118572 24.4684325,72.1928572 24.4174325,72.8498572 L24.3274325,74.1658572 C24.2794325,74.8648572 24.3454325,75.3888572 24.5254325,75.7358572 C24.7054325,76.0828572 25.0014325,76.2708572 25.4144325,76.2988572 C25.8194325,76.3268572 26.1314325,76.1908572 26.3504325,75.8898572 C26.5694325,75.5898572 26.7074325,75.1018572 26.7614325,74.4268572 L26.8544325,73.0798572 Z M27.5994325,74.2608572 C27.5334325,75.2248572 27.3194325,75.9288572 26.9584325,76.3738572 C26.5964325,76.8198572 26.0674325,77.0178572 25.3674325,76.9708572 C24.6764325,76.9228572 24.1814325,76.6588572 23.8804325,76.1788572 C23.5814325,75.6978572 23.4564325,75.0018572 23.5064325,74.0918572 L23.5834325,72.9938572 C23.6474325,72.0418572 23.8604325,71.3468572 24.2214325,70.9068572 C24.5824325,70.4678572 25.1134325,70.2718572 25.8154325,70.3198572 C26.5124325,70.3678572 27.0094325,70.6258572 27.3084325,71.0948572 C27.6054325,71.5628572 27.7274325,72.2638572 27.6724325,73.1948572 L27.5994325,74.2608572 Z" id="Fill-73" transform="translate(25.590487, 73.645196) rotate(-90.000000) translate(-25.590487, -73.645196) "></path>
                        <polygon id="Fill-75" transform="translate(25.974349, 68.869150) rotate(-90.000000) translate(-25.974349, -68.869150) " points="26.7493486 72.1226499 25.9233486 72.0546499 26.3723486 66.5796499 24.6663486 67.0516499 24.7283486 66.3056499 27.1523486 65.6156499 27.2823486 65.6256499"></polygon>
                        <path d="M27.7338355,62.8523992 C27.8148355,62.1593992 27.7758355,61.6423992 27.6188355,61.3033992 C27.4598355,60.9623992 27.1708355,60.7693992 26.7488355,60.7193992 C26.3288355,60.6713992 26.0048355,60.7933992 25.7778355,61.0873992 C25.5478355,61.3803992 25.3928355,61.8543992 25.3118355,62.5093992 L25.1598355,63.8183992 C25.0798355,64.5153992 25.1208355,65.0403992 25.2848355,65.3963992 C25.4478355,65.7513992 25.7348355,65.9533992 26.1448355,66.0013992 C26.5488355,66.0473992 26.8678355,65.9263992 27.0998355,65.6363992 C27.3328355,65.3463992 27.4918355,64.8653992 27.5798355,64.1933992 L27.7338355,62.8523992 Z M28.4228355,64.0673992 C28.3128355,65.0253992 28.0658355,65.7193992 27.6838355,66.1483992 C27.3028355,66.5763992 26.7638355,66.7493992 26.0678355,66.6693992 C25.3798355,66.5893992 24.8978355,66.3023992 24.6198355,65.8083992 C24.3418355,65.3143992 24.2508355,64.6133992 24.3428355,63.7063992 L24.4698355,62.6133992 C24.5798355,61.6653992 24.8248355,60.9813992 25.2068355,60.5593992 C25.5868355,60.1363992 26.1268355,59.9653992 26.8268355,60.0463992 C27.5188355,60.1273992 28.0048355,60.4083992 28.2808355,60.8913992 C28.5568355,61.3733992 28.6448355,62.0773992 28.5468355,63.0043992 L28.4228355,64.0673992 Z" id="Fill-77" transform="translate(26.446868, 63.357618) rotate(-90.000000) translate(-26.446868, -63.357618) "></path>
                        <polygon id="Fill-79" transform="translate(27.215549, 58.416150) rotate(-90.000000) translate(-27.215549, -58.416150) " points="27.5815486 61.6471499 26.7635486 61.5221499 27.5965486 56.0911499 25.8605486 56.4421499 25.9745486 55.7021499 28.4435486 55.1851499 28.5705486 55.2041499"></polygon>
                        <path d="M29.3466408,52.7160947 C29.4816408,52.0310947 29.4826408,51.5130947 29.3516408,51.1620947 C29.2206408,50.8110947 28.9476408,50.5950947 28.5306408,50.5130947 C28.1156408,50.4320947 27.7846408,50.5290947 27.5336408,50.8040947 C27.2826408,51.0790947 27.0906408,51.5390947 26.9586408,52.1850947 L26.7056408,53.4790947 C26.5716408,54.1680947 26.5716408,54.6950947 26.7066408,55.0620947 C26.8416408,55.4290947 27.1136408,55.6520947 27.5176408,55.7320947 C27.9176408,55.8100947 28.2436408,55.7130947 28.4986408,55.4420947 C28.7526408,55.1710947 28.9496408,54.7040947 29.0876408,54.0410947 L29.3466408,52.7160947 Z M29.9396408,53.9810947 C29.7536408,54.9270947 29.4546408,55.6000947 29.0406408,55.9980947 C28.6276408,56.3950947 28.0756408,56.5260947 27.3886408,56.3920947 C26.7086408,56.2590947 26.2506408,55.9350947 26.0126408,55.4210947 C25.7736408,54.9060947 25.7366408,54.2000947 25.9006408,53.3030947 L26.1116408,52.2240947 C26.2936408,51.2880947 26.5926408,50.6240947 27.0046408,50.2330947 C27.4166408,49.8410947 27.9696408,49.7130947 28.6596408,49.8480947 C29.3456408,49.9830947 29.8056408,50.3000947 30.0436408,50.8020947 C30.2826408,51.3040947 30.3156408,52.0140947 30.1456408,52.9310947 L29.9396408,53.9810947 Z" id="Fill-81" transform="translate(28.026273, 53.119518) rotate(-90.000000) translate(-28.026273, -53.119518) "></path>
                        <polygon id="Fill-83" transform="translate(29.269449, 48.005450) rotate(-90.000000) translate(-29.269449, -48.005450) " points="29.1329486 51.1874499 28.3269486 50.9924499 29.6249486 45.6534499 27.8659486 45.8544499 28.0429486 45.1264499 30.5469486 44.8234499 30.6729486 44.8544499"></polygon>
                        <path d="M31.8446596,42.7373169 C32.0426596,42.0683169 32.0936596,41.5523169 31.9966596,41.1903169 C31.8996596,40.8283169 31.6486596,40.5873169 31.2406596,40.4663169 C30.8356596,40.3453169 30.4956596,40.4103169 30.2206596,40.6603169 C29.9456596,40.9103169 29.7106596,41.3503169 29.5176596,41.9813169 L29.1416596,43.2443169 C28.9426596,43.9173169 28.8916596,44.4423169 28.9916596,44.8203169 C29.0916596,45.1983169 29.3396596,45.4463169 29.7366596,45.5643169 C30.1246596,45.6793169 30.4596596,45.6143169 30.7396596,45.3693169 C31.0186596,45.1233169 31.2586596,44.6783169 31.4596596,44.0313169 L31.8446596,42.7373169 Z M32.3126596,44.0523169 C32.0376596,44.9773169 31.6756596,45.6183169 31.2266596,45.9743169 C30.7766596,46.3303169 30.2156596,46.4083169 29.5436596,46.2093169 C28.8806596,46.0123169 28.4536596,45.6463169 28.2666596,45.1113169 C28.0776596,44.5763169 28.1086596,43.8713169 28.3566596,42.9933169 L28.6696596,41.9383169 C28.9416596,41.0243169 29.3006596,40.3913169 29.7486596,40.0413169 C30.1976596,39.6913169 30.7586596,39.6163169 31.4336596,39.8173169 C32.1026596,40.0153169 32.5316596,40.3763169 32.7196596,40.8983169 C32.9086596,41.4213169 32.8746596,42.1303169 32.6176596,43.0273169 L32.3126596,44.0523169 Z" id="Fill-85" transform="translate(30.492221, 43.011988) rotate(-90.000000) translate(-30.492221, -43.011988) "></path>
                        <polygon id="Fill-87" transform="translate(32.308749, 37.801050) rotate(-90.000000) translate(-32.308749, -37.801050) " points="31.5967486 40.8905499 30.8177486 40.6105499 32.6737486 35.4395499 30.9037486 35.4535499 31.1567486 34.7485499 33.6777486 34.7115499 33.7997486 34.7555499"></polygon>
                        <path d="M35.4043026,33.0752279 C35.6803026,32.4332279 35.7923026,31.9282279 35.7383026,31.5572279 C35.6853026,31.1862279 35.4643026,30.9172279 35.0733026,30.7482279 C34.6863026,30.5822279 34.3413026,30.6062279 34.0383026,30.8212279 C33.7343026,31.0362279 33.4493026,31.4452279 33.1833026,32.0482279 L32.6613026,33.2602279 C32.3833026,33.9032279 32.2713026,34.4192279 32.3263026,34.8062279 C32.3803026,35.1932279 32.5963026,35.4692279 32.9763026,35.6322279 C33.3493026,35.7942279 33.6893026,35.7692279 33.9963026,35.5572279 C34.3013026,35.3472279 34.5923026,34.9332279 34.8693026,34.3142279 L35.4043026,33.0752279 Z M35.7153026,34.4362279 C35.3323026,35.3222279 34.8963026,35.9162279 34.4083026,36.2162279 C33.9193026,36.5162279 33.3533026,36.5282279 32.7103026,36.2502279 C32.0733026,35.9762279 31.6943026,35.5622279 31.5713026,35.0102279 C31.4473026,34.4562279 31.5603026,33.7592279 31.9113026,32.9162279 L32.3463026,31.9062279 C32.7243026,31.0312279 33.1563026,30.4452279 33.6423026,30.1502279 C34.1293026,29.8552279 34.6953026,29.8472279 35.3423026,30.1262279 C35.9823026,30.4032279 36.3663026,30.8112279 36.4923026,31.3522279 C36.6173026,31.8942279 36.4993026,32.5952279 36.1373026,33.4542279 L35.7153026,34.4362279 Z" id="Fill-89" transform="translate(34.031587, 33.186566) rotate(-90.000000) translate(-34.031587, -33.186566) "></path>
                        <polygon id="Fill-91" transform="translate(36.394049, 28.209250) rotate(-90.000000) translate(-36.394049, -28.209250) " points="35.2660486 31.2822499 34.5300486 30.9022499 37.0520486 26.0212499 35.2940486 25.8002499 35.6380486 25.1362499 38.1430486 25.4322499 38.2580486 25.4912499"></polygon>
                        <path d="M40.2222572,23.9818373 C40.5902572,23.3888373 40.7752572,22.9038373 40.7763052,22.5298373 C40.7782572,22.1548373 40.5972572,21.8568373 40.2362572,21.6328373 C39.8772572,21.4108373 39.5332572,21.3838373 39.2012572,21.5528373 C38.8692572,21.7208373 38.5282572,22.0838373 38.1752572,22.6418373 L37.4812572,23.7628373 C37.1132572,24.3578373 36.9262572,24.8528373 36.9231458,25.2438373 C36.9202572,25.6348373 37.0942572,25.9398373 37.4462572,26.1568373 C37.7922572,26.3708373 38.1312572,26.3958373 38.4652572,26.2318373 C38.7992572,26.0688373 39.1482572,25.7018373 39.5122572,25.1298373 L40.2222572,23.9818373 Z M40.3302572,25.3748373 C39.8222572,26.1948373 39.3042572,26.7178373 38.7772572,26.9438373 C38.2492572,27.1688373 37.6882572,27.0978373 37.0922572,26.7288373 C36.5022572,26.3638373 36.1882572,25.8988373 36.1472572,25.3348373 C36.1052572,24.7688373 36.3202572,24.0958373 36.7892572,23.3148373 L37.3682572,22.3778373 C37.8702572,21.5678373 38.3842572,21.0518373 38.9092572,20.8318373 C39.4332572,20.6108373 39.9942572,20.6868373 40.5932572,21.0558373 C41.1862572,21.4238373 41.5052572,21.8848373 41.5502572,22.4388373 C41.5952572,22.9918373 41.3762572,23.6668373 40.8932572,24.4648373 L40.3302572,25.3748373 Z" id="Fill-93" transform="translate(38.849059, 23.890148) rotate(-90.000000) translate(-38.849059, -23.890148) "></path>
                        <polygon id="Fill-95" transform="translate(41.812749, 19.321850) rotate(-90.000000) translate(-41.812749, -19.321850) " points="40.1977486 22.3238499 39.5337486 21.8288499 42.8147486 17.4238499 41.1187486 16.9198499 41.5647486 16.3198499 43.9887486 17.0188499 44.0917486 17.0958499"></polygon>
                        <path d="M46.4821898,15.8030002 C46.9501898,15.2850002 47.2191898,14.8430002 47.2881898,14.4740002 C47.3561898,14.1060002 47.2331898,13.7790002 46.9181898,13.4940002 C46.6051898,13.2110002 46.2711898,13.1230002 45.9151898,13.2290002 C45.5581898,13.3360002 45.1561898,13.6310002 44.7101898,14.1160002 L43.8251898,15.0940002 C43.3541898,15.6140002 43.0841898,16.0660002 43.0091898,16.4510002 C42.9361898,16.8350002 43.0531898,17.1660002 43.3601898,17.4430002 C43.6611898,17.7160002 43.9911898,17.8010002 44.3491898,17.7000002 C44.7071898,17.5990002 45.1161898,17.3010002 45.5771898,16.8050002 L46.4821898,15.8030002 Z M46.3361898,17.1920002 C45.6901898,17.9080002 45.0861898,18.3290002 44.5271898,18.4560002 C43.9671898,18.5830002 43.4281898,18.4110002 42.9081898,17.9420002 C42.3951898,17.4770002 42.1691898,16.9630002 42.2301898,16.4000002 C42.2911898,15.8360002 42.6231898,15.2120002 43.2261898,14.5280002 L43.9631898,13.7120002 C44.6041898,13.0050002 45.2011898,12.5900002 45.7551898,12.4680002 C46.3111898,12.3450002 46.8501898,12.5190002 47.3731898,12.9920002 C47.8901898,13.4600002 48.1211898,13.9700002 48.0661898,14.5240002 C48.0101898,15.0760002 47.6731898,15.7010002 47.0541898,16.3990002 L46.3361898,17.1920002 Z" id="Fill-97" transform="translate(45.147294, 15.463145) rotate(-90.000000) translate(-45.147294, -15.463145) "></path>
                        <polygon id="Fill-99" transform="translate(48.762149, 11.542250) rotate(-90.000000) translate(-48.762149, -11.542250) " points="46.6126486 14.3497499 46.0596486 13.7337499 50.1476486 10.0637499 48.5846486 9.2347499 49.1406486 8.7347499 51.3776486 9.8997499 51.4646486 9.9957499"></polygon>
                        <path d="M54.2629596,9.03687858 C54.8319596,8.63187858 55.1899596,8.25787858 55.3359596,7.91287858 C55.4839596,7.56887858 55.4339596,7.22387858 55.1889596,6.87687858 C54.9439596,6.53287858 54.6359596,6.37387858 54.2649596,6.40087858 C53.8949596,6.42787858 53.4389596,6.62887858 52.8979596,7.00587858 L51.8219596,7.76987858 C51.2509596,8.17587858 50.8869596,8.55787858 50.7329596,8.91687858 C50.5779596,9.27687858 50.6199596,9.62487858 50.8599596,9.96187858 C51.0949596,10.2928786 51.3979596,10.4488786 51.7699596,10.4278786 C52.1399596,10.4068786 52.6049596,10.2038786 53.1619596,9.81787858 L54.2629596,9.03687858 Z M53.8209596,10.3618786 C53.0339596,10.9208786 52.3529596,11.2018786 51.7809596,11.203948 C51.2059596,11.2068786 50.7169596,10.9228786 50.3109596,10.3508786 C49.9089596,9.78687858 49.7999596,9.23687858 49.9819596,8.69887858 C50.1629596,8.16287858 50.6219596,7.62487858 51.3599596,7.08687858 L52.2569596,6.44987858 C53.0339596,5.89887858 53.7069596,5.62187858 54.2759596,5.62287053 C54.8449596,5.62387858 55.3329596,5.91087858 55.7409596,6.48487858 C56.1449596,7.05387858 56.2599596,7.60187858 56.0859596,8.12987858 C55.9119596,8.65787858 55.4479596,9.19587858 54.6929596,9.74287858 L53.8209596,10.3618786 Z" id="Fill-101" transform="translate(53.030590, 8.413419) rotate(-90.000000) translate(-53.030590, -8.413419) "></path>
                        <polygon id="Fill-103" transform="translate(57.257849, 5.472750) rotate(-90.000000) translate(-57.257849, -5.472750) " points="54.5818486 7.8997499 54.1888486 7.1697499 59.0328486 4.5747499 57.7098486 3.3987499 58.3698486 3.0457499 60.2658486 4.7077499 60.3268486 4.8217499"></polygon>
                        <path d="M63.460318,4.3584605 C64.117318,4.1234605 64.564318,3.8594605 64.798318,3.5674605 C65.032318,3.2754605 65.077318,2.9284605 64.935318,2.5294605 C64.792318,2.1314605 64.539318,1.8954605 64.175318,1.8214605 C63.811318,1.7474605 63.316318,1.8174605 62.694318,2.0344605 L61.452318,2.4784605 C60.792318,2.7154605 60.340318,2.9854605 60.094318,3.2894605 C59.848318,3.5934605 59.794318,3.9404605 59.934318,4.3284605 C60.070318,4.7114605 60.321318,4.9434605 60.684318,5.0234605 C61.046318,5.1024605 61.549318,5.0334605 62.189318,4.8134605 L63.460318,4.3584605 Z M62.677318,5.5144605 C61.768318,5.8394605 61.036318,5.9264605 60.484318,5.7734605 C59.931318,5.6214605 59.536318,5.2154605 59.300318,4.5554605 C59.066318,3.9044605 59.110318,3.3444605 59.430318,2.8774605 C59.750318,2.4084605 60.337318,2.0154605 61.191318,1.6964605 L62.228318,1.3254605 C63.125318,1.0044605 63.848318,0.9204605 64.395318,1.0754605 C64.943318,1.2294605 65.335318,1.6384605 65.572318,2.3004605 C65.808318,2.9584605 65.770318,3.5164605 65.461318,3.9784605 C65.150318,4.4394605 64.558318,4.8314605 63.683318,5.1534605 L62.677318,5.5144605 Z" id="Fill-105" transform="translate(62.438728, 3.423339) rotate(-90.000000) translate(-62.438728, -3.423339) "></path>
                    </g>
                    <g id="Group-4" transform="translate(39.822630, 289.016530) rotate(-6.000000) translate(-39.822630, -289.016530) translate(6.822630, 222.016530)">
                        <path d="M62.3948274,128.716317 C61.7478274,128.453317 61.2398274,128.353317 60.8698274,128.414317 C60.4998274,128.476317 60.2358274,128.704317 60.0758274,129.097317 C59.9178274,129.488317 59.9488274,129.833317 60.1708274,130.131317 C60.3928274,130.430317 60.8078274,130.705317 61.4158274,130.959317 L62.6388274,131.454317 C63.2888274,131.718317 63.8068274,131.819317 64.1918274,131.757317 C64.5778274,131.693317 64.8488274,131.470317 65.0038274,131.088317 C65.1568274,130.711317 65.1248274,130.372317 64.9078274,130.070317 C64.6898274,129.769317 64.2698274,129.487317 63.6458274,129.224317 L62.3948274,128.716317 Z M63.7488274,128.376317 C64.6438274,128.739317 65.2468274,129.162317 65.5578274,129.644317 C65.8688274,130.126317 65.8918274,130.692317 65.6278274,131.341317 C65.3678274,131.983317 64.9618274,132.370317 64.4118274,132.507317 C63.8618274,132.642317 63.1608274,132.544317 62.3118274,132.212317 L61.2918274,131.798317 C60.4088274,131.439317 59.8138274,131.020317 59.5098274,130.540317 C59.2038274,130.061317 59.1848274,129.494317 59.4488274,128.842317 C59.7108274,128.196317 60.1118274,127.804317 60.6498274,127.667317 C61.1878274,127.529317 61.8908274,127.632317 62.7588274,127.974317 L63.7488274,128.376317 Z" id="Fill-107" transform="translate(62.537194, 130.086981) rotate(-90.000000) translate(-62.537194, -130.086981) "></path>
                        <polygon id="Fill-109" transform="translate(58.056217, 127.817011) rotate(90.000000) translate(-58.056217, -127.817011) " points="61.115717 129.103011 60.697717 129.819011 55.953717 127.047011 55.642717 128.791011 54.996717 128.413011 55.421717 125.926011 55.487717 125.815011"></polygon>
                        <path d="M53.5664581,123.406097 C53.0104581,122.984097 52.5474581,122.754097 52.1734581,122.717097 C51.8014581,122.680097 51.4854581,122.830097 51.2294581,123.168097 C50.9734581,123.503097 50.9144581,123.844097 51.0504581,124.190097 C51.1864581,124.537097 51.5144581,124.912097 52.0354581,125.316097 L53.0854581,126.114097 C53.6434581,126.538097 54.1174581,126.771097 54.5054581,126.811097 C54.8954581,126.852097 55.2154581,126.708097 55.4644581,126.379097 C55.7114581,126.055097 55.7684581,125.719097 55.6374581,125.371097 C55.5064581,125.024097 55.1744581,124.641097 54.6414581,124.224097 L53.5664581,123.406097 Z M54.9624581,123.433097 C55.7314581,124.017097 56.2024581,124.583097 56.3764581,125.130097 C56.5494581,125.676097 56.4244581,126.228097 56.0004581,126.786097 C55.5814581,127.337097 55.0884581,127.606097 54.5224581,127.593097 C53.9554581,127.580097 53.3054581,127.302097 52.5724581,126.760097 L51.6964581,126.093097 C50.9384581,125.515097 50.4734581,124.956097 50.3044581,124.413097 C50.1354581,123.869097 50.2634581,123.318097 50.6904581,122.759097 C51.1124581,122.202097 51.6014581,121.929097 52.1564581,121.937097 C52.7124581,121.945097 53.3644581,122.228097 54.1114581,122.786097 L54.9624581,123.433097 Z" id="Fill-111" transform="translate(53.342069, 124.765236) rotate(-90.000000) translate(-53.342069, -124.765236) "></path>
                        <polygon id="Fill-113" transform="translate(49.491823, 121.641498) rotate(90.000000) translate(-49.491823, -121.641498) " points="52.389823 123.588998 51.817823 124.188998 47.839823 120.400998 47.135823 122.025998 46.593823 121.507998 47.579823 119.186998 47.668823 119.093998"></polygon>
                        <path d="M46.1779496,116.205069 C45.7229496,115.676069 45.3169496,115.353069 44.9609496,115.238069 C44.6039496,115.123069 44.2649496,115.205069 43.9419496,115.481069 C43.6219496,115.755069 43.4919496,116.076069 43.5529496,116.443069 C43.6129496,116.810069 43.8559496,117.246069 44.2799496,117.750069 L45.1389496,118.751069 C45.5949496,119.284069 46.0099496,119.610069 46.3809496,119.731069 C46.7529496,119.852069 47.0959496,119.778069 47.4089496,119.510069 C47.7179496,119.245069 47.8449496,118.929069 47.7899496,118.561069 C47.7349496,118.194069 47.4899496,117.750069 47.0559496,117.230069 L46.1779496,116.205069 Z M47.5369496,116.524069 C48.1649496,117.258069 48.5069496,117.909069 48.5629496,118.480069 C48.6179496,119.050069 48.3789496,119.564069 47.8469496,120.021069 C47.3219496,120.471069 46.7839496,120.630069 46.2319496,120.498069 C45.6809496,120.367069 45.1039496,119.959069 44.5019496,119.274069 L43.7849496,118.439069 C43.1639496,117.716069 42.8279496,117.070069 42.7769496,116.504069 C42.7259496,115.938069 42.9679496,115.426069 43.5009496,114.967069 C44.0319496,114.512069 44.5669496,114.347069 45.1079496,114.472069 C45.6499496,114.597069 46.2269496,115.010069 46.8409496,115.712069 L47.5369496,116.524069 Z" id="Fill-115" transform="translate(45.670479, 117.487317) rotate(-90.000000) translate(-45.670479, -117.487317) "></path>
                        <polygon id="Fill-117" transform="translate(42.465759, 113.696277) rotate(90.000000) translate(-42.465759, -113.696277) " points="45.110259 116.115277 44.434259 116.594277 41.256259 112.113277 40.254259 113.572277 39.821259 112.962277 41.235259 110.873277 41.340259 110.798277"></polygon>
                        <path d="M40.3048332,107.747309 C39.9508332,107.146309 39.6068332,106.758309 39.2768332,106.582309 C38.9448332,106.407309 38.5968332,106.427309 38.2308332,106.643309 C37.8678332,106.858309 37.6828332,107.151309 37.6788332,107.522309 C37.6748332,107.895309 37.8368332,108.366309 38.1668332,108.936309 L38.8368332,110.073309 C39.1938332,110.676309 39.5448332,111.070309 39.8898332,111.254309 C40.2348332,111.439309 40.5848332,111.426309 40.9398332,111.216309 C41.2898332,111.009309 41.4718332,110.721309 41.4808332,110.349309 C41.4908332,109.977309 41.3278332,109.497309 40.9908332,108.910309 L40.3048332,107.747309 Z M41.5878332,108.299309 C42.0788332,109.130309 42.3008332,109.832309 42.2568332,110.403309 C42.2108332,110.976309 41.8858332,111.440309 41.2828332,111.795309 C40.6858332,112.147309 40.1288332,112.210309 39.6088332,111.984309 C39.0888332,111.758309 38.5918332,111.255309 38.1178332,110.476309 L37.5588332,109.528309 C37.0748332,108.707309 36.8558332,108.014309 36.9048332,107.447309 C36.9528332,106.880309 37.2808332,106.418309 37.8868332,106.060309 C38.4878332,105.705309 39.0438332,105.637309 39.5548332,105.854309 C40.0658332,106.072309 40.5618332,106.580309 41.0448332,107.378309 L41.5878332,108.299309 Z" id="Fill-119" transform="translate(39.580201, 108.923680) rotate(-90.000000) translate(-39.580201, -108.923680) "></path>
                        <polygon id="Fill-121" transform="translate(36.987596, 104.525602) rotate(90.000000) translate(-36.987596, -104.525602) " points="39.348596 107.266102 38.605596 107.633102 36.178596 102.704102 34.956596 103.985102 34.626596 103.313102 36.353596 101.475102 36.470596 101.418102"></polygon>
                        <path d="M35.8269332,98.4649292 C35.5619332,97.8189292 35.2779332,97.3859292 34.9759332,97.1649292 C34.6729332,96.9439292 34.3259332,96.9139292 33.9319332,97.0749292 C33.5419332,97.2359292 33.3179332,97.4989292 33.2599332,97.8659292 C33.2019332,98.2339292 33.2949332,98.7239292 33.5399332,99.3359292 L34.0409332,100.555929 C34.3079332,101.203929 34.5979332,101.644929 34.9129332,101.875929 C35.2279332,102.108929 35.5769332,102.145929 35.9589332,101.988929 C36.3349332,101.834929 36.5549332,101.573929 36.6189332,101.207929 C36.6809332,100.840929 36.5889332,100.342929 36.3389332,99.7139292 L35.8269332,98.4649292 Z M37.0169332,99.1949292 C37.3839332,100.087929 37.5039332,100.813929 37.3779332,101.373929 C37.2499332,101.932929 36.8629332,102.345929 36.2139332,102.610929 C35.5739332,102.873929 35.0129332,102.856929 34.5309332,102.558929 C34.0489332,102.259929 33.6289332,101.691929 33.2719332,100.851929 L32.8539332,99.8349292 C32.4929332,98.9529292 32.3759332,98.2349292 32.5049332,97.6799292 C32.6339332,97.1269292 33.0239332,96.7159292 33.6749332,96.4479292 C34.3209332,96.1839292 34.8819332,96.1949292 35.3559332,96.4839292 C35.8299332,96.7719292 36.2489332,97.3459292 36.6119332,98.2059292 L37.0169332,99.1949292 Z" id="Fill-123" transform="translate(34.940241, 99.527140) rotate(-90.000000) translate(-34.940241, -99.527140) "></path>
                        <polygon id="Fill-125" transform="translate(32.964746, 94.771475) rotate(90.000000) translate(-32.964746, -94.771475) " points="35.0512463 97.723475 34.2662463 97.990475 32.4952463 92.7894745 31.1202463 93.9034745 30.8782463 93.1954745 32.8282463 91.5944745 32.9502463 91.5524745"></polygon>
                        <path d="M32.5787244,88.7160836 C32.3897244,88.0440836 32.1577244,87.5800836 31.8837244,87.3260836 C31.6077244,87.0710836 31.2667244,87.0010836 30.8577244,87.1160836 C30.4517244,87.2300836 30.1987244,87.4650836 30.0977244,87.8230836 C29.9977244,88.1810836 30.0337244,88.6790836 30.2057244,89.3160836 L30.5617244,90.5860836 C30.7507244,91.2600836 30.9887244,91.7320836 31.2747244,91.9980836 C31.5607244,92.2650836 31.9017244,92.3430836 32.2997244,92.2320836 C32.6917244,92.1220836 32.9397244,91.8880836 33.0457244,91.5320836 C33.1507244,91.1750836 33.1167244,90.6710836 32.9417244,90.0150836 L32.5787244,88.7160836 Z M33.6767244,89.5790836 C33.9367244,90.5080836 33.9717244,91.2430836 33.7807244,91.7840836 C33.5897244,92.3250836 33.1567244,92.6910836 32.4817244,92.8800836 C31.8147244,93.0670836 31.2597244,92.9840836 30.8157244,92.6320836 C30.3707244,92.2790836 30.0207244,91.6660836 29.7637244,90.7910836 L29.4667244,89.7310836 C29.2087244,88.8130836 29.1767244,88.0860836 29.3687244,87.5510836 C29.5607244,87.0160836 29.9967244,86.6540836 30.6747244,86.4640836 C31.3467244,86.2760836 31.9017244,86.3520836 32.3397244,86.6940836 C32.7777244,87.0350836 33.1277244,87.6530836 33.3877244,88.5490836 L33.6767244,89.5790836 Z" id="Fill-127" transform="translate(31.573659, 89.670513) rotate(-90.000000) translate(-31.573659, -89.670513) "></path>
                        <polygon id="Fill-129" transform="translate(30.172121, 84.538746) rotate(90.000000) translate(-30.172121, -84.538746) " points="32.0101211 87.6247455 31.2021211 87.8087455 29.9851211 82.4517455 28.4991211 83.4147455 28.3341211 82.6857455 30.4401211 81.2967455 30.5661211 81.2687455"></polygon>
                        <path d="M30.3477442,78.6667932 C30.2237442,77.9797932 30.0377442,77.4967932 29.7867442,77.2177932 C29.5377442,76.9377932 29.2047442,76.8357932 28.7867442,76.9117932 C28.3717442,76.9857932 28.0977442,77.1977932 27.9637442,77.5437932 C27.8297442,77.8917932 27.8187442,78.3897932 27.9307442,79.0397932 L28.1637442,80.3377932 C28.2887442,81.0267932 28.4807442,81.5187932 28.7407442,81.8117932 C28.9997442,82.1037932 29.3327442,82.2127932 29.7397442,82.1407932 C30.1397442,82.0677932 30.4097442,81.8597932 30.5477442,81.5147932 C30.6857442,81.1697932 30.6997442,80.6627932 30.5877442,79.9957932 L30.3477442,78.6667932 Z M31.3597442,79.6287932 C31.5317442,80.5787932 31.4967442,81.3147932 31.2547442,81.8347932 C31.0137442,82.3557932 30.5487442,82.6777932 29.8587442,82.8027932 C29.1777442,82.9247932 28.6327442,82.7907932 28.2237442,82.3977932 C27.8147442,82.0057932 27.5227442,81.3617932 27.3497442,80.4667932 L27.1547442,79.3827932 C26.9847442,78.4457932 27.0217442,77.7187932 27.2637442,77.2037932 C27.5057442,76.6897932 27.9727442,76.3697932 28.6667442,76.2447932 C29.3527442,76.1207932 29.8977442,76.2497932 30.3027442,76.6307932 C30.7057442,77.0127932 30.9947442,77.6617932 31.1697442,78.5777932 L31.3597442,79.6287932 Z" id="Fill-131" transform="translate(29.258414, 79.522778) rotate(-90.000000) translate(-29.258414, -79.522778) "></path>
                        <polygon id="Fill-133" transform="translate(28.449589, 74.258462) rotate(90.000000) translate(-28.449589, -74.258462) " points="30.0705892 77.4299623 29.2495892 77.5439623 28.4945892 72.1019623 26.9325892 72.9359623 26.8285892 72.1939623 29.0455892 70.9919623 29.1735892 70.9729623"></polygon>
                        <path d="M28.9804986,68.5002196 C28.9104986,67.8062196 28.7614986,67.3102196 28.5344986,67.0122196 C28.3064986,66.7142196 27.9814986,66.5862196 27.5594986,66.6292196 C27.1394986,66.6722196 26.8504986,66.8612196 26.6894986,67.1972196 C26.5294986,67.5332196 26.4804986,68.0292196 26.5404986,68.6862196 L26.6744986,69.9982196 C26.7454986,70.6942196 26.8984986,71.2002196 27.1354986,71.5112196 C27.3714986,71.8232196 27.6944986,71.9582196 28.1054986,71.9162196 C28.5094986,71.8752196 28.7944986,71.6882196 28.9594986,71.3542196 C29.1254986,71.0212196 29.1764986,70.5182196 29.1174986,69.8432196 L28.9804986,68.5002196 Z M29.9154986,69.5382196 C30.0124986,70.4992196 29.9204986,71.2292196 29.6404986,71.7292196 C29.3594986,72.2292196 28.8714986,72.5152196 28.1734986,72.5862196 C27.4854986,72.6562196 26.9524986,72.4792196 26.5744986,72.0562196 C26.1974986,71.6332196 25.9564986,70.9692196 25.8524986,70.0632196 L25.7414986,68.9682196 C25.6454986,68.0202196 25.7364986,67.2982196 26.0184986,66.8042196 C26.2994986,66.3102196 26.7904986,66.0272196 27.4904986,65.9562196 C28.1844986,65.8852196 28.7194986,66.0552196 29.0914986,66.4672196 C29.4654986,66.8782196 29.7034986,67.5472196 29.8064986,68.4752196 L29.9154986,69.5382196 Z" id="Fill-135" transform="translate(27.828728, 69.270818) rotate(-90.000000) translate(-27.828728, -69.270818) "></path>
                        <polygon id="Fill-137" transform="translate(27.369809, 63.952843) rotate(90.000000) translate(-27.369809, -63.952843) " points="28.8208085 67.171843 27.9938085 67.233843 27.5858085 61.754843 25.9738085 62.487843 25.9188085 61.740843 28.2078085 60.681843 28.3368085 60.671843"></polygon>
                        <path d="M28.1823721,58.3139086 C28.1203721,57.6189086 27.9793721,57.1209086 27.7553721,56.8199086 C27.5323721,56.5189086 27.2093721,56.3869086 26.7863721,56.4239086 C26.3663721,56.4609086 26.0743721,56.6469086 25.9093721,56.9799086 C25.7443721,57.3139086 25.6883721,57.8089086 25.7403721,58.4659086 L25.8553721,59.7799086 C25.9173721,60.4779086 26.0643721,60.9849086 26.2953721,61.2999086 C26.5273721,61.6149086 26.8493721,61.7539086 27.2613721,61.7179086 C27.6653721,61.6829086 27.9533721,61.4989086 28.1223721,61.1679086 C28.2913721,60.8369086 28.3503721,60.3339086 28.3003721,59.6589086 L28.1823721,58.3139086 Z M29.1013721,59.3649086 C29.1863721,60.3269086 29.0843721,61.0549086 28.7983721,61.5519086 C28.5103721,62.0479086 28.0173721,62.3269086 27.3193721,62.3889086 C26.6303721,62.4489086 26.0993721,62.2659086 25.7283721,61.8369086 C25.3563721,61.4089086 25.1243721,60.7419086 25.0333721,59.8339086 L24.9363721,58.7379086 C24.8533721,57.7879086 24.9553721,57.0679086 25.2433721,56.5779086 C25.5313721,56.0869086 26.0253721,55.8109086 26.7273721,55.7499086 C27.4223721,55.6889086 27.9533721,55.8659086 28.3213721,56.2819086 C28.6893721,56.6989086 28.9183721,57.3709086 29.0083721,58.2999086 L29.1013721,59.3649086 Z" id="Fill-139" transform="translate(27.019420, 59.069099) rotate(-90.000000) translate(-27.019420, -59.069099) "></path>
                        <polygon id="Fill-141" transform="translate(26.388783, 53.731848) rotate(90.000000) translate(-26.388783, -53.731848) " points="27.9587834 56.9188478 27.1367834 57.0168478 26.4847834 51.5628478 24.9077834 52.3658478 24.8187834 51.6228478 27.0577834 50.4618478 27.1867834 50.4468478"></polygon>
                        <path d="M26.9094951,48.0959293 C26.8024951,47.4069293 26.6274951,46.9189293 26.3844951,46.6329293 C26.1424951,46.3479293 25.8104951,46.2369293 25.3904951,46.3029293 C24.9734951,46.3669293 24.6954951,46.5719293 24.5524951,46.9149293 C24.4104951,47.2589293 24.3884951,47.7569293 24.4834951,48.4089293 L24.6844951,49.7129293 C24.7924951,50.4059293 24.9724951,50.9009293 25.2244951,51.1999293 C25.4764951,51.4989293 25.8074951,51.6169293 26.2154951,51.5539293 C26.6174951,51.4909293 26.8914951,51.2889293 27.0384951,50.9479293 C27.1854951,50.6069293 27.2114951,50.1009293 27.1164951,49.4299293 L26.9094951,48.0959293 Z M27.8964951,49.0829293 C28.0444951,50.0369293 27.9924951,50.7719293 27.7384951,51.2859293 C27.4844951,51.8009293 27.0114951,52.1109293 26.3174951,52.2189293 C25.6344951,52.3249293 25.0924951,52.1769293 24.6934951,51.7739293 C24.2944951,51.3709293 24.0184951,50.7209293 23.8674951,49.8209293 L23.6994951,48.7339293 C23.5534951,47.7919293 23.6074951,47.0669293 23.8624951,46.5579293 C24.1174951,46.0489293 24.5914951,45.7419293 25.2874951,45.6329293 C25.9774951,45.5259293 26.5194951,45.6679293 26.9134951,46.0589293 C27.3074951,46.4509293 27.5814951,47.1069293 27.7324951,48.0269293 L27.8964951,49.0829293 Z" id="Fill-143" transform="translate(25.799071, 48.925271) rotate(-90.000000) translate(-25.799071, -48.925271) "></path>
                        <polygon id="Fill-145" transform="translate(24.838153, 43.955692) rotate(90.000000) translate(-24.838153, -43.955692) " points="26.6006531 47.0741917 25.7876531 47.2331917 24.7326531 41.8421917 23.2196531 42.7611917 23.0756531 42.0261917 25.2226531 40.7021917 25.3496531 40.6781917"></polygon>
                        <path d="M24.8485504,37.8918237 C24.6845504,37.2138237 24.4695504,36.7428237 24.2035504,36.4778237 C23.9375504,36.2138237 23.5985504,36.1318237 23.1855504,36.2318237 C22.7755504,36.3308237 22.5155504,36.5578237 22.4015504,36.9118237 C22.2885504,37.2668237 22.3075504,37.7648237 22.4555504,38.4068237 L22.7665504,39.6888237 C22.9315504,40.3708237 23.1525504,40.8498237 23.4285504,41.1258237 C23.7045504,41.4028237 24.0435504,41.4928237 24.4455504,41.3958237 C24.8405504,41.2998237 25.0975504,41.0758237 25.2145504,40.7238237 C25.3335504,40.3708237 25.3165504,39.8648237 25.1655504,39.2038237 L24.8485504,37.8918237 Z M25.9155504,38.7938237 C26.1415504,39.7318237 26.1505504,40.4678237 25.9405504,41.0018237 C25.7295504,41.5358237 25.2845504,41.8848237 24.6035504,42.0498237 C23.9315504,42.2128237 23.3785504,42.1098237 22.9475504,41.7418237 C22.5155504,41.3738237 22.1865504,40.7488237 21.9615504,39.8658237 L21.7025504,38.7958237 C21.4785504,37.8688237 21.4715504,37.1418237 21.6835504,36.6138237 C21.8945504,36.0858237 22.3425504,35.7388237 23.0265504,35.5738237 C23.7055504,35.4088237 24.2565504,35.5058237 24.6825504,35.8628237 C25.1085504,36.2198237 25.4345504,36.8498237 25.6625504,37.7548237 L25.9155504,38.7938237 Z" id="Fill-147" transform="translate(23.810602, 38.810296) rotate(-90.000000) translate(-23.810602, -38.810296) "></path>
                        <polygon id="Fill-149" transform="translate(22.360369, 33.620620) rotate(90.000000) translate(-22.360369, -33.620620) " points="24.352869 36.6281196 23.558869 36.8631196 21.999869 31.5951196 20.579869 32.6521196 20.367869 31.9351196 22.378869 30.4141196 22.502869 30.3781196"></polygon>
                        <path d="M21.790787,27.8566733 C21.554787,27.1996733 21.290787,26.7546733 20.998787,26.5206733 C20.705787,26.2866733 20.359787,26.2406733 19.959787,26.3846733 C19.562787,26.5266733 19.327787,26.7806733 19.252787,27.1456733 C19.178787,27.5096733 19.249787,28.0026733 19.468787,28.6256733 L19.914787,29.8666733 C20.150787,30.5266733 20.421787,30.9796733 20.726787,31.2246733 C21.031787,31.4696733 21.377787,31.5236733 21.766787,31.3836733 C22.148787,31.2456733 22.380787,30.9956733 22.459787,30.6326733 C22.539787,30.2696733 22.468787,29.7676733 22.247787,29.1276733 L21.790787,27.8566733 Z M22.947787,28.6386733 C23.273787,29.5466733 23.362787,30.2776733 23.209787,30.8316733 C23.058787,31.3846733 22.652787,31.7796733 21.993787,32.0166733 C21.342787,32.2506733 20.782787,32.2086733 20.313787,31.8886733 C19.846787,31.5696733 19.452787,30.9826733 19.132787,30.1286733 L18.759787,29.0926733 C18.437787,28.1956733 18.352787,27.4736733 18.506787,26.9256733 C18.660787,26.3786733 19.068787,25.9856733 19.730787,25.7476733 C20.387787,25.5106733 20.946787,25.5476733 21.408787,25.8566733 C21.869787,26.1656733 22.261787,26.7576733 22.586787,27.6326733 L22.947787,28.6386733 Z" id="Fill-151" transform="translate(20.857396, 28.879539) rotate(-90.000000) translate(-20.857396, -28.879539) "></path>
                        <polygon id="Fill-153" transform="translate(18.986537, 24.054665) rotate(90.000000) translate(-18.986537, -24.054665) " points="21.2525366 26.8771652 20.4925366 27.2081652 18.2995366 22.1711652 17.0195366 23.3951652 16.7205366 22.7081652 18.5315366 20.9531652 18.6495366 20.9011652"></polygon>
                        <path d="M17.484988,18.249567 C17.158988,17.632567 16.834988,17.228567 16.511988,17.038567 C16.188988,16.847567 15.839988,16.851567 15.464988,17.049567 C15.090988,17.247567 14.893988,17.531567 14.871988,17.902567 C14.849988,18.273567 14.989988,18.752567 15.292988,19.337567 L15.908988,20.503567 C16.236988,21.123567 16.568988,21.533567 16.905988,21.733567 C17.241988,21.934567 17.591988,21.937567 17.956988,21.744567 C18.316988,21.554567 18.509988,21.273567 18.537988,20.903567 C18.564988,20.532567 18.423988,20.045567 18.115988,19.443567 L17.484988,18.249567 Z M18.739988,18.860567 C19.191988,19.714567 19.380988,20.425567 19.308988,20.994567 C19.236988,21.563567 18.890988,22.011567 18.271988,22.339567 C17.659988,22.662567 17.098988,22.699567 16.590988,22.449567 C16.081988,22.199567 15.608988,21.674567 15.171988,20.873567 L14.657988,19.900567 C14.212988,19.057567 14.026988,18.354567 14.101988,17.790567 C14.176988,17.226567 14.525988,16.780567 15.147988,16.451567 C15.764988,16.124567 16.323988,16.082567 16.823988,16.323567 C17.323988,16.564567 17.796988,17.095567 18.240988,17.915567 L18.739988,18.860567 Z" id="Fill-155" transform="translate(16.704849, 19.391387) rotate(-90.000000) translate(-16.704849, -19.391387) "></path>
                        <polygon id="Fill-157" transform="translate(14.033769, 14.989247) rotate(90.000000) translate(-14.033769, -14.989247) " points="16.6087691 17.5007472 15.9127691 17.9507472 12.9297691 13.3377472 11.8657691 14.7537472 11.4587691 14.1257472 12.9597691 12.0977472 13.0687691 12.0277472"></polygon>
                        <path d="M11.5681326,9.38521064 C11.1311326,8.84121064 10.7361326,8.50521064 10.3841326,8.37821064 C10.0311326,8.25221064 9.69013263,8.32221064 9.35813263,8.58721064 C9.02813263,8.85121064 8.88913263,9.16721064 8.93713263,9.53621064 C8.98513263,9.90521064 9.21313263,10.3482106 9.62113263,10.8662106 L10.4461326,11.8952106 C10.8841326,12.4422106 11.2871326,12.7822106 11.6551326,12.9162106 C12.0231326,13.0502106 12.3681326,12.9872106 12.6901326,12.7292106 C13.0071326,12.4742106 13.1441326,12.1622106 13.1021326,11.7932106 C13.0591326,11.4242106 12.8291326,10.9722106 12.4131326,10.4382106 L11.5681326,9.38521064 Z M12.9161326,9.74921064 C13.5211326,10.5022106 13.8401326,11.1652106 13.8771326,11.7372106 C13.9131326,12.3092106 13.6581326,12.8152106 13.1101326,13.2542106 C12.5701326,13.6862106 12.0281326,13.8282106 11.4811326,13.6782106 C10.9351326,13.5282106 10.3711326,13.1012106 9.79113263,12.3972106 L9.10313263,11.5392106 C8.50613263,10.7952106 8.19213263,10.1392106 8.16013263,9.57121064 C8.12713263,9.00421064 8.38513263,8.49921064 8.93413263,8.05921064 C9.47913263,7.62221064 10.0191326,7.47521064 10.5571326,7.61821064 C11.0931326,7.76021064 11.6571326,8.19321064 12.2471326,8.91421064 L12.9161326,9.74921064 Z" id="Fill-159" transform="translate(11.018899, 10.650680) rotate(-90.000000) translate(-11.018899, -10.650680) "></path>
                        <polygon id="Fill-161" transform="translate(7.693348, 6.855914) rotate(90.000000) translate(-7.693348, -6.855914) " points="10.5723475 8.84991381 9.99034751 9.43991381 6.07934751 5.58191381 5.34734751 7.19391381 4.81434751 6.66791381 5.84234751 4.36391378 5.93234751 4.27191378"></polygon>
                        <path d="M3.78509619,1.98621422 C3.22709619,1.56721422 2.76209619,1.33921422 2.38909619,1.30321422 C2.01609619,1.26821422 1.70209619,1.42021422 1.44609619,1.75921422 C1.19209619,2.09621422 1.13409619,2.43721422 1.27209619,2.78221422 C1.41009619,3.12821422 1.74009619,3.50121422 2.26309619,3.90321422 L3.31709619,4.69621422 C3.87709619,5.11821419 4.35209619,5.34821419 4.74109619,5.38621419 C5.13109619,5.42521419 5.44909619,5.27921419 5.69709619,4.94921422 C5.94209619,4.62421422 5.99809619,4.28821422 5.86609619,3.94121422 C5.73309619,3.59321422 5.39909619,3.21321422 4.86309619,2.79821422 L3.78509619,1.98621422 Z M5.18109619,2.00621422 C5.95209619,2.58721422 6.42609619,3.15021422 6.60309619,3.69521422 C6.77909619,4.24121422 6.65709619,4.79421422 6.23509619,5.35421419 C5.81909619,5.90721419 5.32709619,6.17821419 4.76109619,6.16821419 C4.19409619,6.15821419 3.54309619,5.88321419 2.80609619,5.34321419 L1.92809619,4.68221422 C1.16609619,4.10821422 0.699096213,3.55021422 0.527096213,3.00821422 C0.356096213,2.46621422 0.482096213,1.91421422 0.905096213,1.35221422 C1.32509619,0.79421422 1.81309619,0.51821422 2.36809619,0.52321422 C2.92309619,0.52921422 3.57709619,0.80821422 4.32709619,1.36321422 L5.18109619,2.00621422 Z" id="Fill-163" transform="translate(3.567130, 3.345814) rotate(-90.000000) translate(-3.567130, -3.345814) "></path>
                    </g>
                </g>
            </g>
        </g>
    </g>
</svg>