<?xml version="1.0" encoding="UTF-8"?>
<svg width="165px" height="163px" viewBox="0 0 165 163" version="1.1" xmlns="http://www.w3.org/2000/svg" xmlns:xlink="http://www.w3.org/1999/xlink">
    <title>Group 56</title>
    <defs>
        <path d="M82.8336364,32.4518182 C109.567565,32.4518182 131.239697,54.1239497 131.239697,80.8578788 C131.239697,107.591808 109.567565,129.263939 82.8336364,129.263939 C56.0997073,129.263939 34.4275758,107.591808 34.4275758,80.8578788 C34.4275758,54.1239497 56.0997073,32.4518182 82.8336364,32.4518182 Z M82.8336364,34.6271676 C57.3011196,34.6271676 36.6029252,55.325362 36.6029252,80.8578788 C36.6029252,106.390396 57.3011196,127.08859 82.8336364,127.08859 C108.366153,127.08859 129.064348,106.390396 129.064348,80.8578788 C129.064348,55.325362 108.366153,34.6271676 82.8336364,34.6271676 Z" id="path-1"></path>
        <filter x="-15.5%" y="-15.5%" width="131.0%" height="131.0%" filterUnits="objectBoundingBox" id="filter-2">
            <feOffset dx="0" dy="0" in="SourceAlpha" result="shadowOffsetOuter1"></feOffset>
            <feGaussianBlur stdDeviation="5" in="shadowOffsetOuter1" result="shadowBlurOuter1"></feGaussianBlur>
            <feColorMatrix values="0 0 0 0 0.771512681   0 0 0 0 0.222883075   0 0 0 0 0.622925496  0 0 0 1 0" type="matrix" in="shadowBlurOuter1"></feColorMatrix>
        </filter>
        <path d="M82.8336364,32.4518182 C109.567565,32.4518182 131.239697,54.1239497 131.239697,80.8578788 C131.239697,107.591808 109.567565,129.263939 82.8336364,129.263939 C56.0997073,129.263939 34.4275758,107.591808 34.4275758,80.8578788 C34.4275758,54.1239497 56.0997073,32.4518182 82.8336364,32.4518182 Z M82.8336364,34.6271676 C57.3011196,34.6271676 36.6029252,55.325362 36.6029252,80.8578788 C36.6029252,106.390396 57.3011196,127.08859 82.8336364,127.08859 C108.366153,127.08859 129.064348,106.390396 129.064348,80.8578788 C129.064348,55.325362 108.366153,34.6271676 82.8336364,34.6271676 Z" id="path-3"></path>
        <filter x="-15.5%" y="-15.5%" width="131.0%" height="131.0%" filterUnits="objectBoundingBox" id="filter-4">
            <feOffset dx="0" dy="0" in="SourceAlpha" result="shadowOffsetOuter1"></feOffset>
            <feGaussianBlur stdDeviation="5" in="shadowOffsetOuter1" result="shadowBlurOuter1"></feGaussianBlur>
            <feColorMatrix values="0 0 0 0 0.771512681   0 0 0 0 0.222883075   0 0 0 0 0.622925496  0 0 0 0.5 0" type="matrix" in="shadowBlurOuter1"></feColorMatrix>
        </filter>
    </defs>
    <g id="Page-1" stroke="none" stroke-width="1" fill="none" fill-rule="evenodd">
        <g id="Group-56">
            <g id="Group-55">
                <g id="Group-54">
                    <g id="Group-53">
                        <g id="Group-32-Copy" transform="translate(0.000000, 0.000000)">
                            <g id="Group-18" transform="translate(1.966598, 1.988071)" opacity="0.200000003" stroke="#FFFFFF">
                                <g id="Group-17">
                                    <g id="Group-16">
                                        <polyline id="Path-21" points="57.2331011 120.06156 57.2331011 124.202566 54.1658191 127.394077 49.1304674 127.394077 45.6118827 130.071815 45.6118827 153.227762"></polyline>
                                        <polyline id="Path-22" points="51.4224919 116.845822 51.4224919 119.393605 46.9334869 122.049364 40.0749739 129.000369 40.0749739 135.084613"></polyline>
                                        <polyline id="Path-23" points="45.6118827 112.070513 45.6118827 115.549488 32.4779954 128.310438"></polyline>
                                        <polyline id="Path-24" points="37.5237465 98.8147054 36.2235855 115.106596 21.8823998 129.38107 21.8823998 135.75668 18.8025379 138.769884 10.7271662 138.769884"></polyline>
                                        <polyline id="Path-25" points="35.3842612 94.6404765 32.4779954 96.8053231 26.6522941 96.8053231 23.2472122 100.173806 23.2472122 110.613741 2.3191619 132.16612"></polyline>
                                        <polyline id="Path-26" points="9.48604856 106.545247 9.48604856 94.3124325 13.4586441 90.5200515 28.4683378 90.5200515 33.9026307 87.1624766"></polyline>
                                        <polyline id="Path-27" points="1.31060907 80.4868735 9.48604856 72.386948 24.8860526 72.386948 32.4779954 78.0808275"></polyline>
                                        <polyline id="Path-28" points="32.4779954 82.549281 26.9562034 84.8741014 7.69455853 84.8741014 3.29528538 88.4436465 3.29528538 100.635693"></polyline>
                                        <polyline id="Path-29" points="9.48604856 58.0786549 16.8493644 58.0786549 19.6871643 55.1349964 26.611989 55.1349964 29.4143483 58.0786549 29.4143483 62.9532497 34.6363273 64.748874"></polyline>
                                        <polyline id="Path-30" points="3.50965048e-15 48.3748664 28.0342477 48.3748664 32.4779954 51.3296436 32.4779954 55.1349964 37.5237465 56.8003877"></polyline>
                                        <polyline id="Path-31" points="9.48604856 38.7711457 36.3885119 38.7711457 39.0369403 41.156165 44.5375756 46.4020024"></polyline>
                                        <polyline id="Path-32" points="8.5154844 19.8773423 18.7203064 19.8773423 22.6319811 23.4672715 35.5370098 23.4672715 52.9356478 38.7711457"></polyline>
                                        <polyline id="Path-33" points="16.8224944 9.88354273 33.0274413 9.88354273 48.4795639 24.2377002 60.4473844 24.2377002 64.2221609 26.7597772 64.2221609 34.0870977"></polyline>
                                        <polyline id="Path-34" points="48.7255637 3.6839773 55.260078 9.88354273 64.9388496 9.88354273 68.9383152 12.9508961 68.9383152 32.5226243"></polyline>
                                        <polyline id="Path-35" points="59.9229555 0 67.8778754 6.42286766 71.5391492 6.42286766 76.4155971 10.6882539 76.4155971 31.3594531"></polyline>
                                        <polyline id="Path-36" points="90.9888843 6.14629162 86.9792266 9.88354273 86.9792266 24.8450556 80.8670385 31.3594531"></polyline>
                                        <polyline id="Path-37" points="96.190089 15.9376394 96.190089 22.0959732 88.557719 31.3594531"></polyline>
                                        <polyline id="Path-38" points="101.837429 10.6525816 101.837429 17.7352678 104.375721 19.8773423 104.375721 27.1392006 101.837429 30.3446104 94.8444495 33.0059814"></polyline>
                                        <polyline id="Path" points="105.503335 38.2705485 107.222091 38.2705485 107.222091 33.9811834 110.981058 33.9811834 110.981058 16.2510905 115.069374 12.1924378 124.751285 12.1924378 136.982332 9.3909589e-13"></polyline>
                                        <polyline id="Path-2" points="124.739514 20.6299155 124.739514 33.3892463 113.128566 45.3820473"></polyline>
                                        <polyline id="Path-3" points="147.567318 20.6299155 138.751283 20.6299155 135.980853 23.5091106 135.980853 30.3075894 122.107511 44.3645591 122.107511 54.9841682"></polyline>
                                        <polyline id="Path-4" points="157.596239 23.5712616 150.655566 30.8128022 150.655566 40.7772185 147.567318 43.2048767 141.282997 43.2048767 134.000494 50.5245769 134.000494 61.5606283 131.998005 64.108351 126.453284 64.108351"></polyline>
                                        <polyline id="Path-5" points="144.831729 51.1267831 148.763725 54.9575486 148.763725 66.3730981 145.86193 69.3549366 127.867206 69.3549366"></polyline>
                                        <polyline id="Path-6" points="159.067148 60.2408599 159.067148 72.3904511 156.110264 76.8916947 132.807852 76.8916947 128.745061 78.3064478"></polyline>
                                        <polyline id="Path-7" points="155.101712 82.8374798 149.712471 88.9810183 131.416045 88.9810183 128.012978 86.2084366"></polyline>
                                        <line x1="126.01531" y1="94.1240187" x2="155.914865" y2="94.1240187" id="Path-8"></line>
                                        <polyline id="Path-9" points="124.373121 98.3712595 127.649314 98.5772366 130.798772 100.929089 130.798772 104.356344 134.54667 107.266144 146.791371 107.266144 149.949775 103.643019 155.914865 103.643019"></polyline>
                                        <polyline id="Path-10" points="122.316604 102.619881 124.654763 102.619881 127.582926 105.584769 127.582926 110.569096 132.807852 114.96958 159.845663 114.96958"></polyline>
                                        <polyline id="Path-11" points="116.506853 110.137334 116.506853 111.744787 120.774559 110.941061 136.57505 127.302799 146.036612 127.302799 148.763725 129.938569 148.763725 138.343559 155.914865 144.952759"></polyline>
                                        <line x1="113.238743" y1="114.052851" x2="127.211432" y2="127.545047" id="Path-12"></line>
                                        <polyline id="Path-13" points="96.9312141 123.177671 99.6690938 122.937628 114.895634 122.937628 128.113093 136.936214 136.57505 136.936214 139.323356 139.744783 139.323356 148.49537"></polyline>
                                        <polyline id="Path-14" points="91.9392908 125.042325 95.2229386 125.448155 95.2229386 132.324322 99.0150952 136.038319 109.762521 136.038319 130.275668 156.347592"></polyline>
                                        <path d="" id="Path-15"></path>
                                        <polyline id="Path-16" points="85.0676182 126.860745 89.9791781 129.489857 89.9791781 146.214614 92.8094056 149.712024 105.370983 149.712024 108.869335 144.952759"></polyline>
                                        <polyline id="Path-17" points="81.2987462 125.066352 81.2987462 127.545047 84.0586054 131.008321 84.0586054 152.611465 89.7216278 158.837872 102.579835 158.837872"></polyline>
                                        <polyline id="Path-18" points="77.0428109 125.042325 77.0428109 128.147959 71.5688089 133.384186 71.5688089 150.379206 77.0428109 155.490404"></polyline>
                                        <polyline id="Path-19" points="69.6882684 124.215141 69.6882684 126.081436 64.7387837 132.16612"></polyline>
                                        <polyline id="Path-20" points="61.4461899 122.152563 61.4461899 125.779862 58.7548605 130.348672 55.0262675 130.348672 53.0200124 132.16612 53.0200124 140.110156 57.2331011 142.303806 57.2331011 149.712024"></polyline>
                                    </g>
                                </g>
                            </g>
                            <g id="Group-31" fill="#574390">
                                <path d="M138.644426,3.6791457 C139.378029,3.6791457 139.972732,3.08444275 139.972732,2.35083947 C139.972732,1.61723619 139.378029,1.02253324 138.644426,1.02253324 C137.910822,1.02253324 137.316119,1.61723619 137.316119,2.35083947 C137.316119,3.08444275 137.910822,3.6791457 138.644426,3.6791457 Z" id="Oval"></path>
                                <path d="M150.294127,23.946293 C151.02773,23.946293 151.622433,23.35159 151.622433,22.6179868 C151.622433,21.8843835 151.02773,21.2896805 150.294127,21.2896805 C149.560524,21.2896805 148.965821,21.8843835 148.965821,22.6179868 C148.965821,23.35159 149.560524,23.946293 150.294127,23.946293 Z" id="Oval-Copy-2"></path>
                                <path d="M126.711079,23.240971 C127.444682,23.240971 128.039385,22.6462681 128.039385,21.9126648 C128.039385,21.1790615 127.444682,20.5843586 126.711079,20.5843586 C125.977476,20.5843586 125.382773,21.1790615 125.382773,21.9126648 C125.382773,22.6462681 125.977476,23.240971 126.711079,23.240971 Z" id="Oval-Copy-5"></path>
                                <path d="M103.790649,13.1579889 C104.524252,13.1579889 105.118955,12.563286 105.118955,11.8296827 C105.118955,11.0960794 104.524252,10.5013764 103.790649,10.5013764 C103.057046,10.5013764 102.462343,11.0960794 102.462343,11.8296827 C102.462343,12.563286 103.057046,13.1579889 103.790649,13.1579889 Z" id="Oval-Copy-6"></path>
                                <path d="M98.1393536,18.3636219 C98.8729569,18.3636219 99.4676598,17.7689189 99.4676598,17.0353156 C99.4676598,16.3017124 98.8729569,15.7070094 98.1393536,15.7070094 C97.4057503,15.7070094 96.8110473,16.3017124 96.8110473,17.0353156 C96.8110473,17.7689189 97.4057503,18.3636219 98.1393536,18.3636219 Z" id="Oval-Copy-7"></path>
                                <path d="M93.724189,8.79411363 C94.4577923,8.79411363 95.0524953,8.19941067 95.0524953,7.4658074 C95.0524953,6.73220412 94.4577923,6.13750116 93.724189,6.13750116 C92.9905858,6.13750116 92.3958828,6.73220412 92.3958828,7.4658074 C92.3958828,8.19941067 92.9905858,8.79411363 93.724189,8.79411363 Z" id="Oval-Copy-8"></path>
                                <path d="M61.1802917,2.65661247 C61.913895,2.65661247 62.508598,2.06190951 62.508598,1.32830623 C62.508598,0.594702957 61.913895,4.02499198e-14 61.1802917,4.02499198e-14 C60.4466885,4.02499198e-14 59.8519855,0.594702957 59.8519855,1.32830623 C59.8519855,2.06190951 60.4466885,2.65661247 61.1802917,2.65661247 Z" id="Oval-Copy-9"></path>
                                <path d="M50.0236888,6.25384546 C50.7572921,6.25384546 51.3519951,5.6591425 51.3519951,4.92553922 C51.3519951,4.19193595 50.7572921,3.59723299 50.0236888,3.59723299 C49.2900856,3.59723299 48.6953826,4.19193595 48.6953826,4.92553922 C48.6953826,5.6591425 49.2900856,6.25384546 50.0236888,6.25384546 Z" id="Oval-Copy-10"></path>
                                <path d="M17.7167902,13.1999203 C18.4503935,13.1999203 19.0450964,12.6052173 19.0450964,11.871614 C19.0450964,11.1380108 18.4503935,10.5433078 17.7167902,10.5433078 C16.9831869,10.5433078 16.3884839,11.1380108 16.3884839,11.871614 C16.3884839,12.6052173 16.9831869,13.1999203 17.7167902,13.1999203 Z" id="Oval-Copy-11"></path>
                                <path d="M9.39669069,23.1937198 C10.130294,23.1937198 10.7249969,22.5990168 10.7249969,21.8654136 C10.7249969,21.1318103 10.130294,20.5371073 9.39669069,20.5371073 C8.66308741,20.5371073 8.06838446,21.1318103 8.06838446,21.8654136 C8.06838446,22.5990168 8.66308741,23.1937198 9.39669069,23.1937198 Z" id="Oval-Copy-12"></path>
                                <path d="M10.3639928,42.0875232 C11.097596,42.0875232 11.692299,41.4928202 11.692299,40.759217 C11.692299,40.0256137 11.097596,39.4309107 10.3639928,39.4309107 C9.63038949,39.4309107 9.03568653,40.0256137 9.03568653,40.759217 C9.03568653,41.4928202 9.63038949,42.0875232 10.3639928,42.0875232 Z" id="Oval-Copy-13"></path>
                                <path d="M1.32830623,51.691244 C2.06190951,51.691244 2.65661247,51.096541 2.65661247,50.3629377 C2.65661247,49.6293345 2.06190951,49.0346315 1.32830623,49.0346315 C0.594702957,49.0346315 -1.76376053e-14,49.6293345 -1.76376053e-14,50.3629377 C-1.76376053e-14,51.096541 0.594702957,51.691244 1.32830623,51.691244 Z" id="Oval-Copy-14"></path>
                                <path d="M10.4876907,61.4450714 C11.221294,61.4450714 11.815997,60.8503685 11.815997,60.1167652 C11.815997,59.3831619 11.221294,58.788459 10.4876907,58.788459 C9.75408746,58.788459 9.1593845,59.3831619 9.1593845,60.1167652 C9.1593845,60.8503685 9.75408746,61.4450714 10.4876907,61.4450714 Z" id="Oval-Copy-15"></path>
                                <path d="M2.55164201,84.5373523 C3.28524529,84.5373523 3.87994825,83.9426494 3.87994825,83.2090461 C3.87994825,82.4754428 3.28524529,81.8807399 2.55164201,81.8807399 C1.81803874,81.8807399 1.22333578,82.4754428 1.22333578,83.2090461 C1.22333578,83.9426494 1.81803874,84.5373523 2.55164201,84.5373523 Z" id="Oval-Copy-16"></path>
                                <path d="M5.2614,105.052474 C5.99500328,105.052474 6.58970623,104.457772 6.58970623,103.724168 C6.58970623,102.990565 5.99500328,102.395862 5.2614,102.395862 C4.52779673,102.395862 3.93309377,102.990565 3.93309377,103.724168 C3.93309377,104.457772 4.52779673,105.052474 5.2614,105.052474 Z" id="Oval-Copy-17"></path>
                                <path d="M11.4357944,111.050029 C12.1693976,111.050029 12.7641006,110.455326 12.7641006,109.721723 C12.7641006,108.98812 12.1693976,108.393417 11.4357944,108.393417 C10.7021911,108.393417 10.1074881,108.98812 10.1074881,109.721723 C10.1074881,110.455326 10.7021911,111.050029 11.4357944,111.050029 Z" id="Oval-Copy-36"></path>
                                <path d="M3.5614772,136.362731 C4.29508047,136.362731 4.88978343,135.768028 4.88978343,135.034424 C4.88978343,134.300821 4.29508047,133.706118 3.5614772,133.706118 C2.82787392,133.706118 2.23317096,134.300821 2.23317096,135.034424 C2.23317096,135.768028 2.82787392,136.362731 3.5614772,136.362731 Z" id="Oval-Copy-18"></path>
                                <path d="M11.5663225,142.086261 C12.2999258,142.086261 12.8946288,141.491558 12.8946288,140.757955 C12.8946288,140.024352 12.2999258,139.429649 11.5663225,139.429649 C10.8327192,139.429649 10.2380163,140.024352 10.2380163,140.757955 C10.2380163,141.491558 10.8327192,142.086261 11.5663225,142.086261 Z" id="Oval-Copy-19"></path>
                                <path d="M47.5717785,157.63796 C48.3053818,157.63796 48.9000847,157.043257 48.9000847,156.309654 C48.9000847,155.576051 48.3053818,154.981348 47.5717785,154.981348 C46.8381752,154.981348 46.2434723,155.576051 46.2434723,156.309654 C46.2434723,157.043257 46.8381752,157.63796 47.5717785,157.63796 Z" id="Oval-Copy-20"></path>
                                <path d="M33.7915403,132.316747 C34.5251436,132.316747 35.1198466,131.722044 35.1198466,130.98844 C35.1198466,130.254837 34.5251436,129.660134 33.7915403,129.660134 C33.0579371,129.660134 32.4632341,130.254837 32.4632341,130.98844 C32.4632341,131.722044 33.0579371,132.316747 33.7915403,132.316747 Z" id="Oval-Copy-21"></path>
                                <path d="M59.1952673,154.091109 C59.9288706,154.091109 60.5235735,153.496406 60.5235735,152.762803 C60.5235735,152.029199 59.9288706,151.434497 59.1952673,151.434497 C58.461664,151.434497 57.8669611,152.029199 57.8669611,152.762803 C57.8669611,153.496406 58.461664,154.091109 59.1952673,154.091109 Z" id="Oval-Copy-22"></path>
                                <path d="M66.302002,136.111619 C67.0356053,136.111619 67.6303083,135.516916 67.6303083,134.783313 C67.6303083,134.049709 67.0356053,133.455006 66.302002,133.455006 C65.5683988,133.455006 64.9736958,134.049709 64.9736958,134.783313 C64.9736958,135.516916 65.5683988,136.111619 66.302002,136.111619 Z" id="Oval-Copy-23"></path>
                                <path d="M42.0415584,139.603192 C42.7751617,139.603192 43.3698646,139.008489 43.3698646,138.274886 C43.3698646,137.541282 42.7751617,136.946579 42.0415584,136.946579 C41.3079551,136.946579 40.7132522,137.541282 40.7132522,138.274886 C40.7132522,139.008489 41.3079551,139.603192 42.0415584,139.603192 Z" id="Oval-Copy-37"></path>
                                <path d="M79.6417827,159.417208 C80.375386,159.417208 80.970089,158.822505 80.970089,158.088902 C80.970089,157.355299 80.375386,156.760596 79.6417827,156.760596 C78.9081794,156.760596 78.3134765,157.355299 78.3134765,158.088902 C78.3134765,158.822505 78.9081794,159.417208 79.6417827,159.417208 Z" id="Oval-Copy-24"></path>
                                <path d="M105.131715,162.270357 C105.865319,162.270357 106.460021,161.675654 106.460021,160.942051 C106.460021,160.208447 105.865319,159.613744 105.131715,159.613744 C104.398112,159.613744 103.803409,160.208447 103.803409,160.942051 C103.803409,161.675654 104.398112,162.270357 105.131715,162.270357 Z" id="Oval-Copy-25"></path>
                                <path d="M111.37888,147.738498 C112.112483,147.738498 112.707186,147.143796 112.707186,146.410192 C112.707186,145.676589 112.112483,145.081886 111.37888,145.081886 C110.645277,145.081886 110.050574,145.676589 110.050574,146.410192 C110.050574,147.143796 110.645277,147.738498 111.37888,147.738498 Z" id="Oval-Copy-26"></path>
                                <path d="M133.012363,160.291299 C133.745966,160.291299 134.340669,159.696596 134.340669,158.962993 C134.340669,158.229389 133.745966,157.634686 133.012363,157.634686 C132.278759,157.634686 131.684056,158.229389 131.684056,158.962993 C131.684056,159.696596 132.278759,160.291299 133.012363,160.291299 Z" id="Oval-Copy-27"></path>
                                <path d="M141.301982,152.779231 C142.035586,152.779231 142.630288,152.184528 142.630288,151.450925 C142.630288,150.717321 142.035586,150.122618 141.301982,150.122618 C140.568379,150.122618 139.973676,150.717321 139.973676,151.450925 C139.973676,152.184528 140.568379,152.779231 141.301982,152.779231 Z" id="Oval-Copy-28"></path>
                                <path d="M158.650919,149.013137 C159.384523,149.013137 159.979225,148.418434 159.979225,147.684831 C159.979225,146.951228 159.384523,146.356525 158.650919,146.356525 C157.917316,146.356525 157.322613,146.951228 157.322613,147.684831 C157.322613,148.418434 157.917316,149.013137 158.650919,149.013137 Z" id="Oval-Copy-29"></path>
                                <path d="M129.967614,131.505429 C130.701218,131.505429 131.295921,130.910726 131.295921,130.177122 C131.295921,129.443519 130.701218,128.848816 129.967614,128.848816 C129.234011,128.848816 128.639308,129.443519 128.639308,130.177122 C128.639308,130.910726 129.234011,131.505429 129.967614,131.505429 Z" id="Oval-Copy-30"></path>
                                <path d="M162.691652,118.285957 C163.425255,118.285957 164.019958,117.691254 164.019958,116.957651 C164.019958,116.224048 163.425255,115.629345 162.691652,115.629345 C161.958049,115.629345 161.363346,116.224048 161.363346,116.957651 C161.363346,117.691254 161.958049,118.285957 162.691652,118.285957 Z" id="Oval-Copy-31"></path>
                                <path d="M158.263965,106.927554 C158.997568,106.927554 159.592271,106.332851 159.592271,105.599248 C159.592271,104.865645 158.997568,104.270942 158.263965,104.270942 C157.530361,104.270942 156.935658,104.865645 156.935658,105.599248 C156.935658,106.332851 157.530361,106.927554 158.263965,106.927554 Z" id="Oval-Copy-32"></path>
                                <path d="M158.928407,97.4403963 C159.66201,97.4403963 160.256713,96.8456933 160.256713,96.11209 C160.256713,95.3784868 159.66201,94.7837838 158.928407,94.7837838 C158.194803,94.7837838 157.6001,95.3784868 157.6001,96.11209 C157.6001,96.8456933 158.194803,97.4403963 158.928407,97.4403963 Z" id="Oval-Copy-33"></path>
                                <path d="M157.704196,85.5411379 C158.437799,85.5411379 159.032502,84.9464349 159.032502,84.2128316 C159.032502,83.4792284 158.437799,82.8845254 157.704196,82.8845254 C156.970593,82.8845254 156.37589,83.4792284 156.37589,84.2128316 C156.37589,84.9464349 156.970593,85.5411379 157.704196,85.5411379 Z" id="Oval-Copy-34"></path>
                                <path d="M161.038278,63.090158 C161.771882,63.090158 162.366585,62.4954551 162.366585,61.7618518 C162.366585,61.0282485 161.771882,60.4335455 161.038278,60.4335455 C160.304675,60.4335455 159.709972,61.0282485 159.709972,61.7618518 C159.709972,62.4954551 160.304675,63.090158 161.038278,63.090158 Z" id="Oval-Copy-35"></path>
                                <path d="M159.966079,26.5066917 C160.699682,26.5066917 161.294385,25.9119887 161.294385,25.1783854 C161.294385,24.4447822 160.699682,23.8500792 159.966079,23.8500792 C159.232476,23.8500792 158.637773,24.4447822 158.637773,25.1783854 C158.637773,25.9119887 159.232476,26.5066917 159.966079,26.5066917 Z" id="Oval-Copy-3"></path>
                                <path d="M146.751977,54.2347831 C147.48558,54.2347831 148.080283,53.6400802 148.080283,52.9064769 C148.080283,52.1728736 147.48558,51.5781707 146.751977,51.5781707 C146.018374,51.5781707 145.423671,52.1728736 145.423671,52.9064769 C145.423671,53.6400802 146.018374,54.2347831 146.751977,54.2347831 Z" id="Oval-Copy-4"></path>
                            </g>
                        </g>
                    </g>
                </g>
                <g id="Group-52" transform="translate(28.704403, 28.704403)"></g>
            </g>
            <g id="Combined-Shape">
                <use fill="black" fill-opacity="1" filter="url(#filter-2)" xlink:href="#path-1"></use>
                <use fill="#CC6CB2" fill-rule="evenodd" xlink:href="#path-1"></use>
            </g>
            <g id="Combined-Shape-Copy">
                <use fill="black" fill-opacity="1" filter="url(#filter-4)" xlink:href="#path-3"></use>
                <use fill="#CC6CB2" fill-rule="evenodd" xlink:href="#path-3"></use>
            </g>
        </g>
    </g>
</svg>