<?xml version="1.0" encoding="UTF-8"?>
<svg width="406px" height="80px" viewBox="0 0 406 80" version="1.1" xmlns="http://www.w3.org/2000/svg" xmlns:xlink="http://www.w3.org/1999/xlink">
    <title>Group 169</title>
    <g id="Page-1" stroke="none" stroke-width="1" fill="none" fill-rule="evenodd">
        <g id="Group-169" fill="#FFFFFF">
            <path d="M237.134,33.135 C237.832,33.151 238.343,33.065 238.667,32.876 C238.99,32.687 239.157,32.381 239.167,31.956 C239.177,31.535 239.025,31.224 238.711,31.023 C238.398,30.822 237.912,30.712 237.253,30.691 L235.934,30.66 C235.234,30.644 234.714,30.735 234.375,30.93 C234.036,31.126 233.863,31.43 233.853,31.843 C233.844,32.25 233.994,32.555 234.304,32.76 C234.614,32.965 235.108,33.079 235.784,33.104 L237.134,33.135 Z M235.988,33.933 C235.024,33.911 234.31,33.729 233.848,33.389 C233.386,33.049 233.163,32.528 233.18,31.827 C233.196,31.135 233.437,30.629 233.904,30.306 C234.37,29.985 235.059,29.828 235.972,29.837 L237.072,29.863 C238.025,29.885 238.73,30.065 239.185,30.406 C239.64,30.746 239.861,31.268 239.844,31.972 C239.828,32.67 239.593,33.178 239.138,33.498 C238.684,33.817 237.989,33.97 237.058,33.958 L235.988,33.933 Z" id="Fill-1"></path>
            <polygon id="Fill-3" points="233.5481 38.1277 233.4691 37.3027 238.9391 36.7837 238.1741 35.1867 238.9191 35.1167 240.0251 37.3837 240.0371 37.5117"></polygon>
            <path d="M238.3557,43.3747 C239.0407,43.2367 239.5197,43.0397 239.7937,42.7847 C240.0677,42.5297 240.1637,42.1937 240.0797,41.7777 C239.9967,41.3647 239.7797,41.0947 239.4307,40.9677 C239.0807,40.8407 238.5827,40.8397 237.9347,40.9637 L236.6417,41.2247 C235.9547,41.3627 235.4667,41.5637 235.1787,41.8297 C234.8927,42.0957 234.7897,42.4307 234.8717,42.8347 C234.9517,43.2337 235.1657,43.4997 235.5127,43.6307 C235.8607,43.7617 236.3677,43.7657 237.0327,43.6407 L238.3557,43.3747 Z M237.4137,44.4047 C236.4667,44.5957 235.7317,44.5757 235.2067,44.3447 C234.6807,44.1137 234.3497,43.6547 234.2107,42.9677 C234.0747,42.2897 234.1987,41.7417 234.5827,41.3247 C234.9667,40.9087 235.6057,40.6037 236.4967,40.4127 L237.5757,40.1957 C238.5097,40.0077 239.2377,40.0297 239.7557,40.2607 C240.2757,40.4927 240.6047,40.9537 240.7437,41.6447 C240.8807,42.3287 240.7637,42.8757 240.3907,43.2877 C240.0167,43.6987 239.3747,44.0007 238.4617,44.1937 L237.4137,44.4047 Z" id="Fill-5"></path>
            <polygon id="Fill-7" points="235.8703 48.9743 235.6253 48.1823 240.8723 46.5583 239.7993 45.1513 240.5133 44.9303 242.0583 46.9243 242.0973 47.0473"></polygon>
            <path d="M241.6301,53.1257 C242.2731,52.8537 242.7021,52.5637 242.9201,52.2587 C243.1381,51.9537 243.1631,51.6057 242.9971,51.2147 C242.8331,50.8267 242.5671,50.6057 242.1981,50.5517 C241.8301,50.4987 241.3421,50.5977 240.7331,50.8487 L239.5181,51.3637 C238.8731,51.6377 238.4361,51.9327 238.2081,52.2507 C237.9801,52.5677 237.9461,52.9177 238.1081,53.2977 C238.2661,53.6727 238.5281,53.8887 238.8961,53.9477 C239.2631,54.0067 239.7591,53.9087 240.3871,53.6517 L241.6301,53.1257 Z M240.9131,54.3237 C240.0251,54.7007 239.3001,54.8297 238.7391,54.7087 C238.1791,54.5887 237.7621,54.2057 237.4881,53.5607 C237.2181,52.9227 237.2291,52.3617 237.5221,51.8757 C237.8151,51.3907 238.3781,50.9647 239.2131,50.5987 L240.2271,50.1687 C241.1041,49.7957 241.8201,49.6717 242.3751,49.7937 C242.9321,49.9167 243.3461,50.3027 243.6211,50.9507 C243.8931,51.5927 243.8881,52.1537 243.6061,52.6317 C243.3221,53.1097 242.7531,53.5347 241.8981,53.9067 L240.9131,54.3237 Z" id="Fill-9"></path>
            <polygon id="Fill-11" points="240.3108 59.1037 239.9128 58.3767 244.7308 55.7377 243.3968 54.5737 244.0538 54.2137 245.9658 55.8587 246.0278 55.9727"></polygon>
            <path d="M246.7756,62.0266 C247.3526,61.6326 247.7176,61.2656 247.8716,60.9226 C248.0236,60.5816 247.9806,60.2346 247.7406,59.8836 C247.5036,59.5356 247.1986,59.3716 246.8276,59.3916 C246.4566,59.4106 245.9966,59.6046 245.4486,59.9716 L244.3596,60.7146 C243.7806,61.1096 243.4106,61.4856 243.2496,61.8426 C243.0876,62.1986 243.1236,62.5476 243.3566,62.8886 C243.5866,63.2246 243.8856,63.3856 244.2576,63.3716 C244.6296,63.3566 245.0966,63.1626 245.6616,62.7876 L246.7756,62.0266 Z M246.3096,63.3426 C245.5126,63.8876 244.8286,64.1556 244.2546,64.1486 C243.6796,64.1406 243.1966,63.8476 242.8006,63.2686 C242.4106,62.6966 242.3116,62.1446 242.5026,61.6106 C242.6936,61.0776 243.1626,60.5486 243.9096,60.0246 L244.8186,59.4036 C245.6046,58.8656 246.2836,58.6026 246.8516,58.6136 C247.4216,58.6246 247.9036,58.9206 248.3006,59.5026 C248.6946,60.0786 248.7986,60.6296 248.6166,61.1536 C248.4326,61.6776 247.9586,62.2066 247.1926,62.7396 L246.3096,63.3426 Z" id="Fill-13"></path>
            <polygon id="Fill-15" points="246.6408 68.1511 246.1108 67.5141 250.3338 64.0011 248.8018 63.1141 249.3778 62.6351 251.5688 63.8831 251.6518 63.9831"></polygon>
            <path d="M253.5276,69.8078 C254.0216,69.3148 254.3136,68.8878 254.4006,68.5228 C254.4896,68.1588 254.3826,67.8258 254.0836,67.5248 C253.7866,67.2258 253.4566,67.1198 253.0956,67.2078 C252.7336,67.2948 252.3176,67.5688 251.8456,68.0308 L250.9116,68.9608 C250.4146,69.4548 250.1196,69.8928 250.0266,70.2728 C249.9326,70.6528 250.0316,70.9888 250.3236,71.2818 C250.6106,71.5698 250.9346,71.6728 251.2976,71.5908 C251.6606,71.5088 252.0846,71.2318 252.5706,70.7608 L253.5276,69.8078 Z M253.3096,71.1868 C252.6266,71.8688 252.0016,72.2578 251.4356,72.3548 C250.8706,72.4528 250.3406,72.2528 249.8466,71.7558 C249.3586,71.2658 249.1596,70.7408 249.2496,70.1808 C249.3406,69.6208 249.7046,69.0158 250.3416,68.3638 L251.1226,67.5878 C251.7986,66.9148 252.4166,66.5318 252.9766,66.4388 C253.5386,66.3458 254.0666,66.5488 254.5636,67.0468 C255.0556,67.5418 255.2596,68.0638 255.1756,68.6128 C255.0906,69.1618 254.7226,69.7678 254.0676,70.4328 L253.3096,71.1868 Z" id="Fill-17"></path>
            <polygon id="Fill-19" points="254.4416 75.8401 253.8106 75.3031 257.3696 71.1171 255.7076 70.5061 256.1916 69.9361 258.5656 70.7901 258.6646 70.8731"></polygon>
            <path d="M261.4738,76.321 C261.8828,75.756 262.1028,75.287 262.1318,74.913 C262.1608,74.54 262.0028,74.228 261.6598,73.979 C261.3188,73.731 260.9758,73.679 260.6328,73.822 C260.2898,73.967 259.9228,74.303 259.5308,74.833 L258.7558,75.901 C258.3438,76.467 258.1218,76.946 258.0908,77.337 C258.0588,77.726 258.2098,78.043 258.5438,78.285 C258.8728,78.524 259.2098,78.574 259.5548,78.436 C259.8998,78.297 260.2748,77.956 260.6798,77.413 L261.4738,76.321 Z M261.4778,77.717 C260.9118,78.498 260.3558,78.982 259.8138,79.168 C259.2708,79.354 258.7158,79.241 258.1488,78.829 C257.5878,78.423 257.3088,77.936 257.309797,77.369 C257.309797,76.802 257.5738,76.147 258.0988,75.402 L258.7448,74.511 C259.3058,73.739 259.8558,73.263 260.3948,73.082 C260.9338,72.901 261.4878,73.017 262.0578,73.431 C262.6218,73.841 262.9078,74.323 262.910844,74.879 C262.9148,75.434 262.6468,76.092 262.1058,76.852 L261.4778,77.717 Z" id="Fill-21"></path>
            <path d="M145.2893,73.9031 C144.9123,73.3161 144.5553,72.9411 144.2173,72.7781 C143.8793,72.6161 143.5323,72.6491 143.1753,72.8791 C142.8203,73.1071 142.6473,73.4071 142.6573,73.7791 C142.6653,74.1511 142.8473,74.6151 143.1993,75.1741 L143.9123,76.2831 C144.2903,76.8721 144.6563,77.2531 145.0073,77.4241 C145.3593,77.5951 145.7093,77.5691 146.0563,77.3451 C146.3983,77.1251 146.5683,76.8291 146.5643,76.4581 C146.5603,76.0861 146.3783,75.6131 146.0203,75.0391 L145.2893,73.9031 Z M146.5933,74.4051 C147.1143,75.2171 147.3643,75.9101 147.3403,76.4831 C147.3163,77.0561 147.0103,77.5321 146.4213,77.9111 C145.8383,78.2851 145.2833,78.3701 144.7553,78.1631 C144.2273,77.9581 143.7123,77.4741 143.2083,76.7141 L142.6133,75.7881 C142.0983,74.9861 141.8533,74.3011 141.8803,73.7331 C141.9073,73.1651 142.2173,72.6901 142.8083,72.3091 C143.3953,71.9321 143.9493,71.8421 144.4683,72.0401 C144.9873,72.2371 145.5023,72.7261 146.0153,73.5061 L146.5933,74.4051 Z" id="Fill-23"></path>
            <polygon id="Fill-25" points="151.4138 74.1667 150.7648 74.6827 147.3438 70.3847 146.4238 71.8967 145.9578 71.3117 147.2528 69.1467 147.3538 69.0667"></polygon>
            <path d="M153.2121,67.3318 C152.7311,66.8258 152.3091,66.5248 151.9471,66.4288 C151.5861,66.3318 151.2511,66.4298 150.9421,66.7228 C150.6371,67.0138 150.5241,67.3398 150.6021,67.7038 C150.6811,68.0668 150.9461,68.4898 151.3961,68.9718 L152.3041,69.9278 C152.7871,70.4358 153.2171,70.7408 153.5951,70.8428 C153.9731,70.9448 154.3121,70.8538 154.6101,70.5688 C154.9051,70.2888 155.0161,69.9668 154.9421,69.6028 C154.8681,69.2388 154.6021,68.8078 154.1411,68.3108 L153.2121,67.3318 Z M154.5861,67.5818 C155.2511,68.2808 155.6251,68.9148 155.7101,69.4818 C155.7941,70.0488 155.5821,70.5738 155.0741,71.0568 C154.5721,71.5338 154.0431,71.7208 153.4851,71.6168 C152.9281,71.5138 152.3321,71.1358 151.6941,70.4828 L150.9361,69.6848 C150.2791,68.9938 149.9111,68.3668 149.8311,67.8038 C149.7511,67.2408 149.9651,66.7168 150.4761,66.2318 C150.9821,65.7508 151.5081,65.5588 152.0551,65.6558 C152.6021,65.7528 153.2001,66.1358 153.8491,66.8058 L154.5861,67.5818 Z" id="Fill-27"></path>
            <polygon id="Fill-29" points="159.2678 66.5456 158.7178 67.1666 154.6088 63.5196 153.9618 65.1676 153.4028 64.6706 154.3078 62.3166 154.3928 62.2196"></polygon>
            <path d="M159.8816,59.5007 C159.3216,59.0837 158.8566,58.8577 158.4826,58.8237 C158.1096,58.7907 157.7956,58.9437 157.5416,59.2847 C157.2906,59.6227 157.2336,59.9637 157.3736,60.3087 C157.5126,60.6537 157.8446,61.0257 158.3696,61.4247 L159.4276,62.2127 C159.9886,62.6317 160.4646,62.8597 160.8536,62.8967 C161.2436,62.9327 161.5616,62.7857 161.8086,62.4547 C162.0516,62.1277 162.1066,61.7917 161.9726,61.4457 C161.8376,61.0997 161.5016,60.7197 160.9646,60.3077 L159.8816,59.5007 Z M161.2776,59.5137 C162.0526,60.0907 162.5276,60.6517 162.7076,61.1967 C162.8876,61.7417 162.7676,62.2947 162.3486,62.8567 C161.9336,63.4117 161.4436,63.6857 160.8776,63.6777 C160.3106,63.6697 159.6576,63.3987 158.9206,62.8627 L158.0386,62.2047 C157.2736,61.6347 156.8036,61.0797 156.6296,60.5387 C156.4556,59.9967 156.5786,59.4437 156.9996,58.8797 C157.4166,58.3197 157.9026,58.0417 158.4586,58.044676 C159.0136,58.0477 159.6676,58.3247 160.4206,58.8747 L161.2776,59.5137 Z" id="Fill-31"></path>
            <polygon id="Fill-33" points="165.7112 57.7092 165.2742 58.4132 160.6072 55.5162 160.2492 57.2502 159.6132 56.8552 160.1052 54.3812 160.1742 54.2712"></polygon>
            <path d="M165.1237,50.657 C164.5017,50.341 164.0037,50.198 163.6307,50.228 C163.2567,50.258 162.9747,50.463 162.7827,50.842 C162.5907,51.218 162.5937,51.564 162.7897,51.88 C162.9857,52.196 163.3757,52.506 163.9607,52.81 L165.1367,53.407 C165.7617,53.724 166.2697,53.868 166.6597,53.838 C167.0497,53.808 167.3377,53.609 167.5247,53.24 C167.7087,52.878 167.7057,52.537 167.5147,52.219 C167.3227,51.9 166.9277,51.583 166.3277,51.269 L165.1237,50.657 Z M166.5027,50.433 C167.3637,50.87 167.9287,51.342 168.1977,51.848 C168.4667,52.355 168.4427,52.921 168.1247,53.545 C167.8117,54.162 167.3747,54.515 166.8147,54.604 C166.2547,54.693 165.5657,54.536 164.7477,54.134 L163.7657,53.636 C162.9167,53.204 162.3597,52.736 162.0947,52.232 C161.8317,51.728 161.8587,51.162 162.1777,50.535 C162.4947,49.912 162.9267,49.555 163.4747,49.464 C164.0217,49.372 164.7137,49.534 165.5487,49.949 L166.5027,50.433 Z" id="Fill-35"></path>
            <polygon id="Fill-37" points="170.571 47.8928 170.259 48.6608 165.169 46.5948 165.11 48.3638 164.416 48.0828 164.483 45.5608 164.531 45.4418"></polygon>
            <path d="M168.8025,41.0642 C168.1355,40.8562 167.6215,40.7972 167.2585,40.8892 C166.8945,40.9812 166.6495,41.2302 166.5235,41.6352 C166.3975,42.0382 166.4575,42.3782 166.7025,42.6572 C166.9485,42.9372 167.3855,43.1772 168.0125,43.3802 L169.2725,43.7732 C169.9405,43.9832 170.4655,44.0402 170.8445,43.9452 C171.2245,43.8512 171.4755,43.6072 171.5985,43.2132 C171.7205,42.8252 171.6595,42.4892 171.4185,42.2072 C171.1775,41.9242 170.7345,41.6782 170.0915,41.4672 L168.8025,41.0642 Z M170.1235,40.6142 C171.0455,40.9022 171.6805,41.2732 172.0315,41.7282 C172.3805,42.1832 172.4505,42.7452 172.2405,43.4142 C172.0345,44.0742 171.6625,44.4952 171.1255,44.6752 C170.5885,44.8562 169.8825,44.8152 169.0085,44.5552 L167.9585,44.2272 C167.0485,43.9422 166.4215,43.5732 166.0775,43.1212 C165.7335,42.6682 165.6665,42.1052 165.8775,41.4332 C166.0855,40.7672 166.4515,40.3432 166.9765,40.1622 C167.5025,39.9812 168.2105,40.0252 169.1035,40.2952 L170.1235,40.6142 Z" id="Fill-39"></path>
            <polygon id="Fill-41" points="173.7238 37.4533 173.5398 38.2613 168.1838 37.0443 168.4108 38.8003 167.6808 38.6343 167.3388 36.1353 167.3678 36.0093"></polygon>
            <path d="M170.9011,31.0017 C170.2111,30.8987 169.6931,30.9207 169.3491,31.0677 C169.0041,31.2147 168.8001,31.4987 168.7381,31.9187 C168.6761,32.3357 168.7871,32.6637 169.0731,32.9007 C169.3591,33.1387 169.8281,33.3097 170.4791,33.4127 L171.7841,33.6057 C172.4771,33.7097 173.0041,33.6847 173.3651,33.5327 C173.7251,33.3807 173.9361,33.1007 173.9961,32.6917 C174.0561,32.2897 173.9451,31.9677 173.6631,31.7257 C173.3801,31.4847 172.9051,31.3097 172.2361,31.2007 L170.9011,31.0017 Z M172.1381,30.3527 C173.0921,30.4947 173.7771,30.7627 174.1931,31.1587 C174.6091,31.5537 174.7651,32.0977 174.6621,32.7917 C174.5601,33.4757 174.2571,33.9487 173.7551,34.2097 C173.2521,34.4717 172.5481,34.5417 171.6451,34.4187 L170.5571,34.2567 C169.6131,34.1167 168.9371,33.8497 168.5271,33.4547 C168.1171,33.0607 167.9641,32.5157 168.0681,31.8187 C168.1711,31.1287 168.4671,30.6537 168.9581,30.3927 C169.4481,30.1327 170.1561,30.0667 171.0801,30.1947 L172.1381,30.3527 Z" id="Fill-43"></path>
            <path d="M272.6867,3.2903 C273.3757,3.1833 273.8637,3.0083 274.1497,2.7663 C274.4347,2.5233 274.5457,2.1913 274.4807,1.7723 C274.4157,1.3553 274.2107,1.0763 273.8677,0.9343 C273.5237,0.7913 273.0267,0.7683 272.3737,0.8633 L271.0707,1.0663 C270.3767,1.1733 269.8817,1.3533 269.5827,1.6053 C269.2837,1.8583 269.1657,2.1883 269.2297,2.5963 C269.2917,2.9983 269.4937,3.2723 269.8347,3.4193 C270.1767,3.5663 270.6827,3.5923 271.3527,3.4983 L272.6867,3.2903 Z M271.6997,4.2783 C270.7467,4.4253 270.0117,4.3733 269.4967,4.1193 C268.9827,3.8653 268.6717,3.3923 268.5647,2.7003 C268.4577,2.0153 268.6067,1.4743 269.0077,1.0753 C269.4117,0.6753 270.0617,0.4003 270.9617,0.2483 L272.0487,0.0803 C272.9907,-0.0657 273.7157,-0.0117 274.2247,0.2423 C274.7337,0.4973 275.0407,0.9733 275.1497,1.6683 C275.2567,2.3583 275.1147,2.9003 274.7227,3.2943 C274.3327,3.6883 273.6767,3.9623 272.7557,4.1143 L271.6997,4.2783 Z" id="Fill-45"></path>
            <polygon id="Fill-47" points="270.5373 9.1633 270.2283 8.3943 275.3243 6.3433 274.1383 5.0293 274.8313 4.7493 276.5363 6.6093 276.5843 6.7283"></polygon>
            <path d="M276.9631,12.6765 C277.5481,12.2955 277.9201,11.9345 278.0801,11.5965 C278.2401,11.2575 278.2041,10.9105 277.9721,10.5545 C277.7411,10.2015 277.4411,10.0305 277.0681,10.0435 C276.6961,10.0555 276.2341,10.2385 275.6781,10.5945 L274.5741,11.3155 C273.9861,11.6985 273.6091,12.0675 273.4411,12.4205 C273.2731,12.7735 273.3011,13.1225 273.5261,13.4685 C273.7491,13.8085 274.0461,13.9755 274.4171,13.9695 C274.7891,13.9625 275.2611,13.7775 275.8331,13.4145 L276.9631,12.6765 Z M276.4701,13.9835 C275.6621,14.5105 274.9721,14.7645 274.3981,14.7455 C273.8241,14.7265 273.3461,14.4225 272.9631,13.8365 C272.5851,13.2565 272.4971,12.7025 272.6991,12.1725 C272.9011,11.6435 273.3811,11.1245 274.1391,10.6155 L275.0601,10.0145 C275.8591,9.4925 276.5411,9.2435 277.1091,9.2665 C277.6781,9.2885 278.1541,9.5945 278.5391,10.1845 C278.9211,10.7685 279.0151,11.3215 278.8201,11.8425 C278.6271,12.3625 278.1411,12.8815 277.3651,13.3985 L276.4701,13.9835 Z" id="Fill-49"></path>
            <polygon id="Fill-51" points="277.0959 18.8664 276.5319 18.2594 280.5579 14.5214 278.9799 13.7184 279.5289 13.2094 281.7839 14.3364 281.8719 14.4314"></polygon>
            <path d="M284.216,19.9939 C284.654,19.4509 284.898,18.9939 284.945,18.6219 C284.992,18.2499 284.852,17.9309 284.522,17.6639 C284.193,17.3999 283.854,17.3299 283.504,17.4559 C283.154,17.5819 282.771,17.8999 282.352,18.4099 L281.523,19.4359 C281.082,19.9809 280.837,20.4479 280.786,20.8359 C280.735,21.2229 280.868,21.5479 281.191,21.8059 C281.507,22.0619 281.841,22.1289 282.193,22.0079 C282.544,21.8879 282.936,21.5659 283.368,21.0449 L284.216,19.9939 Z M284.15,21.3889 C283.543,22.1399 282.965,22.5949 282.413,22.7529 C281.862,22.9109 281.314,22.7709 280.768,22.3299 C280.229,21.8949 279.975,21.3949 280.003,20.8289 C280.033,20.2629 280.329,19.6209 280.893,18.9049 L281.584,18.0479 C282.182,17.3059 282.756,16.8579 283.303,16.7039 C283.851,16.5509 284.399,16.6949 284.946,17.1369 C285.489,17.5759 285.749,18.0729 285.725,18.6269 C285.701,19.1819 285.4,19.8259 284.82,20.5559 L284.15,21.3889 Z" id="Fill-53"></path>
            <polygon id="Fill-55" points="285.9904 25.883 285.2884 25.443 288.2064 20.788 286.4734 20.423 286.8714 19.788 289.3434 20.292 289.4524 20.36"></polygon>
            <path d="M293.0627,25.2712 C293.3747,24.6462 293.5117,24.1472 293.4797,23.7742 C293.4467,23.4012 293.2397,23.1202 292.8597,22.9302 C292.4827,22.7422 292.1357,22.7482 291.8217,22.9462 C291.5057,23.1452 291.2007,23.5382 290.9007,24.1252 L290.3137,25.3052 C289.9997,25.9332 289.8607,26.4422 289.8947,26.8322 C289.9277,27.2212 290.1287,27.5082 290.4987,27.6922 C290.8637,27.8742 291.2037,27.8672 291.5207,27.6732 C291.8377,27.4792 292.1517,27.0822 292.4607,26.4792 L293.0627,25.2712 Z M293.2977,26.6472 C292.8687,27.5122 292.4017,28.0802 291.8967,28.3542 C291.3927,28.6262 290.8267,28.6072 290.1987,28.2942 C289.5797,27.9862 289.2227,27.5522 289.1287,26.9932 C289.0367,26.4352 289.1867,25.7442 289.5837,24.9222 L290.0737,23.9372 C290.4987,23.0832 290.9617,22.5232 291.4637,22.2552 C291.9647,21.9872 292.5317,22.0102 293.1617,22.3242 C293.7867,22.6352 294.1467,23.0642 294.2427,23.6112 C294.3377,24.1582 294.1827,24.8522 293.7757,25.6902 L293.2977,26.6472 Z" id="Fill-57"></path>
            <polygon id="Fill-59" points="295.8645 30.699 295.0955 30.391 297.1355 25.29 295.3655 25.24 295.6435 24.545 298.1655 24.599 298.2865 24.647"></polygon>
            <path d="M302.6692,28.945 C302.8842,28.28 302.9472,27.766 302.8582,27.403 C302.7712,27.038 302.5242,26.791 302.1202,26.66 C301.7192,26.53 301.3782,26.587 301.0962,26.83 C300.8152,27.073 300.5692,27.508 300.3612,28.133 L299.9562,29.388 C299.7402,30.055 299.6782,30.579 299.7692,30.959 C299.8592,31.34 300.1012,31.593 300.4942,31.72 C300.8822,31.846 301.2182,31.789 301.5022,31.55 C301.7872,31.311 302.0372,30.871 302.2552,30.229 L302.6692,28.945 Z M303.1072,30.271 C302.8102,31.19 302.4332,31.821 301.9752,32.167 C301.5172,32.511 300.9532,32.576 300.2872,32.361 C299.6292,32.148 299.2122,31.772 299.0362,31.233 C298.8602,30.694 298.9072,29.988 299.1772,29.118 L299.5162,28.07 C299.8092,27.163 300.1832,26.54 300.6392,26.2 C301.0962,25.861 301.6582,25.799 302.3282,26.016 C302.9922,26.23 303.4132,26.601 303.5902,27.128 C303.7652,27.654 303.7142,28.363 303.4372,29.253 L303.1072,30.271 Z" id="Fill-61"></path>
            <polygon id="Fill-63" points="306.1154 33.9436 305.3124 33.7346 306.6994 28.4186 304.9364 28.5896 305.1264 27.8656 307.6354 27.6036 307.7604 27.6366"></polygon>
            <path d="M312.6213,31.4197 C312.7643,30.7367 312.7723,30.2187 312.6453,29.8667 C312.5183,29.5137 312.2473,29.2937 311.8323,29.2067 C311.4193,29.1207 311.0853,29.2137 310.8313,29.4847 C310.5773,29.7567 310.3813,30.2147 310.2393,30.8587 L309.9703,32.1497 C309.8263,32.8367 309.8203,33.3637 309.9513,33.7327 C310.0823,34.1007 310.3503,34.3277 310.7543,34.4117 C311.1523,34.4947 311.4803,34.4027 311.7373,34.1347 C311.9953,33.8677 312.1983,33.4027 312.3463,32.7417 L312.6213,31.4197 Z M313.1973,32.6917 C313.0003,33.6367 312.6913,34.3047 312.2733,34.6967 C311.8543,35.0887 311.3023,35.2137 310.6153,35.0697 C309.9383,34.9287 309.4843,34.5997 309.2523,34.0827 C309.0203,33.5657 308.9923,32.8587 309.1673,31.9637 L309.3923,30.8867 C309.5873,29.9527 309.8923,29.2937 310.3093,28.9077 C310.7273,28.5217 311.2813,28.3997 311.9703,28.5437 C312.6533,28.6867 313.1103,29.0107 313.3433,29.5157 C313.5733,30.0207 313.5983,30.7307 313.4163,31.6457 L313.1973,32.6917 Z" id="Fill-65"></path>
            <polygon id="Fill-67" points="316.5266 36.0657 315.7086 35.9307 316.6006 30.5107 314.8616 30.8427 314.9836 30.1047 317.4576 29.6127 317.5856 29.6337"></polygon>
            <path d="M322.7717,33.0017 C322.8597,32.3097 322.8267,31.7927 322.6717,31.4507 C322.5167,31.1097 322.2297,30.9127 321.8077,30.8587 C321.3897,30.8057 321.0647,30.9247 320.8337,31.2157 C320.6017,31.5067 320.4417,31.9797 320.3537,32.6327 L320.1877,33.9407 C320.0997,34.6367 320.1347,35.1627 320.2957,35.5207 C320.4557,35.8767 320.7407,36.0817 321.1507,36.1327 C321.5537,36.1847 321.8737,36.0657 322.1087,35.7787 C322.3437,35.4907 322.5087,35.0117 322.6027,34.3407 L322.7717,33.0017 Z M323.4487,34.2237 C323.3277,35.1807 323.0747,35.8727 322.6877,36.2957 C322.3017,36.7207 321.7607,36.8887 321.0657,36.8007 C320.3777,36.7137 319.8997,36.4217 319.6267,35.9247 C319.3547,35.4277 319.2687,34.7267 319.3727,33.8197 L319.5107,32.7287 C319.6297,31.7827 319.8817,31.1007 320.2677,30.6817 C320.6527,30.2637 321.1947,30.0987 321.8937,30.1877 C322.5857,30.2747 323.0667,30.5607 323.3387,31.0457 C323.6097,31.5307 323.6907,32.2357 323.5837,33.1627 L323.4487,34.2237 Z" id="Fill-69"></path>
            <polygon id="Fill-71" points="326.9348 37.3435 326.1098 37.2665 326.6218 31.7965 324.9098 32.2495 324.9798 31.5045 327.4138 30.8415 327.5418 30.8535"></polygon>
            <path d="M332.8117,33.8786 C332.8597,33.1826 332.7967,32.6686 332.6237,32.3366 C332.4497,32.0036 332.1507,31.8236 331.7267,31.7946 C331.3057,31.7656 330.9877,31.9026 330.7737,32.2066 C330.5587,32.5106 330.4257,32.9916 330.3747,33.6486 L330.2847,34.9646 C330.2367,35.6636 330.3027,36.1876 330.4827,36.5346 C330.6627,36.8816 330.9587,37.0696 331.3717,37.0976 C331.7767,37.1256 332.0887,36.9896 332.3077,36.6886 C332.5267,36.3886 332.6647,35.9006 332.7187,35.2256 L332.8117,33.8786 Z M333.5567,35.0596 C333.4907,36.0236 333.2767,36.7276 332.9157,37.1726 C332.5537,37.6186 332.0247,37.8166 331.3247,37.7696 C330.6337,37.7216 330.1387,37.4576 329.8377,36.9776 C329.5387,36.4966 329.4137,35.8006 329.4637,34.8906 L329.5407,33.7926 C329.6047,32.8406 329.8177,32.1456 330.1787,31.7056 C330.5397,31.2666 331.0707,31.0706 331.7727,31.1186 C332.4697,31.1666 332.9667,31.4246 333.2657,31.8936 C333.5627,32.3616 333.6847,33.0626 333.6297,33.9936 L333.5567,35.0596 Z" id="Fill-73"></path>
            <polygon id="Fill-75" points="337.0988 38.0813 336.2728 38.0133 336.7218 32.5383 335.0158 33.0103 335.0778 32.2643 337.5018 31.5743 337.6318 31.5843"></polygon>
            <path d="M343.1223,34.7951 C343.2033,34.1021 343.1643,33.5851 343.0073,33.2461 C342.8483,32.9051 342.5593,32.7121 342.1373,32.6621 C341.7173,32.6141 341.3933,32.7361 341.1663,33.0301 C340.9363,33.3231 340.7813,33.7971 340.7003,34.4521 L340.5483,35.7611 C340.4683,36.4581 340.5093,36.9831 340.6733,37.3391 C340.8363,37.6941 341.1233,37.8961 341.5333,37.9441 C341.9373,37.9901 342.2563,37.8691 342.4883,37.5791 C342.7213,37.2891 342.8803,36.8081 342.9683,36.1361 L343.1223,34.7951 Z M343.8113,36.0101 C343.7013,36.9681 343.4543,37.6621 343.0723,38.0911 C342.6913,38.5191 342.1523,38.6921 341.4563,38.6121 C340.7683,38.5321 340.2863,38.2451 340.0083,37.7511 C339.7303,37.2571 339.6393,36.5561 339.7313,35.6491 L339.8583,34.5561 C339.9683,33.6081 340.2133,32.9241 340.5953,32.5021 C340.9753,32.0791 341.5153,31.9081 342.2153,31.9891 C342.9073,32.0701 343.3933,32.3511 343.6693,32.8341 C343.9453,33.3161 344.0333,34.0201 343.9353,34.9471 L343.8113,36.0101 Z" id="Fill-77"></path>
            <polygon id="Fill-79" points="347.1428 39.3 346.3248 39.175 347.1578 33.744 345.4218 34.095 345.5358 33.355 348.0048 32.838 348.1318 32.857"></polygon>
            <path d="M353.3938,36.4763 C353.5288,35.7913 353.5298,35.2733 353.3988,34.9223 C353.2678,34.5713 352.9948,34.3553 352.5778,34.2733 C352.1628,34.1923 351.8318,34.2893 351.5808,34.5643 C351.3298,34.8393 351.1378,35.2993 351.0058,35.9453 L350.7528,37.2393 C350.6188,37.9283 350.6188,38.4553 350.7538,38.8223 C350.8888,39.1893 351.1608,39.4123 351.5648,39.4923 C351.9648,39.5703 352.2908,39.4733 352.5458,39.2023 C352.7998,38.9313 352.9968,38.4643 353.1348,37.8013 L353.3938,36.4763 Z M353.9868,37.7413 C353.8008,38.6873 353.5018,39.3603 353.0878,39.7583 C352.6748,40.1553 352.1228,40.2863 351.4358,40.1523 C350.7558,40.0193 350.2978,39.6953 350.0598,39.1813 C349.8208,38.6663 349.7838,37.9603 349.9478,37.0633 L350.1588,35.9843 C350.3408,35.0483 350.6398,34.3843 351.0518,33.9933 C351.4638,33.6013 352.0168,33.4733 352.7068,33.6083 C353.3928,33.7433 353.8528,34.0603 354.0908,34.5623 C354.3298,35.0643 354.3628,35.7743 354.1928,36.6913 L353.9868,37.7413 Z" id="Fill-81"></path>
            <polygon id="Fill-83" points="357.051 41.3049 356.245 41.1099 357.543 35.7709 355.784 35.9719 355.961 35.2439 358.465 34.9409 358.591 34.9719"></polygon>
            <path d="M363.5334,39.071 C363.7314,38.402 363.7824,37.886 363.6854,37.524 C363.5884,37.162 363.3374,36.921 362.9294,36.8 C362.5244,36.679 362.1844,36.744 361.9094,36.994 C361.6344,37.244 361.3994,37.684 361.2064,38.315 L360.8304,39.578 C360.6314,40.251 360.5804,40.776 360.6804,41.154 C360.7804,41.532 361.0284,41.78 361.4254,41.898 C361.8134,42.013 362.1484,41.948 362.4284,41.703 C362.7074,41.457 362.9474,41.012 363.1484,40.365 L363.5334,39.071 Z M364.0014,40.386 C363.7264,41.311 363.3644,41.952 362.9154,42.308 C362.4654,42.664 361.9044,42.742 361.2324,42.543 C360.5694,42.346 360.1424,41.98 359.9554,41.445 C359.7664,40.91 359.7974,40.205 360.0454,39.327 L360.3584,38.272 C360.6304,37.358 360.9894,36.725 361.4374,36.375 C361.8864,36.025 362.4474,35.95 363.1224,36.151 C363.7914,36.349 364.2204,36.71 364.4084,37.232 C364.5974,37.755 364.5634,38.464 364.3064,39.361 L364.0014,40.386 Z" id="Fill-85"></path>
            <polygon id="Fill-87" points="366.6799 44.2517 365.9009 43.9717 367.7569 38.8007 365.9869 38.8147 366.2399 38.1097 368.7609 38.0727 368.8829 38.1167"></polygon>
            <path d="M373.3791,42.7737 C373.6551,42.1317 373.7671,41.6267 373.7131,41.2557 C373.6601,40.8847 373.4391,40.6157 373.0481,40.4467 C372.6611,40.2807 372.3161,40.3047 372.0131,40.5197 C371.7091,40.7347 371.4241,41.1437 371.1581,41.7467 L370.6361,42.9587 C370.3581,43.6017 370.2461,44.1177 370.3011,44.5047 C370.3551,44.8917 370.5711,45.1677 370.9511,45.3307 C371.3241,45.4927 371.6641,45.4677 371.9711,45.2557 C372.2761,45.0457 372.5671,44.6317 372.8441,44.0127 L373.3791,42.7737 Z M373.6901,44.1347 C373.3071,45.0207 372.8711,45.6147 372.3831,45.9147 C371.8941,46.2147 371.3281,46.2267 370.6851,45.9487 C370.0481,45.6747 369.6691,45.2607 369.5461,44.7087 C369.4221,44.1547 369.5351,43.4577 369.8861,42.6147 L370.3211,41.6047 C370.6991,40.7297 371.1311,40.1437 371.6171,39.8487 C372.1041,39.5537 372.6701,39.5457 373.3171,39.8247 C373.9571,40.1017 374.3411,40.5097 374.4671,41.0507 C374.5921,41.5927 374.4741,42.2937 374.1121,43.1527 L373.6901,44.1347 Z" id="Fill-89"></path>
            <polygon id="Fill-91" points="375.8557 48.3205 375.1197 47.9405 377.6417 43.0595 375.8837 42.8385 376.2277 42.1745 378.7327 42.4705 378.8477 42.5295"></polygon>
            <path d="M382.676,47.7942 C383.044,47.2012 383.229,46.7162 383.230016,46.3422 C383.232,45.9672 383.051,45.6692 382.69,45.4452 C382.331,45.2232 381.987,45.1962 381.655,45.3652 C381.323,45.5332 380.982,45.8962 380.629,46.4542 L379.935,47.5752 C379.567,48.1702 379.38,48.6652 379.376962,49.0562 C379.374,49.4472 379.548,49.7522 379.9,49.9692 C380.246,50.1832 380.585,50.2082 380.919,50.0442 C381.253,49.8812 381.602,49.5142 381.966,48.9422 L382.676,47.7942 Z M382.784,49.1872 C382.276,50.0072 381.758,50.5302 381.231,50.7562 C380.703,50.9812 380.142,50.9102 379.546,50.5412 C378.956,50.1762 378.642,49.7112 378.601,49.1472 C378.559,48.5812 378.774,47.9082 379.243,47.1272 L379.822,46.1902 C380.324,45.3802 380.838,44.8642 381.363,44.6442 C381.887,44.4232 382.448,44.4992 383.047,44.8682 C383.64,45.2362 383.959,45.6972 384.004,46.2512 C384.049,46.8042 383.83,47.4792 383.347,48.2772 L382.784,49.1872 Z" id="Fill-93"></path>
            <polygon id="Fill-95" points="384.2561 53.6682 383.5921 53.1732 386.8731 48.7682 385.1771 48.2642 385.6231 47.6642 388.0471 48.3632 388.1501 48.4402"></polygon>
            <path d="M391.0647,54.3406 C391.5327,53.8226 391.8017,53.3806 391.8707,53.0116 C391.9387,52.6436 391.8157,52.3166 391.5007,52.0316 C391.1877,51.7486 390.8537,51.6606 390.4977,51.7666 C390.1407,51.8736 389.7387,52.1686 389.2927,52.6536 L388.4077,53.6316 C387.9367,54.1516 387.6667,54.6036 387.5917,54.9886 C387.5187,55.3726 387.6357,55.7036 387.9427,55.9806 C388.2437,56.2536 388.5737,56.3386 388.9317,56.2376 C389.2897,56.1366 389.6987,55.8386 390.1597,55.3426 L391.0647,54.3406 Z M390.9187,55.7296 C390.2727,56.4456 389.6687,56.8666 389.1097,56.9936 C388.5497,57.1206 388.0107,56.9486 387.4907,56.4796 C386.9777,56.0146 386.7517,55.5006 386.8127,54.9376 C386.8737,54.3736 387.2057,53.7496 387.8087,53.0656 L388.5457,52.2496 C389.1867,51.5426 389.7837,51.1276 390.3377,51.0056 C390.8937,50.8826 391.4327,51.0566 391.9557,51.5296 C392.4727,51.9976 392.7037,52.5076 392.6487,53.0616 C392.5927,53.6136 392.2557,54.2386 391.6367,54.9366 L390.9187,55.7296 Z" id="Fill-97"></path>
            <polygon id="Fill-99" points="391.5012 60.4231 390.9482 59.8071 395.0362 56.1371 393.4732 55.3081 394.0292 54.8081 396.2662 55.9731 396.3532 56.0691"></polygon>
            <path d="M398.0119,62.5075 C398.5809,62.1025 398.9389,61.7285 399.0849,61.3835 C399.2329,61.0395 399.1829,60.6945 398.9379,60.3475 C398.6929,60.0035 398.3849,59.8445 398.0139,59.8715 C397.6439,59.8985 397.1879,60.0995 396.6469,60.4765 L395.5709,61.2405 C394.9999,61.6465 394.6359,62.0285 394.4819,62.3875 C394.3269,62.7475 394.3689,63.0955 394.6089,63.4325 C394.8439,63.7635 395.1469,63.9195 395.5189,63.8985 C395.8889,63.8775 396.3539,63.6745 396.9109,63.2885 L398.0119,62.5075 Z M397.5699,63.8325 C396.7829,64.3915 396.1019,64.6725 395.5299,64.6745235 C394.9549,64.6775 394.4659,64.3935 394.0599,63.8215 C393.6579,63.2575 393.5489,62.7075 393.7309,62.1695 C393.9119,61.6335 394.3709,61.0955 395.1089,60.5575 L396.0059,59.9205 C396.7829,59.3695 397.4559,59.0925 398.0249,59.0934973 C398.5939,59.0945 399.0819,59.3815 399.4899,59.9555 C399.8939,60.5245 400.0089,61.0725 399.8349,61.6005 C399.6609,62.1285 399.1969,62.6665 398.4419,63.2135 L397.5699,63.8325 Z" id="Fill-101"></path>
            <polygon id="Fill-103" points="397.0442 68.5383 396.6512 67.8083 401.4952 65.2133 400.1722 64.0373 400.8322 63.6843 402.7282 65.3463 402.7892 65.4603"></polygon>
            <path d="M402.7912,72.2273 C403.4482,71.9923 403.8952,71.7283 404.1292,71.4363 C404.3632,71.1443 404.4082,70.7973 404.2662,70.3983 C404.1232,70.0003 403.8702,69.7643 403.5062,69.6903 C403.1422,69.6163 402.6472,69.6863 402.0252,69.9033 L400.7832,70.3473 C400.1232,70.5843 399.6712,70.8543 399.4252,71.1583 C399.1792,71.4623 399.1252,71.8093 399.2652,72.1973 C399.4012,72.5803 399.6522,72.8123 400.0152,72.8923 C400.3772,72.9713 400.8802,72.9023 401.5202,72.6823 L402.7912,72.2273 Z M402.0082,73.3833 C401.0992,73.7083 400.3672,73.7953 399.8152,73.6423 C399.2622,73.4903 398.8672,73.0843 398.6312,72.4243 C398.3972,71.7733 398.4412,71.2133 398.7612,70.7463 C399.0812,70.2773 399.6682,69.8843 400.5222,69.5653 L401.5592,69.1943 C402.4562,68.8733 403.1792,68.7893 403.7262,68.9443 C404.2742,69.0983 404.6662,69.5073 404.9032,70.1693 C405.1392,70.8273 405.1012,71.3853 404.7922,71.8473 C404.4812,72.3083 403.8892,72.7003 403.0142,73.0223 L402.0082,73.3833 Z" id="Fill-105"></path>
            <path d="M3.1306,69.571 C2.4836,69.308 1.9756,69.208 1.6056,69.269 C1.2356,69.331 0.9716,69.559 0.8116,69.952 C0.6536,70.343 0.6846,70.688 0.9066,70.986 C1.1286,71.285 1.5436,71.56 2.1516,71.814 L3.3746,72.309 C4.0246,72.573 4.5426,72.674 4.9276,72.612 C5.3136,72.548 5.5846,72.325 5.7396,71.943 C5.8926,71.566 5.8606,71.227 5.6436,70.925 C5.4256,70.624 5.0056,70.342 4.3816,70.079 L3.1306,69.571 Z M4.4846,69.231 C5.3796,69.594 5.9826,70.017 6.2936,70.499 C6.6046,70.981 6.6276,71.547 6.3636,72.196 C6.1036,72.838 5.6976,73.225 5.1476,73.362 C4.5976,73.497 3.8966,73.399 3.0476,73.067 L2.0276,72.653 C1.1446,72.294 0.5496,71.875 0.2456,71.395 C-0.0604,70.916 -0.0794,70.349 0.1846,69.697 C0.4466,69.051 0.8476,68.659 1.3856,68.522 C1.9236,68.384 2.6266,68.487 3.4946,68.829 L4.4846,69.231 Z" id="Fill-107"></path>
            <polygon id="Fill-109" points="8.7961 67.1946 8.3781 67.9106 3.6341 65.1386 3.3231 66.8826 2.6771 66.5046 3.1021 64.0176 3.1681 63.9066"></polygon>
            <path d="M8.8191,60.3874 C8.2631,59.9654 7.8001,59.7354 7.4261,59.6984 C7.0541,59.6614 6.7381,59.8114 6.4821,60.1494 C6.2261,60.4844 6.1671,60.8254 6.3031,61.1714 C6.4391,61.5184 6.7671,61.8934 7.2881,62.2974 L8.3381,63.0954 C8.8961,63.5194 9.3701,63.7524 9.7581,63.7924 C10.1481,63.8334 10.4681,63.6894 10.7171,63.3604 C10.9641,63.0364 11.0211,62.7004 10.8901,62.3524 C10.7591,62.0054 10.4271,61.6224 9.8941,61.2054 L8.8191,60.3874 Z M10.2151,60.4144 C10.9841,60.9984 11.4551,61.5644 11.6291,62.1114 C11.8021,62.6574 11.6771,63.2094 11.2531,63.7674 C10.8341,64.3184 10.3411,64.5874 9.7751,64.5744 C9.2081,64.5614 8.5581,64.2834 7.8251,63.7414 L6.9491,63.0744 C6.1911,62.4964 5.7261,61.9374 5.5571,61.3944 C5.3881,60.8504 5.5161,60.2994 5.9431,59.7404 C6.3651,59.1834 6.8541,58.9104 7.4091,58.9184 C7.9651,58.9264 8.6171,59.2094 9.3641,59.7674 L10.2151,60.4144 Z" id="Fill-111"></path>
            <polygon id="Fill-113" points="14.8645 59.4563 14.2925 60.0563 10.3145 56.2683 9.6105 57.8933 9.0685 57.3753 10.0545 55.0543 10.1435 54.9613"></polygon>
            <path d="M16.3801,52.7927 C15.9251,52.2637 15.5191,51.9407 15.1631,51.8257 C14.8061,51.7107 14.4671,51.7927 14.1441,52.0687 C13.8241,52.3427 13.6941,52.6637 13.7551,53.0307 C13.8151,53.3977 14.0581,53.8337 14.4821,54.3377 L15.3411,55.3387 C15.7971,55.8717 16.2121,56.1977 16.5831,56.3187 C16.9551,56.4397 17.2981,56.3657 17.6111,56.0977 C17.9201,55.8327 18.0471,55.5167 17.9921,55.1487 C17.9371,54.7817 17.6921,54.3377 17.2581,53.8177 L16.3801,52.7927 Z M17.7391,53.1117 C18.3671,53.8457 18.7091,54.4967 18.7651,55.0677 C18.8201,55.6377 18.5811,56.1517 18.0491,56.6087 C17.5241,57.0587 16.9861,57.2177 16.4341,57.0857 C15.8831,56.9547 15.3061,56.5467 14.7041,55.8617 L13.9871,55.0267 C13.3661,54.3037 13.0301,53.6577 12.9791,53.0917 C12.9281,52.5257 13.1701,52.0137 13.7031,51.5547 C14.2341,51.0997 14.7691,50.9347 15.3101,51.0597 C15.8521,51.1847 16.4291,51.5977 17.0431,52.2997 L17.7391,53.1117 Z" id="Fill-115"></path>
            <polygon id="Fill-117" points="22.4704 53.0896 21.7944 53.5686 18.6164 49.0876 17.6144 50.5466 17.1814 49.9366 18.5954 47.8476 18.7004 47.7726"></polygon>
            <path d="M25.1609,46.8083 C24.8069,46.2073 24.4629,45.8193 24.1329,45.6433 C23.8009,45.4683 23.4529,45.4883 23.0869,45.7043 C22.7239,45.9193 22.5389,46.2123 22.5349,46.5833 C22.5309,46.9563 22.6929,47.4273 23.0229,47.9973 L23.6929,49.1343 C24.0499,49.7373 24.4009,50.1313 24.7459,50.3153 C25.0909,50.5003 25.4409,50.4873 25.7959,50.2773 C26.1459,50.0703 26.3279,49.7823 26.3369,49.4103 C26.3469,49.0383 26.1839,48.5583 25.8469,47.9713 L25.1609,46.8083 Z M26.4439,47.3603 C26.9349,48.1913 27.1569,48.8933 27.1129,49.4643 C27.0669,50.0373 26.7419,50.5013 26.1389,50.8563 C25.5419,51.2083 24.9849,51.2713 24.4649,51.0453 C23.9449,50.8193 23.4479,50.3163 22.9739,49.5373 L22.4149,48.5893 C21.9309,47.7683 21.7119,47.0753 21.7609,46.5083 C21.8089,45.9413 22.1369,45.4793 22.7429,45.1213 C23.3439,44.7663 23.8999,44.6983 24.4109,44.9153 C24.9219,45.1333 25.4179,45.6413 25.9009,46.4393 L26.4439,47.3603 Z" id="Fill-119"></path>
            <polygon id="Fill-121" points="31.1179 48.0993 30.3749 48.4663 27.9479 43.5373 26.7259 44.8183 26.3959 44.1463 28.1229 42.3083 28.2399 42.2513"></polygon>
            <path d="M34.7195,42.2825 C34.4545,41.6365 34.1705,41.2035 33.8685,40.9825 C33.5655,40.7615 33.2185,40.7315 32.8245,40.8925 C32.4345,41.0535 32.2105,41.3165 32.1525,41.6835 C32.0945,42.0515 32.1875,42.5415 32.4325,43.1535 L32.9335,44.3735 C33.2005,45.0215 33.4905,45.4625 33.8055,45.6935 C34.1205,45.9265 34.4695,45.9635 34.8515,45.8065 C35.2275,45.6525 35.4475,45.3915 35.5115,45.0255 C35.5735,44.6585 35.4815,44.1605 35.2315,43.5315 L34.7195,42.2825 Z M35.9095,43.0125 C36.2765,43.9055 36.3965,44.6315 36.2705,45.1915 C36.1425,45.7505 35.7555,46.1635 35.1065,46.4285 C34.4665,46.6915 33.9055,46.6745 33.4235,46.3765 C32.9415,46.0775 32.5215,45.5095 32.1645,44.6695 L31.7465,43.6525 C31.3855,42.7705 31.2685,42.0525 31.3975,41.4975 C31.5265,40.9445 31.9165,40.5335 32.5675,40.2655 C33.2135,40.0015 33.7745,40.0125 34.2485,40.3015 C34.7225,40.5895 35.1415,41.1635 35.5045,42.0235 L35.9095,43.0125 Z" id="Fill-123"></path>
            <polygon id="Fill-125" points="40.424 44.3659 39.639 44.6329 37.868 39.4319 36.493 40.5459 36.251 39.8379 38.201 38.2369 38.323 38.1949"></polygon>
            <path d="M44.6945,39.0237 C44.5055,38.3517 44.2735,37.8877 43.9995,37.6337 C43.7235,37.3787 43.3825,37.3087 42.9735,37.4237 C42.5675,37.5377 42.3145,37.7727 42.2135,38.1307 C42.1135,38.4887 42.1495,38.9867 42.3215,39.6237 L42.6775,40.8937 C42.8665,41.5677 43.1045,42.0397 43.3905,42.3057 C43.6765,42.5727 44.0175,42.6507 44.4155,42.5397 C44.8075,42.4297 45.0555,42.1957 45.1615,41.8397 C45.2665,41.4827 45.2325,40.9787 45.0575,40.3227 L44.6945,39.0237 Z M45.7925,39.8867 C46.0525,40.8157 46.0875,41.5507 45.8965,42.0917 C45.7055,42.6327 45.2725,42.9987 44.5975,43.1877 C43.9305,43.3747 43.3755,43.2917 42.9315,42.9397 C42.4865,42.5867 42.1365,41.9737 41.8795,41.0987 L41.5825,40.0387 C41.3245,39.1207 41.2925,38.3937 41.4845,37.8587 C41.6765,37.3237 42.1125,36.9617 42.7905,36.7717 C43.4625,36.5837 44.0175,36.6597 44.4555,37.0017 C44.8935,37.3427 45.2435,37.9607 45.5035,38.8567 L45.7925,39.8867 Z" id="Fill-127"></path>
            <polygon id="Fill-129" points="50.1306 41.7121 49.3226 41.8961 48.1056 36.5391 46.6196 37.5021 46.4546 36.7731 48.5606 35.3841 48.6866 35.3561"></polygon>
            <path d="M54.9265,36.8069 C54.8025,36.1199 54.6165,35.6369 54.3655,35.3579 C54.1165,35.0779 53.7835,34.9759 53.3655,35.0519 C52.9505,35.1259 52.6765,35.3379 52.5425,35.6839 C52.4085,36.0319 52.3975,36.5299 52.5095,37.1799 L52.7425,38.4779 C52.8675,39.1669 53.0595,39.6589 53.3195,39.9519 C53.5785,40.2439 53.9115,40.3529 54.3185,40.2809 C54.7185,40.2079 54.9885,39.9999 55.1265,39.6549 C55.2645,39.3099 55.2785,38.8029 55.1665,38.1359 L54.9265,36.8069 Z M55.9385,37.7689 C56.1105,38.7189 56.0755,39.4549 55.8335,39.9749 C55.5925,40.4959 55.1275,40.8179 54.4375,40.9429 C53.7565,41.0649 53.2115,40.9309 52.8025,40.5379 C52.3935,40.1459 52.1015,39.5019 51.9285,38.6069 L51.7335,37.5229 C51.5635,36.5859 51.6005,35.8589 51.8425,35.3439 C52.0845,34.8299 52.5515,34.5099 53.2455,34.3849 C53.9315,34.2609 54.4765,34.3899 54.8815,34.7709 C55.2845,35.1529 55.5735,35.8019 55.7485,36.7179 L55.9385,37.7689 Z" id="Fill-131"></path>
            <polygon id="Fill-133" points="60.0788 39.9685 59.2578 40.0825 58.5028 34.6405 56.9408 35.4745 56.8368 34.7325 59.0538 33.5305 59.1818 33.5115"></polygon>
            <path d="M65.2409,35.4626 C65.1709,34.7686 65.0219,34.2726 64.7949,33.9746 C64.5669,33.6766 64.2419,33.5486 63.8199,33.5916 C63.3999,33.6346 63.1109,33.8236 62.9499,34.1596 C62.7899,34.4956 62.7409,34.9916 62.8009,35.6486 L62.9349,36.9606 C63.0059,37.6566 63.1589,38.1626 63.3959,38.4736 C63.6319,38.7856 63.9549,38.9206 64.3659,38.8786 C64.7699,38.8376 65.0549,38.6506 65.2199,38.3166 C65.3859,37.9836 65.4369,37.4806 65.3779,36.8056 L65.2409,35.4626 Z M66.1759,36.5006 C66.2729,37.4616 66.1809,38.1916 65.9009,38.6916 C65.6199,39.1916 65.1319,39.4776 64.4339,39.5486 C63.7459,39.6186 63.2129,39.4416 62.8349,39.0186 C62.4579,38.5956 62.2169,37.9316 62.1129,37.0256 L62.0019,35.9306 C61.9059,34.9826 61.9969,34.2606 62.2789,33.7666 C62.5599,33.2726 63.0509,32.9896 63.7509,32.9186 C64.4449,32.8476 64.9799,33.0176 65.3519,33.4296 C65.7259,33.8406 65.9639,34.5096 66.0669,35.4376 L66.1759,36.5006 Z" id="Fill-135"></path>
            <polygon id="Fill-137" points="70.1667 38.9822 69.3397 39.0442 68.9317 33.5652 67.3197 34.2982 67.2647 33.5512 69.5537 32.4922 69.6827 32.4822"></polygon>
            <path d="M75.4538,34.6687 C75.3918,33.9737 75.2508,33.4757 75.0268,33.1747 C74.8038,32.8737 74.4808,32.7417 74.0578,32.7787 C73.6378,32.8157 73.3458,33.0017 73.1808,33.3347 C73.0158,33.6687 72.9598,34.1637 73.0118,34.8207 L73.1268,36.1347 C73.1888,36.8327 73.3358,37.3397 73.5668,37.6547 C73.7988,37.9697 74.1208,38.1087 74.5328,38.0727 C74.9368,38.0377 75.2248,37.8537 75.3938,37.5227 C75.5628,37.1917 75.6218,36.6887 75.5718,36.0137 L75.4538,34.6687 Z M76.3728,35.7197 C76.4578,36.6817 76.3558,37.4097 76.0698,37.9067 C75.7818,38.4027 75.2888,38.6817 74.5908,38.7437 C73.9018,38.8037 73.3708,38.6207 72.9998,38.1917 C72.6278,37.7637 72.3958,37.0967 72.3048,36.1887 L72.2078,35.0927 C72.1248,34.1427 72.2268,33.4227 72.5148,32.9327 C72.8028,32.4417 73.2968,32.1657 73.9988,32.1047 C74.6938,32.0437 75.2248,32.2207 75.5928,32.6367 C75.9608,33.0537 76.1898,33.7257 76.2798,34.6547 L76.3728,35.7197 Z" id="Fill-139"></path>
            <polygon id="Fill-141" points="80.4001 38.0427 79.5781 38.1407 78.9261 32.6867 77.3491 33.4897 77.2601 32.7467 79.4991 31.5857 79.6281 31.5707"></polygon>
            <path d="M85.5451,33.3742 C85.4381,32.6852 85.2631,32.1972 85.0201,31.9112 C84.7781,31.6262 84.4461,31.5152 84.0261,31.5812 C83.6091,31.6452 83.3311,31.8502 83.1881,32.1932 C83.0461,32.5372 83.0241,33.0352 83.1191,33.6872 L83.3201,34.9912 C83.4281,35.6842 83.6081,36.1792 83.8601,36.4782 C84.1121,36.7772 84.4431,36.8952 84.8511,36.8322 C85.2531,36.7692 85.5271,36.5672 85.6741,36.2262 C85.8211,35.8852 85.8471,35.3792 85.7521,34.7082 L85.5451,33.3742 Z M86.5321,34.3612 C86.6801,35.3152 86.6281,36.0502 86.3741,36.5642 C86.1201,37.0792 85.6471,37.3892 84.9531,37.4972 C84.2701,37.6032 83.7281,37.4552 83.3291,37.0522 C82.9301,36.6492 82.6541,35.9992 82.5031,35.0992 L82.3351,34.0122 C82.1891,33.0702 82.2431,32.3452 82.4981,31.8362 C82.7531,31.3272 83.2271,31.0202 83.9231,30.9112 C84.6131,30.8042 85.1551,30.9462 85.5491,31.3372 C85.9431,31.7292 86.2171,32.3852 86.3681,33.3052 L86.5321,34.3612 Z" id="Fill-143"></path>
            <polygon id="Fill-145" points="90.8069 36.3684 89.9939 36.5274 88.9389 31.1364 87.4259 32.0554 87.2819 31.3204 89.4289 29.9964 89.5559 29.9724"></polygon>
            <path d="M95.5876,31.2966 C95.4236,30.6186 95.2086,30.1476 94.9426,29.8826 C94.6766,29.6186 94.3376,29.5366 93.9246,29.6366 C93.5146,29.7356 93.2546,29.9626 93.1406,30.3166 C93.0276,30.6716 93.0466,31.1696 93.1946,31.8116 L93.5056,33.0936 C93.6706,33.7756 93.8916,34.2546 94.1676,34.5306 C94.4436,34.8076 94.7826,34.8976 95.1846,34.8006 C95.5796,34.7046 95.8366,34.4806 95.9536,34.1286 C96.0726,33.7756 96.0556,33.2696 95.9046,32.6086 L95.5876,31.2966 Z M96.6546,32.1986 C96.8806,33.1366 96.8896,33.8726 96.6796,34.4066 C96.4686,34.9406 96.0236,35.2896 95.3426,35.4546 C94.6706,35.6176 94.1176,35.5146 93.6866,35.1466 C93.2546,34.7786 92.9256,34.1536 92.7006,33.2706 L92.4416,32.2006 C92.2176,31.2736 92.2106,30.5466 92.4226,30.0186 C92.6336,29.4906 93.0816,29.1436 93.7656,28.9786 C94.4446,28.8136 94.9956,28.9106 95.4216,29.2676 C95.8476,29.6246 96.1736,30.2546 96.4016,31.1596 L96.6546,32.1986 Z" id="Fill-147"></path>
            <polygon id="Fill-149" points="101.1345 33.7908 100.3405 34.0258 98.7815 28.7578 97.3615 29.8148 97.1495 29.0978 99.1605 27.5768 99.2845 27.5408"></polygon>
            <path d="M105.4138,28.239 C105.1778,27.582 104.9138,27.137 104.6218,26.903 C104.3288,26.669 103.9828,26.623 103.5828,26.767 C103.1858,26.909 102.9508,27.163 102.8758,27.528 C102.8018,27.892 102.8728,28.385 103.0918,29.008 L103.5378,30.249 C103.7738,30.909 104.0448,31.362 104.3498,31.607 C104.6548,31.852 105.0008,31.906 105.3898,31.766 C105.7718,31.628 106.0038,31.378 106.0828,31.015 C106.1628,30.652 106.0918,30.15 105.8708,29.51 L105.4138,28.239 Z M106.5708,29.021 C106.8968,29.929 106.9858,30.66 106.8328,31.214 C106.6818,31.767 106.2758,32.162 105.6168,32.399 C104.9658,32.633 104.4058,32.591 103.9368,32.271 C103.4698,31.952 103.0758,31.365 102.7558,30.511 L102.3828,29.475 C102.0608,28.578 101.9758,27.856 102.1298,27.308 C102.2838,26.761 102.6918,26.368 103.3538,26.13 C104.0108,25.893 104.5698,25.93 105.0318,26.239 C105.4928,26.548 105.8848,27.14 106.2098,28.015 L106.5708,29.021 Z" id="Fill-151"></path>
            <polygon id="Fill-153" points="111.219 30.0588 110.459 30.3898 108.266 25.3528 106.986 26.5768 106.687 25.8898 108.498 24.1348 108.616 24.0828"></polygon>
            <path d="M114.7487,23.9675 C114.4227,23.3505 114.0987,22.9465 113.7757,22.7565 C113.4527,22.5655 113.1037,22.5695 112.7287,22.7675 C112.3547,22.9655 112.1577,23.2495 112.1357,23.6205 C112.1137,23.9915 112.2537,24.4705 112.5567,25.0555 L113.1727,26.2215 C113.5007,26.8415 113.8327,27.2515 114.1697,27.4515 C114.5057,27.6525 114.8557,27.6555 115.2207,27.4625 C115.5807,27.2725 115.7737,26.9915 115.8017,26.6215 C115.8287,26.2505 115.6877,25.7635 115.3797,25.1615 L114.7487,23.9675 Z M116.0037,24.5785 C116.4557,25.4325 116.6447,26.1435 116.5727,26.7125 C116.5007,27.2815 116.1547,27.7295 115.5357,28.0575 C114.9237,28.3805 114.3627,28.4175 113.8547,28.1675 C113.3457,27.9175 112.8727,27.3925 112.4357,26.5915 L111.9217,25.6185 C111.4767,24.7755 111.2907,24.0725 111.3657,23.5085 C111.4407,22.9445 111.7897,22.4985 112.4117,22.1695 C113.0287,21.8425 113.5877,21.8005 114.0877,22.0415 C114.5877,22.2825 115.0607,22.8135 115.5047,23.6335 L116.0037,24.5785 Z" id="Fill-155"></path>
            <polygon id="Fill-157" points="120.8108 24.8318 120.1148 25.2818 117.1318 20.6688 116.0678 22.0848 115.6608 21.4568 117.1618 19.4288 117.2708 19.3588"></polygon>
            <path d="M123.2585,18.1579 C122.8215,17.6139 122.4265,17.2779 122.0745,17.1509 C121.7215,17.0249 121.3805,17.0949 121.0485,17.3599 C120.7185,17.6239 120.5795,17.9399 120.6275,18.3089 C120.6755,18.6779 120.9035,19.1209 121.3115,19.6389 L122.1365,20.6679 C122.5745,21.2149 122.9775,21.5549 123.3455,21.6889 C123.7135,21.8229 124.0585,21.7599 124.3805,21.5019 C124.6975,21.2469 124.8345,20.9349 124.7925,20.5659 C124.7495,20.1969 124.5195,19.7449 124.1035,19.2109 L123.2585,18.1579 Z M124.6065,18.5219 C125.2115,19.2749 125.5305,19.9379 125.5675,20.5099 C125.6035,21.0819 125.3485,21.5879 124.8005,22.0269 C124.2605,22.4589 123.7185,22.6009 123.1715,22.4509 C122.6255,22.3009 122.0615,21.8739 121.4815,21.1699 L120.7935,20.3119 C120.1965,19.5679 119.8825,18.9119 119.8505,18.3439 C119.8175,17.7769 120.0755,17.2719 120.6245,16.8319 C121.1695,16.3949 121.7095,16.2479 122.2475,16.3909 C122.7835,16.5329 123.3475,16.9659 123.9375,17.6869 L124.6065,18.5219 Z" id="Fill-159"></path>
            <polygon id="Fill-161" points="129.3767 17.7336 128.7947 18.3236 124.8837 14.4656 124.1517 16.0776 123.6187 15.5516 124.6467 13.2476 124.7367 13.1556"></polygon>
            <path d="M130.2321,10.612 C129.6741,10.193 129.2091,9.965 128.8361,9.929 C128.4631,9.894 128.1491,10.046 127.8931,10.385 C127.6391,10.722 127.5811,11.063 127.7191,11.408 C127.8571,11.754 128.1871,12.127 128.7101,12.529 L129.7641,13.322 C130.3241,13.744 130.7991,13.974 131.1881,14.012 C131.5781,14.051 131.8961,13.905 132.1441,13.575 C132.3891,13.25 132.4451,12.914 132.3131,12.567 C132.1801,12.219 131.8461,11.839 131.3101,11.424 L130.2321,10.612 Z M131.6281,10.632 C132.3991,11.213 132.8731,11.776 133.0501,12.321 C133.2261,12.867 133.1041,13.42 132.6821,13.98 C132.2661,14.533 131.7741,14.804 131.2081,14.794 C130.6411,14.784 129.9901,14.509 129.2531,13.969 L128.3751,13.308 C127.6131,12.734 127.1461,12.176 126.9741,11.634 C126.8031,11.092 126.9291,10.54 127.3521,9.978 C127.7721,9.42 128.2601,9.144 128.8151,9.149 C129.3701,9.155 130.0241,9.434 130.7741,9.989 L131.6281,10.632 Z" id="Fill-163"></path>
            <polygon id="Fill-165" points="136.05 8.4783 135.657 9.2073 130.821 6.6013 130.57 8.3543 129.911 7.9993 130.251 5.4993 130.312 5.3863"></polygon>
            <path d="M134.7385,1.341 C134.0755,1.122 133.5625,1.055 133.1965,1.141 C132.8325,1.226 132.5825,1.471 132.4495,1.874 C132.3165,2.274 132.3705,2.616 132.6125,2.899 C132.8525,3.183 133.2855,3.431 133.9095,3.644 L135.1615,4.059 C135.8275,4.279 136.3505,4.345 136.7315,4.257 C137.1125,4.169 137.3675,3.929 137.4985,3.537 C137.6255,3.151 137.5715,2.814 137.3355,2.528 C137.0975,2.241 136.6595,1.987 136.0195,1.766 L134.7385,1.341 Z M136.0675,0.913 C136.9845,1.217 137.6135,1.599 137.9545,2.059 C138.2965,2.52 138.3575,3.083 138.1365,3.748 C137.9185,4.405 137.5395,4.82 137.0005,4.991 C136.4605,5.163 135.7555,5.111 134.8855,4.835 L133.8415,4.489 C132.9355,4.19 132.3145,3.81 131.9785,3.351 C131.6425,2.893 131.5845,2.329 131.8065,1.661 C132.0265,0.999 132.4005,0.581 132.9275,0.409 C133.4565,0.236 134.1635,0.292 135.0515,0.577 L136.0675,0.913 Z" id="Fill-167"></path>
        </g>
    </g>
</svg>