<?xml version="1.0" encoding="UTF-8"?>
<svg width="440px" height="90px" viewBox="0 0 440 90" version="1.1" xmlns="http://www.w3.org/2000/svg" xmlns:xlink="http://www.w3.org/1999/xlink">
    <title>Group 171</title>
    <defs>
        <polygon id="path-1" points="0.271138679 0.751 5.60429551 0.751 5.60429551 7.1518464 0.271138679 7.1518464"></polygon>
        <polygon id="path-3" points="0.408244797 0.889779258 7 0.889779258 7 5.66885357 0.408244797 5.66885357"></polygon>
    </defs>
    <g id="Page-1" stroke="none" stroke-width="1" fill="none" fill-rule="evenodd">
        <g id="Group-171">
            <path d="M4.1552,19.1048 C4.8442,18.9988 5.3332,18.8238 5.6182,18.5808 C5.9042,18.3388 6.0142,18.0078 5.9492,17.5878 C5.8852,17.1708 5.6812,16.8918 5.3382,16.7488 C4.9932,16.6068 4.4962,16.5838 3.8432,16.6778 L2.5402,16.8788 C1.8472,16.9858 1.3512,17.1658 1.0522,17.4178 C0.7532,17.6698 0.6342,18.0008 0.6972,18.4078 C0.7602,18.8108 0.9612,19.0848 1.3032,19.2318 C1.6442,19.3788 2.1502,19.4058 2.8212,19.3108 L4.1552,19.1048 Z M3.1672,20.0908 C2.2132,20.2388 1.4792,20.1858 0.9652,19.9318 C0.4502,19.6778 0.1402,19.2038 0.0332,18.5108 C-0.0728,17.8268 0.0752,17.2858 0.4782,16.8868 C0.8812,16.4878 1.5322,16.2128 2.4312,16.0618 L3.5192,15.8938 C4.4622,15.7488 5.1862,15.8028 5.6952,16.0588 C6.2032,16.3128 6.5112,16.7888 6.6182,17.4838 C6.7252,18.1738 6.5832,18.7158 6.1912,19.1098 C5.8002,19.5048 5.1442,19.7768 4.2232,19.9278 L3.1672,20.0908 Z" id="Fill-1" fill="#FFFFFF"></path>
            <polygon id="Fill-3" fill="#FFFFFF" points="2.0087 24.9915 1.6987 24.2225 6.7957 22.1715 5.6087 20.8575 6.3027 20.5775 8.0077 22.4365 8.0557 22.5565"></polygon>
            <path d="M8.4344,28.5047 C9.0184,28.1227 9.3914,27.7627 9.5514,27.4237 C9.7114,27.0857 9.6754,26.7377 9.4434,26.3827 C9.2124,26.0297 8.9114,25.8587 8.5394,25.8717 C8.1674,25.8827 7.7054,26.0667 7.1494,26.4227 L6.0454,27.1437 C5.4584,27.5267 5.0804,27.8947 4.9124,28.2487 C4.7434,28.6017 4.7724,28.9507 4.9974,29.2967 C5.2204,29.6367 5.5174,29.8037 5.8884,29.7967 C6.2604,29.7907 6.7324,29.6057 7.3044,29.2427 L8.4344,28.5047 Z M7.9414,29.8117 C7.1334,30.3387 6.4424,30.5927 5.8694,30.5737 C5.2964,30.5547 4.8174,30.2507 4.4344,29.6647 C4.0564,29.0847 3.9684,28.5297 4.1704,28.0007 C4.3724,27.4707 4.8524,26.9517 5.6094,26.4437 L6.5304,25.8417 C7.3294,25.3207 8.0124,25.0717 8.5804,25.0937 C9.1484,25.1167 9.6254,25.4227 10.0104,26.0127 C10.3924,26.5967 10.4854,27.1497 10.2914,27.6697 C10.0974,28.1907 9.6124,28.7087 8.8364,29.2267 L7.9414,29.8117 Z" id="Fill-5" fill="#FFFFFF"></path>
            <polygon id="Fill-7" fill="#FFFFFF" points="8.5668 34.6941 8.0038 34.0871 12.0288 30.3491 10.4508 29.5461 10.9998 29.0371 13.2558 30.1641 13.3438 30.2591"></polygon>
            <path d="M15.6869,35.8221 C16.1249,35.2791 16.3689,34.8221 16.4159,34.4501 C16.4639,34.0781 16.3229,33.7591 15.9919,33.4921 C15.6639,33.2281 15.3249,33.1581 14.9749,33.2841 C14.6249,33.4101 14.2409,33.7281 13.8229,34.2381 L12.9939,35.2641 C12.5539,35.8091 12.3079,36.2761 12.2569,36.6641 C12.2049,37.0511 12.3399,37.3761 12.6619,37.6341 C12.9789,37.8901 13.3119,37.9571 13.6639,37.8361 C14.0149,37.7161 14.4069,37.3941 14.8389,36.8731 L15.6869,35.8221 Z M15.6209,37.2171 C15.0149,37.9681 14.4359,38.4231 13.8839,38.5811 C13.3329,38.7391 12.7849,38.5981 12.2389,38.1581 C11.7009,37.7231 11.4459,37.2231 11.4749,36.6571 C11.5039,36.0911 11.8009,35.4491 12.3639,34.7331 L13.0549,33.8761 C13.6539,33.1341 14.2269,32.6861 14.7749,32.5321 C15.3219,32.3791 15.8699,32.5231 16.4179,32.9651 C16.9609,33.4041 17.2209,33.9001 17.1959,34.4551 C17.1719,35.0101 16.8709,35.6541 16.2919,36.3841 L15.6209,37.2171 Z" id="Fill-9" fill="#FFFFFF"></path>
            <polygon id="Fill-11" fill="#FFFFFF" points="17.4423 41.698 16.7403 41.258 19.6603 36.604 17.9273 36.238 18.3253 35.604 20.7963 36.108 20.9063 36.177"></polygon>
            <path d="M24.5336,41.0989 C24.8456,40.4739 24.9836,39.9749 24.9506,39.6019 C24.9176,39.2289 24.7106,38.9479 24.3306,38.7579 C23.9526,38.5699 23.6066,38.5759 23.2926,38.7739 C22.9776,38.9729 22.6716,39.3659 22.3716,39.9529 L21.7846,41.1329 C21.4716,41.7609 21.3316,42.2699 21.3656,42.6599 C21.3986,43.0489 21.6006,43.3359 21.9696,43.5199 C22.3336,43.7019 22.6746,43.6949 22.9916,43.5009 C23.3086,43.3069 23.6226,42.9099 23.9326,42.3069 L24.5336,41.0989 Z M24.7696,42.4749 C24.3396,43.3399 23.8716,43.9079 23.3676,44.1819 C22.8636,44.4539 22.2976,44.4349 21.6696,44.1219 C21.0506,43.8139 20.6946,43.3799 20.6006,42.8209 C20.5076,42.2629 20.6586,41.5719 21.0546,40.7499 L21.5446,39.7649 C21.9696,38.9109 22.4326,38.3509 22.9346,38.0829 C23.4366,37.8149 24.0026,37.8379 24.6326,38.1519 C25.2576,38.4629 25.6176,38.8919 25.7136,39.4389 C25.8096,39.9859 25.6536,40.6799 25.2456,41.5179 L24.7696,42.4749 Z" id="Fill-13" fill="#FFFFFF"></path>
            <polygon id="Fill-15" fill="#FFFFFF" points="27.3085 46.5164 26.5395 46.2084 28.5815 41.1084 26.8125 41.0574 27.0905 40.3624 29.6125 40.4174 29.7325 40.4654"></polygon>
            <path d="M34.1405,44.7727 C34.3555,44.1077 34.4185,43.5937 34.3305,43.2307 C34.2425,42.8657 33.9955,42.6187 33.5915,42.4877 C33.1905,42.3577 32.8485,42.4147 32.5675,42.6577 C32.2855,42.9007 32.0405,43.3357 31.8325,43.9607 L31.4265,45.2157 C31.2115,45.8827 31.1485,46.4067 31.2395,46.7867 C31.3305,47.1677 31.5725,47.4207 31.9655,47.5477 C32.3525,47.6737 32.6885,47.6167 32.9735,47.3777 C33.2575,47.1387 33.5085,46.6987 33.7255,46.0567 L34.1405,44.7727 Z M34.5785,46.0987 C34.2815,47.0177 33.9045,47.6487 33.4465,47.9947 C32.9885,48.3387 32.4255,48.4037 31.7585,48.1887 C31.0995,47.9757 30.6825,47.5997 30.5075,47.0607 C30.3315,46.5217 30.3785,45.8157 30.6475,44.9457 L30.9865,43.8977 C31.2795,42.9907 31.6545,42.3677 32.1105,42.0277 C32.5665,41.6887 33.1305,41.6267 33.7995,41.8437 C34.4645,42.0577 34.8845,42.4287 35.0605,42.9557 C35.2365,43.4817 35.1855,44.1907 34.9075,45.0807 L34.5785,46.0987 Z" id="Fill-17" fill="#FFFFFF"></path>
            <polygon id="Fill-19" fill="#FFFFFF" points="37.5858 49.7713 36.7838 49.5623 38.1698 44.2463 36.4088 44.4173 36.5968 43.6933 39.1068 43.4313 39.2308 43.4643"></polygon>
            <path d="M44.0927,47.2478 C44.2357,46.5648 44.2427,46.0468 44.1167,45.6938 C43.9897,45.3418 43.7187,45.1218 43.3027,45.0348 C42.8897,44.9488 42.5567,45.0418 42.3027,45.3128 C42.0487,45.5848 41.8517,46.0428 41.7107,46.6868 L41.4417,47.9778 C41.2977,48.6648 41.2917,49.1908 41.4227,49.5608 C41.5537,49.9288 41.8207,50.1558 42.2247,50.2398 C42.6237,50.3228 42.9507,50.2308 43.2087,49.9628 C43.4667,49.6948 43.6697,49.2308 43.8167,48.5698 L44.0927,47.2478 Z M44.6687,48.5198 C44.4717,49.4648 44.1637,50.1338 43.7447,50.5248 C43.3257,50.9168 42.7737,51.0418 42.0877,50.8978 C41.4097,50.7568 40.9547,50.4278 40.7237,49.9108 C40.4917,49.3938 40.4637,48.6868 40.6377,47.7918 L40.8627,46.7148 C41.0577,45.7808 41.3637,45.1218 41.7817,44.7358 C42.1987,44.3498 42.7527,44.2278 43.4417,44.3718 C44.1247,44.5148 44.5817,44.8388 44.8137,45.3438 C45.0447,45.8488 45.0697,46.5588 44.8877,47.4738 L44.6687,48.5198 Z" id="Fill-21" fill="#FFFFFF"></path>
            <polygon id="Fill-23" fill="#FFFFFF" points="47.9974 51.8934 47.1794 51.7584 48.0724 46.3384 46.3334 46.6704 46.4544 45.9324 48.9284 45.4404 49.0564 45.4614"></polygon>
            <path d="M54.2435,48.8294 C54.3305,48.1374 54.2975,47.6204 54.1425,47.2784 C53.9885,46.9374 53.7005,46.7404 53.2795,46.6864 C52.8605,46.6334 52.5355,46.7524 52.3045,47.0434 C52.0735,47.3344 51.9135,47.8074 51.8245,48.4604 L51.6595,49.7684 C51.5715,50.4644 51.6065,50.9904 51.7665,51.3484 C51.9265,51.7044 52.2115,51.9094 52.6205,51.9604 C53.0245,52.0124 53.3445,51.8934 53.5795,51.6064 C53.8155,51.3184 53.9795,50.8394 54.0735,50.1684 L54.2435,48.8294 Z M54.9195,50.0514 C54.7985,51.0084 54.5445,51.7004 54.1585,52.1234 C53.7725,52.5484 53.2315,52.7164 52.5365,52.6284 C51.8495,52.5414 51.3705,52.2494 51.0985,51.7524 C50.8255,51.2554 50.7405,50.5544 50.8435,49.6474 L50.9815,48.5564 C51.1005,47.6104 51.3535,46.9284 51.7395,46.5094 C52.1235,46.0914 52.6655,45.9264 53.3645,46.0154 C54.0565,46.1024 54.5385,46.3884 54.8095,46.8734 C55.0805,47.3584 55.1615,48.0634 55.0545,48.9904 L54.9195,50.0514 Z" id="Fill-25" fill="#FFFFFF"></path>
            <polygon id="Fill-27" fill="#FFFFFF" points="58.4066 53.1712 57.5816 53.0942 58.0926 47.6242 56.3816 48.0772 56.4506 47.3322 58.8846 46.6692 59.0136 46.6812"></polygon>
            <path d="M64.2826,49.7063 C64.3306,49.0103 64.2676,48.4963 64.0946,48.1643 C63.9206,47.8313 63.6216,47.6513 63.1986,47.6223 C62.7766,47.5933 62.4596,47.7303 62.2446,48.0343 C62.0306,48.3383 61.8976,48.8193 61.8466,49.4763 L61.7566,50.7923 C61.7076,51.4913 61.7736,52.0153 61.9536,52.3623 C62.1346,52.7093 62.4296,52.8973 62.8426,52.9253 C63.2476,52.9533 63.5596,52.8173 63.7786,52.5163 C63.9976,52.2163 64.1356,51.7283 64.1906,51.0533 L64.2826,49.7063 Z M65.0276,50.8873 C64.9616,51.8513 64.7476,52.5553 64.3866,53.0003 C64.0256,53.4463 63.4946,53.6443 62.7966,53.5973 C62.1056,53.5493 61.6106,53.2853 61.3096,52.8053 C61.0096,52.3243 60.8846,51.6283 60.9346,50.7183 L61.0106,49.6203 C61.0756,48.6683 61.2896,47.9733 61.6496,47.5333 C62.0106,47.0943 62.5416,46.8983 63.2436,46.9463 C63.9406,46.9943 64.4376,47.2523 64.7366,47.7213 C65.0346,48.1893 65.1566,48.8903 65.1006,49.8213 L65.0276,50.8873 Z" id="Fill-29" fill="#FFFFFF"></path>
            <polygon id="Fill-31" fill="#FFFFFF" points="68.5707 53.908 67.7447 53.84 68.1917 48.365 66.4857 48.838 66.5467 48.092 68.9717 47.4 69.1007 47.411"></polygon>
            <path d="M74.5922,50.6175 C74.6722,49.9245 74.6322,49.4075 74.4742,49.0685 C74.3162,48.7285 74.0262,48.5345 73.6042,48.4855 C73.1852,48.4375 72.8612,48.5605 72.6332,48.8545 C72.4052,49.1475 72.2502,49.6215 72.1692,50.2765 L72.0182,51.5865 C71.9382,52.2835 71.9802,52.8085 72.1442,53.1635 C72.3082,53.5185 72.5952,53.7205 73.0062,53.7675 C73.4092,53.8135 73.7282,53.6915 73.9602,53.4015 C74.1932,53.1115 74.3512,52.6305 74.4382,51.9585 L74.5922,50.6175 Z M75.2822,51.8315 C75.1722,52.7905 74.9262,53.4845 74.5452,53.9125 C74.1642,54.3415 73.6252,54.5155 72.9282,54.4355 C72.2412,54.3565 71.7592,54.0705 71.4802,53.5765 C71.2022,53.0825 71.1092,52.3825 71.2012,51.4745 L71.3272,50.3815 C71.4362,49.4335 71.6812,48.7485 72.0612,48.3255 C72.4422,47.9035 72.9822,47.7325 73.6812,47.8125 C74.3742,47.8925 74.8602,48.1735 75.1362,48.6555 C75.4122,49.1375 75.5022,49.8415 75.4042,50.7685 L75.2822,51.8315 Z" id="Fill-33" fill="#FFFFFF"></path>
            <polygon id="Fill-35" fill="#FFFFFF" points="78.6215 55.1165 77.8025 54.9915 78.6265 49.5605 76.8925 49.9145 77.0045 49.1755 79.4725 48.6525 79.6005 48.6715"></polygon>
            <path d="M84.87,52.2801 C85.002,51.5941 85.002,51.0761 84.87,50.7261 C84.739,50.3751 84.464,50.1591 84.047,50.0791 C83.633,49.9991 83.301,50.0971 83.051,50.3721 C82.801,50.6471 82.611,51.1091 82.48,51.7551 L82.23,53.0501 C82.097,53.7381 82.099,54.2651 82.235,54.6321 C82.371,54.9991 82.642,55.2211 83.048,55.2991 C83.447,55.3771 83.774,55.2791 84.028,55.0081 C84.281,54.7361 84.476,54.2691 84.614,53.6051 L84.87,52.2801 Z M85.465,53.5431 C85.282,54.4901 84.985,55.1641 84.572,55.5621 C84.159,55.9611 83.608,56.0931 82.92,55.9601 C82.241,55.8291 81.781,55.5061 81.541,54.9931 C81.302,54.4791 81.263,53.7731 81.424,52.8761 L81.633,51.7951 C81.813,50.8591 82.11,50.1951 82.521,49.8021 C82.933,49.4101 83.484,49.2801 84.176,49.4141 C84.861,49.5471 85.323,49.8631 85.562,50.3651 C85.801,50.8661 85.836,51.5761 85.668,52.4931 L85.465,53.5431 Z" id="Fill-37" fill="#FFFFFF"></path>
            <polygon id="Fill-39" fill="#FFFFFF" points="88.5428 57.0994 87.7368 56.9064 89.0178 51.5644 87.2598 51.7704 87.4338 51.0424 89.9378 50.7304 90.0628 50.7614"></polygon>
            <path d="M95.0219,54.8411 C95.2179,54.1711 95.2669,53.6551 95.1679,53.2941 C95.0689,52.9321 94.8159,52.6921 94.4089,52.5721 C94.0039,52.4541 93.6639,52.5201 93.3899,52.7711 C93.1149,53.0221 92.8819,53.4631 92.6909,54.0941 L92.3209,55.3601 C92.1249,56.0321 92.0769,56.5581 92.1779,56.9361 C92.2789,57.3141 92.5279,57.5601 92.9249,57.6761 C93.3149,57.7911 93.6489,57.7241 93.9279,57.4781 C94.2059,57.2311 94.4439,56.7841 94.6429,56.1361 L95.0219,54.8411 Z M95.4959,56.1541 C95.2249,57.0811 94.8649,57.7221 94.4169,58.0801 C93.9689,58.4391 93.4089,58.5191 92.7359,58.3221 C92.0709,58.1281 91.6439,57.7631 91.4539,57.2301 C91.2629,56.6961 91.2909,55.9901 91.5349,55.1111 L91.8439,54.0551 C92.1119,53.1401 92.4689,52.5061 92.9159,52.1541 C93.3619,51.8021 93.9229,51.7251 94.5989,51.9231 C95.2689,52.1181 95.6989,52.4771 95.8899,52.9991 C96.0809,53.5211 96.0499,54.2301 95.7959,55.1281 L95.4959,56.1541 Z" id="Fill-41" fill="#FFFFFF"></path>
            <polygon id="Fill-43" fill="#FFFFFF" points="98.182 60.0027 97.4 59.7267 99.229 54.5457 97.459 54.5687 97.708 53.8627 100.23 53.8127 100.352 53.8557"></polygon>
            <path d="M104.8632,58.4778 C105.1352,57.8348 105.2432,57.3288 105.1872,56.9578 C105.1322,56.5868 104.9072,56.3198 104.5162,56.1538 C104.1282,55.9898 103.7832,56.0158 103.4822,56.2328 C103.1792,56.4508 102.8972,56.8618 102.6352,57.4668 L102.1212,58.6808 C101.8472,59.3268 101.7392,59.8428 101.7972,60.2298 C101.8532,60.6168 102.0722,60.8908 102.4522,61.0518 C102.8272,61.2108 103.1672,61.1838 103.4712,60.9708 C103.7762,60.7578 104.0642,60.3408 104.3372,59.7208 L104.8632,58.4778 Z M105.1822,59.8368 C104.8062,60.7258 104.3752,61.3228 103.8882,61.6258 C103.4012,61.9298 102.8362,61.9448 102.1902,61.6718 C101.5532,61.4018 101.1702,60.9908 101.0432,60.4378 C100.9162,59.8858 101.0242,59.1878 101.3692,58.3428 L101.7982,57.3308 C102.1692,56.4518 102.5972,55.8638 103.0822,55.5658 C103.5662,55.2678 104.1332,55.2558 104.7802,55.5298 C105.4232,55.8028 105.8092,56.2088 105.9392,56.7488 C106.0682,57.2898 105.9552,57.9908 105.6002,58.8528 L105.1822,59.8368 Z" id="Fill-45" fill="#FFFFFF"></path>
            <polygon id="Fill-47" fill="#FFFFFF" points="107.3866 64.0086 106.6476 63.6346 109.1296 58.7336 107.3716 58.5276 107.7096 57.8596 110.2166 58.1356 110.3316 58.1946"></polygon>
            <path d="M114.2054,63.4236 C114.5674,62.8266 114.7474,62.3406 114.745416,61.9666 C114.7424,61.5916 114.5594,61.2946 114.1974,61.0736 C113.8354,60.8556 113.4904,60.8326 113.1614,61.0036 C112.8304,61.1746 112.4924,61.5416 112.1454,62.1026 L111.4624,63.2306 C111.0994,63.8296 110.9174,64.3246 110.918396,64.7156 C110.9194,65.1076 111.0964,65.4096 111.4494,65.6236 C111.7974,65.8356 112.1374,65.8566 112.4694,65.6906 C112.8014,65.5236 113.1464,65.1526 113.5054,64.5786 L114.2054,63.4236 Z M114.3254,64.8146 C113.8254,65.6406 113.3124,66.1686 112.7874,66.3986 C112.2624,66.6296 111.6994,66.5626 111.1004,66.1996 C110.5084,65.8406 110.1894,65.3786 110.1434,64.8136 C110.0964,64.2486 110.3044,63.5736 110.7664,62.7876 L111.3364,61.8466 C111.8304,61.0306 112.3394,60.5106 112.8614,60.2856 C113.3834,60.0606 113.9454,60.1306 114.5484,60.4946 C115.1444,60.8566 115.4684,61.3146 115.5184,61.8676 C115.5684,62.4206 115.3554,63.0976 114.8794,63.9006 L114.3254,64.8146 Z" id="Fill-49" fill="#FFFFFF"></path>
            <polygon id="Fill-51" fill="#FFFFFF" points="115.8436 69.2791 115.1736 68.7911 118.4076 64.3501 116.7046 63.8651 117.1456 63.2601 119.5766 63.9341 119.6806 64.0101"></polygon>
            <path d="M122.6556,69.8675 C123.1166,69.3445 123.3806,68.8985 123.4446,68.5285 C123.5096,68.1595 123.3816,67.8345 123.0636,67.5535 C122.7476,67.2745 122.4116,67.1905 122.0566,67.3015 C121.7006,67.4115 121.3026,67.7115 120.8626,68.2025 L119.9896,69.1905 C119.5266,69.7165 119.2596,70.1725 119.1916,70.5575 C119.1226,70.9425 119.2436,71.2715 119.5526,71.5445 C119.8576,71.8145 120.1886,71.8955 120.5456,71.7905 C120.9016,71.6855 121.3076,71.3815 121.7616,70.8805 L122.6556,69.8675 Z M122.5276,71.2585 C121.8886,71.9815 121.2906,72.4105 120.7336,72.5445 C120.1756,72.6785 119.6336,72.5135 119.1076,72.0495 C118.5896,71.5915 118.3566,71.0795 118.4106,70.5155 C118.4656,69.9515 118.7896,69.3235 119.3846,68.6325 L120.1126,67.8065 C120.7426,67.0925 121.3356,66.6705 121.8886,66.5415 C122.4436,66.4115 122.9836,66.5795 123.5116,67.0465 C124.0346,67.5075 124.2726,68.0155 124.2236,68.5685 C124.1756,69.1215 123.8456,69.7515 123.2356,70.4565 L122.5276,71.2585 Z" id="Fill-53" fill="#FFFFFF"></path>
            <polygon id="Fill-55" fill="#FFFFFF" points="123.1732 75.948 122.6112 75.339 126.6522 71.616 125.0772 70.808 125.6282 70.301 127.8802 71.437 127.9672 71.532"></polygon>
            <path d="M129.7064,77.9397 C130.2694,77.5277 130.6234,77.1487 130.7654,76.8017 C130.9074,76.4557 130.8524,76.1107 130.6024,75.7677 C130.3534,75.4267 130.0434,75.2727 129.6734,75.3037 C129.3024,75.3357 128.8494,75.5437 128.3134,75.9277 L127.2484,76.7057 C126.6824,77.1197 126.3244,77.5067 126.1744,77.8677 C126.0254,78.2297 126.0724,78.5767 126.3154,78.9107 C126.5554,79.2387 126.8604,79.3897 127.2314,79.3637 C127.6024,79.3377 128.0634,79.1277 128.6164,78.7357 L129.7064,77.9397 Z M129.2824,79.2707 C128.5024,79.8397 127.8264,80.1297 127.2524,80.1397 C126.6794,80.1507 126.1854,79.8737 125.7724,79.3067 C125.3644,78.7487 125.2474,78.1987 125.4214,77.6597 C125.5954,77.1207 126.0474,76.5767 126.7764,76.0297 L127.6654,75.3797 C128.4354,74.8177 129.1044,74.5337 129.6734,74.5257 C130.2414,74.5197 130.7344,74.7997 131.1494,75.3687 C131.5604,75.9317 131.6834,76.4787 131.5174,77.0087 C131.3504,77.5387 130.8934,78.0827 130.1454,78.6397 L129.2824,79.2707 Z" id="Fill-57" fill="#FFFFFF"></path>
            <polygon id="Fill-59" fill="#FFFFFF" points="128.8182 83.9861 128.4182 83.2601 133.2262 80.6041 131.8882 79.4441 132.5432 79.0831 134.4612 80.7201 134.5242 80.8341"></polygon>
            <path d="M134.6058,87.597 C135.2608,87.354 135.7038,87.085 135.9348,86.791 C136.1658,86.496 136.2078,86.149 136.0598,85.751 C135.9138,85.356 135.6578,85.123 135.2928,85.052 C134.9268,84.981 134.4348,85.057 133.8138,85.281 L132.5778,85.74 C131.9198,85.983 131.4698,86.258 131.2278,86.565 C130.9848,86.872 130.9358,87.22 131.0788,87.607 C131.2198,87.988 131.4728,88.217 131.8368,88.293 C132.2008,88.368 132.7018,88.293 133.3398,88.066 L134.6058,87.597 Z M133.8348,88.762 C132.9298,89.097 132.1998,89.191 131.6458,89.045 C131.0908,88.899 130.6918,88.498 130.4478,87.841 C130.2078,87.191 130.2448,86.631 130.5598,86.16 C130.8738,85.688 131.4568,85.288 132.3078,84.96 L133.3398,84.578 C134.2338,84.247 134.9548,84.156 135.5048,84.304 C136.0538,84.451 136.4508,84.856 136.6948,85.515 C136.9378,86.17 136.9068,86.73 136.6018,87.194 C136.2968,87.659 135.7098,88.057 134.8378,88.39 L133.8348,88.762 Z" id="Fill-61" fill="#FFFFFF"></path>
            <path d="M155.9872,4.5408 C156.3082,3.9208 156.4542,3.4238 156.4272,3.0498 C156.3992,2.6768 156.1962,2.3928 155.8192,2.1978 C155.4452,2.0038 155.0992,2.0038 154.7812,2.1978 C154.4642,2.3918 154.1512,2.7798 153.8422,3.3628 L153.2372,4.5338 C152.9162,5.1568 152.7682,5.6638 152.7962,6.0538 C152.8232,6.4438 153.0202,6.7338 153.3862,6.9228 C153.7482,7.1098 154.0892,7.1088 154.4092,6.9198 C154.7292,6.7308 155.0492,6.3378 155.3672,5.7408 L155.9872,4.5408 Z M156.2022,5.9208 C155.7582,6.7788 155.2832,7.3398 154.7742,7.6048 C154.2662,7.8708 153.7002,7.8428 153.0782,7.5208 C152.4632,7.2038 152.1132,6.7648 152.0292,6.2038 C151.9442,5.6438 152.1052,4.9558 152.5132,4.1398 L153.0182,3.1618 C153.4562,2.3148 153.9282,1.7618 154.4342,1.5008 C154.9402,1.2408 155.5052,1.2728 156.1302,1.5958 C156.7502,1.9158 157.1042,2.3508 157.1922,2.8988 C157.2792,3.4478 157.1132,4.1388 156.6932,4.9708 L156.2022,5.9208 Z" id="Fill-63" fill="#FFFFFF"></path>
            <polygon id="Fill-65" fill="#FFFFFF" points="158.0258 10.2674 157.3218 9.8304 160.2198 5.1634 158.4858 4.8054 158.8808 4.1694 161.3548 4.6624 161.4638 4.7304"></polygon>
            <path d="M164.8783,10.2693 C165.2893,9.7053 165.5083,9.2353 165.5373,8.8623 C165.5663,8.4883 165.4093,8.1773 165.0653,7.9273 C164.7243,7.6793 164.3823,7.6273 164.0393,7.7703 C163.6963,7.9153 163.3283,8.2513 162.9363,8.7813 L162.1613,9.8483 C161.7493,10.4153 161.5273,10.8943 161.4953,11.2843 C161.4633,11.6733 161.6143,11.9903 161.9483,12.2323 C162.2773,12.4723 162.6143,12.5223 162.9593,12.3833 C163.3043,12.2453 163.6793,11.9043 164.0853,11.3623 L164.8783,10.2693 Z M164.8823,11.6663 C164.3153,12.4473 163.7603,12.9303 163.2173,13.1163 C162.6753,13.3023 162.1203,13.1893 161.5533,12.7773 C160.9933,12.3703 160.7133,11.8833 160.714297,11.3163 C160.714297,10.7493 160.9783,10.0943 161.5043,9.3493 L162.1513,8.4593 C162.7113,7.6873 163.2613,7.2113 163.8003,7.0303 C164.3393,6.8493 164.8943,6.9653 165.4633,7.3793 C166.0283,7.7903 166.3133,8.2723 166.316344,8.8283 C166.3203,9.3833 166.0523,10.0413 165.5113,10.8013 L164.8823,11.6663 Z" id="Fill-67" fill="#FFFFFF"></path>
            <polygon id="Fill-69" fill="#FFFFFF" points="166.0531 16.2269 165.4211 15.6909 168.9701 11.4989 167.3081 10.8909 167.7921 10.3199 170.1671 11.1689 170.2651 11.2529"></polygon>
            <path d="M172.8295,17.2654 C173.3215,16.7704 173.6105,16.3404 173.6965,15.9754 C173.7825,15.6114 173.6755,15.2794 173.3735,14.9794 C173.0745,14.6824 172.7455,14.5784 172.3835,14.6674 C172.0225,14.7564 171.6075,15.0334 171.1395,15.4964 L170.2085,16.4324 C169.7145,16.9294 169.4225,17.3684 169.3305,17.7484 C169.2395,18.1284 169.3405,18.4644 169.6335,18.7554 C169.9215,19.0424 170.2465,19.1434 170.6095,19.0594 C170.9715,18.9754 171.3935,18.6974 171.8775,18.2234 L172.8295,17.2654 Z M172.6195,18.6454 C171.9385,19.3304 171.3165,19.7234 170.7515,19.8234 C170.1875,19.9234 169.6565,19.7264 169.1595,19.2324 C168.6675,18.7444 168.4665,18.2204 168.5545,17.6614 C168.6415,17.1004 169.0025,16.4934 169.6375,15.8384 L170.4125,15.0574 C171.0845,14.3814 171.7015,13.9944 172.2625,13.8984 C172.8225,13.8034 173.3525,14.0034 173.8515,14.4984 C174.3465,14.9914 174.5535,15.5124 174.4725,16.0614 C174.3915,16.6104 174.0245,17.2194 173.3735,17.8874 L172.6195,18.6454 Z" id="Fill-71" fill="#FFFFFF"></path>
            <polygon id="Fill-73" fill="#FFFFFF" points="173.0341 23.3387 172.4981 22.7057 176.6921 19.1567 175.1521 18.2827 175.7231 17.7987 177.9261 19.0277 178.0091 19.1267"></polygon>
            <path d="M179.515,25.5242 C180.088,25.1252 180.449,24.7532 180.598,24.4102 C180.748,24.0672 180.702,23.7212 180.459,23.3722 C180.218,23.0262 179.911,22.8652 179.54,22.8882 C179.169,22.9122 178.711,23.1102 178.167,23.4822 L177.085,24.2362 C176.51,24.6372 176.144,25.0172 175.986,25.3752 C175.828,25.7332 175.868,26.0822 176.104,26.4202 C176.337,26.7542 176.639,26.9122 177.01,26.8942 C177.381,26.8762 177.848,26.6762 178.408,26.2962 L179.515,25.5242 Z M179.062,26.8452 C178.27,27.3972 177.588,27.6722 177.014,27.6702108 C176.441,27.6692 175.953,27.3802 175.552,26.8052 C175.156,26.2372 175.052,25.6862 175.238,25.1502 C175.424,24.6152 175.888,24.0822 176.628,23.5502 L177.531,22.9212 C178.313,22.3762 178.988,22.1062 179.557,22.1112 C180.126,22.1162 180.612,22.4072 181.014,22.9852 C181.413,23.5582 181.524,24.1072 181.346,24.6332 C181.168,25.1592 180.699,25.6922 179.939,26.2332 L179.062,26.8452 Z" id="Fill-75" fill="#FFFFFF"></path>
            <polygon id="Fill-77" fill="#FFFFFF" points="178.5878 31.5535 178.1848 30.8295 182.9838 28.1555 181.6418 27.0005 182.2958 26.6365 184.2188 28.2685 184.2818 28.3815"></polygon>
            <path d="M184.4916,35.0022 C185.1346,34.7302 185.5646,34.4402 185.7816,34.1352 C185.9986,33.8302 186.0246,33.4822 185.8586,33.0912 C185.6936,32.7032 185.4276,32.4812 185.0596,32.4282 C184.6916,32.3752 184.2026,32.4742 183.5936,32.7262 L182.3796,33.2412 C181.7346,33.5152 181.2976,33.8112 181.0696,34.1292 C180.8416,34.4462 180.8076,34.7952 180.9696,35.1752 C181.1286,35.5502 181.3906,35.7672 181.7586,35.8262 C182.1256,35.8852 182.6226,35.7862 183.2486,35.5302 L184.4916,35.0022 Z M183.7766,36.2012 C182.8876,36.5792 182.1626,36.7072 181.6016,36.5862 C181.0406,36.4672 180.6236,36.0842 180.3496,35.4392 C180.0796,34.8012 180.0906,34.2402 180.3836,33.7542 C180.6756,33.2692 181.2396,32.8422 182.0746,32.4762 L183.0866,32.0452 C183.9646,31.6732 184.6806,31.5482 185.2366,31.6712 C185.7916,31.7932 186.2066,32.1782 186.4816,32.8272 C186.7546,33.4692 186.7496,34.0292 186.4676,34.5072 C186.1846,34.9852 185.6156,35.4112 184.7606,35.7842 L183.7766,36.2012 Z" id="Fill-79" fill="#FFFFFF"></path>
            <polygon id="Fill-81" fill="#FFFFFF" points="182.3036 40.7063 182.0666 39.9123 187.3296 38.3373 186.2676 36.9203 186.9856 36.7063 188.5116 38.7143 188.5486 38.8383"></polygon>
            <path d="M187.3046,45.3445 C187.9916,45.2195 188.4736,45.0325 188.7536,44.7825 C189.0326,44.5325 189.1336,44.1985 189.0576,43.7815 C188.9826,43.3655 188.7716,43.0925 188.4246,42.9585 C188.0766,42.8255 187.5786,42.8145 186.9296,42.9265 L185.6316,43.1625 C184.9416,43.2875 184.4506,43.4805 184.1586,43.7405 C183.8656,43.9995 183.7566,44.3325 183.8296,44.7385 C183.9026,45.1395 184.1116,45.4085 184.4566,45.5465 C184.8016,45.6845 185.3076,45.6985 185.9756,45.5855 L187.3046,45.3445 Z M186.3426,46.3575 C185.3926,46.5295 184.6576,46.4945 184.1366,46.2545 C183.6166,46.0135 183.2936,45.5485 183.1676,44.8595 C183.0446,44.1785 183.1786,43.6335 183.5706,43.2235 C183.9626,42.8145 184.6066,42.5225 185.5016,42.3475 L186.5846,42.1515 C187.5226,41.9815 188.2486,42.0165 188.7636,42.2585 C189.2786,42.5005 189.5986,42.9675 189.7246,43.6595 C189.8496,44.3465 189.7216,44.8925 189.3406,45.2965 C188.9596,45.7005 188.3106,45.9905 187.3946,46.1655 L186.3426,46.3575 Z" id="Fill-83" fill="#FFFFFF"></path>
            <path d="M251.2264,43.1761 C250.5484,43.0121 250.0314,42.9891 249.6744,43.1041 C249.3184,43.2201 249.0894,43.4851 248.9914,43.8971 C248.8924,44.3071 248.9744,44.6441 249.2384,44.9051 C249.5014,45.1681 249.9534,45.3791 250.5924,45.5391 L251.8754,45.8481 C252.5574,46.0121 253.0834,46.0351 253.4554,45.9151 C253.8294,45.7961 254.0634,45.5351 254.1604,45.1341 C254.2554,44.7381 254.1734,44.4071 253.9134,44.1421 C253.6544,43.8761 253.1954,43.6591 252.5384,43.4921 L251.2264,43.1761 Z M252.5164,42.6391 C253.4544,42.8651 254.1134,43.1931 254.4924,43.6241 C254.8714,44.0541 254.9784,44.6101 254.8144,45.2921 C254.6524,45.9641 254.3084,46.4091 253.7854,46.6251 C253.2604,46.8411 252.5544,46.8471 251.6644,46.6461 L250.5944,46.3871 C249.6674,46.1641 249.0174,45.8381 248.6444,45.4091 C248.2714,44.9801 248.1674,44.4231 248.3324,43.7391 C248.4964,43.0601 248.8324,42.6131 249.3454,42.3971 C249.8574,42.1811 250.5674,42.1781 251.4764,42.3881 L252.5164,42.6391 Z" id="Fill-85" fill="#FFFFFF"></path>
            <polygon id="Fill-87" fill="#FFFFFF" points="256.3231 39.8377 256.0591 40.6237 250.8511 38.8727 250.9001 40.6427 250.1911 40.4047 250.1031 37.8837 250.1441 37.7607"></polygon>
            <path d="M254.8182,33.1546 C254.1782,32.8756 253.6732,32.7616 253.3022,32.8136 C252.9312,32.8656 252.6612,33.0856 252.4912,33.4756 C252.3232,33.8616 252.3442,34.2076 252.5582,34.5106 C252.7722,34.8156 253.1802,35.1016 253.7832,35.3706 L254.9912,35.8986 C255.6332,36.1796 256.1492,36.2926 256.5372,36.2406 C256.9242,36.1876 257.2002,35.9716 257.3662,35.5936 C257.5282,35.2206 257.5062,34.8806 257.2962,34.5736 C257.0872,34.2666 256.6722,33.9736 256.0562,33.6946 L254.8182,33.1546 Z M256.1812,32.8496 C257.0662,33.2366 257.6582,33.6746 257.9562,34.1646 C258.2552,34.6536 258.2622,35.2196 257.9832,35.8626 C257.7062,36.4966 257.2912,36.8746 256.7372,36.9956 C256.1822,37.1166 255.4862,37.0006 254.6452,36.6476 L253.6362,36.2066 C252.7622,35.8256 252.1802,35.3906 251.8862,34.9036 C251.5942,34.4156 251.5892,33.8496 251.8702,33.2046 C252.1502,32.5646 252.5592,32.1836 253.1012,32.0596 C253.6432,31.9366 254.3422,32.0566 255.2022,32.4226 L256.1812,32.8496 Z" id="Fill-89" fill="#FFFFFF"></path>
            <polygon id="Fill-91" fill="#FFFFFF" points="260.4139 30.761 260.0179 31.489 255.1929 28.861 254.9349 30.613 254.2769 30.255 254.6279 27.757 254.6889 27.644"></polygon>
            <path d="M260.0887,23.9222 C259.5067,23.5362 259.0287,23.3372 258.6537,23.3232 C258.2787,23.3112 257.9747,23.4812 257.7397,23.8352 C257.5067,24.1872 257.4697,24.5302 257.6277,24.8672 C257.7857,25.2042 258.1387,25.5572 258.6857,25.9262 L259.7837,26.6552 C260.3677,27.0432 260.8557,27.2432 261.2467,27.2582 C261.6377,27.2742 261.9467,27.1092 262.1757,26.7652 C262.4007,26.4262 262.4357,26.0872 262.2817,25.7492 C262.1287,25.4102 261.7727,25.0492 261.2137,24.6682 L260.0887,23.9222 Z M261.4837,23.8582 C262.2877,24.3912 262.7947,24.9252 263.0027,25.4602 C263.2127,25.9942 263.1237,26.5532 262.7357,27.1372 C262.3537,27.7142 261.8787,28.0142 261.3137,28.0372 C260.7457,28.0612 260.0797,27.8262 259.3137,27.3322 L258.3967,26.7242 C257.6017,26.1972 257.1027,25.6682 256.8987,25.1372 C256.6937,24.6062 256.7867,24.0472 257.1757,23.4612 C257.5617,22.8792 258.0317,22.5742 258.5867,22.5472 C259.1417,22.5192 259.8097,22.7592 260.5917,23.2672 L261.4837,23.8582 Z" id="Fill-93" fill="#FFFFFF"></path>
            <polygon id="Fill-95" fill="#FFFFFF" points="266.0126 22.5257 265.4966 23.1747 261.1956 19.7587 260.6396 21.4407 260.0536 20.9757 260.8266 18.5737 260.9076 18.4727"></polygon>
            <path d="M266.8368,15.7449 C266.3278,15.2669 265.8898,14.9899 265.5238,14.9139 C265.1558,14.8389 264.8268,14.9559 264.5358,15.2659 C264.2468,15.5729 264.1528,15.9059 264.2528,16.2639 C264.3518,16.6229 264.6408,17.0299 265.1168,17.4849 L266.0768,18.3879 C266.5888,18.8689 267.0348,19.1479 267.4188,19.2289 C267.8018,19.3089 268.1338,19.1989 268.4168,18.8979 C268.6948,18.6009 268.7868,18.2729 268.6928,17.9139 C268.5998,17.5549 268.3078,17.1399 267.8198,16.6689 L266.8368,15.7449 Z M268.2228,15.9159 C268.9268,16.5769 269.3358,17.1879 269.4518,17.7489 C269.5688,18.3109 269.3868,18.8479 268.9068,19.3579 C268.4338,19.8629 267.9148,20.0789 267.3538,20.0079 C266.7908,19.9359 266.1738,19.5919 265.4998,18.9769 L264.6978,18.2239 C264.0028,17.5699 263.5998,16.9649 263.4878,16.4079 C263.3758,15.8499 263.5618,15.3149 264.0418,14.8019 C264.5208,14.2929 265.0348,14.0719 265.5868,14.1379 C266.1388,14.2029 266.7578,14.5519 267.4418,15.1839 L268.2228,15.9159 Z" id="Fill-97" fill="#FFFFFF"></path>
            <polygon id="Fill-99" fill="#FFFFFF" points="272.9042 15.346 272.2902 15.903 268.5992 11.834 267.7782 13.402 267.2752 12.848 268.4282 10.605 268.5242 10.518"></polygon>
            <path d="M274.8007,8.7674 C274.3717,8.2164 273.9827,7.8744 273.6317,7.7434 C273.2807,7.6114 272.9387,7.6754 272.6037,7.9354 C272.2697,8.1944 272.1247,8.5094 272.1667,8.8784 C272.2087,9.2474 272.4307,9.6944 272.8297,10.2194 L273.6397,11.2604 C274.0697,11.8134 274.4677,12.1604 274.8327,12.2994 C275.1987,12.4384 275.5447,12.3814 275.8707,12.1284 C276.1927,11.8784 276.3337,11.5684 276.2977,11.1984 C276.2597,10.8294 276.0367,10.3734 275.6277,9.8334 L274.8007,8.7674 Z M276.1437,9.1514 C276.7357,9.9144 277.0447,10.5814 277.0717,11.1544 C277.1007,11.7274 276.8377,12.2294 276.2837,12.6594 C275.7377,13.0834 275.1917,13.2174 274.6477,13.0594 C274.1037,12.9004 273.5467,12.4644 272.9787,11.7524 L272.3027,10.8834 C271.7177,10.1304 271.4127,9.4694 271.3897,8.9014 C271.3647,8.3334 271.6317,7.8324 272.1867,7.4014 C272.7377,6.9734 273.2807,6.8344 273.8157,6.9844 C274.3507,7.1354 274.9067,7.5764 275.4867,8.3074 L276.1437,9.1514 Z" id="Fill-101" fill="#FFFFFF"></path>
            <polygon id="Fill-103" fill="#FFFFFF" points="280.8544 9.2884 280.1654 9.7484 277.1134 5.1814 276.0704 6.6114 275.6554 5.9894 277.1254 3.9404 277.2334 3.8684"></polygon>
            <g id="Group-107" transform="translate(280.000000, 0.248900)">
                <mask id="mask-2" fill="white">
                    <use xlink:href="#path-1"></use>
                </mask>
                <g id="Clip-106"></g>
                <path d="M3.6757,2.7831 C3.3267,2.1781 2.9887,1.7861 2.6597,1.6071 C2.3307,1.4281 1.9817,1.4451 1.6127,1.6561 C1.2477,1.8671 1.0617,2.1581 1.0527,2.5291 C1.0427,2.9011 1.2007,3.3741 1.5247,3.9491 L2.1827,5.0921 C2.5307,5.7001 2.8777,6.0971 3.2217,6.2861 C3.5647,6.4741 3.9137,6.4651 4.2727,6.2591 C4.6247,6.0561 4.8087,5.7691 4.8217,5.3971 C4.8367,5.0261 4.6787,4.5451 4.3497,3.9531 L3.6757,2.7831 Z M4.9517,3.3491 C5.4337,4.1861 5.6487,4.8901 5.5967,5.4611 C5.5447,6.0321 5.2157,6.4921 4.6077,6.8421 C4.0077,7.1871 3.4487,7.2441 2.9327,7.0121 C2.4147,6.7801 1.9237,6.2721 1.4587,5.4881 L0.9097,4.5341 C0.4347,3.7071 0.2247,3.0111 0.2797,2.4451 C0.3327,1.8791 0.6657,1.4201 1.2767,1.0691 C1.8807,0.7211 2.4377,0.6581 2.9467,0.8821 C3.4547,1.1051 3.9467,1.6181 4.4187,2.4221 L4.9517,3.3491 Z" id="Fill-105" fill="#FFFFFF" mask="url(#mask-2)"></path>
            </g>
            <path d="M304.8641,85.3992 C304.2181,85.1372 303.7091,85.0362 303.3401,85.0972 C302.9691,85.1592 302.7051,85.3872 302.5461,85.7802 C302.3861,86.1712 302.4181,86.5162 302.6391,86.8142 C302.8621,87.1132 303.2771,87.3882 303.8851,87.6422 L305.1081,88.1382 C305.7581,88.4012 306.2751,88.5032 306.6611,88.4402 C307.0481,88.3772 307.3181,88.1542 307.4731,87.7712 C307.6271,87.3942 307.5941,87.0552 307.3771,86.7532 C307.1601,86.4522 306.7391,86.1702 306.1151,85.9072 L304.8641,85.3992 Z M306.2181,85.0592 C307.1131,85.4232 307.7161,85.8452 308.0261,86.3272 C308.3381,86.8092 308.3611,87.3752 308.0961,88.0242 C307.8371,88.6662 307.4311,89.0542 306.8811,89.1902 C306.3311,89.3252 305.6311,89.2272 304.7811,88.8952 L303.7611,88.4812 C302.8781,88.1222 302.2831,87.7032 301.9781,87.2242 C301.6731,86.7442 301.6531,86.1772 301.9181,85.5252 C302.1801,84.8782 302.5811,84.4862 303.1191,84.3492 C303.6581,84.2122 304.3601,84.3152 305.2271,84.6572 L306.2181,85.0592 Z" id="Fill-108" fill="#FFFFFF"></path>
            <polygon id="Fill-110" fill="#FFFFFF" points="310.5292 83.0232 310.1122 83.7382 305.3682 80.9672 305.0562 82.7102 304.4112 82.3332 304.8362 79.8462 304.9012 79.7342"></polygon>
            <path d="M310.5526,76.2161 C309.9966,75.7941 309.5326,75.5641 309.1596,75.5271 C308.7876,75.4891 308.4726,75.6401 308.2156,75.9781 C307.9596,76.3131 307.9006,76.6541 308.0356,77.0001 C308.1726,77.3461 308.5006,77.7221 309.0226,78.1251 L310.0716,78.9241 C310.6296,79.3481 311.1036,79.5801 311.4916,79.6211 C311.8816,79.6611 312.2006,79.5171 312.4506,79.1881 C312.6986,78.8651 312.7546,78.5291 312.6236,78.1811 C312.4926,77.8331 312.1606,77.4511 311.6276,77.0341 L310.5526,76.2161 Z M311.9486,76.2431 C312.7176,76.8271 313.1886,77.3931 313.3626,77.9391 C313.5356,78.4861 313.4106,79.0381 312.9866,79.5961 C312.5676,80.1471 312.0746,80.4161 311.5076,80.4031 C310.9416,80.3891 310.2916,80.1121 309.5586,79.5691 L308.6826,78.9031 C307.9236,78.3251 307.4596,77.7651 307.2906,77.2231 C307.1206,76.6791 307.2496,76.1281 307.6766,75.5681 C308.0986,75.0121 308.5876,74.7381 309.1436,74.7471 C309.6986,74.7551 310.3506,75.0381 311.0986,75.5951 L311.9486,76.2431 Z" id="Fill-112" fill="#FFFFFF"></path>
            <polygon id="Fill-114" fill="#FFFFFF" points="316.5975 75.2845 316.0265 75.8845 312.0475 72.0965 311.3435 73.7215 310.8015 73.2045 311.7875 70.8835 311.8765 70.7895"></polygon>
            <path d="M318.1141,68.6214 C317.6591,68.0914 317.2531,67.7694 316.8961,67.6544 C316.5401,67.5394 316.2001,67.6204 315.8781,67.8974 C315.5581,68.1714 315.4271,68.4924 315.4881,68.8594 C315.5491,69.2264 315.7921,69.6624 316.2161,70.1664 L317.0751,71.1674 C317.5311,71.7004 317.9451,72.0264 318.3171,72.1474 C318.6881,72.2684 319.0311,72.1944 319.3451,71.9264 C319.6531,71.6614 319.7811,71.3454 319.7251,70.9774 C319.6711,70.6104 319.4261,70.1664 318.9921,69.6464 L318.1141,68.6214 Z M319.4721,68.9404 C320.1001,69.6734 320.4431,70.3254 320.4981,70.8954 C320.5531,71.4664 320.3141,71.9804 319.7831,72.4364 C319.2581,72.8874 318.7191,73.0464 318.1681,72.9144 C317.6161,72.7834 317.0401,72.3754 316.4371,71.6904 L315.7211,70.8554 C315.1001,70.1314 314.7641,69.4864 314.7131,68.9204 C314.6621,68.3534 314.9031,67.8414 315.4361,67.3834 C315.9671,66.9284 316.5031,66.7634 317.0441,66.8884 C317.5851,67.0134 318.1631,67.4264 318.7761,68.1284 L319.4721,68.9404 Z" id="Fill-116" fill="#FFFFFF"></path>
            <polygon id="Fill-118" fill="#FFFFFF" points="324.204 68.9183 323.528 69.3973 320.35 64.9163 319.348 66.3753 318.915 65.7643 320.329 63.6753 320.434 63.6013"></polygon>
            <path d="M326.9178,62.6248 C326.5638,62.0238 326.2198,61.6358 325.8888,61.4598 C325.5578,61.2848 325.2098,61.3048 324.8438,61.5208 C324.4798,61.7348 324.2958,62.0278 324.2908,62.3998 C324.2858,62.7718 324.4478,63.2428 324.7788,63.8138 L325.4478,64.9498 C325.8048,65.5538 326.1548,65.9478 326.5008,66.1318 C326.8458,66.3168 327.1948,66.3038 327.5518,66.0948 C327.9008,65.8878 328.0818,65.5988 328.0918,65.2268 C328.1028,64.8548 327.9388,64.3748 327.6028,63.7878 L326.9178,62.6248 Z M328.1998,63.1768 C328.6898,64.0088 328.9128,64.7098 328.8668,65.2818 C328.8218,65.8538 328.4968,66.3178 327.8938,66.6738 C327.2968,67.0248 326.7378,67.0878 326.2188,66.8618 C325.6988,66.6348 325.2028,66.1328 324.7298,65.3528 L324.1708,64.4058 C323.6868,63.5838 323.4688,62.8898 323.5178,62.3238 C323.5648,61.7568 323.8938,61.2948 324.4988,60.9368 C325.1008,60.5828 325.6568,60.5138 326.1678,60.7308 C326.6788,60.9498 327.1748,61.4578 327.6558,62.2558 L328.1998,63.1768 Z" id="Fill-120" fill="#FFFFFF"></path>
            <polygon id="Fill-122" fill="#FFFFFF" points="332.8514 63.9275 332.1084 64.2935 329.6814 59.3655 328.4594 60.6465 328.1294 59.9755 329.8564 58.1365 329.9734 58.0795"></polygon>
            <path d="M336.453,58.1106 C336.188,57.4646 335.904,57.0316 335.602,56.8106 C335.299,56.5896 334.952,56.5596 334.558,56.7206 C334.169,56.8816 333.944,57.1446 333.886,57.5126 C333.828,57.8796 333.922,58.3696 334.167,58.9816 L334.667,60.2016 C334.933,60.8506 335.224,61.2906 335.539,61.5226 C335.854,61.7546 336.203,61.7916 336.585,61.6346 C336.961,61.4806 337.182,61.2196 337.244,60.8536 C337.307,60.4876 337.215,59.9896 336.966,59.3596 L336.453,58.1106 Z M337.643,58.8406 C338.01,59.7336 338.13,60.4606 338.004,61.0196 C337.876,61.5786 337.488,61.9916 336.84,62.2576 C336.2,62.5206 335.639,62.5026 335.156,62.2046 C334.675,61.9056 334.255,61.3376 333.898,60.4986 L333.48,59.4806 C333.119,58.5976 333.002,57.8806 333.131,57.3256 C333.261,56.7726 333.649,56.3616 334.301,56.0946 C334.947,55.8296 335.508,55.8406 335.981,56.1296 C336.457,56.4186 336.876,56.9916 337.238,57.8516 L337.643,58.8406 Z" id="Fill-124" fill="#FFFFFF"></path>
            <polygon id="Fill-126" fill="#FFFFFF" points="342.1581 60.1941 341.3731 60.4611 339.6021 55.2601 338.2261 56.3741 337.9851 55.6661 339.9341 54.0651 340.0561 54.0231"></polygon>
            <path d="M346.4276,54.8519 C346.2396,54.1799 346.0076,53.7159 345.7336,53.4619 C345.4576,53.2069 345.1156,53.1369 344.7066,53.2519 C344.3006,53.3659 344.0476,53.6019 343.9476,53.9599 C343.8476,54.3179 343.8826,54.8149 344.0546,55.4519 L344.4106,56.7219 C344.6006,57.3959 344.8376,57.8679 345.1236,58.1349 C345.4096,58.4009 345.7516,58.4789 346.1496,58.3679 C346.5406,58.2579 346.7896,58.0249 346.8946,57.6679 C346.9996,57.3119 346.9656,56.8059 346.7916,56.1519 L346.4276,54.8519 Z M347.5256,55.7149 C347.7856,56.6439 347.8206,57.3799 347.6296,57.9209 C347.4396,58.4609 347.0056,58.8269 346.3306,59.0159 C345.6636,59.2029 345.1096,59.1199 344.6646,58.7679 C344.2206,58.4149 343.8696,57.8019 343.6136,56.9269 L343.3166,55.8669 C343.0586,54.9489 343.0256,54.2229 343.2186,53.6869 C343.4106,53.1519 343.8466,52.7899 344.5246,52.5999 C345.1966,52.4119 345.7516,52.4879 346.1896,52.8299 C346.6276,53.1709 346.9766,53.7899 347.2376,54.6849 L347.5256,55.7149 Z" id="Fill-128" fill="#FFFFFF"></path>
            <polygon id="Fill-130" fill="#FFFFFF" points="351.8641 57.5403 351.0561 57.7243 349.8391 52.3673 348.3531 53.3303 348.1871 52.6013 350.2951 51.2123 350.4201 51.1843"></polygon>
            <path d="M356.66,52.6351 C356.536,51.9481 356.35,51.4651 356.099,51.1861 C355.85,50.9061 355.516,50.8041 355.099,50.8801 C354.683,50.9541 354.409,51.1661 354.275,51.5121 C354.142,51.8601 354.132,52.3581 354.243,53.0081 L354.476,54.3061 C354.6,54.9961 354.794,55.4871 355.053,55.7801 C355.312,56.0731 355.645,56.1821 356.052,56.1091 C356.452,56.0371 356.722,55.8281 356.86,55.4831 C356.998,55.1381 357.013,54.6321 356.9,53.9641 L356.66,52.6351 Z M357.672,53.5981 C357.844,54.5481 357.808,55.2831 357.567,55.8031 C357.326,56.3241 356.86,56.6461 356.171,56.7711 C355.49,56.8941 354.945,56.7591 354.536,56.3661 C354.127,55.9741 353.836,55.3301 353.663,54.4351 L353.467,53.3521 C353.298,52.4131 353.334,51.6871 353.576,51.1721 C353.817,50.6581 354.285,50.3381 354.978,50.2131 C355.665,50.0891 356.21,50.2181 356.615,50.5991 C357.018,50.9811 357.307,51.6291 357.481,52.5461 L357.672,53.5981 Z" id="Fill-132" fill="#FFFFFF"></path>
            <polygon id="Fill-134" fill="#FFFFFF" points="361.8124 55.7967 360.9924 55.9107 360.2364 50.4687 358.6734 51.3027 358.5714 50.5607 360.7884 49.3587 360.9154 49.3397"></polygon>
            <path d="M366.9745,51.2908 C366.9045,50.5968 366.7555,50.1008 366.5285,49.8028 C366.3005,49.5048 365.9755,49.3768 365.5535,49.4198 C365.1335,49.4628 364.8435,49.6518 364.6835,49.9878 C364.5245,50.3238 364.4745,50.8198 364.5355,51.4768 L364.6685,52.7888 C364.7405,53.4858 364.8935,53.9908 365.1285,54.3018 C365.3655,54.6138 365.6885,54.7488 366.0995,54.7078 C366.5035,54.6658 366.7885,54.4788 366.9535,54.1458 C367.1195,53.8128 367.1705,53.3088 367.1125,52.6338 L366.9745,51.2908 Z M367.9095,52.3288 C368.0065,53.2898 367.9145,54.0198 367.6345,54.5198 C367.3545,55.0198 366.8655,55.3058 366.1665,55.3768 C365.4795,55.4468 364.9465,55.2698 364.5685,54.8468 C364.1915,54.4238 363.9505,53.7598 363.8465,52.8538 L363.7355,51.7588 C363.6395,50.8108 363.7315,50.0888 364.0125,49.5948 C364.2925,49.1008 364.7845,48.8178 365.4845,48.7468 C366.1785,48.6758 366.7135,48.8458 367.0855,49.2578 C367.4585,49.6688 367.6975,50.3378 367.8005,51.2658 L367.9095,52.3288 Z" id="Fill-136" fill="#FFFFFF"></path>
            <polygon id="Fill-138" fill="#FFFFFF" points="371.9003 54.8108 371.0733 54.8718 370.6653 49.3938 369.0533 50.1258 368.9983 49.3798 371.2863 48.3198 371.4163 48.3108"></polygon>
            <path d="M377.1874,50.4969 C377.1254,49.8019 376.9844,49.3039 376.7604,49.0029 C376.5384,48.7019 376.2134,48.5699 375.7914,48.6069 C375.3714,48.6439 375.0794,48.8299 374.9144,49.1629 C374.7494,49.4969 374.6934,49.9919 374.7454,50.6489 L374.8604,51.9629 C374.9214,52.6609 375.0684,53.1679 375.3004,53.4829 C375.5324,53.7979 375.8544,53.9369 376.2654,53.9009 C376.6704,53.8659 376.9584,53.6819 377.1274,53.3509 C377.2964,53.0199 377.3554,52.5169 377.3054,51.8419 L377.1874,50.4969 Z M378.1074,51.5479 C378.1914,52.5099 378.0894,53.2379 377.8024,53.7349 C377.5154,54.2309 377.0224,54.5099 376.3254,54.5719 C375.6344,54.6319 375.1044,54.4489 374.7334,54.0199 C374.3614,53.5919 374.1294,52.9249 374.0384,52.0169 L373.9424,50.9209 C373.8584,49.9709 373.9604,49.2509 374.2494,48.7609 C374.5364,48.2699 375.0314,47.9939 375.7324,47.9329 C376.4274,47.8719 376.9584,48.0489 377.3264,48.4649 C377.6934,48.8819 377.9234,49.5539 378.0134,50.4829 L378.1074,51.5479 Z" id="Fill-140" fill="#FFFFFF"></path>
            <polygon id="Fill-142" fill="#FFFFFF" points="382.1327 53.8709 381.3107 53.9689 380.6587 48.5139 379.0817 49.3179 378.9927 48.5749 381.2327 47.4139 381.3607 47.3989"></polygon>
            <path d="M387.2792,49.2024 C387.1722,48.5134 386.9962,48.0254 386.7542,47.7394 C386.5112,47.4544 386.1802,47.3434 385.7602,47.4094 C385.3432,47.4734 385.0642,47.6784 384.9222,48.0214 C384.7802,48.3654 384.7572,48.8634 384.8522,49.5154 L385.0532,50.8194 C385.1622,51.5124 385.3422,52.0074 385.5932,52.3064 C385.8452,52.6054 386.1762,52.7234 386.5852,52.6604 C386.9862,52.5974 387.2602,52.3954 387.4082,52.0544 C387.5542,51.7134 387.5812,51.2064 387.4852,50.5364 L387.2792,49.2024 Z M388.2662,50.1894 C388.4142,51.1434 388.3612,51.8784 388.1072,52.3924 C387.8532,52.9074 387.3812,53.2174 386.6872,53.3254 C386.0042,53.4314 385.4622,53.2834 385.0622,52.8804 C384.6642,52.4774 384.3882,51.8274 384.2362,50.9274 L384.0682,49.8404 C383.9222,48.8984 383.9762,48.1734 384.2312,47.6644 C384.4862,47.1554 384.9612,46.8484 385.6572,46.7394 C386.3462,46.6324 386.8882,46.7744 387.2822,47.1654 C387.6762,47.5564 387.9502,48.2134 388.1022,49.1334 L388.2662,50.1894 Z" id="Fill-144" fill="#FFFFFF"></path>
            <polygon id="Fill-146" fill="#FFFFFF" points="392.5409 52.1966 391.7279 52.3556 390.6729 46.9646 389.1589 47.8836 389.0159 47.1486 391.1619 45.8246 391.2899 45.8006"></polygon>
            <path d="M397.3212,47.1248 C397.1572,46.4468 396.9412,45.9758 396.6762,45.7108 C396.4112,45.4468 396.0712,45.3648 395.6582,45.4648 C395.2492,45.5638 394.9872,45.7908 394.8752,46.1448 C394.7612,46.4998 394.7802,46.9978 394.9282,47.6398 L395.2402,48.9208 C395.4042,49.6038 395.6252,50.0818 395.9012,50.3588 C396.1772,50.6358 396.5162,50.7258 396.9182,50.6288 C397.3132,50.5328 397.5702,50.3088 397.6872,49.9568 C397.8062,49.6038 397.7892,49.0978 397.6382,48.4368 L397.3212,47.1248 Z M398.3862,48.0268 C398.6142,48.9648 398.6232,49.7008 398.4132,50.2348 C398.2032,50.7688 397.7572,51.1178 397.0762,51.2828 C396.4032,51.4458 395.8512,51.3428 395.4202,50.9748 C394.9882,50.6068 394.6602,49.9818 394.4342,49.0988 L394.1752,48.0288 C393.9512,47.1018 393.9442,46.3748 394.1562,45.8468 C394.3672,45.3188 394.8152,44.9718 395.4992,44.8068 C396.1772,44.6418 396.7292,44.7388 397.1552,45.0958 C397.5812,45.4528 397.9082,46.0828 398.1352,46.9868 L398.3862,48.0268 Z" id="Fill-148" fill="#FFFFFF"></path>
            <polygon id="Fill-150" fill="#FFFFFF" points="402.868 49.6185 402.073 49.8535 400.514 44.5855 399.095 45.6425 398.883 44.9255 400.894 43.4045 401.018 43.3685"></polygon>
            <path d="M407.1473,44.0672 C406.9113,43.4102 406.6473,42.9652 406.3543,42.7312 C406.0623,42.4972 405.7163,42.4512 405.3163,42.5952 C404.9193,42.7372 404.6833,42.9912 404.6093,43.3562 C404.5363,43.7202 404.6073,44.2132 404.8253,44.8362 L405.2703,46.0772 C405.5073,46.7372 405.7783,47.1902 406.0833,47.4352 C406.3883,47.6802 406.7343,47.7342 407.1233,47.5942 C407.5053,47.4562 407.7373,47.2062 407.8163,46.8432 C407.8953,46.4802 407.8253,45.9782 407.6043,45.3382 L407.1473,44.0672 Z M408.3043,44.8492 C408.6303,45.7572 408.7183,46.4882 408.5673,47.0422 C408.4153,47.5952 408.0093,47.9902 407.3503,48.2272 C406.6993,48.4612 406.1393,48.4192 405.6703,48.0992 C405.2033,47.7802 404.8093,47.1932 404.4893,46.3392 L404.1173,45.3032 C403.7933,44.4062 403.7093,43.6842 403.8643,43.1362 C404.0163,42.5892 404.4243,42.1962 405.0863,41.9582 C405.7443,41.7212 406.3033,41.7582 406.7653,42.0672 C407.2263,42.3762 407.6193,42.9682 407.9433,43.8432 L408.3043,44.8492 Z" id="Fill-152" fill="#FFFFFF"></path>
            <polygon id="Fill-154" fill="#FFFFFF" points="412.953 45.8865 412.192 46.2175 410 41.1805 408.72 42.4045 408.421 41.7175 410.231 39.9625 410.349 39.9105"></polygon>
            <path d="M416.4823,39.7952 C416.1563,39.1782 415.8323,38.7742 415.5093,38.5842 C415.1863,38.3932 414.8373,38.3972 414.4613,38.5952 C414.0883,38.7932 413.8913,39.0772 413.8703,39.4482 C413.8473,39.8192 413.9873,40.2982 414.2903,40.8842 L414.9073,42.0492 C415.2353,42.6692 415.5663,43.0792 415.9033,43.2792 C416.2393,43.4802 416.5893,43.4832 416.9553,43.2902 C417.3133,43.1002 417.5073,42.8192 417.5363,42.4492 C417.5623,42.0782 417.4213,41.5912 417.1133,40.9892 L416.4823,39.7952 Z M417.7383,40.4062 C418.1883,41.2602 418.3783,41.9712 418.3063,42.5402 C418.2343,43.1092 417.8883,43.5572 417.2693,43.8852 C416.6573,44.2082 416.0963,44.2452 415.5883,43.9952 C415.0803,43.7452 414.6063,43.2202 414.1693,42.4192 L413.6563,41.4462 C413.2103,40.6032 413.0253,39.9002 413.0993,39.3362 C413.1743,38.7722 413.5233,38.3262 414.1453,37.9972 C414.7623,37.6702 415.3213,37.6282 415.8213,37.8692 C416.3223,38.1102 416.7943,38.6412 417.2383,39.4612 L417.7383,40.4062 Z" id="Fill-156" fill="#FFFFFF"></path>
            <polygon id="Fill-158" fill="#FFFFFF" points="422.5448 40.66 421.8488 41.11 418.8638 36.497 417.8008 37.913 417.3938 37.285 418.8958 35.257 419.0038 35.187"></polygon>
            <path d="M424.9921,33.9856 C424.5551,33.4416 424.1611,33.1056 423.8071,32.9786 C423.4551,32.8526 423.1141,32.9226 422.7821,33.1876 C422.4531,33.4516 422.3121,33.7676 422.3611,34.1366 C422.4091,34.5056 422.6371,34.9486 423.0451,35.4666 L423.8701,36.4956 C424.3081,37.0426 424.7121,37.3826 425.0801,37.5166 C425.4461,37.6506 425.7931,37.5876 426.1141,37.3296 C426.4311,37.0746 426.5681,36.7626 426.5251,36.3936 C426.4831,36.0246 426.2531,35.5726 425.8371,35.0386 L424.9921,33.9856 Z M426.3411,34.3496 C426.9441,35.1026 427.2641,35.7656 427.3011,36.3376 C427.3381,36.9096 427.0821,37.4156 426.5351,37.8546 C425.9951,38.2866 425.4521,38.4286 424.9051,38.2786 C424.3581,38.1286 423.7961,37.7016 423.2161,36.9976 L422.5271,36.1396 C421.9301,35.3956 421.6161,34.7396 421.5841,34.1716 C421.5511,33.6046 421.8091,33.0996 422.3581,32.6596 C422.9021,32.2226 423.4431,32.0756 423.9801,32.2186 C424.5171,32.3606 425.0811,32.7936 425.6711,33.5146 L426.3411,34.3496 Z" id="Fill-160" fill="#FFFFFF"></path>
            <polygon id="Fill-162" fill="#FFFFFF" points="431.1093 33.5613 430.5273 34.1513 426.6173 30.2933 425.8833 31.9053 425.3513 31.3793 426.3793 29.0753 426.4683 28.9833"></polygon>
            <path d="M431.9657,26.4397 C431.4077,26.0207 430.9437,25.7927 430.5697,25.7567 C430.1967,25.7217 429.8827,25.8737 429.6267,26.2127 C429.3727,26.5497 429.3157,26.8907 429.4527,27.2357 C429.5897,27.5817 429.9207,27.9547 430.4447,28.3567 L431.4977,29.1497 C432.0577,29.5717 432.5317,29.8017 432.9217,29.8397 C433.3117,29.8787 433.6297,29.7327 433.8777,29.4027 C434.1227,29.0777 434.1797,28.7417 434.0467,28.3947 C433.9137,28.0467 433.5797,27.6667 433.0437,27.2517 L431.9657,26.4397 Z M433.3617,26.4597 C434.1327,27.0407 434.6077,27.6037 434.7827,28.1487 C434.9597,28.6947 434.8377,29.2477 434.4147,29.8077 C433.9987,30.3607 433.5087,30.6317 432.9417,30.6217 C432.3747,30.6117 431.7237,30.3367 430.9867,29.7967 L430.1097,29.1357 C429.3467,28.5617 428.8797,28.0037 428.7077,27.4617 C428.5367,26.9197 428.6627,26.3677 429.0857,25.8057 C429.5057,25.2477 429.9937,24.9717 430.5487,24.9767 C431.1047,24.9827 431.7577,25.2617 432.5077,25.8167 L433.3617,26.4597 Z" id="Fill-164" fill="#FFFFFF"></path>
            <polygon id="Fill-166" fill="#FFFFFF" points="437.7841 24.306 437.3901 25.035 432.5551 22.429 432.3041 24.182 431.6451 23.827 431.9841 21.327 432.0461 21.214"></polygon>
            <g id="Group-170" transform="translate(433.000000, 15.248900)">
                <mask id="mask-4" fill="white">
                    <use xlink:href="#path-3"></use>
                </mask>
                <g id="Clip-169"></g>
                <path d="M3.4716,1.9198 C2.8096,1.7008 2.2956,1.6338 1.9306,1.7198 C1.5666,1.8048 1.3166,2.0498 1.1826,2.4528 C1.0496,2.8528 1.1046,3.1948 1.3456,3.4778 C1.5866,3.7618 2.0196,4.0098 2.6436,4.2228 L3.8956,4.6378 C4.5616,4.8578 5.0836,4.9238 5.4656,4.8358 C5.8456,4.7478 6.1016,4.5078 6.2316,4.1158 C6.3596,3.7298 6.3046,3.3928 6.0686,3.1068 C5.8316,2.8198 5.3936,2.5658 4.7536,2.3448 L3.4716,1.9198 Z M4.8006,1.4918 C5.7176,1.7958 6.3466,2.1778 6.6886,2.6378 C7.0306,3.0988 7.0906,3.6618 6.8706,4.3268 C6.6526,4.9838 6.2736,5.3988 5.7336,5.5698 C5.1936,5.7418 4.4896,5.6898 3.6186,5.4138 L2.5756,5.0678 C1.6696,4.7688 1.0486,4.3888 0.7126,3.9298 C0.3766,3.4718 0.3186,2.9078 0.5396,2.2398 C0.7596,1.5778 1.1336,1.1598 1.6606,0.9878 C2.1896,0.8148 2.8976,0.8708 3.7856,1.1558 L4.8006,1.4918 Z" id="Fill-168" fill="#FFFFFF" mask="url(#mask-4)"></path>
            </g>
        </g>
    </g>
</svg>