<?xml version="1.0" encoding="UTF-8"?>
<svg width="38px" height="38px" viewBox="0 0 38 38" version="1.1" xmlns="http://www.w3.org/2000/svg" xmlns:xlink="http://www.w3.org/1999/xlink">
    <title>amazing-instructors</title>
    <defs>
        <linearGradient x1="55.6082589%" y1="-41.1100618%" x2="55.6082589%" y2="100%" id="linearGradient-1">
            <stop stop-color="#E56F9F" offset="0%"></stop>
            <stop stop-color="#EA635F" offset="100%"></stop>
        </linearGradient>
    </defs>
    <g id="Page-1" stroke="none" stroke-width="1" fill="none" fill-rule="evenodd">
        <path d="M10.4651989,13.6644176 C14.3311921,13.6644176 17.4651989,16.7984244 17.4651989,20.6644176 L17.4651989,25.6644176 C17.4651989,26.7689871 16.5697684,27.6644176 15.4651989,27.6644176 L13.778,27.664 L13.4040017,35.9356777 C13.3553322,36.895802 12.5998729,37.6596295 11.6568238,37.7336119 L11.5064381,37.7394886 L6.08878406,37.7394886 C5.14338485,37.7394886 4.35061537,37.046605 4.21061343,36.1272332 L4.19340967,35.9719875 L3.676,27.664 L2,27.6644176 C0.8954305,27.6644176 2.64464006e-11,26.7689871 2.64464006e-11,25.6644176 L2.64464006e-11,20.6644176 C2.64464006e-11,16.7984244 3.13400675,13.6644176 7,13.6644176 L10.4651989,13.6644176 Z M11.977,27.664 L5.478,27.664 L5.98902751,35.8464623 C5.99177453,35.885758 6.01697035,35.9184375 6.05155437,35.9323212 L6.08878406,35.9394886 L7.794,35.939 L7.79451349,30.6644018 C7.79451349,30.1673455 8.19745722,29.7644018 8.69451349,29.7644018 C9.15333467,29.7644018 9.53196527,30.1077385 9.58750122,30.5515077 L9.59451349,30.6644018 L9.594,35.939 L11.5064381,35.9394886 C11.5463837,35.9394886 11.5810721,35.9160071 11.5970572,35.8818258 L11.6063099,35.8445512 L11.977,27.664 Z M33.3538707,0.303125 C35.4404716,0.303125 37.1443419,1.94178905 37.2487961,4.00243152 L37.2538707,4.203125 L37.2538707,24.1072443 C37.2538707,26.1938451 35.6152067,27.8977155 33.5545642,28.0021697 L33.3538707,28.0072443 L20.4252486,28.0072443 C19.9281923,28.0072443 19.5252486,27.6043006 19.5252486,27.1072443 C19.5252486,26.6484231 19.8685852,26.2697925 20.3123545,26.2142566 L20.4252486,26.2072443 L33.3538707,26.2072443 C34.4632427,26.2072443 35.3716989,25.3470217 35.448598,24.2572177 L35.4538707,24.1072443 L35.4538707,4.203125 C35.4538707,3.09375302 34.5936481,2.18529681 33.5038442,2.10839773 L33.3538707,2.103125 L16.4325284,2.103125 C15.9354721,2.103125 15.5325284,1.70018127 15.5325284,1.203125 C15.5325284,0.744303823 15.8758651,0.365673221 16.3196343,0.310137278 L16.4325284,0.303125 L33.3538707,0.303125 Z M7.794,15.464 L7,15.4644176 C4.20175727,15.4644176 1.91974824,17.6746768 1.80456187,20.4446063 L1.8,20.6644176 L1.8,25.6644176 C1.8,25.7564651 1.86218267,25.833989 1.94683208,25.8572734 L2,25.8644176 L3.61,25.864 L3.6102983,22.9261364 C3.6102983,22.4290801 4.01324202,22.0261364 4.5102983,22.0261364 C4.96911947,22.0261364 5.34775007,22.369473 5.40328602,22.8132423 L5.4102983,22.9261364 L5.408,25.864 L12.025,25.864 L12.0254261,22.9261364 C12.0254261,22.4290801 12.4283699,22.0261364 12.9254261,22.0261364 C13.3842473,22.0261364 13.7628779,22.369473 13.8184139,22.8132423 L13.8254261,22.9261364 L13.824,25.864 L15.4651989,25.8644176 C15.5572463,25.8644176 15.6347702,25.8022349 15.6580547,25.7175855 L15.6651989,25.6644176 L15.6651989,20.6644176 C15.6651989,17.8661749 13.4549396,15.5841658 10.6850102,15.4689795 L10.4651989,15.4644176 L9.594,15.464 L9.59451349,20.6002275 C9.59451349,21.0972838 9.19156977,21.5002275 8.69451349,21.5002275 C8.23569232,21.5002275 7.85706172,21.1568908 7.80152577,20.7131216 L7.79451349,20.6002275 L7.794,15.464 Z M26.4570313,19.6644176 C27.009316,19.6644176 27.4570313,20.1121329 27.4570313,20.6644176 C27.4570313,21.2167024 27.009316,21.6644176 26.4570313,21.6644176 C25.9047465,21.6644176 25.4570313,21.2167024 25.4570313,20.6644176 C25.4570313,20.1121329 25.9047465,19.6644176 26.4570313,19.6644176 Z M29.5394176,16.7644176 C30.0364739,16.7644176 30.4394176,17.1673613 30.4394176,17.6644176 C30.4394176,18.1232388 30.0960809,18.5018694 29.6523117,18.5574053 L29.5394176,18.5644176 L23.4570313,18.5644176 C22.959975,18.5644176 22.5570313,18.1614739 22.5570313,17.6644176 C22.5570313,17.2055964 22.9003679,16.8269658 23.3441372,16.7714299 L23.4570313,16.7644176 L29.5394176,16.7644176 Z M23.0339044,8.98367045 C23.5309606,8.98367045 23.9339044,9.38661418 23.9339044,9.88367045 C23.9339044,10.3424916 23.5905677,10.7211222 23.1467984,10.7766582 L23.0339044,10.7836705 L21.2943663,10.7832798 L19.7668569,15.1779521 C19.5449382,15.8163169 18.7372729,15.9807844 18.2804405,15.5194423 L18.2036555,15.4315017 L16.2601186,12.907354 C15.9568733,12.5135174 16.0303121,11.9484209 16.4241486,11.6451757 C16.7876901,11.3652569 17.2971571,11.4062997 17.6118962,11.7240335 L17.686327,11.8092057 L18.6133663,13.0132798 L19.8044111,9.58814595 C19.9176401,9.26243461 20.2052874,9.03337853 20.540998,8.99082442 L20.6545083,8.98367045 L23.0339044,8.98367045 Z M26.4570313,13.6644176 C27.009316,13.6644176 27.4570313,14.1121329 27.4570313,14.6644176 C27.4570313,15.2167024 27.009316,15.6644176 26.4570313,15.6644176 C25.9047465,15.6644176 25.4570313,15.2167024 25.4570313,14.6644176 C25.4570313,14.1121329 25.9047465,13.6644176 26.4570313,13.6644176 Z M29.7535511,4.20742187 C30.2123723,4.20742187 30.5910029,4.55075854 30.6465389,4.99452779 L30.6535511,5.10742187 L30.653,7.248 L32.7947443,7.24861506 C33.2918006,7.24861506 33.6947443,7.65155878 33.6947443,8.14861506 C33.6947443,8.60743623 33.3514077,8.98606684 32.9076384,9.04160278 L32.7947443,9.04861506 L30.653,9.048 L30.6535511,11.1898082 C30.6535511,11.6868645 30.2506074,12.0898082 29.7535511,12.0898082 C29.29473,12.0898082 28.9160994,11.7464716 28.8605634,11.3027023 L28.8535511,11.1898082 L28.853,9.048 L26.712358,9.04861506 C26.2153017,9.04861506 25.812358,8.64567133 25.812358,8.14861506 C25.812358,7.68979388 26.1556946,7.31116328 26.5994639,7.25562733 L26.712358,7.24861506 L28.853,7.248 L28.8535511,5.10742187 C28.8535511,4.6103656 29.2564949,4.20742187 29.7535511,4.20742187 Z M8.45703125,0 C11.7707397,0 14.4570313,2.6862915 14.4570313,6 C14.4570313,9.3137085 11.7707397,12 8.45703125,12 C5.14332275,12 2.45703125,9.3137085 2.45703125,6 C2.45703125,2.6862915 5.14332275,0 8.45703125,0 Z M8.45703125,1.8 C6.1374353,1.8 4.25703125,3.68040405 4.25703125,6 C4.25703125,8.31959595 6.1374353,10.2 8.45703125,10.2 C10.7766272,10.2 12.6570313,8.31959595 12.6570313,6 C12.6570313,3.68040405 10.7766272,1.8 8.45703125,1.8 Z" id="amazing-instructors" fill="url(#linearGradient-1)"></path>
    </g>
</svg>