<?xml version="1.0" encoding="UTF-8"?>
<svg width="36px" height="40px" viewBox="0 0 36 40" version="1.1" xmlns="http://www.w3.org/2000/svg" xmlns:xlink="http://www.w3.org/1999/xlink">
    <title>exam-strategy</title>
    <defs>
        <linearGradient x1="55.6082589%" y1="-41.1100618%" x2="55.6082589%" y2="100%" id="linearGradient-1">
            <stop stop-color="#dc78f4" offset="0%"></stop>
            <stop stop-color="#ee4baf" offset="100%"></stop>
        </linearGradient>
    </defs>
    <g id="Page-1" stroke="none" stroke-width="1" fill="none" fill-rule="evenodd">
        <path d="M16.834125,0.892141665 C24.8544129,0.892141665 31.8962662,6.30552667 32.0801896,14.0009485 L32.083875,14.309975 L32.0834353,14.3891519 C32.0875266,14.4714111 32.1234082,14.5697583 32.356342,15.0014377 L32.4248792,15.1276712 L33.9984538,17.9575121 C34.1506521,18.2396628 34.287341,18.5024933 34.4149815,18.7595554 C35.1231078,20.1856899 35.5021882,21.3352562 35.4881713,22.3397554 L35.4791276,22.5528327 L35.4767679,22.5902047 L35.4693007,22.9412982 C35.4539978,23.3924618 35.390162,23.6597305 35.154273,23.996183 C34.7914284,24.5177722 34.1810463,24.839026 33.5412913,24.867578 C33.4077943,24.8729593 33.2661098,24.876982 33.1170179,24.8797464 L32.8879218,24.8829618 L32.6705082,24.88432 L32.033,24.88 L32.0180119,25.5154081 C31.9913634,26.341244 31.9373866,27.1553916 31.849289,27.9218925 C31.6245848,29.8769511 31.2273506,31.2721205 30.4828079,32.015834 C29.3830822,33.1171284 28.0236727,33.5163518 25.3184154,33.5909026 L24.987255,33.5983144 L24.859,33.6 L24.859125,38.2088083 C24.859125,38.6293944 24.5706268,38.9825981 24.1807285,39.0813215 L24.0720191,39.1017961 L23.959125,39.1088083 L8.12579167,39.1088083 C7.66697049,39.1088083 7.28833989,38.7654717 7.23280394,38.3217024 L7.22579167,38.2088083 L7.225,29.59 L7.04750203,29.475918 C3.02613875,26.8277428 1.08389797,22.7923018 0.905958593,17.7120237 L0.895745526,17.319178 L0.892458334,16.931975 C0.892458334,7.93182473 7.86821402,0.892141665 16.834125,0.892141665 Z M16.834125,2.69214167 C8.86602085,2.69214167 2.69245833,8.92228008 2.69245833,16.931975 C2.69245833,22.047027 4.52458323,25.9069478 8.58484721,28.3146843 C8.82402516,28.4565168 8.9822398,28.6995205 9.0180563,28.9709521 L9.02579167,29.0888083 L9.025,37.308 L23.059,37.308 L23.059125,32.7035583 C23.059125,32.2788224 23.3532583,31.9230976 23.7485253,31.8283251 L23.8586878,31.8090921 L23.9640749,31.8035719 C27.1462552,31.8210739 28.3910481,31.563177 29.2099165,30.7431415 C29.5633266,30.3901245 29.8826603,29.2685578 30.0610615,27.716363 C30.1429662,27.0037441 30.1937809,26.2372902 30.2189483,25.4573549 C30.2246972,25.2791964 30.2289034,25.1079862 30.231789,24.9451628 L30.2351546,24.7073975 L30.2350314,24.0803708 L30.2375128,23.869798 C30.2796689,23.4390195 30.6261115,23.097668 31.0574669,23.0618934 L31.1669478,23.059441 L32.0244599,23.0802843 C32.3127739,23.0844807 32.5986069,23.0857097 32.8702893,23.0830482 L32.9774924,23.0817777 L32.9774924,23.0817777 L33.0817361,23.0800937 L33.4649031,23.0692038 C33.5527301,23.065283 33.6417458,23.0184326 33.6741036,22.9699343 L33.6726012,22.9691357 L33.6715101,22.9659843 L33.6763652,22.5613798 L33.6840069,22.4204438 C33.7299877,21.7783116 33.4283857,20.8200011 32.8027845,19.5600683 C32.6050919,19.1619243 32.3804264,18.7421348 32.1008374,18.2427148 C32.0290027,18.1179659 31.5748041,17.3191266 31.2401797,16.7204473 L31.1749993,16.6036418 L30.9195537,16.1377358 C30.4915454,15.3251972 30.283875,14.7949685 30.283875,14.309975 C30.283875,7.55631655 24.0512702,2.69214167 16.834125,2.69214167 Z M17.6590417,10.3916667 C20.7785984,10.3916667 23.3090417,12.9215274 23.3090417,16.0416667 C23.3090417,18.0963213 22.2117393,19.8950074 20.5714971,20.8838613 L20.5707071,24.3957003 C20.5707071,24.8545215 20.2273704,25.2331521 19.7836011,25.288688 L19.6707071,25.2957003 L15.609773,25.2957003 C15.1509519,25.2957003 14.7723213,24.9523636 14.7167853,24.5085944 L14.709773,24.3957003 L14.7101306,20.8621076 C13.0898566,19.8688561 12.0090417,18.0815904 12.0090417,16.0416667 C12.0090417,12.9210271 14.5384021,10.3916667 17.6590417,10.3916667 Z M23.9411293,21.0515373 L24.033237,21.1321482 L25.2907995,22.3914919 C25.6420225,22.7432125 25.6416192,23.3130608 25.2898987,23.6642838 C24.9674882,23.9862383 24.4617898,24.0127289 24.1092145,23.7439939 L24.0171068,23.6633831 L22.7595443,22.4040393 C22.4083213,22.0523188 22.4087246,21.4824705 22.7604451,21.1312474 C23.0828555,20.809293 23.588554,20.7828023 23.9411293,21.0515373 Z M12.6963774,21.1316976 C13.0185599,21.4538802 13.0454084,21.9595597 12.776923,22.3123251 L12.6963774,22.4044899 L11.4370336,23.6638336 C11.0855617,24.0153055 10.5157133,24.0153055 10.1642414,23.6638336 C9.84205886,23.3416511 9.81521031,22.8359715 10.0836958,22.4832061 L10.1642414,22.3910414 L11.4235851,21.1316976 C11.775057,20.7802258 12.3449055,20.7802258 12.6963774,21.1316976 Z M16.5091664,21.5745978 L16.5090647,23.4952086 L18.7703321,23.4952086 L18.7715408,21.5821111 C18.4118393,21.6539723 18.0398293,21.6916667 17.6590417,21.6916667 C17.2650233,21.6916667 16.8804312,21.6513433 16.5091664,21.5745978 Z M17.6590417,12.1916667 C15.5325146,12.1916667 13.8090417,13.9151396 13.8090417,16.0416667 C13.8090417,18.1681937 15.5325146,19.8916667 17.6590417,19.8916667 C19.7845786,19.8916667 21.5090417,18.1676006 21.5090417,16.0416667 C21.5090417,13.9157327 19.7845786,12.1916667 17.6590417,12.1916667 Z M27.51375,15.226875 C28.0108063,15.226875 28.41375,15.6298187 28.41375,16.126875 C28.41375,16.5856962 28.0704133,16.9643268 27.6266441,17.0198627 L27.51375,17.026875 L25.7325,17.026875 C25.2354437,17.026875 24.8325,16.6239313 24.8325,16.126875 C24.8325,15.6680538 25.1758367,15.2894232 25.6196059,15.2338873 L25.7325,15.226875 L27.51375,15.226875 Z M9.70125,15.226875 C10.1983063,15.226875 10.60125,15.6298187 10.60125,16.126875 C10.60125,16.5856962 10.2579133,16.9643268 9.81414409,17.0198627 L9.70125,17.026875 L7.92,17.026875 C7.42294373,17.026875 7.02,16.6239313 7.02,16.126875 C7.02,15.6680538 7.36333667,15.2894232 7.80710591,15.2338873 L7.92,15.226875 L9.70125,15.226875 Z M25.2898987,8.53549429 C25.6123092,8.85744874 25.6395156,9.36310917 25.3712798,9.71606447 L25.2907995,9.80828618 L24.033237,11.0676299 C23.6820139,11.4193504 23.1121656,11.4197537 22.7604451,11.0685307 C22.4380346,10.7465763 22.4108282,10.2409158 22.6790639,9.88796052 L22.7595443,9.79573882 L24.0171068,8.53639507 C24.3683298,8.18467455 24.9381782,8.18427126 25.2898987,8.53549429 Z M11.3448689,8.45539889 L11.4370336,8.53594452 L12.6963774,9.79528827 C13.0478492,10.1467601 13.0478492,10.7166086 12.6963774,11.0680805 C12.3741948,11.390263 11.8685153,11.4171116 11.5157499,11.1486261 L11.4235851,11.0680805 L10.1642414,9.80873673 C9.81276953,9.45726486 9.81276953,8.88741638 10.1642414,8.53594452 C10.4864239,8.21376198 10.9921035,8.18691343 11.3448689,8.45539889 Z M17.716875,5.43 C18.1756962,5.43 18.5543268,5.77333666 18.6098627,6.21710591 L18.616875,6.33 L18.616875,8.11125 C18.616875,8.60830627 18.2139313,9.01125 17.716875,9.01125 C17.2580538,9.01125 16.8794232,8.66791333 16.8238873,8.22414409 L16.816875,8.11125 L16.816875,6.33 C16.816875,5.83294372 17.2198187,5.43 17.716875,5.43 Z" id="exam-strategy" fill="url(#linearGradient-1)"></path>
    </g>
</svg>
