<?xml version="1.0" encoding="UTF-8"?>
<svg width="24px" height="32px" viewBox="0 0 24 32" version="1.1" xmlns="http://www.w3.org/2000/svg" xmlns:xlink="http://www.w3.org/1999/xlink">
    <title>91CB0255-140D-4C91-9A20-6505D6E1EDAA</title>
    <g id="Web" stroke="none" stroke-width="1" fill="none" fill-rule="evenodd">
        <g id="Resources-Videos1-web" transform="translate(-890.000000, -391.000000)" fill="#8F8BA1" fill-rule="nonzero">
            <path d="M898.054751,411.773937 L902.982714,413.874423 L907.308185,411.934781 C908.313117,411.483949 909.485634,411.893995 909.998181,412.849947 L910.063905,412.983658 C910.514679,413.996112 910.112629,415.169692 909.162957,415.697127 L909.03009,415.764969 L908.259714,416.124423 L913.582824,418.393804 C913.942458,418.547122 914.106804,418.965294 913.94779,419.322446 L912.817966,421.860072 C912.662486,422.209286 912.255608,422.369193 911.903968,422.219283 L902.630714,418.265423 L893.189783,422.221922 C892.898949,422.343782 892.567346,422.255227 892.374567,422.016062 L892.315695,421.930845 L890.782404,419.320549 C890.580206,418.976326 890.707933,418.540557 891.046384,418.353746 L891.135318,418.312427 L897.243714,415.969423 L896.350868,415.588535 C895.302914,415.121956 894.833893,413.900158 895.29821,412.857286 C895.767124,411.804088 896.994233,411.321822 898.054751,411.773937 Z M899.094714,416.758423 L892.407,419.323 L893.212,420.694 L900.834714,417.500423 L899.094714,416.758423 Z M896.577173,413.426718 C896.440966,413.732645 896.55366,414.086294 896.828108,414.260633 L896.930035,414.313766 L911.819739,420.661507 L912.380222,419.402641 L906.557714,416.920423 L906.446348,416.973063 L906.387714,416.847423 L902.996714,415.402423 L902.954821,415.422269 L902.933714,415.375423 L897.505719,413.06179 C897.148482,412.909494 896.735128,413.071946 896.577173,413.426718 Z M907.976633,413.17748 L907.881243,413.212134 L904.736714,414.622423 L906.531714,415.387423 L908.437104,414.496754 C908.760644,414.345475 908.918498,413.982226 908.820493,413.648567 L908.787353,413.558485 C908.645865,413.243101 908.298024,413.086932 907.976633,413.17748 Z M900.536589,391.785423 L901.425461,392.434758 C906.944837,396.466751 909.747337,400.2167 909.747337,403.751142 C909.747337,408.633934 906.797607,411.201142 902.230734,411.201142 C897.893645,411.201142 894.000091,407.564973 894.725705,403.624376 C894.958357,402.360909 895.416068,401.456617 896.244117,400.44752 L896.244117,400.44752 L896.81442,399.806224 L897.639809,398.846021 L898.243067,398.121581 L898.556574,397.730064 L898.804086,397.403126 C899.370839,396.618275 899.889813,395.096118 900.32553,392.865786 L900.32553,392.865786 L900.536589,391.785423 Z M901.469,394.216 L901.369523,394.635711 C900.994526,396.146375 900.561412,397.281305 900.056815,398.051473 L900.056815,398.051473 L899.939094,398.222734 L899.696223,398.5449 L899.285229,399.058431 L898.579269,399.903109 L897.909677,400.681133 L897.313683,401.353318 L897.14734,401.560575 C896.577415,402.300921 896.272044,402.957473 896.102557,403.877907 C895.728404,405.909827 897.062127,407.917348 899.065713,408.994019 C898.466615,408.247332 898.165943,407.287393 898.353016,406.300415 C898.481207,405.62409 898.725516,405.130716 899.150198,404.602916 L899.150198,404.602916 L899.973665,403.648109 L900.252373,403.310195 L900.393522,403.128711 C900.637401,402.800608 900.88145,402.105214 901.089537,401.070427 L901.089537,401.070427 L901.290533,400.070901 L902.151126,400.617556 C904.788469,402.292818 906.15628,404.233645 906.15628,406.430773 C906.15628,407.656579 905.702519,408.686196 904.894515,409.395465 L904.952915,409.375565 C907.119568,408.593791 908.347337,406.730693 908.347337,403.751142 C908.347337,400.989242 906.145138,397.845261 901.672185,394.372468 L901.672185,394.372468 L901.469,394.216 Z M902.22,402.363 L902.196078,402.449084 C902.004208,403.106086 901.781458,403.608265 901.517123,403.963887 C901.496353,403.99183 901.473586,404.021765 901.449129,404.053359 L901.449129,404.053359 L901.284589,404.260164 L900.893099,404.729308 L900.240948,405.480562 C899.953174,405.838211 899.811207,406.12491 899.728525,406.56113 C899.481155,407.866235 900.806135,409.184411 902.305885,409.014044 C903.88338,408.834845 904.75628,407.876008 904.75628,406.430773 C904.75628,405.045749 903.990109,403.737003 902.399517,402.499041 L902.399517,402.499041 L902.22,402.363 Z" id="icon-cybersecurity-fireside"></path>
        </g>
    </g>
</svg>