<?xml version="1.0" encoding="UTF-8"?>
<svg width="32px" height="32px" viewBox="0 0 32 32" version="1.1" xmlns="http://www.w3.org/2000/svg" xmlns:xlink="http://www.w3.org/1999/xlink">
    <title>04D5FBAC-54F7-440B-9CB1-4EE9D3974CCF</title>
    <g id="Web" stroke="none" stroke-width="1" fill="none" fill-rule="evenodd" opacity="0.900000036">
        <g id="Resources-Videos1-web" transform="translate(-515.000000, -201.000000)" fill="#FFFFFF">
            <path d="M531,201 C539.836556,201 547,208.163444 547,217 C547,225.836556 539.836556,233 531,233 C522.163444,233 515,225.836556 515,217 C515,208.163444 522.163444,201 531,201 Z M531,202.6 C523.0471,202.6 516.6,209.0471 516.6,217 C516.6,224.9529 523.0471,231.4 531,231.4 C538.9529,231.4 545.4,224.9529 545.4,217 C545.4,209.0471 538.9529,202.6 531,202.6 Z M528.333333,210.692665 C528.649864,210.692665 528.960025,210.781617 529.228443,210.949379 L529.228443,210.949379 L537.329068,216.01227 C538.120037,216.506625 538.360489,217.548585 537.866134,218.339554 C537.730211,218.557031 537.546545,218.740696 537.329068,218.876619 L537.329068,218.876619 L529.228443,223.93951 C528.437474,224.433866 527.395514,224.193413 526.901158,223.402445 C526.733397,223.134027 526.644444,222.823867 526.644444,222.507335 L526.644444,222.507335 L526.644444,212.381553 C526.644444,211.448806 527.400586,210.692665 528.333333,210.692665 Z M528.333333,212.292665 C528.284241,212.292665 528.244444,212.332461 528.244444,212.381553 L528.244444,212.381553 L528.244444,222.507335 C528.244444,222.523995 528.249126,222.540319 528.257956,222.554446 C528.283974,222.596076 528.338814,222.608732 528.380444,222.582713 L528.380444,222.582713 L536.48107,217.519822 C536.492516,217.512668 536.502183,217.503002 536.509337,217.491555 C536.535355,217.449926 536.5227,217.395086 536.48107,217.369067 L536.48107,217.369067 L528.380444,212.306176 C528.366317,212.297346 528.349993,212.292665 528.333333,212.292665 Z" id="icon-videos"></path>
        </g>
    </g>
</svg>