<?xml version="1.0" encoding="UTF-8"?>
<svg width="24px" height="24px" viewBox="0 0 24 24" version="1.1" xmlns="http://www.w3.org/2000/svg" xmlns:xlink="http://www.w3.org/1999/xlink">
    <title>2100B6D3-EFC3-496A-BB2F-D54CCFB0ED91</title>
    <g id="Web" stroke="none" stroke-width="1" fill="none" fill-rule="evenodd">
        <g id="Resources-Videos1-web" transform="translate(-755.000000, -205.000000)" fill="#766DAA">
            <path d="M763.634783,218.043478 C764.628895,218.043478 765.434783,218.849366 765.434783,219.843478 L765.434783,226.678261 C765.434783,227.672373 764.628895,228.478261 763.634783,228.478261 L756.8,228.478261 C755.805887,228.478261 755,227.672373 755,226.678261 L755,219.843478 C755,218.849366 755.805887,218.043478 756.8,218.043478 L763.634783,218.043478 Z M776.678261,218.043478 C777.672373,218.043478 778.478261,218.849366 778.478261,219.843478 L778.478261,226.678261 C778.478261,227.672373 777.672373,228.478261 776.678261,228.478261 L769.843478,228.478261 C768.849366,228.478261 768.043478,227.672373 768.043478,226.678261 L768.043478,219.843478 C768.043478,218.849366 768.849366,218.043478 769.843478,218.043478 L776.678261,218.043478 Z M763.634783,219.723478 L756.8,219.723478 C756.750294,219.723478 756.707647,219.753699 756.68943,219.796769 L756.68,219.843478 L756.68,226.678261 C756.68,226.727966 756.710221,226.770614 756.753291,226.788831 L756.8,226.798261 L763.634783,226.798261 C763.684488,226.798261 763.727135,226.76804 763.745352,226.72497 L763.754783,226.678261 L763.754783,219.843478 C763.754783,219.793773 763.724562,219.751125 763.681492,219.732908 L763.634783,219.723478 Z M776.678261,219.723478 L769.843478,219.723478 C769.793773,219.723478 769.751125,219.753699 769.732908,219.796769 L769.723478,219.843478 L769.723478,226.678261 C769.723478,226.727966 769.753699,226.770614 769.796769,226.788831 L769.843478,226.798261 L776.678261,226.798261 C776.727966,226.798261 776.770614,226.76804 776.788831,226.72497 L776.798261,226.678261 L776.798261,219.843478 C776.798261,219.793773 776.76804,219.751125 776.72497,219.732908 L776.678261,219.723478 Z M763.634783,205 C764.628895,205 765.434783,205.805887 765.434783,206.8 L765.434783,213.634783 C765.434783,214.628895 764.628895,215.434783 763.634783,215.434783 L756.8,215.434783 C755.805887,215.434783 755,214.628895 755,213.634783 L755,206.8 C755,205.805887 755.805887,205 756.8,205 L763.634783,205 Z M776.678261,205 C777.672373,205 778.478261,205.805887 778.478261,206.8 L778.478261,213.634783 C778.478261,214.628895 777.672373,215.434783 776.678261,215.434783 L769.843478,215.434783 C768.849366,215.434783 768.043478,214.628895 768.043478,213.634783 L768.043478,206.8 C768.043478,205.805887 768.849366,205 769.843478,205 L776.678261,205 Z M763.634783,206.68 L756.8,206.68 C756.750294,206.68 756.707647,206.710221 756.68943,206.753291 L756.68,206.8 L756.68,213.634783 C756.68,213.684488 756.710221,213.727135 756.753291,213.745352 L756.8,213.754783 L763.634783,213.754783 C763.684488,213.754783 763.727135,213.724562 763.745352,213.681492 L763.754783,213.634783 L763.754783,206.8 C763.754783,206.750294 763.724562,206.707647 763.681492,206.68943 L763.634783,206.68 Z M776.678261,206.68 L769.843478,206.68 C769.793773,206.68 769.751125,206.710221 769.732908,206.753291 L769.723478,206.8 L769.723478,213.634783 C769.723478,213.684488 769.753699,213.727135 769.796769,213.745352 L769.843478,213.754783 L776.678261,213.754783 C776.727966,213.754783 776.770614,213.724562 776.788831,213.681492 L776.798261,213.634783 L776.798261,206.8 C776.798261,206.750294 776.76804,206.707647 776.72497,206.68943 L776.678261,206.68 Z" id="icon-apps"></path>
        </g>
    </g>
</svg>