<?xml version="1.0" encoding="UTF-8"?>
<svg width="28px" height="28px" viewBox="0 0 28 28" version="1.1" xmlns="http://www.w3.org/2000/svg" xmlns:xlink="http://www.w3.org/1999/xlink">
    <title>D25AA1BA-3A18-4335-BAA3-08D9357193C9</title>
    <g id="Web" stroke="none" stroke-width="1" fill="none" fill-rule="evenodd">
        <g id="Resources-Videos1-web" transform="translate(-684.000000, -392.000000)" fill="#8F8BA1" fill-rule="nonzero">
            <path d="M695.277315,408.092809 L695.731153,408.936186 L695.868777,409.20473 L695.973105,409.424217 C696.309485,410.151091 696.893641,410.580059 697.5095,410.641753 L697.664,410.649485 L697.678667,410.649615 C697.713801,410.650242 697.748897,410.65313 697.78368,410.65828 L697.794944,410.656642 L697.794944,410.656642 L697.901328,410.649485 C698.572607,410.649485 699.227812,410.211663 699.588407,409.432593 L699.696074,409.205777 L699.902512,408.807402 L700.193969,408.261405 C700.735845,407.195468 701.842328,406.807526 703.008931,407.091423 L703.203835,407.144959 L708.14878,408.744887 C710.128152,409.486201 711.463557,411.334481 711.559761,413.430577 L711.565328,413.673485 L711.565328,418.937485 C711.565328,419.334394 711.270383,419.662414 710.887712,419.714328 L710.781328,419.721485 L684.784,419.721485 C684.387091,419.721485 684.059071,419.42654 684.007157,419.043869 L684,418.937485 L684,413.673485 C684,411.559598 685.262095,409.660482 687.221139,408.824793 L687.450243,408.733135 L692.372553,407.14113 C693.533933,406.786352 694.672866,407.099344 695.277315,408.092809 Z M692.986908,408.598903 L692.842877,408.636875 L687.966492,410.213283 C686.592094,410.728022 685.660094,412.002709 685.574449,413.454466 L685.568,413.673485 L685.568,418.152701 L694.625,418.153 L696.63816,412.044715 C695.75802,411.74097 694.99759,411.049696 694.546279,410.074377 L694.460612,409.894615 L693.973601,408.971965 C693.798828,408.628166 693.454781,408.495929 692.986908,408.598903 Z M701.593387,408.96868 L701.159502,409.786298 L701.056267,409.994179 C701.041453,410.02531 701.027794,410.054784 701.015233,410.082753 C700.531163,411.128763 699.684696,411.849109 698.715773,412.109644 L700.729,418.153 L709.99632,418.152701 L709.997328,413.673485 C709.997328,412.205478 709.130775,410.885397 707.830777,410.306286 L707.632581,410.225051 L702.733274,408.640633 C702.180873,408.471654 701.783947,408.593844 701.593387,408.96868 Z M697.66736,413.925821 L696.2752,418.152701 L699.07632,418.152701 L697.66736,413.925821 Z M706.17376,412.329485 C706.606751,412.329485 706.95776,412.680494 706.95776,413.113485 C706.95776,413.510394 706.662815,413.838414 706.280144,413.890328 L706.17376,413.897485 L703.824,413.897485 C703.391009,413.897485 703.04,413.546476 703.04,413.113485 C703.04,412.716576 703.334945,412.388556 703.717616,412.336642 L703.824,412.329485 L706.17376,412.329485 Z M698.818142,404.767254 L698.818142,406.748563 L696.76618,406.748563 L696.76618,404.767254 L698.818142,404.767254 Z M697.906593,392 C698.522824,392 699.083333,392.088501 699.588119,392.265504 C700.092904,392.442507 700.528855,392.698177 700.895972,393.032516 C701.263089,393.366854 701.54826,393.776583 701.751485,394.261701 C701.95471,394.74682 702.056323,395.304051 702.056323,395.933394 C702.056323,396.339844 702.007156,396.703683 701.908821,397.02491 C701.810486,397.346137 701.682651,397.637864 701.525315,397.90009 C701.367979,398.162317 701.187699,398.404876 700.984473,398.627768 C700.781248,398.850661 700.574745,399.066997 700.364964,399.276778 C700.155183,399.473448 699.94868,399.673395 699.745454,399.876621 C699.542229,400.079846 699.358671,400.296183 699.194779,400.525631 C699.030888,400.755079 698.899775,401.004194 698.80144,401.272975 C698.703105,401.541757 698.653938,401.846595 698.653938,402.187489 L698.653938,402.187489 L698.653938,402.954501 L696.982245,402.954501 L696.982245,402.030154 C697.008468,401.479479 697.110081,401.010749 697.287083,400.623965 C697.464086,400.237182 697.680423,399.89301 697.936093,399.59145 C698.191764,399.289889 698.460546,399.011274 698.742439,398.755604 C699.024332,398.499933 699.286558,398.231151 699.529118,397.949258 C699.771677,397.667365 699.965069,397.355971 700.109293,397.015077 C700.253518,396.674183 700.312519,396.261176 700.286296,395.776058 C700.233851,395.054936 700.001125,394.491149 699.588119,394.084699 C699.175112,393.678248 698.614604,393.475023 697.906593,393.475023 C697.434586,393.475023 697.028135,393.560246 696.687241,393.730693 C696.346347,393.90114 696.061176,394.130588 695.831728,394.419037 C695.60228,394.707486 695.43511,395.04838 695.33022,395.441719 C695.225329,395.835059 695.172884,396.261176 695.172884,396.720072 L695.172884,396.720072 L693.501192,396.720072 C693.488081,396.051395 693.583138,395.428608 693.786363,394.85171 C693.989588,394.274813 694.281315,393.773305 694.661543,393.347187 C695.041771,392.92107 695.507223,392.590009 696.057898,392.354005 C696.608573,392.118002 697.224805,392 697.906593,392 Z" id="icon-what-the-hack"></path>
        </g>
    </g>
</svg>