<?xml version="1.0" encoding="UTF-8"?>
<svg width="27px" height="25px" viewBox="0 0 27 25" version="1.1" xmlns="http://www.w3.org/2000/svg" xmlns:xlink="http://www.w3.org/1999/xlink">
    <title>E1AC8734-A403-431D-BED1-16591AE7DD8C</title>
    <g id="Web" stroke="none" stroke-width="1" fill="none" fill-rule="evenodd">
        <g id="Resources-Videos1-web" transform="translate(-282.000000, -397.000000)" fill="#E56F9F">
            <path d="M295.778748,397.258008 C296.508914,397.258008 297.16603,397.433081 297.706317,397.707617 L297.903363,397.815083 L297.935944,397.835138 L297.984084,397.827323 C298.563486,397.74546 299.15717,397.801611 299.703003,398.017097 L299.905325,398.105414 L300.126669,398.222938 C300.396856,398.382249 300.530246,398.46444 300.667752,398.591497 L300.737501,398.659329 L300.836281,398.76575 L300.917348,398.757104 C303.052732,398.564189 305.295102,399.975222 305.824939,402.090404 L305.870807,402.297267 L305.89751,402.464934 L306.036271,402.572759 C306.983303,403.363312 307.459153,404.669508 307.280329,405.883929 L307.241939,406.097162 L307.226067,406.15677 L307.250777,406.192483 C307.442947,406.320888 307.57471,406.530385 307.600398,406.768798 C308.034987,407.558934 308.309128,408.407431 308.378527,409.391616 C308.517022,411.334733 307.974166,412.743778 307.079504,413.635591 L306.935366,413.772108 L306.885066,413.81473 L306.869751,414.075275 C306.829302,414.476347 306.722498,414.888662 306.533374,415.302443 L306.409893,415.550809 L306.265889,415.799058 C305.656081,416.77981 304.71595,417.282101 303.667737,417.346917 L303.530159,417.353037 L303.530159,417.353037 L303.394142,417.354397 L303.288365,417.349789 C303.26899,417.357999 303.249272,417.365449 303.229258,417.372112 L303.191974,417.416975 C302.634056,418.059166 301.787428,418.458351 300.75308,418.691945 L300.49064,418.746939 L300.240249,418.792061 C299.813893,418.863259 299.372907,418.90744 298.908271,418.932405 L298.939,418.930008 L298.746764,419.882349 C298.611865,420.570051 298.071836,421.103521 297.391813,421.229614 L297.244048,421.250306 L297.081631,421.258008 L296.159792,421.258008 C295.384598,421.258008 294.715814,420.733024 294.520548,419.996371 C294.26791,419.054153 293.899424,417.887014 293.632948,417.142452 C293.521717,417.03434 293.44257,416.890317 293.412409,416.724953 L293.370144,416.481424 C293.350187,416.442239 293.333873,416.416151 293.321773,416.404851 C293.138433,416.233637 292.905914,416.13631 292.262764,415.980534 L292.076908,415.936501 L291.649373,415.831949 C290.628523,415.560062 289.832624,415.16127 289.164771,414.468854 C289.206737,414.512513 288.495048,413.737487 288.196093,413.439292 L288.142151,413.386394 L287.920451,413.182837 C287.406545,412.732378 286.913377,412.452884 286.377382,412.331841 C284.706701,411.956163 283.767689,411.053353 283.482437,409.986838 L283.444542,409.825678 L283.440369,409.800852 L283.343469,409.734664 C283.227739,409.648687 283.115593,409.552234 283.007929,409.444986 L282.849907,409.275978 L282.699282,409.090539 C281.844524,407.971394 281.741571,406.115172 282.56706,404.413558 C282.891564,403.750051 283.311786,403.219549 283.771132,402.809118 L283.970225,402.640532 L284.014815,402.60575 L284.05183,402.466796 C284.165546,402.093458 284.3741,401.726528 284.679075,401.385575 L284.839605,401.217355 L285.016249,401.054007 C285.3032,400.802913 285.611554,400.629744 285.935221,400.513167 L286.131211,400.449841 L286.217262,400.427383 L286.272029,400.353733 C286.549804,399.991961 286.916993,399.655777 287.381834,399.370505 L287.62243,399.232229 L287.879531,399.103141 C288.531351,398.798088 289.200566,398.683355 289.852459,398.693593 L290.096039,398.703163 L290.1296,398.70575 L290.276901,398.555021 C290.493824,398.346521 290.742219,398.161845 291.027535,398.010301 L291.24853,397.903 L291.483881,397.808996 C292.158194,397.569166 292.802246,397.544041 293.398689,397.655284 L293.62009,397.70324 L293.795049,397.751873 L293.873708,397.708256 C294.278658,397.497838 294.727857,397.353573 295.223511,397.291835 L295.47522,397.267919 L295.778748,397.258008 Z M295.778748,398.849845 C295.425918,398.849845 295.132789,398.910716 294.892585,398.996547 C297.647019,402.192808 297.167466,405.01091 293.668066,407.48174 C293.309424,407.734967 292.813787,407.648972 292.561028,407.289666 C292.30827,406.930359 292.394106,406.433803 292.752747,406.180576 C295.72323,404.0832 295.928067,402.132396 292.907529,399.211448 C292.630015,399.18205 292.322904,399.199755 292.015447,399.309107 C291.379064,399.537403 291.017661,400.139517 290.903741,400.358468 C290.878862,400.405195 290.827794,400.427891 290.779345,400.415876 C290.476867,400.341112 289.430632,400.134177 288.552005,400.545377 C288.399184,400.616919 288.263664,400.693692 288.143562,400.772979 C288.140418,400.809428 288.131918,400.845598 288.12074,400.881573 C287.705966,402.216572 287.939789,403.225122 288.82709,404.049693 C289.148769,404.34863 289.167653,404.852223 288.869269,405.174498 C288.570885,405.496774 288.068225,405.515693 287.746546,405.216756 C286.808333,404.344872 286.337088,403.282839 286.334445,402.078338 C286.236476,402.124464 286.14288,402.181687 286.061469,402.252925 C285.453894,402.78161 285.514128,403.199485 285.582218,403.377049 C285.604478,403.431787 285.580909,403.4932 285.529841,403.519901 C285.252242,403.660083 284.477059,404.12602 283.99388,405.113968 C283.332618,406.477069 283.597122,407.646585 283.961144,408.123203 C284.315999,408.591811 284.720613,408.682596 284.93536,408.694611 C285.006069,408.699951 285.055827,408.76804 285.036186,408.838798 C284.945222,409.171132 284.852468,409.986492 285.904414,410.501809 C286.136909,410.329168 286.453689,410.291279 286.729185,410.428504 C288.99811,411.558668 290.117153,411.230347 290.639801,409.442661 C290.763134,409.020811 291.204459,408.778999 291.625528,408.90256 C292.046598,409.026121 292.287962,409.468264 292.164629,409.890115 C291.705764,411.459635 290.81987,412.362246 289.600092,412.597797 C289.87261,412.884369 290.106494,413.15372 290.30926,413.364667 C290.798332,413.871724 291.442257,414.133304 292.101667,414.305126 L292.321853,414.35929 L292.818632,414.477336 C292.960287,414.513023 293.100526,414.551359 293.238334,414.595307 C293.308052,413.18686 293.844137,412.237692 294.918377,411.829682 C295.328644,411.673858 295.787318,411.880741 295.942854,412.291768 C296.08425,412.66543 295.926443,413.079171 295.588343,413.268382 L295.481623,413.318145 C294.898605,413.539582 294.651609,414.407315 294.922472,416.127763 C295.247802,416.875397 295.572961,417.904064 295.794922,418.659529 L295.873119,418.928939 L296.055038,419.583398 C296.064858,419.620446 296.09162,419.648482 296.124826,419.660185 L296.159792,419.666172 L297.081631,419.666172 L297.118274,419.659496 C297.141312,419.650818 297.160994,419.63413 297.173884,419.612101 L297.187695,419.575387 L297.632901,417.388551 L297.647829,417.38098 C297.847568,417.335549 299.997709,417.468631 301.312185,416.829619 C299.988415,416.135568 299.27674,415.074663 299.27674,413.673884 C299.27674,413.23431 299.632426,412.877966 300.071186,412.877966 C300.509946,412.877966 300.865631,413.23431 300.865631,413.673884 C300.865631,414.512271 301.321675,415.133401 302.356253,415.569741 L302.374618,415.576068 C302.397706,415.566562 302.424104,415.565387 302.450293,415.575534 C302.865382,415.730401 304.198382,416.113565 304.917259,414.957399 C305.321311,414.308822 305.320423,413.694511 305.267416,413.334667 L305.253282,413.250135 L305.221047,413.106999 C305.206643,413.052262 305.232831,412.994854 305.28259,412.973493 C305.64923,412.810615 306.974373,412.040283 306.793672,409.504995 C306.738499,408.722566 306.509068,408.106837 306.257423,407.627343 C303.493548,407.57674 302.121053,408.730063 301.864264,411.222902 C301.819223,411.660154 301.428903,411.978035 300.992461,411.93291 C300.556019,411.887785 300.238726,411.496742 300.283768,411.059491 C300.412466,409.810116 300.783012,408.787501 301.381028,407.998718 C300.148833,407.212764 299.759158,405.942378 300.326544,404.363599 C300.475179,403.950016 300.930325,403.735457 301.343143,403.884367 C301.75596,404.033277 301.970123,404.489268 301.821488,404.90285 C301.4609,405.906204 301.67726,406.477168 302.638308,406.870135 C303.437659,406.386697 304.428048,406.111263 305.59792,406.049294 C305.974635,405.138491 305.499946,403.810926 304.473362,403.49854 C304.443682,403.488749 304.419821,403.468278 304.406048,403.441083 L304.393487,403.39574 L304.346347,402.864384 L304.323844,402.678884 C304.036685,400.908835 301.761315,399.82244 300.198074,400.577419 C300.136531,400.60679 300.061893,400.574748 300.040942,400.50666 C299.854802,399.892941 299.491261,399.689885 299.350951,399.611874 L299.320756,399.594811 L299.148831,399.509318 C298.677551,399.312717 298.112007,399.362955 297.649923,399.558764 C297.609331,399.577455 297.560882,399.56544 297.529456,399.530728 C297.3828,399.366515 296.779152,398.849845 295.778748,398.849845 Z M298.134419,406.362427 C298.492062,406.617068 298.575944,407.113959 298.321774,407.472265 C297.608451,408.477845 297.766975,409.155546 298.341528,410.220172 C298.568061,410.63993 298.49317,411.078885 298.130073,411.325655 C297.766975,411.572426 297.260183,411.516643 297.026635,411.113808 C296.286425,409.837058 295.880003,408.166551 297.026635,406.550129 C297.280805,406.191823 297.776777,406.107786 298.134419,406.362427 Z" id="icon-mindmaps"></path>
        </g>
    </g>
</svg>