<?xml version="1.0" encoding="UTF-8"?>
<svg width="20px" height="22px" viewBox="0 0 20 22" version="1.1" xmlns="http://www.w3.org/2000/svg" xmlns:xlink="http://www.w3.org/1999/xlink">
    <title>1795AC21-E276-47DF-8AE7-0B0A65231B08</title>
    <g id="Web" stroke="none" stroke-width="1" fill="none" fill-rule="evenodd">
        <g id="Resources-Videos1-web" transform="translate(-510.000000, -398.000000)" fill="#8F8BA1" fill-rule="nonzero">
            <path d="M510,400.881212 C510,398.770266 512.083882,397.300419 513.913061,398.344079 L513.913061,398.344079 L528.142401,406.462308 C530.02661,407.537367 530.02661,410.462507 528.142381,411.537577 L528.142381,411.537577 L513.913061,419.655794 C512.083715,420.69955 510,419.230341 510,417.118662 L510,417.118662 Z M513.008012,399.778487 C512.465338,399.468858 511.759099,399.966997 511.759099,400.881212 L511.759099,400.881212 L511.759099,417.118662 C511.759099,418.033484 512.465,418.531208 513.008032,418.221375 L513.008032,418.221375 L527.237352,410.103157 C527.982828,409.677817 527.982828,408.322057 527.237372,407.896728 L527.237372,407.896728 Z" id="icon-deep-dives"></path>
        </g>
    </g>
</svg>