<?xml version="1.0" encoding="UTF-8"?>
<svg width="36px" height="36px" viewBox="0 0 36 36" version="1.1" xmlns="http://www.w3.org/2000/svg" xmlns:xlink="http://www.w3.org/1999/xlink">
    <title>masterclass-videos</title>
    <defs>
        <linearGradient x1="55.6082589%" y1="-41.1100618%" x2="55.6082589%" y2="100%" id="linearGradient-1">
            <stop stop-color="#dc78f4" offset="0%"></stop>
            <stop stop-color="#ee4baf" offset="100%"></stop>
        </linearGradient>
    </defs>
    <g id="Page-1" stroke="none" stroke-width="1" fill="none" fill-rule="evenodd">
        <path d="M18,0 C27.9411255,0 36,8.0588745 36,18 C36,27.9411255 27.9411255,36 18,36 C8.0588745,36 0,27.9411255 0,18 C0,8.0588745 8.0588745,0 18,0 Z M18,1.8 C9.05298705,1.8 1.8,9.05298705 1.8,18 C1.8,26.9470129 9.05298705,34.2 18,34.2 C26.9470129,34.2 34.2,26.9470129 34.2,18 C34.2,9.05298705 26.9470129,1.8 18,1.8 Z M15,10.9042476 C15.3560975,10.9042476 15.7050279,11.0043196 16.006998,11.1930509 L16.006998,11.1930509 L25.1202018,16.8888032 C26.0100412,17.4449529 26.2805502,18.6171586 25.7244006,19.506998 C25.5714872,19.7516593 25.3648631,19.9582834 25.1202018,20.1111968 L25.1202018,20.1111968 L16.006998,25.8069491 C15.1171586,26.3630988 13.9449529,26.0925898 13.3888032,25.2027503 C13.2000719,24.9007803 13.1,24.5518498 13.1,24.1957524 L13.1,24.1957524 L13.1,12.8042476 C13.1,11.7549066 13.950659,10.9042476 15,10.9042476 Z M15,12.7042476 C14.9447715,12.7042476 14.9,12.7490192 14.9,12.8042476 L14.9,12.8042476 L14.9,24.1957524 C14.9,24.2144943 14.9052669,24.2328591 14.9152002,24.2487523 C14.9444712,24.2955859 15.0061662,24.3098232 15.0529999,24.2805522 L15.0529999,24.2805522 L24.1662037,18.5847998 C24.1790806,18.5767518 24.1899555,18.5658768 24.1980036,18.5529999 C24.2272746,18.5061662 24.2130373,18.4444712 24.1662037,18.4152002 L24.1662037,18.4152002 L15.0529999,12.7194478 C15.0371067,12.7095146 15.018742,12.7042476 15,12.7042476 Z" id="masterclass-videos" fill="url(#linearGradient-1)"></path>
    </g>
</svg>
