<?xml version="1.0" encoding="UTF-8"?>
<svg width="39px" height="35px" viewBox="0 0 39 35" version="1.1" xmlns="http://www.w3.org/2000/svg" xmlns:xlink="http://www.w3.org/1999/xlink">
    <title>mindmaps</title>
    <defs>
        <linearGradient x1="55.6082589%" y1="-41.1100618%" x2="55.6082589%" y2="100%" id="linearGradient-1">
            <stop stop-color="#E56F9F" offset="0%"></stop>
            <stop stop-color="#EA635F" offset="100%"></stop>
        </linearGradient>
    </defs>
    <g id="Page-1" stroke="none" stroke-width="1" fill="none" fill-rule="evenodd">
        <g id="mindmaps" fill="url(#linearGradient-1)">
            <path d="M20.0418154,-1.10134124e-13 C21.2366327,-1.10134124e-13 22.2969709,0.321963564 23.1321641,0.809463928 L23.1321641,0.809463928 L23.1795545,0.838604501 L23.2495768,0.827249574 C24.1976883,0.693428533 25.1720943,0.813419708 26.0441095,1.2313326 L26.0441095,1.2313326 L26.3660643,1.40210117 C26.824563,1.67217215 27.012231,1.78971674 27.2545464,2.03620537 L27.2545464,2.03620537 L27.3982266,2.19084107 L27.5161423,2.17827771 C30.7223495,1.88891739 34.0943738,4.08298227 34.7211737,7.32235171 L34.7211737,7.32235171 L34.7600139,7.56598143 L34.9618488,7.72265796 C36.4203793,8.93895243 37.1105534,10.9952471 36.7155471,12.8438316 L36.7155471,12.8438316 L36.6924608,12.9304462 L36.8916764,13.235463 L37.1209486,13.614031 C37.8201994,14.820779 38.2617718,16.115073 38.368767,17.6308752 C38.5808163,20.602947 37.6947426,22.7151406 36.2696236,23.9959983 L36.2696236,23.9959983 L36.1964602,24.0579298 L36.1741837,24.4365175 C36.103582,25.1358563 35.8939958,25.8587204 35.5052989,26.5805597 L35.5052989,26.5805597 L35.2958388,26.9412803 C34.4088444,28.3663729 33.0413814,29.0962324 31.516708,29.1904146 C31.3825363,29.1987026 31.249896,29.2022179 31.1187521,29.2012838 L31.1187521,29.2012838 L30.9057867,29.191091 L30.8246897,29.2922128 C29.9455457,30.3031171 28.5735539,30.8996167 26.8954767,31.2247316 L26.8954767,31.2247316 L26.5312718,31.2902973 C25.9111178,31.3937525 25.2696828,31.4579502 24.5938484,31.4942249 L24.639,31.491 L24.3589294,32.8745521 C24.1603761,33.8857208 23.3584302,34.6674145 22.35268,34.8385013 L22.1731604,34.862277 L21.9369175,34.8734694 L20.5960613,34.8734694 C19.4685058,34.8734694 18.4957296,34.1106348 18.2117064,33.0402324 C17.6416923,30.9165309 16.6662375,28.0064474 16.4680338,27.8215341 C16.1771144,27.5501332 15.8010631,27.4065018 14.6573202,27.1409928 L14.6573202,27.1409928 L14.0354517,26.9890723 C12.5505787,26.5940044 11.3929079,26.0145353 10.421485,25.0084119 C10.4865963,25.076081 9.30444568,23.7902493 8.93403773,23.4355325 L8.93403773,23.4355325 L8.61156469,23.1397509 C7.86406566,22.4852063 7.14673044,22.079085 6.3671007,21.9032021 C3.81551584,21.3300238 2.43726164,19.9123825 2.10115244,18.2615941 L2.10115244,18.2615941 L2.09508275,18.22552 L1.95413663,18.1293446 C1.70163516,17.9419493 1.46086253,17.7203047 1.23622847,17.4628463 L1.23622847,17.4628463 L1.01713727,17.193392 C-0.226146988,15.5672049 -0.375896748,12.8700005 0.824814798,10.3974513 C1.36424945,9.29560543 2.08553145,8.44618406 2.86578197,7.82113654 L2.86578197,7.82113654 L2.93063939,7.77059617 L2.98447942,7.56868681 C3.17745262,6.93579139 3.55818629,6.31556714 4.13033452,5.75317258 L4.13033452,5.75317258 L4.38727081,5.5158186 C4.88813171,5.07799285 5.43382018,4.80321824 6.00903394,4.63792862 L6.00903394,4.63792862 L6.13419909,4.60529505 L6.21385999,4.49827681 C6.68523611,3.88498715 7.33363334,3.32230619 8.17808024,2.86866329 L8.17808024,2.86866329 L8.55204458,2.68109105 C9.61865976,2.18242177 10.7172973,2.03375815 11.7760573,2.09989788 L11.7760573,2.09989788 L11.8248731,2.1036574 L12.0391284,1.88463829 C12.4335352,1.50593511 12.8994672,1.18132112 13.4524068,0.937212492 L13.4524068,0.937212492 L13.7947354,0.800619287 C14.8981577,0.40856949 15.9458705,0.411370298 16.9019485,0.646948702 L16.9019485,0.646948702 L17.1564356,0.717614914 L17.2708484,0.654236883 C17.9580359,0.297528831 18.732827,0.0716564643 19.6003201,0.0144012585 L19.6003201,0.0144012585 Z M20.0681221,1.7877551 C19.2351995,1.7877551 18.6240827,2.01390329 18.1951453,2.25623522 C22.0413276,5.95350759 21.5767055,10.2220432 16.8590042,14.6184472 C16.4953679,14.9573182 15.9258732,14.937242 15.5870021,14.5736057 C15.2481311,14.2099693 15.2682074,13.6404746 15.6318437,13.3016036 C20.0758756,9.16023085 20.0758756,5.7647354 15.7076313,2.50940534 C15.6316826,2.45280639 15.5672175,2.38651708 15.5146727,2.31352795 C15.1680915,2.30132979 14.7958008,2.34411622 14.4231701,2.47664841 C13.4685958,2.81909247 12.9264919,3.72226364 12.7556113,4.05068952 C12.7182925,4.12078041 12.6416909,4.15482456 12.5690175,4.13680119 C12.1153001,4.02465576 10.5459484,3.71425325 9.22800732,4.33105308 C8.57926399,4.63475826 8.13837757,5.00130452 7.84128,5.3383535 L7.8652263,5.17809641 C7.39943942,8.29811912 8.11446654,9.40909642 9.63223086,10.3401001 C10.055927,10.5999973 10.1887123,11.1541591 9.9288151,11.5778552 C9.66891793,12.0015514 9.11475608,12.1343366 8.69105996,11.8744395 C6.82042296,10.7269821 5.86480659,9.2627788 5.9279653,6.61984562 C5.77180815,6.68935182 5.621725,6.7790385 5.49220404,6.89237443 C4.58084088,7.68540277 4.67119154,8.31221558 4.77332707,8.57856096 C4.80671753,8.66066743 4.77136292,8.75278688 4.69476128,8.79283882 C4.27836259,9.00311149 3.11558891,9.70201778 2.3908195,11.1839394 C1.39892641,13.2285908 1.79568365,14.9828656 2.34171588,15.6977927 C2.87399911,16.4007042 3.48091983,16.5368808 3.80303957,16.5549041 C3.90910338,16.5629145 3.98374088,16.665047 3.95427871,16.7711846 C3.8406078,17.1864795 3.72507224,18.1046289 4.60201037,18.8464886 L4.56809476,18.8313593 C9.63309369,20.9641975 12.1814435,20.3601264 12.8775118,17.2060474 C12.9846289,16.7206704 13.4649402,16.4140301 13.9503173,16.5211471 C14.4356943,16.6282641 14.7423346,17.1085755 14.6352176,17.5939526 C14.0610463,20.1956822 12.5470511,21.5958136 10.2213183,21.8303804 C10.8896185,22.465209 11.4252881,23.1036905 11.8638896,23.5599879 C12.6790096,24.4050837 13.7808948,24.7955901 14.88278,25.0519225 L14.88278,25.0519225 L15.627948,25.2289916 C15.9418617,25.3080752 16.2511371,25.3958318 16.5508669,25.5065892 C16.4033994,23.202286 17.2325371,21.6710009 19.1320324,21.0785731 C19.6065454,20.9305787 20.1111874,21.1952744 20.2591818,21.6697874 C20.395792,22.1077994 20.180761,22.5714834 19.7736537,22.7566292 L19.6679676,22.7969367 C18.2835199,23.2287279 17.9154435,24.7389895 18.7931627,27.7265334 C19.3394344,28.9882941 19.8833881,30.7684524 20.2096783,31.9063963 L20.2096783,31.9063963 L20.4825567,32.8880839 C20.5021981,32.96218 20.5670149,33.0122449 20.6396882,33.0122449 L20.6396882,33.0122449 L22.0224461,33.0122449 L22.0774115,33.0022319 C22.1292465,32.9827066 22.169757,32.9361462 22.1815418,32.8760683 L22.1815418,32.8760683 L22.8493511,29.5958147 L22.871743,29.5844569 C23.2052983,29.5085895 27.1649683,29.7646078 28.9841233,28.3849327 C26.8576975,27.6888774 25.7300907,26.0076088 25.6077773,23.4133758 C25.584368,22.916871 25.9678876,22.4953975 26.4643924,22.4719882 C26.9608971,22.4485789 27.3823707,22.8320985 27.40578,23.3286032 C27.5358026,26.0863468 29.3997783,27.4397662 32.6886233,26.8964522 L32.7676487,26.8905471 C33.1398953,26.7059151 33.490218,26.4085278 33.7758882,25.9490859 C34.4324737,24.8951478 34.376195,23.9015328 34.2799233,23.3881907 L34.2799233,23.3881907 L34.2315698,23.1734867 C34.2099642,23.0913802 34.2492471,23.0052685 34.3238846,22.973227 C34.8738451,22.7289102 36.8615596,21.5734118 36.5905076,17.7704804 C36.5038017,16.5408706 36.130186,15.5857264 35.7319318,14.8524984 C31.2482995,14.4101014 29.2351754,16.2938494 28.7062691,20.8278485 C28.6486763,21.3215569 28.2017584,21.6750985 27.70805,21.6175057 C27.2143415,21.559913 26.8607999,21.1129951 26.9183927,20.6192866 C27.1829835,18.3511069 27.8263697,16.5808995 28.8714745,15.3194088 C26.6809145,14.2464825 26.0156657,12.0440529 26.952213,9.00367403 C27.0985395,8.52864404 27.6022485,8.26217723 28.0772785,8.40850374 C28.5523085,8.55483026 28.8187753,9.05853923 28.6724488,9.53356922 C27.8837444,12.0939953 28.4292948,13.4360632 30.4222197,13.9881337 C31.5503927,13.317074 32.9486348,12.9837025 34.6295057,12.9935781 C34.6274241,12.9504174 34.6356961,12.911956 34.6558251,12.8781364 C35.4611244,11.5183731 34.7618889,9.26344907 33.1100431,8.76079727 C33.0432622,8.7387687 32.9961228,8.6806934 32.9902303,8.60659731 L32.9902303,8.60659731 L32.9195211,7.80956377 L32.8857664,7.53131407 C32.4550271,4.87624004 29.041972,3.24664689 26.6971106,4.3791154 C26.6047958,4.42317253 26.4928395,4.37511021 26.4614132,4.27297777 C26.1589349,3.27568455 25.5441576,3.00132878 25.3811336,2.90520413 L25.3811336,2.90520413 L25.123246,2.77696377 C24.4163263,2.48206284 23.5680098,2.55741982 22.8748849,2.85113402 C22.8139965,2.87917038 22.7413231,2.861147 22.6941836,2.80907949 C22.4741994,2.56276008 21.5687287,1.7877551 20.0681221,1.7877551 Z M23.972688,12.2038459 C24.3217122,12.5577486 24.3177573,13.1275833 23.9638547,13.4766075 C21.9836,15.4295645 21.9836,17.5449418 24.0401836,20.1683009 C24.3468489,20.5594803 24.2783366,21.1251953 23.8871572,21.4318605 C23.4959778,21.7385258 22.9302629,21.6700136 22.6235976,21.2788342 C20.0303524,17.9709145 20.0303524,14.8277868 22.6999265,12.1950126 C23.0538291,11.8459884 23.6236639,11.8499432 23.972688,12.2038459 Z" id="Combined-Shape"></path>
        </g>
    </g>
</svg>