<?xml version="1.0" encoding="UTF-8"?>
<svg width="38px" height="37px" viewBox="0 0 38 37" version="1.1" xmlns="http://www.w3.org/2000/svg" xmlns:xlink="http://www.w3.org/1999/xlink">
    <title>Combined Shape</title>
    <defs>
        <linearGradient x1="55.6082589%" y1="-41.1100618%" x2="55.6082589%" y2="100%" id="linearGradient-1">
            <stop stop-color="#E56F9F" offset="0%"></stop>
            <stop stop-color="#EA635F" offset="100%"></stop>
        </linearGradient>
    </defs>
    <g id="Page-1" stroke="none" stroke-width="1" fill="none" fill-rule="evenodd">
        <g id="Group-45" fill="url(#linearGradient-1)">
            <g id="Group-46">
                <g id="Group-25-Copy-2">
                    <g id="Combined-Shape-5">
                        <path d="M29.0499892,5.79908575 C30.1545587,5.79908575 31.0499892,6.69451625 31.0499892,7.79908575 L31.0499892,22.5136415 C31.0499892,23.618211 30.1545587,24.5136415 29.0499892,24.5136415 L7.797,24.513 L7.7971394,34.8428814 L7.791,34.936 L12.604863,34.9360812 C13.1019193,34.9360812 13.504863,35.339025 13.504863,35.8360812 C13.504863,36.2949024 13.1615264,36.673533 12.7177571,36.729069 L12.604863,36.7360812 L0.9,36.7360812 C0.402943725,36.7360812 3.55271368e-15,36.3331375 3.55271368e-15,35.8360812 C3.55271368e-15,35.3772601 0.343336665,34.9986295 0.787105912,34.9430935 L0.9,34.9360812 L6.003,34.936 L5.9971394,34.8428814 L5.9971394,23.0481308 L6.001,22.983 L6.0014311,7.79908575 C6.0014311,6.69451625 6.8968616,5.79908575 8.0014311,5.79908575 L29.0499892,5.79908575 Z M29.0499892,7.59908575 L8.0014311,7.59908575 C7.90938365,7.59908575 7.83185973,7.66126843 7.8085753,7.74591783 L7.8014311,7.79908575 L7.80117069,22.713 L29.0499892,22.7136415 C29.1420367,22.7136415 29.2195606,22.6514588 29.242845,22.5668094 L29.2499892,22.5136415 L29.2499892,7.79908575 C29.2499892,7.7070383 29.1878065,7.62951438 29.1031571,7.60622995 L29.0499892,7.59908575 Z M22.8005229,11.7089886 C23.1304055,12.0232825 23.1694797,12.5281646 22.9096071,12.887322 L22.8313147,12.9814083 L17.9685346,18.0853781 C17.6582822,18.4110187 17.1613374,18.4538507 16.8023351,18.2030581 L16.7080893,18.1273721 L13.9298927,15.5753872 C13.563834,15.2391344 13.5396715,14.6697985 13.8759243,14.3037397 C14.184156,13.9681859 14.6882424,13.9199199 15.0520747,14.173206 L15.1475718,14.2497713 L17.2741707,16.203 L21.5281032,11.7397805 C21.8709692,11.3799085 22.4406509,11.3661226 22.8005229,11.7089886 Z M34.153959,4.79616347e-13 C35.6983838,4.79616347e-13 36.9608312,1.2072893 37.049036,2.72960297 L37.053959,2.9 L37.053959,16.2119093 C37.053959,16.7089655 36.6510152,17.1119093 36.153959,17.1119093 C35.6951378,17.1119093 35.3165072,16.7685726 35.2609712,16.3248034 L35.253959,16.2119093 L35.253959,2.9 C35.253959,2.33298766 34.8249483,1.86617613 34.2738161,1.80645465 L34.153959,1.8 L17.6804533,1.8 C17.183397,1.8 16.7804533,1.39705627 16.7804533,0.9 C16.7804533,0.441178823 17.12379,0.0625482213 17.5675592,0.0070122777 L17.6804533,4.79616347e-13 L34.153959,4.79616347e-13 Z" id="Combined-Shape"></path>
                    </g>
                </g>
            </g>
        </g>
    </g>
</svg>