<?xml version="1.0" encoding="UTF-8"?>
<svg width="162px" height="150px" viewBox="0 0 162 150" version="1.1" xmlns="http://www.w3.org/2000/svg" xmlns:xlink="http://www.w3.org/1999/xlink">
    <title>“</title>
    <g id="Page-1" stroke="none" stroke-width="1" fill="none" fill-rule="evenodd" opacity="0.100000001">
        <g id="Landing-Web" transform="translate(-133.000000, -4797.000000)" fill="#B0A4F5" fill-rule="nonzero">
            <path d="M197,4947 L197,4882.46512 L162.981982,4882.46512 C162.981982,4875.87597 163.462462,4869.18992 164.423423,4862.40698 C165.384384,4855.62403 167.21021,4849.51938 169.900901,4844.09302 C172.591592,4838.66667 176.051051,4834.3062 180.279279,4831.01163 C184.507508,4827.71705 189.888889,4826.06977 196.423423,4826.06977 L196.423423,4797 C185.660661,4797 176.243243,4799.32558 168.171171,4803.97674 C160.099099,4808.62791 153.468468,4814.82946 148.279279,4822.5814 C143.09009,4830.33333 139.246246,4839.34496 136.747748,4849.61628 C134.249249,4859.8876 133,4870.83721 133,4882.46512 L133,4947 L197,4947 Z M295,4947 L295,4882.46512 L260.981982,4882.46512 C260.981982,4875.87597 261.462462,4869.18992 262.423423,4862.40698 C263.384384,4855.62403 265.21021,4849.51938 267.900901,4844.09302 C270.591592,4838.66667 274.051051,4834.3062 278.279279,4831.01163 C282.507508,4827.71705 287.888889,4826.06977 294.423423,4826.06977 L294.423423,4797 C283.660661,4797 274.243243,4799.32558 266.171171,4803.97674 C258.099099,4808.62791 251.468468,4814.82946 246.279279,4822.5814 C241.09009,4830.33333 237.246246,4839.34496 234.747748,4849.61628 C232.249249,4859.8876 231,4870.83721 231,4882.46512 L231,4947 L295,4947 Z" id="“"></path>
        </g>
    </g>
</svg>