<?xml version="1.0" encoding="UTF-8"?>
<svg width="32px" height="32px" viewBox="0 0 32 32" version="1.1" xmlns="http://www.w3.org/2000/svg" xmlns:xlink="http://www.w3.org/1999/xlink">
    <title>Combined Shape 6</title>
    <defs>
        <linearGradient x1="55.6082589%" y1="-41.1100618%" x2="55.6082589%" y2="100%" id="linearGradient-1">
            <stop stop-color="#E56F9F" offset="0%"></stop>
            <stop stop-color="#EA635F" offset="100%"></stop>
        </linearGradient>
    </defs>
    <g id="Page-1" stroke="none" stroke-width="1" fill="none" fill-rule="evenodd">
        <g id="Combined-Shape-6" fill="url(#linearGradient-1)">
            <path d="M10.9130435,17.3913043 C12.5698977,17.3913043 13.9130435,18.7344501 13.9130435,20.3913043 L13.9130435,28.3043478 C13.9130435,29.9612021 12.5698977,31.3043478 10.9130435,31.3043478 L3,31.3043478 C1.34314575,31.3043478 1.15463195e-13,29.9612021 1.15463195e-13,28.3043478 L1.15463195e-13,20.3913043 C1.15463195e-13,18.7344501 1.34314575,17.3913043 3,17.3913043 L10.9130435,17.3913043 Z M28.3043478,17.3913043 C29.9612021,17.3913043 31.3043478,18.7344501 31.3043478,20.3913043 L31.3043478,28.3043478 C31.3043478,29.9612021 29.9612021,31.3043478 28.3043478,31.3043478 L20.3913043,31.3043478 C18.7344501,31.3043478 17.3913043,29.9612021 17.3913043,28.3043478 L17.3913043,20.3913043 C17.3913043,18.7344501 18.7344501,17.3913043 20.3913043,17.3913043 L28.3043478,17.3913043 Z M10.9130435,19.1913043 L3,19.1913043 C2.37867966,19.1913043 1.86764746,19.663504 1.80619546,20.2686113 L1.8,20.3913043 L1.8,28.3043478 C1.8,28.9256682 2.27219968,29.4367004 2.87730697,29.4981524 L3,29.5043478 L10.9130435,29.5043478 C11.5343638,29.5043478 12.045396,29.0321481 12.106848,28.4270409 L12.1130435,28.3043478 L12.1130435,20.3913043 C12.1130435,19.769984 11.6408438,19.2589518 11.0357365,19.1974998 L10.9130435,19.1913043 Z M28.3043478,19.1913043 L20.3913043,19.1913043 C19.769984,19.1913043 19.2589518,19.663504 19.1974998,20.2686113 L19.1913043,20.3913043 L19.1913043,28.3043478 C19.1913043,28.9256682 19.663504,29.4367004 20.2686113,29.4981524 L20.3913043,29.5043478 L28.3043478,29.5043478 C28.9256682,29.5043478 29.4367004,29.0321481 29.4981524,28.4270409 L29.5043478,28.3043478 L29.5043478,20.3913043 C29.5043478,19.769984 29.0321481,19.2589518 28.4270409,19.1974998 L28.3043478,19.1913043 Z M10.9130435,-1.77635684e-15 C12.5698977,-1.77635684e-15 13.9130435,1.34314575 13.9130435,3 L13.9130435,10.9130435 C13.9130435,12.5698977 12.5698977,13.9130435 10.9130435,13.9130435 L3,13.9130435 C1.34314575,13.9130435 1.15463195e-13,12.5698977 1.15463195e-13,10.9130435 L1.15463195e-13,3 C1.15463195e-13,1.34314575 1.34314575,-1.77635684e-15 3,-1.77635684e-15 L10.9130435,-1.77635684e-15 Z M28.3043478,-1.77635684e-15 C29.9612021,-1.77635684e-15 31.3043478,1.34314575 31.3043478,3 L31.3043478,10.9130435 C31.3043478,12.5698977 29.9612021,13.9130435 28.3043478,13.9130435 L20.3913043,13.9130435 C18.7344501,13.9130435 17.3913043,12.5698977 17.3913043,10.9130435 L17.3913043,3 C17.3913043,1.34314575 18.7344501,-1.77635684e-15 20.3913043,-1.77635684e-15 L28.3043478,-1.77635684e-15 Z M10.9130435,1.8 L3,1.8 C2.37867966,1.8 1.86764746,2.27219968 1.80619546,2.87730697 L1.8,3 L1.8,10.9130435 C1.8,11.5343638 2.27219968,12.045396 2.87730697,12.106848 L3,12.1130435 L10.9130435,12.1130435 C11.5343638,12.1130435 12.045396,11.6408438 12.106848,11.0357365 L12.1130435,10.9130435 L12.1130435,3 C12.1130435,2.37867966 11.6408438,1.86764746 11.0357365,1.80619546 L10.9130435,1.8 Z M28.3043478,1.8 L20.3913043,1.8 C19.769984,1.8 19.2589518,2.27219968 19.1974998,2.87730697 L19.1913043,3 L19.1913043,10.9130435 C19.1913043,11.5343638 19.663504,12.045396 20.2686113,12.106848 L20.3913043,12.1130435 L28.3043478,12.1130435 C28.9256682,12.1130435 29.4367004,11.6408438 29.4981524,11.0357365 L29.5043478,10.9130435 L29.5043478,3 C29.5043478,2.37867966 29.0321481,1.86764746 28.4270409,1.80619546 L28.3043478,1.8 Z" id="Combined-Shape"></path>
        </g>
    </g>
</svg>