<?xml version="1.0" encoding="UTF-8"?>
<svg width="46px" height="46px" viewBox="0 0 46 46" version="1.1" xmlns="http://www.w3.org/2000/svg" xmlns:xlink="http://www.w3.org/1999/xlink">
    <title>course-ccsp</title>
    <g id="Assets" stroke="none" stroke-width="1" fill="none" fill-rule="evenodd" opacity="0.849999964">
        <g id="course-ccsp" fill="#FFFFFF">
            <path d="M40,0 C43.3137085,0 46,2.6862915 46,6 L46,40 C46,43.3137085 43.3137085,46 40,46 L6,46 C2.6862915,46 0,43.3137085 0,40 L0,6 C0,2.6862915 2.6862915,0 6,0 L40,0 Z M11.351604,15.2529472 C8.12376761,16.7983833 6.59765723,19.5913186 6.73963445,23.7652655 C6.75368629,24.1783712 6.40861282,24.5136361 5.99608391,24.4876809 C4.89641943,24.418493 3.95131044,24.6270449 3.1421282,25.1089815 C2.63845059,25.4089642 2.26005012,25.7857404 1.99935627,26.2486974 L2,40 C2,42.1421954 3.68396847,43.8910789 5.80035966,43.9951047 L6,44 L40,44 C42.1421954,44 43.8910789,42.3160315 43.9951047,40.1996403 L44,40 L44.0002808,23.7756492 C41.4455449,21.2718418 38.5367801,21.107212 35.070614,23.2887206 C34.6044619,23.5821037 33.9977539,23.2470804 33.9977539,22.6962888 C33.9977539,19.2511458 32.7551415,17.0854582 30.248097,16.0530252 C27.6794893,14.9952398 25.1183165,15.3077811 22.4897119,17.0183494 C22.2445353,17.1778984 21.9260011,17.1681705 21.6910175,16.9939575 C18.0050012,14.2612053 14.5903325,13.7022961 11.351604,15.2529472 Z M12.3483146,28 C13.2571785,28 14.1354557,28.2468789 14.9831461,28.7406367 L14.9831461,28.7406367 L14.9831461,30.5496255 C14.1004994,29.8111735 13.1872659,29.4419476 12.2434457,29.4419476 C11.2034956,29.4419476 10.3274032,29.8155431 9.61516854,30.5627341 C8.89856429,31.3055556 8.54026217,32.2144195 8.54026217,33.2893258 C8.54026217,34.3511236 8.89856429,35.2468789 9.61516854,35.9765918 C10.3317728,36.7063046 11.2100499,37.071161 12.25,37.071161 C12.7874532,37.071161 13.2440699,36.9837703 13.6198502,36.8089888 C13.829588,36.721598 14.0469725,36.6036205 14.2720037,36.4550562 C14.497035,36.3064919 14.7340824,36.1273408 14.9831461,35.917603 L14.9831461,35.917603 L14.9831461,37.7593633 C14.1092385,38.2531211 13.1916355,38.5 12.2303371,38.5 C10.78402,38.5 9.54962547,37.9953184 8.52715356,36.9859551 C7.50905119,35.9678527 7,34.7400125 7,33.3024345 C7,32.0134207 7.42602996,30.8642322 8.27808989,29.8548689 C9.32677903,28.6182896 10.6835206,28 12.3483146,28 Z M21.5483146,28 C22.4571785,28 23.3354557,28.2468789 24.1831461,28.7406367 L24.1831461,28.7406367 L24.1831461,30.5496255 C23.3004994,29.8111735 22.3872659,29.4419476 21.4434457,29.4419476 C20.4034956,29.4419476 19.5274032,29.8155431 18.8151685,30.5627341 C18.0985643,31.3055556 17.7402622,32.2144195 17.7402622,33.2893258 C17.7402622,34.3511236 18.0985643,35.2468789 18.8151685,35.9765918 C19.5317728,36.7063046 20.4100499,37.071161 21.45,37.071161 C21.9874532,37.071161 22.4440699,36.9837703 22.8198502,36.8089888 C23.029588,36.721598 23.2469725,36.6036205 23.4720037,36.4550562 C23.697035,36.3064919 23.9340824,36.1273408 24.1831461,35.917603 L24.1831461,35.917603 L24.1831461,37.7593633 C23.3092385,38.2531211 22.3916355,38.5 21.4303371,38.5 C19.98402,38.5 18.7496255,37.9953184 17.7271536,36.9859551 C16.7090512,35.9678527 16.2,34.7400125 16.2,33.3024345 C16.2,32.0134207 16.62603,30.8642322 17.4780899,29.8548689 C18.526779,28.6182896 19.8835206,28 21.5483146,28 Z M28.7934457,28 C29.9601124,28 30.871161,28.56804 31.5265918,29.7041199 L31.5265918,29.7041199 L30.2878277,30.4382022 C30.0562422,30.0362047 29.8355805,29.7740325 29.6258427,29.6516854 C29.4073658,29.5118602 29.1255306,29.4419476 28.7803371,29.4419476 C28.3564919,29.4419476 28.0047441,29.5621099 27.7250936,29.8024345 C27.4454432,30.0383895 27.305618,30.3355181 27.305618,30.6938202 C27.305618,31.187578 27.6726592,31.585206 28.4067416,31.8867041 L28.4067416,31.8867041 L29.4161049,32.2996255 C30.237578,32.6317104 30.8383895,33.036985 31.2185393,33.5154494 C31.5986891,33.9939139 31.788764,34.5805243 31.788764,35.2752809 C31.788764,36.2059925 31.4785268,36.9750312 30.8580524,37.582397 C30.2332085,38.1941323 29.4576155,38.5 28.5312734,38.5 C27.6529963,38.5 26.9276529,38.2400125 26.3552434,37.7200375 C25.791573,37.2000624 25.4398252,36.4681648 25.3,35.5243446 L25.3,35.5243446 L26.8468165,35.1835206 C26.9167291,35.7777778 27.0390762,36.1885144 27.2138577,36.4157303 C27.5284644,36.8526841 27.9872659,37.071161 28.5902622,37.071161 C29.0665418,37.071161 29.461985,36.9116729 29.7765918,36.5926966 C30.0911985,36.2737203 30.2485019,35.8695381 30.2485019,35.3801498 C30.2485019,35.1835206 30.2211923,35.0032772 30.166573,34.8394195 C30.1119538,34.6755618 30.0267478,34.5248127 29.9109551,34.3871723 C29.7951623,34.2495318 29.6455056,34.1206305 29.461985,34.0004682 C29.2784644,33.8803059 29.0599875,33.7656055 28.8065543,33.656367 L28.8065543,33.656367 L27.8299625,33.25 C26.444819,32.6644819 25.7522472,31.8080524 25.7522472,30.6807116 C25.7522472,29.920412 26.0428215,29.2846442 26.62397,28.7734082 C27.2051186,28.2578027 27.9282772,28 28.7934457,28 Z M34.7303371,28.1966292 C35.5780275,28.1966292 36.2181648,28.255618 36.6507491,28.3735955 C37.0877029,28.491573 37.4722222,28.7144195 37.8043071,29.0421348 C38.3854557,29.6101748 38.67603,30.326779 38.67603,31.1919476 C38.67603,32.1182896 38.3657928,32.852372 37.7453184,33.3941948 C37.1765501,33.8908656 36.4260365,34.1598956 35.4937773,34.2012849 L35.2350187,34.2069288 L34.5271536,34.2069288 L34.5271536,38.3164794 L33,38.3164794 L33,28.1966292 L34.7303371,28.1966292 Z M35.0318352,29.6058052 L34.5271536,29.6058052 L34.5271536,32.7911985 L35.0973783,32.7911985 C36.5,32.7911985 37.2013109,32.2515605 37.2013109,31.1722846 C37.2013109,30.127965 36.4781523,29.6058052 35.0318352,29.6058052 Z M40.455,27 C41.2585743,27 41.91,27.6514257 41.91,28.455 C41.91,29.2585743 41.2585743,29.91 40.455,29.91 C39.6514257,29.91 39,29.2585743 39,28.455 C39,27.6514257 39.6514257,27 40.455,27 Z M40.455,27.21 C39.7674055,27.21 39.21,27.7674055 39.21,28.455 C39.21,29.1425945 39.7674055,29.7 40.455,29.7 C41.1425945,29.7 41.7,29.1425945 41.7,28.455 C41.7,27.7674055 41.1425945,27.21 40.455,27.21 Z M40.3497273,27.759 L40.4652118,27.763043 C40.6101335,27.7738242 40.7188248,27.806168 40.7912857,27.8600742 C40.8911858,27.9350742 40.9411359,28.0340977 40.9411359,28.1571445 C40.9411359,28.2532383 40.9098338,28.3358555 40.8472298,28.4049961 C40.8002767,28.4568516 40.7420849,28.4946995 40.6726543,28.5185398 L40.5994775,28.5377109 L41.077,29.1160313 L40.7922847,29.1160313 L40.3517253,28.5605625 L40.3097672,28.5605625 L40.3097672,29.1160313 L40.077,29.1160313 L40.077,27.759 L40.3497273,27.759 Z M40.3926843,27.9514805 L40.3097672,27.9514805 L40.3097672,28.3821445 L40.3836933,28.3821445 C40.6041395,28.3821445 40.7143626,28.3080234 40.7143626,28.1597813 C40.7143626,28.0209141 40.6071365,27.9514805 40.3926843,27.9514805 Z M40,2 L6,2 C3.85780461,2 2.10892112,3.68396847 2.00489531,5.80035966 L2,6 L1.99995964,24.1892515 C2.13472359,24.0893319 2.27667444,23.9949377 2.42574289,23.9061548 C3.241479,23.4203148 4.15494868,23.148167 5.15767278,23.0877294 L5.331,23.0806447 L5.33851359,22.7513518 C5.46712727,18.7195725 7.18310769,15.8141039 10.4621415,14.1314473 L10.7470288,13.9902165 C14.2975026,12.2903067 18.0417928,12.7861912 21.8984303,15.4229787 L22.136,15.5886447 L22.3272062,15.4752141 C25.0343716,13.9065263 27.7702292,13.6213758 30.4802012,14.639956 L30.7811999,14.7584978 C33.4904023,15.8741819 35.0128622,18.1033607 35.3335905,21.3456009 L35.348,21.5156447 L35.4100946,21.4831088 C38.5683007,19.8607828 41.4671887,20.0076529 44.0006711,21.9273501 L44,6 C44,3.85780461 42.3160315,2.10892112 40.1996403,2.00489531 L40,2 Z" id="Combined-Shape"></path>
        </g>
    </g>
</svg>