<?xml version="1.0" encoding="UTF-8"?>
<svg width="46px" height="46px" viewBox="0 0 46 46" version="1.1" xmlns="http://www.w3.org/2000/svg" xmlns:xlink="http://www.w3.org/1999/xlink">
    <title>course-cissp</title>
    <g id="Assets" stroke="none" stroke-width="1" fill="none" fill-rule="evenodd" opacity="0.849999964">
        <path d="M40,0 C43.3137085,0 46,2.6862915 46,6 L46,40 C46,43.3137085 43.3137085,46 40,46 L6,46 C2.6862915,46 4.54747351e-13,43.3137085 4.54747351e-13,40 L4.54747351e-13,6 C4.54747351e-13,2.6862915 2.6862915,0 6,0 L40,0 Z M40,2 L6,2 C3.85780461,2 2.10892112,3.68396847 2.00489531,5.80035966 L2,6 L2,40 C2,42.1421954 3.68396847,43.8910789 5.80035966,43.9951047 L6,44 L40,44 C42.1421954,44 43.8910789,42.3160315 43.9951047,40.1996403 L44,40 L44,6 C44,3.85780461 42.3160315,2.10892112 40.1996403,2.00489531 L40,2 Z M10.3483146,29 C11.2571785,29 12.1354557,29.2468789 12.9831461,29.7406367 L12.9831461,29.7406367 L12.9831461,31.5496255 C12.1004994,30.8111735 11.1872659,30.4419476 10.2434457,30.4419476 C9.20349563,30.4419476 8.32740325,30.8155431 7.61516854,31.5627341 C6.89856429,32.3055556 6.54026217,33.2144195 6.54026217,34.2893258 C6.54026217,35.3511236 6.89856429,36.2468789 7.61516854,36.9765918 C8.33177278,37.7063046 9.21004994,38.071161 10.25,38.071161 C10.7874532,38.071161 11.2440699,37.9837703 11.6198502,37.8089888 C11.829588,37.721598 12.0469725,37.6036205 12.2720037,37.4550562 C12.497035,37.3064919 12.7340824,37.1273408 12.9831461,36.917603 L12.9831461,36.917603 L12.9831461,38.7593633 C12.1092385,39.2531211 11.1916355,39.5 10.2303371,39.5 C8.78401998,39.5 7.54962547,38.9953184 6.52715356,37.9859551 C5.50905119,36.9678527 5,35.7400125 5,34.3024345 C5,33.0134207 5.42602996,31.8642322 6.27808989,30.8548689 C7.32677903,29.6182896 8.6835206,29 10.3483146,29 Z M21.8576779,29 C23.0243446,29 23.9353933,29.56804 24.590824,30.7041199 L24.590824,30.7041199 L23.3520599,31.4382022 C23.1204744,31.0362047 22.8998127,30.7740325 22.6900749,30.6516854 C22.471598,30.5118602 22.1897628,30.4419476 21.8445693,30.4419476 C21.4207241,30.4419476 21.0689763,30.5621099 20.7893258,30.8024345 C20.5096754,31.0383895 20.3698502,31.3355181 20.3698502,31.6938202 C20.3698502,32.187578 20.7368914,32.585206 21.4709738,32.8867041 L21.4709738,32.8867041 L22.4803371,33.2996255 C23.3018102,33.6317104 23.9026217,34.036985 24.2827715,34.5154494 C24.6629213,34.9939139 24.8529963,35.5805243 24.8529963,36.2752809 C24.8529963,37.2059925 24.5427591,37.9750312 23.9222846,38.582397 C23.2974407,39.1941323 22.5218477,39.5 21.5955056,39.5 C20.7172285,39.5 19.9918851,39.2400125 19.4194757,38.7200375 C18.8558052,38.2000624 18.5040574,37.4681648 18.3642322,36.5243446 L18.3642322,36.5243446 L19.9110487,36.1835206 C19.9809613,36.7777778 20.1033084,37.1885144 20.2780899,37.4157303 C20.5926966,37.8526841 21.0514981,38.071161 21.6544944,38.071161 C22.130774,38.071161 22.5262172,37.9116729 22.840824,37.5926966 C23.1554307,37.2737203 23.3127341,36.8695381 23.3127341,36.3801498 C23.3127341,36.1835206 23.2854245,36.0032772 23.2308052,35.8394195 C23.176186,35.6755618 23.09098,35.5248127 22.9751873,35.3871723 C22.8593945,35.2495318 22.7097378,35.1206305 22.5262172,35.0004682 C22.3426966,34.8803059 22.1242197,34.7656055 21.8707865,34.656367 L21.8707865,34.656367 L20.8941948,34.25 C19.5090512,33.6644819 18.8164794,32.8080524 18.8164794,31.6807116 C18.8164794,30.920412 19.1070537,30.2846442 19.6882022,29.7734082 C20.2693508,29.2578027 20.9925094,29 21.8576779,29 Z M29.6835206,29 C30.8501873,29 31.761236,29.56804 32.4166667,30.7041199 L32.4166667,30.7041199 L31.1779026,31.4382022 C30.9463171,31.0362047 30.7256554,30.7740325 30.5159176,30.6516854 C30.2974407,30.5118602 30.0156055,30.4419476 29.670412,30.4419476 C29.2465668,30.4419476 28.894819,30.5621099 28.6151685,30.8024345 C28.3355181,31.0383895 28.1956929,31.3355181 28.1956929,31.6938202 C28.1956929,32.187578 28.5627341,32.585206 29.2968165,32.8867041 L29.2968165,32.8867041 L30.3061798,33.2996255 C31.1276529,33.6317104 31.7284644,34.036985 32.1086142,34.5154494 C32.488764,34.9939139 32.678839,35.5805243 32.678839,36.2752809 C32.678839,37.2059925 32.3686017,37.9750312 31.7481273,38.582397 C31.1232834,39.1941323 30.3476904,39.5 29.4213483,39.5 C28.5430712,39.5 27.8177278,39.2400125 27.2453184,38.7200375 C26.6816479,38.2000624 26.3299001,37.4681648 26.1900749,36.5243446 L26.1900749,36.5243446 L27.7368914,36.1835206 C27.806804,36.7777778 27.9291511,37.1885144 28.1039326,37.4157303 C28.4185393,37.8526841 28.8773408,38.071161 29.4803371,38.071161 C29.9566167,38.071161 30.3520599,37.9116729 30.6666667,37.5926966 C30.9812734,37.2737203 31.1385768,36.8695381 31.1385768,36.3801498 C31.1385768,36.1835206 31.1112672,36.0032772 31.0566479,35.8394195 C31.0020287,35.6755618 30.9168227,35.5248127 30.80103,35.3871723 C30.6852372,35.2495318 30.5355805,35.1206305 30.3520599,35.0004682 C30.1685393,34.8803059 29.9500624,34.7656055 29.6966292,34.656367 L29.6966292,34.656367 L28.7200375,34.25 C27.3348939,33.6644819 26.6423221,32.8080524 26.6423221,31.6807116 C26.6423221,30.920412 26.9328964,30.2846442 27.5140449,29.7734082 C28.0951935,29.2578027 28.8183521,29 29.6835206,29 Z M16.4372659,29.1966292 L16.4372659,39.3164794 L14.9101124,39.3164794 L14.9101124,29.1966292 L16.4372659,29.1966292 Z M36.2509363,29.1966292 C37.0986267,29.1966292 37.738764,29.255618 38.1713483,29.3735955 C38.6083021,29.491573 38.9928215,29.7144195 39.3249064,30.0421348 C39.9060549,30.6101748 40.1966292,31.326779 40.1966292,32.1919476 C40.1966292,33.1182896 39.886392,33.852372 39.2659176,34.3941948 C38.6454432,34.9360175 37.8086767,35.2069288 36.755618,35.2069288 L36.755618,35.2069288 L36.0477528,35.2069288 L36.0477528,39.3164794 L34.5205993,39.3164794 L34.5205993,29.1966292 Z M36.5524345,30.6058052 L36.0477528,30.6058052 L36.0477528,33.7911985 L36.6179775,33.7911985 C38.0205993,33.7911985 38.7219101,33.2515605 38.7219101,32.1722846 C38.7219101,31.127965 37.9987516,30.6058052 36.5524345,30.6058052 L36.5524345,30.6058052 Z M41.455,27 C42.2585743,27 42.91,27.6514257 42.91,28.455 C42.91,29.2585743 42.2585743,29.91 41.455,29.91 C40.6514257,29.91 40,29.2585743 40,28.455 C40,27.6514257 40.6514257,27 41.455,27 Z M41.455,27.21 C40.7674055,27.21 40.21,27.7674055 40.21,28.455 C40.21,29.1425945 40.7674055,29.7 41.455,29.7 C42.1425945,29.7 42.7,29.1425945 42.7,28.455 C42.7,27.7674055 42.1425945,27.21 41.455,27.21 Z M41.3497273,27.759 L41.4652118,27.763043 C41.6101335,27.7738242 41.7188248,27.806168 41.7912857,27.8600742 C41.8911858,27.9350742 41.9411359,28.0340977 41.9411359,28.1571445 C41.9411359,28.2532383 41.9098338,28.3358555 41.8472298,28.4049961 C41.8002767,28.4568516 41.7420849,28.4946995 41.6726543,28.5185398 L41.5994775,28.5377109 L42.077,29.1160313 L41.7922847,29.1160313 L41.3517253,28.5605625 L41.3097672,28.5605625 L41.3097672,29.1160313 L41.077,29.1160313 L41.077,27.759 L41.3497273,27.759 Z M41.3926843,27.9514805 L41.3097672,27.9514805 L41.3097672,28.3821445 L41.3836933,28.3821445 C41.6041395,28.3821445 41.7143626,28.3080234 41.7143626,28.1597813 C41.7143626,28.0209141 41.6071365,27.9514805 41.3926843,27.9514805 Z" id="course-cissp" fill="#FFFFFF"></path>
    </g>
</svg>