<?xml version="1.0" encoding="UTF-8"?>
<svg width="15px" height="16px" viewBox="0 0 15 16" version="1.1" xmlns="http://www.w3.org/2000/svg" xmlns:xlink="http://www.w3.org/1999/xlink">
    <title>Group 20</title>
    <g id="Page-1" stroke="none" stroke-width="1" fill="none" fill-rule="evenodd">
        <g id="Cohort-Detailed-View-Copy" transform="translate(-1051.000000, -140.000000)" fill="#7773A8" fill-rule="nonzero">
            <g id="Group-20" transform="translate(1051.046835, 140.188430)">
                <path d="M-0.111218784,6.00493292 L14.550493,7.74263038 C14.989596,7.79162368 15.3058425,8.18730392 15.2568492,8.62640694 C15.2116246,9.0317328 14.8709981,9.33237612 14.4734952,9.337696 L14.3730726,9.33276308 L-0.2886392,7.59506562 C-0.727742219,7.54607233 -1.04398864,7.15039208 -0.994995341,6.71128907 C-0.949770761,6.3059632 -0.609144285,6.00531989 -0.211641396,6 L-0.111218784,6.00493292 Z" id="Path-Copy" transform="translate(7.130927, 7.668848) rotate(-50.000000) translate(-7.130927, -7.668848) "></path>
                <path d="M-0.111218784,6.00493292 L14.550493,7.74263038 C14.989596,7.79162368 15.3058425,8.18730392 15.2568492,8.62640694 C15.2116246,9.0317328 14.8709981,9.33237612 14.4734952,9.337696 L14.3730726,9.33276308 L-0.2886392,7.59506562 C-0.727742219,7.54607233 -1.04398864,7.15039208 -0.994995341,6.71128907 C-0.949770761,6.3059632 -0.609144285,6.00531989 -0.211641396,6 L-0.111218784,6.00493292 Z" id="Path-Copy-2" transform="translate(7.130927, 7.668848) scale(-1, 1) rotate(-50.000000) translate(-7.130927, -7.668848) "></path>
            </g>
        </g>
    </g>
</svg>