<?xml version="1.0" encoding="UTF-8"?>
<svg width="37px" height="38px" viewBox="0 0 37 38" version="1.1" xmlns="http://www.w3.org/2000/svg" xmlns:xlink="http://www.w3.org/1999/xlink">
    <title>Courses-icon-03</title>
    <defs>
        <linearGradient x1="55.6082589%" y1="-41.1100618%" x2="55.6082589%" y2="100%" id="linearGradient-1">
            <stop stop-color="#E56F9F" offset="0%"></stop>
            <stop stop-color="#EA635F" offset="100%"></stop>
        </linearGradient>
    </defs>
    <g id="Page-1" stroke="none" stroke-width="1" fill="none" fill-rule="evenodd">
        <path d="M31.3536954,20.0351256 C31.6797936,19.6599925 32.248254,19.6202419 32.6233871,19.9463401 L32.6233871,19.9463401 L36.2547715,23.1030544 C36.6299046,23.4291526 36.6696552,23.997613 36.3435569,24.3727461 L36.3435569,24.3727461 L26.8721516,35.2683516 C26.7718075,35.3837843 26.6437006,35.4717399 26.4999249,35.5239149 L26.4999249,35.5239149 L21.84319,37.2138036 C21.1794582,37.4546661 20.5095224,36.8722998 20.6556672,36.1815058 L20.6556672,36.1815058 L21.6810179,31.3349028 C21.7126753,31.1852651 21.7819459,31.0461639 21.88229,30.9307312 L21.88229,30.9307312 Z M22.4915588,-2.27373675e-13 C22.6717879,-2.27373675e-13 22.8467738,0.0540747663 22.9945587,0.15367836 L23.0999541,0.236784181 L29.5802289,6.18140778 C29.7350781,6.32345734 29.8343486,6.5142124 29.8631374,6.71977808 L29.8718336,6.8446236 L29.8718336,14.9355425 C29.8718336,15.4325988 29.4688899,15.8355425 28.9718336,15.8355425 C28.5130125,15.8355425 28.1343819,15.4922059 28.0788459,15.0484366 L28.0718336,14.9355425 L28.071,7.239 L22.141,1.8 L1.9,1.8 C1.85857864,1.8 1.82303932,1.82518398 1.8078585,1.86107549 L1.8,1.9 L1.8,33.5862004 C1.8,33.6276217 1.82518398,33.6631611 1.86107549,33.6783419 L1.9,33.6862004 L13.9333513,33.6862004 C14.4304076,33.6862004 14.8333513,34.0891441 14.8333513,34.5862004 C14.8333513,35.0450216 14.4900147,35.4236522 14.0462454,35.4791881 L13.9333513,35.4862004 L1.9,35.4862004 C0.900627596,35.4862004 0.0814656667,34.7146276 0.00571639548,33.7346843 L-2.84217094e-14,33.5862004 L-2.84217094e-14,1.9 C-2.84217094e-14,0.900627596 0.771572767,0.0814656667 1.75151612,0.00571639548 L1.9,-2.27373675e-13 L22.4915588,-2.27373675e-13 Z M32.1215429,21.8942578 L23.393657,31.934542 L22.7517463,34.9687105 L25.6660522,33.9108419 L34.3949356,23.870488 L32.1215429,21.8942578 Z M13.6775912,17.9149774 C14.0074738,18.2292713 14.046548,18.7341533 13.7866754,19.0933108 L13.708383,19.1873971 L9.82569153,23.2626667 C9.51543916,23.5883073 9.01849432,23.6311393 8.65949199,23.3803468 L8.56524623,23.3046607 L6.34699251,21.2670259 C5.98093377,20.9307731 5.95677128,20.3614372 6.29302408,19.9953784 C6.60125581,19.6598246 7.10534216,19.6115586 7.46917449,19.8648447 L7.5646716,19.94141 L9.131,21.381 L12.4051715,17.9457692 C12.7480375,17.5858973 13.3177192,17.5721114 13.6775912,17.9149774 Z M21.8759741,20.5009452 C22.3730303,20.5009452 22.7759741,20.9038889 22.7759741,21.4009452 C22.7759741,21.8597664 22.4326374,22.238397 21.9888682,22.2939329 L21.8759741,22.3009452 L18.0241434,22.3009452 C17.5270872,22.3009452 17.1241434,21.8980015 17.1241434,21.4009452 C17.1241434,20.942124 17.4674801,20.5634934 17.9112493,20.5079575 L18.0241434,20.5009452 L21.8759741,20.5009452 Z M13.6775912,9.57849313 C14.0074738,9.89278702 14.046548,10.3976691 13.7866754,10.7568265 L13.708383,10.8509128 L9.82569153,14.9261824 C9.51543916,15.251823 9.01849432,15.294655 8.65949199,15.0438625 L8.56524623,14.9681764 L6.34699251,12.9305417 C5.98093377,12.5942889 5.95677128,12.0249529 6.29302408,11.6588941 C6.60125581,11.3233403 7.10534216,11.2750743 7.46917449,11.5283604 L7.5646716,11.6049257 L9.132,13.044 L12.4051715,9.60928496 C12.7480375,9.24941304 13.3177192,9.23562706 13.6775912,9.57849313 Z M21.8759741,12.1644612 C22.3730303,12.1644612 22.7759741,12.567405 22.7759741,13.0644612 C22.7759741,13.5232824 22.4326374,13.901913 21.9888682,13.957449 L21.8759741,13.9644612 L18.0241434,13.9644612 C17.5270872,13.9644612 17.1241434,13.5615175 17.1241434,13.0644612 C17.1241434,12.6056401 17.4674801,12.2270095 17.9112493,12.1714735 L18.0241434,12.1644612 L21.8759741,12.1644612 Z" id="Courses-icon-03" fill="url(#linearGradient-1)"></path>
    </g>
</svg>