<?xml version="1.0" encoding="UTF-8"?>
<svg width="44px" height="34px" viewBox="0 0 44 34" version="1.1" xmlns="http://www.w3.org/2000/svg" xmlns:xlink="http://www.w3.org/1999/xlink">
    <title>Courses-icon-10</title>
    <defs>
        <linearGradient x1="55.6082589%" y1="-41.1100618%" x2="55.6082589%" y2="100%" id="linearGradient-1">
            <stop stop-color="#E56F9F" offset="0%"></stop>
            <stop stop-color="#EA635F" offset="100%"></stop>
        </linearGradient>
    </defs>
    <g id="Page-1" stroke="none" stroke-width="1" fill="none" fill-rule="evenodd">
        <path d="M32.0971326,0 C32.3358275,0 32.564746,0.0948211563 32.7335287,0.263603897 L32.7335287,0.263603897 L42.7442814,10.2743566 C42.9130641,10.4431393 43.0078853,10.6720578 43.0078853,10.9107527 L43.0078853,10.9107527 L43.0078853,26.0917563 C43.0078853,27.4172397 41.9333687,28.4917563 40.6078853,28.4917563 L40.6078853,28.4917563 L38.496,28.491 L38.502509,28.5917563 L38.502509,31.5971326 C38.502509,32.8673875 37.5156699,33.9071539 36.2668277,33.9915957 L36.102509,33.9971326 L2.4,33.9971326 C1.12974508,33.9971326 0.0899787563,33.0102936 0.00553686671,31.7614513 L0,31.5971326 L0,7.90537634 C0,6.63512142 0.986839031,5.5953551 2.23568127,5.51091321 L2.4,5.50537634 L5.40537634,5.50537634 L5.505,5.511 L5.50537634,2.4 C5.50537634,1.12974508 6.49221537,0.0899787563 7.74105761,0.00553686671 L7.90537634,0 Z M5.505,7.299 L5.40537634,7.30537634 L2.4,7.30537634 C2.10176624,7.30537634 1.85435325,7.52296596 1.80785299,7.80805323 L1.8,7.90537634 L1.8,31.5971326 C1.8,31.8953664 2.01758961,32.1427794 2.30267688,32.1892796 L2.4,32.1971326 L36.102509,32.1971326 C36.4007427,32.1971326 36.6481557,31.979543 36.694656,31.6944557 L36.702509,31.5971326 L36.702509,28.5917563 L36.708,28.491 L7.90537634,28.4917563 C6.63512142,28.4917563 5.5953551,27.5049172 5.51091321,26.256075 L5.50537634,26.0917563 L5.505,7.299 Z M31.723,1.799 L7.90537634,1.8 C7.57400549,1.8 7.30537634,2.06862915 7.30537634,2.4 L7.30537634,2.4 L7.30537634,26.0917563 C7.30537634,26.4231271 7.57400549,26.6917563 7.90537634,26.6917563 L7.90537634,26.6917563 L40.6078853,26.6917563 C40.9392562,26.6917563 41.2078853,26.4231271 41.2078853,26.0917563 L41.2078853,26.0917563 L41.207,11.283 L31.723,1.799 Z M21.0111111,8.66720116 C21.2326071,8.66720116 21.4496452,8.72944687 21.6374735,8.84683953 L21.6374735,8.84683953 L29.4059112,13.8271131 C29.9593999,14.1730435 30.1276591,14.9021667 29.7817287,15.4556553 C29.6866151,15.607837 29.5580929,15.7363592 29.4059112,15.8314727 L29.4059112,15.8314727 L21.6374735,20.8117463 C21.0839849,21.1576767 20.3548617,20.9894175 20.0089313,20.4359289 C19.8915386,20.2481006 19.8292929,20.0310625 19.8292929,19.8095665 L19.8292929,19.8095665 L19.8292929,9.84901934 C19.8292929,9.19631919 20.358411,8.66720116 21.0111111,8.66720116 Z M21.4647475,10.6674747 L21.4647475,18.990202 L27.9220202,14.8292929 L21.4647475,10.6674747 Z" id="Courses-icon-10" fill="url(#linearGradient-1)"></path>
    </g>
</svg>