<?xml version="1.0" encoding="UTF-8"?>
<svg width="35px" height="38px" viewBox="0 0 35 38" version="1.1" xmlns="http://www.w3.org/2000/svg" xmlns:xlink="http://www.w3.org/1999/xlink">
    <title>Courses-icon-05</title>
    <defs>
        <linearGradient x1="55.6082589%" y1="-41.1100618%" x2="55.6082589%" y2="100%" id="linearGradient-1">
            <stop stop-color="#dc78f4" offset="0%"></stop>
            <stop stop-color="#ee4baf" offset="100%"></stop>
        </linearGradient>
    </defs>
    <g id="Page-1" stroke="none" stroke-width="1" fill="none" fill-rule="evenodd">
        <path d="M33.7474368,9.30838919 C35.8401439,14.8525574 34.204384,20.7217772 29.8435847,25.6050547 C29.0517989,26.4931486 28.68284,28.2256582 28.6371645,30.5048379 L28.6322889,31.0014924 L28.6322889,34.8454176 C28.6322889,36.0229594 27.744573,36.9987295 26.5994001,37.116101 L26.3671195,37.1279355 L12.6977646,37.1279355 C11.5015761,37.1279355 10.5195802,36.1912003 10.437676,34.9942702 L10.3917445,34.4084893 L10.333283,33.7652448 C10.1604142,33.0124052 9.62665333,32.6348502 8.42648612,32.7723713 L8.158996,32.8097749 C5.21057764,33.289167 3.02062764,32.2305991 2.82079193,29.8059221 L2.80542651,29.4962444 C2.79091756,29.0740431 2.7787522,28.3176388 2.76689838,27.2573438 L2.75169651,25.680105 L1.77790947,25.4570147 C0.0171607442,25.0490684 -0.596461639,22.8524509 0.673966839,21.5715886 C1.6916962,20.5476123 2.37941163,19.7100854 2.79857598,19.0471823 L2.99330986,18.7187364 C3.0940985,18.5333138 3.14156289,18.4100236 3.16416476,18.3191627 C3.23187795,18.0443926 3.23338066,17.7278122 3.16514554,17.1462524 L3.00063206,15.9307722 C2.9334212,15.3957292 2.91180155,15.0421411 2.93154468,14.6614033 L2.94484357,14.4678062 L2.99801851,13.9529718 C3.53823709,9.50805015 6.14490155,5.35275529 9.92645009,2.78859108 C11.9926186,1.3896502 14.4132464,0.494579273 16.9585637,0.159023144 C24.288687,-0.811203096 31.2561377,2.70984786 33.7474368,9.30838919 Z M17.2651123,2.16205682 C15.0261138,2.45723027 12.9067865,3.24088988 11.1120007,4.45608528 C7.83140398,6.6805681 5.56045136,10.2865 5.077366,14.1034176 L5.02455796,14.6023767 L5.01643829,14.7345747 C5.00889818,14.9314204 5.02095016,15.1472994 5.05731052,15.4633912 L5.25138088,16.9195549 C5.35122268,17.783075 5.34160662,18.3163979 5.18570719,18.9490048 C4.94652743,19.9106051 4.15549729,21.1959234 2.32979698,23.0879149 L2.12,23.2999439 L2.87483596,23.4668474 C3.53456023,23.6165077 3.91102809,23.7176727 4.12815834,23.8196204 L4.2042701,23.8590867 L4.8232539,24.2167218 L4.85808871,28.1359547 C4.86978203,29.0265171 4.8824661,29.6622717 4.89377915,29.8874915 L4.89749615,29.9471462 C4.95522099,30.647541 5.63171433,31.0165719 7.17428144,30.822867 L7.49441579,30.7765543 C10.1879531,30.3366399 12.0695593,31.5161316 12.5846013,33.7878728 L12.6555723,34.4414526 L12.7179495,35.1814129 L26.4373471,35.1814129 L26.438483,31.3816004 C26.438483,28.3823183 26.8448925,26.0550235 28.0761273,24.4642362 L28.3167519,24.1746103 C32.2259042,19.7970924 33.6439795,14.7089396 31.8556545,9.97116486 C29.733552,4.35049048 23.7140087,1.30847129 17.2651123,2.16205682 Z M19.7558905,5.1116468 C20.6078544,5.1116468 21.121932,5.5432044 21.2468272,5.68036612 C21.2735905,5.70935965 21.3148505,5.71939587 21.3494197,5.70378397 C21.7921287,5.51978654 22.3463512,5.48967787 22.7723331,5.73389264 C22.8648894,5.78741916 23.213927,5.94019278 23.3856579,6.49553046 C23.4035001,6.5524024 23.4670628,6.57916566 23.5194742,6.55463267 C24.8966671,5.90227816 26.922869,6.89586426 27.0522248,8.46486048 L27.0522248,8.46486048 L27.0923697,8.90868457 C27.0957151,8.9499446 27.1224783,8.98228354 27.160393,8.99455004 C28.0982223,9.27444915 28.4952106,10.5300922 28.0380049,11.2872695 C27.8796556,11.5482113 29.0137488,12.3053885 29.1364138,14.0115465 C29.2903025,16.1291896 28.161785,16.772623 27.8495469,16.9086696 C27.8071718,16.9265118 27.7848691,16.9744626 27.7971356,17.0201832 C27.8573529,17.2420952 27.973327,17.8810681 27.538424,18.5657615 C26.9262144,19.5314692 25.7910061,19.2114252 25.437508,19.0820695 C25.3817512,19.0608819 25.3248792,19.0987965 25.3137279,19.1567836 C25.0304834,20.8272572 21.3505349,20.5194797 21.334923,20.596424 L21.334923,20.596424 L20.9557768,22.4230166 C20.9468557,22.4676221 20.908941,22.4988459 20.8654507,22.4988459 L20.8654507,22.4988459 L20.0803951,22.4988459 C20.039135,22.4988459 20.0023356,22.4709675 19.9911842,22.4297075 C19.8640587,21.9646958 19.1169176,19.2883696 18.5861129,18.8021704 C18.0820715,18.3405041 17.4497895,18.2122635 16.8119317,18.0661807 C16.1863405,17.9234433 15.5607492,17.7059918 15.0979678,17.2354044 C14.4957944,16.6209645 13.5713468,15.4132723 12.0458408,15.0753861 C10.4177424,14.7163124 10.5136441,13.7907496 10.6073155,13.4550937 C10.6240426,13.3959915 10.5816674,13.3391195 10.5214501,13.334659 C10.3385678,13.3246228 9.99399077,13.2487935 9.69178894,12.8573808 C9.38178116,12.4592773 9.1565237,11.4824182 9.71966734,10.3438645 C10.1311525,9.51866391 10.7913129,9.12948148 11.0277218,9.01239221 C11.0712121,8.99008949 11.0912845,8.93879324 11.0723272,8.89307267 C11.0143401,8.74475959 10.9630439,8.39572205 11.4804669,7.95412823 C11.7715174,7.70433779 12.2454502,7.66084749 12.416066,7.65415667 C12.4550957,7.65304154 12.4874347,7.62962368 12.5008163,7.5928242 C12.5632639,7.41663273 12.8097089,6.89140371 13.6014554,6.52786941 C14.3497116,6.18440755 15.2407052,6.35725361 15.4983016,6.41970122 C15.5395616,6.42973745 15.5830519,6.41078014 15.6042395,6.37175038 C15.7012564,6.18886809 16.0090339,5.68594179 16.5509899,5.49525355 C17.2702526,5.24434797 17.987285,5.5710828 18.1835489,5.67256016 C18.217003,5.6892872 18.2549176,5.68482666 18.282796,5.66363908 C18.438915,5.54097413 18.8827391,5.1116468 19.7558905,5.1116468 Z" id="Courses-icon-05" fill="url(#linearGradient-1)"></path>
    </g>
</svg>
