<?xml version="1.0" encoding="UTF-8"?>
<svg width="35px" height="39px" viewBox="0 0 35 39" version="1.1" xmlns="http://www.w3.org/2000/svg" xmlns:xlink="http://www.w3.org/1999/xlink">
    <title>Courses-icon-07</title>
    <defs>
        <linearGradient x1="55.6082589%" y1="-41.1100618%" x2="55.6082589%" y2="100%" id="linearGradient-1">
            <stop stop-color="#E56F9F" offset="0%"></stop>
            <stop stop-color="#EA635F" offset="100%"></stop>
        </linearGradient>
    </defs>
    <g id="Page-1" stroke="none" stroke-width="1" fill="none" fill-rule="evenodd">
        <path d="M15.9416667,-2.63753464e-11 C23.9619546,-2.63753464e-11 31.0038079,5.413385 31.1877312,13.1088068 L31.1914167,13.4178333 L31.190977,13.4970103 C31.1950683,13.5792695 31.2309498,13.6776167 31.4638837,14.109296 L31.5324209,14.2355295 L33.1059954,17.0653704 C33.2581937,17.3475211 33.3948827,17.6103516 33.5225232,17.8674138 C34.2306494,19.2935482 34.6097298,20.4431145 34.595713,21.4476137 L34.5866693,21.660691 L34.5843096,21.6980631 L34.5768423,22.0491566 C34.5615395,22.5003202 34.4977037,22.7675888 34.2618147,23.1040414 C33.89897,23.6256306 33.2885879,23.9468843 32.648833,23.9754364 C32.515336,23.9808176 32.3736515,23.9848403 32.2245595,23.9876047 L31.9954635,23.9908202 L31.7780498,23.9921783 L31.1405417,23.9878583 L31.1255536,24.6232664 C31.0989051,25.4491023 31.0449283,26.2632499 30.9568307,27.0297509 C30.7321264,28.9848094 30.3348922,30.3799789 29.5903495,31.1236923 C28.4906239,32.2249868 27.1312144,32.6242102 24.4259571,32.698761 L24.0947966,32.7061728 L23.9665417,32.7078583 L23.9666667,37.3166667 C23.9666667,37.7372527 23.6781685,38.0904565 23.2882702,38.1891798 L23.1795608,38.2096544 L23.0666667,38.2166667 L7.23333333,38.2166667 C6.77451216,38.2166667 6.39588155,37.87333 6.34034561,37.4295608 L6.33333333,37.3166667 L6.33254167,28.6978583 L6.1550437,28.5837764 C2.13368041,25.9356011 0.191439633,21.9001602 0.0135002598,16.8198821 L0.00328719291,16.4270364 L3.29691829e-12,16.0398333 C3.29691829e-12,7.03968306 6.97575568,-2.63753464e-11 15.9416667,-2.63753464e-11 Z M15.9416667,1.8 C7.97356251,1.8 1.8,8.03013842 1.8,16.0398333 C1.8,21.1548854 3.6321249,25.0148061 7.69238888,27.4225426 C7.93156682,27.5643752 8.08978146,27.8073788 8.12559797,28.0788104 L8.13333333,28.1966667 L8.13254167,36.4158583 L22.1665417,36.4158583 L22.1666667,31.8114167 C22.1666667,31.3866807 22.4608,31.0309559 22.8560669,30.9361834 L22.9662294,30.9169505 L23.0716166,30.9114303 C26.2537969,30.9289323 27.4985897,30.6710354 28.3174581,29.8509999 C28.6708683,29.4979828 28.990202,28.3764162 29.1686031,26.8242213 C29.2505078,26.1116025 29.3013226,25.3451485 29.32649,24.5652133 C29.3322389,24.3870547 29.3364451,24.2158445 29.3393306,24.0530211 L29.3426962,23.8152559 L29.3425731,23.1882291 L29.3450545,22.9776563 C29.3872106,22.5468778 29.7336531,22.2055263 30.1650085,22.1697517 L30.2744895,22.1672993 L31.1320015,22.1881427 C31.4203156,22.192339 31.7061486,22.193568 31.977831,22.1909065 L32.085034,22.1896361 L32.085034,22.1896361 L32.1892777,22.187952 L32.5724447,22.1770622 C32.6602717,22.1731413 32.7492875,22.1262909 32.7816453,22.0777927 L32.7801429,22.076994 L32.7790517,22.0738426 L32.7839069,21.6692382 L32.7915485,21.5283021 C32.8375294,20.8861699 32.5359274,19.9278594 31.9103262,18.6679267 C31.7126336,18.2697826 31.4879681,17.8499932 31.208379,17.3505732 C31.1365444,17.2258242 30.6823457,16.4269849 30.3477214,15.8283057 L30.282541,15.7115001 L30.0270954,15.2455941 C29.599087,14.4330556 29.3914167,13.9028269 29.3914167,13.4178333 C29.3914167,6.66417488 23.1588119,1.8 15.9416667,1.8 Z M16.7665833,9.499525 C19.8861401,9.499525 22.4165833,12.0293857 22.4165833,15.149525 C22.4165833,17.2041797 21.319281,19.0028657 19.6790388,19.9917196 L19.6782487,23.5035586 C19.6782487,23.9623798 19.3349121,24.3410104 18.8911428,24.3965464 L18.7782487,24.4035586 L14.7173147,24.4035586 C14.2584935,24.4035586 13.8798629,24.060222 13.824327,23.6164527 L13.8173147,23.5035586 L13.8176723,19.969966 C12.1973983,18.9767144 11.1165833,17.1894488 11.1165833,15.149525 C11.1165833,12.0288854 13.6459437,9.499525 16.7665833,9.499525 Z M23.0486709,20.1593957 L23.1407786,20.2400065 L24.3983411,21.4993503 C24.7495642,21.8510708 24.7491609,22.4209191 24.3974403,22.7721422 C24.0750299,23.0940966 23.5693314,23.1205873 23.2167562,22.8518522 L23.1246485,22.7712414 L21.867086,21.5118976 C21.5158629,21.1601771 21.5162662,20.5903288 21.8679867,20.2391058 C22.1903972,19.9171513 22.6960956,19.8906606 23.0486709,20.1593957 Z M11.803919,20.239556 C12.1261016,20.5617385 12.1529501,21.0674181 11.8844647,21.4201835 L11.803919,21.5123482 L10.5445753,22.7716919 C10.1931034,23.1231638 9.62325493,23.1231638 9.27178306,22.7716919 C8.94960052,22.4495094 8.92275198,21.9438298 9.19123743,21.5910645 L9.27178306,21.4988997 L10.5311268,20.239556 C10.8825987,19.8880841 11.4524472,19.8880841 11.803919,20.239556 Z M15.6167081,20.6824561 L15.6166064,22.603067 L17.8778737,22.603067 L17.8790825,20.6899695 C17.519381,20.7618306 17.147371,20.799525 16.7665833,20.799525 C16.372565,20.799525 15.9879728,20.7592017 15.6167081,20.6824561 Z M16.7665833,11.299525 C14.6400563,11.299525 12.9165833,13.0229979 12.9165833,15.149525 C12.9165833,17.2760521 14.6400563,18.999525 16.7665833,18.999525 C18.8921203,18.999525 20.6165833,17.2754589 20.6165833,15.149525 C20.6165833,13.0235911 18.8921203,11.299525 16.7665833,11.299525 Z M26.6212917,14.3347333 C27.1183479,14.3347333 27.5212917,14.7376771 27.5212917,15.2347333 C27.5212917,15.6935545 27.177955,16.0721851 26.7341858,16.1277211 L26.6212917,16.1347333 L24.8400417,16.1347333 C24.3429854,16.1347333 23.9400417,15.7317896 23.9400417,15.2347333 C23.9400417,14.7759122 24.2833783,14.3972816 24.7271476,14.3417456 L24.8400417,14.3347333 L26.6212917,14.3347333 Z M8.80879167,14.3347333 C9.30584794,14.3347333 9.70879167,14.7376771 9.70879167,15.2347333 C9.70879167,15.6935545 9.365455,16.0721851 8.92168575,16.1277211 L8.80879167,16.1347333 L7.02754167,16.1347333 C6.53048539,16.1347333 6.12754167,15.7317896 6.12754167,15.2347333 C6.12754167,14.7759122 6.47087833,14.3972816 6.91464758,14.3417456 L7.02754167,14.3347333 L8.80879167,14.3347333 Z M24.3974403,7.64335263 C24.7198508,7.96530708 24.7470572,8.47096751 24.4788215,8.82392281 L24.3983411,8.91614452 L23.1407786,10.1754883 C22.7895556,10.5272088 22.2197073,10.5276121 21.8679867,10.176389 C21.5455763,9.85443459 21.5183698,9.34877416 21.7866056,8.99581886 L21.867086,8.90359715 L23.1246485,7.6442534 C23.4758715,7.29253288 24.0457198,7.2921296 24.3974403,7.64335263 Z M10.4524105,7.56325722 L10.5445753,7.64380286 L11.803919,8.90314661 C12.1553909,9.25461847 12.1553909,9.82446695 11.803919,10.1759388 C11.4817365,10.4981214 10.9760569,10.5249699 10.6232915,10.2564844 L10.5311268,10.1759388 L9.27178306,8.91659506 C8.9203112,8.5651232 8.9203112,7.99527472 9.27178306,7.64380286 C9.5939656,7.32162031 10.0996452,7.29477177 10.4524105,7.56325722 Z M16.8244167,4.53785833 C17.2832378,4.53785833 17.6618684,4.881195 17.7174044,5.32496425 L17.7244167,5.43785833 L17.7244167,7.21910833 C17.7244167,7.71616461 17.3214729,8.11910833 16.8244167,8.11910833 C16.3655955,8.11910833 15.9869649,7.77577167 15.9314289,7.33200242 L15.9244167,7.21910833 L15.9244167,5.43785833 C15.9244167,4.94080206 16.3273604,4.53785833 16.8244167,4.53785833 Z" id="Courses-icon-07" fill="url(#linearGradient-1)"></path>
    </g>
</svg>