<?xml version="1.0" encoding="UTF-8"?>
<svg width="38px" height="34px" viewBox="0 0 38 34" version="1.1" xmlns="http://www.w3.org/2000/svg" xmlns:xlink="http://www.w3.org/1999/xlink">
    <title>Courses-icon-04</title>
    <defs>
        <linearGradient x1="55.6082589%" y1="-41.1100618%" x2="55.6082589%" y2="100%" id="linearGradient-1">
            <stop stop-color="#dc78f4" offset="0%"></stop>
            <stop stop-color="#ee4baf" offset="100%"></stop>
        </linearGradient>
    </defs>
    <g id="Page-1" stroke="none" stroke-width="1" fill="none" fill-rule="evenodd">
        <path d="M36.3962444,1.0658141e-13 C36.8582101,1.0658141e-13 37.2327074,0.374497258 37.2327074,0.836463038 L37.2327074,0.836463038 L37.2327074,27.506299 C37.2327074,27.9682648 36.8582101,28.3427621 36.3962444,28.3427621 C27.2867992,28.3427621 19.4528167,30.800463 19.4528167,33.163537 L19.4528167,33.163537 L19.4465676,33.278764 C19.3354558,34.2773985 17.7798907,34.2389894 17.7798907,33.163537 L17.7798907,33.163537 L17.7752462,33.0636472 C17.5589322,30.7318996 9.81654587,28.3427621 0.836463038,28.3427621 C0.374497258,28.3427621 -2.09610107e-13,27.9682648 -2.09610107e-13,27.506299 L-2.09610107e-13,27.506299 L-2.09610107e-13,0.836463038 C-2.09610107e-13,0.374497258 0.374497258,1.0658141e-13 0.836463038,1.0658141e-13 C8.98634682,1.0658141e-13 16.1493631,1.76162472 18.575677,4.45609423 L18.575677,4.45609423 L18.6163537,4.50243404 L18.6569393,4.45603433 C21.0451166,1.80362135 28.022846,0.0552752683 36.0149171,0.00128701489 L36.0149171,0.00128701489 Z M1.67240076,1.67890658 L1.67240076,26.6752104 L2.40875329,26.6918413 C9.15238345,26.8813837 15.0232877,28.2826425 17.7805222,30.4003295 L17.7798907,6.49370097 L17.7751068,6.39231967 C17.5650386,4.16097794 10.4644659,1.87756117 1.98373015,1.68589813 L1.98373015,1.68589813 L1.67240076,1.67890658 Z M35.5593772,1.67890658 L34.8642966,1.69604155 C34.258126,1.71432623 33.6595171,1.74323643 33.0705116,1.78197763 L33.0705966,12.7166627 C33.0705966,13.4279985 32.2496538,13.8003776 31.7167194,13.3744574 L31.6426649,13.3081314 L29.001507,10.6671666 L26.3601875,13.3081314 C25.8571971,13.8111218 25.0133911,13.4939393 24.9377207,12.8159267 L24.9322558,12.7166627 L24.9317104,3.07664026 C21.5908006,3.99889246 19.4528167,5.25920912 19.4528167,6.49370097 L19.4528167,6.49370097 L19.4519896,30.4002872 C22.2678448,28.2373555 28.3316765,26.8218679 35.2569487,26.6813622 L35.2569487,26.6813622 L35.5593772,26.6752104 L35.5593772,1.67890658 Z M32.7590417,22.6775712 C32.7902629,23.1384807 32.4419317,23.5374315 31.9810221,23.5686527 C27.8914946,23.8456701 26.0016753,24.2933272 23.4466235,25.2718915 C23.0152155,25.4371173 22.5315483,25.2213339 22.3663225,24.789926 C22.2010968,24.358518 22.4168801,23.8748508 22.848288,23.7096251 C25.5751941,22.665242 27.6240906,22.1870238 31.8679601,21.8995516 C32.3288697,21.8683304 32.7278205,22.2166616 32.7590417,22.6775712 Z M5.05510479,20.4757492 C9.29992738,20.763286 11.2206689,21.322974 13.9453958,22.3671706 C14.3767695,22.5324859 14.5924525,23.0161978 14.4271372,23.4475715 C14.261822,23.8789452 13.77811,24.0946281 13.3467363,23.9293129 C10.7940418,22.9510442 9.03244651,22.4219271 4.94204283,22.1448504 C4.48113327,22.1136292 4.13280203,21.7146784 4.16402323,21.2537688 C4.1928428,20.8283139 4.5349941,20.4987836 4.94998008,20.4751604 L5.05510479,20.4757492 Z M32.7590417,18.0305543 C32.7902629,18.4914638 32.4419317,18.8904146 31.9810221,18.9216358 C27.8914946,19.1986532 26.0016753,19.6463104 23.4466235,20.6248746 C23.0152155,20.7901004 22.5315483,20.5743171 22.3663225,20.1429091 C22.2010968,19.7115012 22.4168801,19.227834 22.848288,19.0626082 C25.5751941,18.0182252 27.6240906,17.5400069 31.8679601,17.2525347 C32.3288697,17.2213135 32.7278205,17.5696447 32.7590417,18.0305543 Z M5.05510479,15.8287324 C9.29992738,16.1162691 11.2206689,16.6759571 13.9453958,17.7201537 C14.3767695,17.885469 14.5924525,18.3691809 14.4271372,18.8005546 C14.261822,19.2319283 13.77811,19.4476113 13.3467363,19.282296 C10.7940418,18.3040274 9.03244651,17.7749102 4.94204283,17.4978335 C4.48113327,17.4666123 4.13280203,17.0676615 4.16402323,16.606752 C4.1928428,16.181297 4.5349941,15.8517667 4.94998008,15.8281436 L5.05510479,15.8287324 Z M5.05510479,11.1817155 C9.29992738,11.4692523 11.2206689,12.0289403 13.9453958,13.0731369 C14.3767695,13.2384521 14.5924525,13.7221641 14.4271372,14.1535377 C14.261822,14.5849114 13.77811,14.8005944 13.3467363,14.6352791 C10.7940418,13.6570105 9.03244651,13.1278933 4.94204283,12.8508166 C4.48113327,12.8195954 4.13280203,12.4206446 4.16402323,11.9597351 C4.1928428,11.5342801 4.5349941,11.2047499 4.94998008,11.1811267 L5.05510479,11.1817155 Z M31.3975308,1.92053082 C29.6748835,2.0930256 28.0584193,2.34872854 26.6049045,2.66554835 L26.6045757,10.6969075 L28.4099575,8.89248663 C28.709395,8.59304909 29.1793753,8.56809596 29.5072367,8.81762724 L29.5928949,8.89248663 L31.3975089,10.6969075 Z M4.94998008,6.81293083 L5.05510479,6.81351962 C9.29992738,7.1010564 11.2206689,7.66074441 13.9453958,8.704941 C14.3767695,8.87025625 14.5924525,9.3539682 14.4271372,9.78534188 C14.261822,10.2167156 13.77811,10.4323985 13.3467363,10.2670833 C10.7940418,9.28881462 9.03244651,8.75969748 4.94204283,8.48262077 C4.48113327,8.45139957 4.13280203,8.05244877 4.16402323,7.59153922 C4.1928428,7.16608424 4.5349941,6.83655399 4.94998008,6.81293083 Z" id="Courses-icon-04" fill="url(#linearGradient-1)"></path>
    </g>
</svg>
