<?xml version="1.0" encoding="UTF-8"?>
<svg width="37px" height="37px" viewBox="0 0 37 37" version="1.1" xmlns="http://www.w3.org/2000/svg" xmlns:xlink="http://www.w3.org/1999/xlink">
    <title>Courses-icon-12</title>
    <defs>
        <linearGradient x1="55.6082589%" y1="-41.1100618%" x2="55.6082589%" y2="100%" id="linearGradient-1">
            <stop stop-color="#dc78f4" offset="0%"></stop>
            <stop stop-color="#ee4baf" offset="100%"></stop>
        </linearGradient>
    </defs>
    <g id="Page-1" stroke="none" stroke-width="1" fill="none" fill-rule="evenodd">
        <path d="M26.9818182,17.1636364 C32.4047273,17.1636364 36.8,21.5605455 36.8,26.9818182 C36.8,32.4030909 32.4047273,36.8 26.9818182,36.8 C21.5589091,36.8 17.1636364,32.4030909 17.1636364,26.9818182 C17.1636364,21.5605455 21.5589091,17.1636364 26.9818182,17.1636364 Z M26.9818182,18.7636364 C22.443171,18.7636364 18.7636364,22.4435947 18.7636364,26.9818182 C18.7636364,31.5200417 22.443171,35.2 26.9818182,35.2 C31.5204653,35.2 35.2,31.5200417 35.2,26.9818182 C35.2,22.4435947 31.5204653,18.7636364 26.9818182,18.7636364 Z M21.5671538,-2.27373675e-13 C21.7273574,-2.27373675e-13 21.8829005,0.0480664589 22.0142649,0.136602987 L22.1079496,0.210474827 L28.3407958,5.92812189 C28.4784395,6.05438816 28.56668,6.22394822 28.59227,6.40667326 L28.6,6.51764706 L28.6,12.9860522 C28.6,13.42788 28.2418278,13.7860522 27.8,13.7860522 C27.392159,13.7860522 27.0555984,13.4808641 27.0062331,13.0864025 L27,12.9860522 L27,6.869 L21.256,1.6 L1.8,1.6 C1.70795254,1.6 1.63042863,1.66218267 1.60714419,1.74683208 L1.6,1.8 L1.6,32.2 C1.6,32.2920475 1.66218267,32.3695714 1.74683208,32.3928558 L1.8,32.4 L13.3357143,32.4 C13.7775421,32.4 14.1357143,32.7581722 14.1357143,33.2 C14.1357143,33.607841 13.8305261,33.9444016 13.4360646,33.9937669 L13.3357143,34 L1.8,34 C0.855593078,34 0.0810593078,33.2726866 0.00596694808,32.347628 L0,32.2 L0,1.8 C0,0.855593078 0.727313424,0.0810593078 1.65237201,0.00596694808 L1.8,-2.27373675e-13 L21.5671538,-2.27373675e-13 Z M26.9818182,22.811812 C27.3896592,22.811812 27.7262198,23.1170001 27.775585,23.5114617 L27.7818182,23.611812 L27.781,27.386 L31.0727273,27.3862829 C31.4805683,27.3862829 31.8171289,27.6914711 31.8664941,28.0859326 L31.8727273,28.1862829 C31.8727273,28.594124 31.5675391,28.9306845 31.1730776,28.9800498 L31.0727273,28.9862829 L26.9818182,28.9862829 C26.5739771,28.9862829 26.2374166,28.6810948 26.1880513,28.2866332 L26.1818182,28.1862829 L26.1818182,23.611812 C26.1818182,23.1699842 26.5399904,22.811812 26.9818182,22.811812 Z M13.044444,17.2128358 C13.3352496,17.4898993 13.3718139,17.9335858 13.1470805,18.2523015 L13.0718145,18.3438755 L9.33737125,22.2635439 C9.06387054,22.55061 8.62715259,22.5904286 8.3086863,22.373622 L8.21697543,22.3008719 L6.08341867,20.3410377 C5.75803313,20.0421464 5.73655536,19.5360699 6.03544673,19.2106844 C6.30716616,18.9148794 6.75011291,18.8702378 7.07287005,19.0891273 L7.16580008,19.1627125 L8.72,20.59 L11.9134043,17.2402063 C12.2181741,16.9203202 12.7245578,16.908066 13.044444,17.2128358 Z M13.044444,9.19465363 C13.3352496,9.47171712 13.3718139,9.91540366 13.1470805,10.2341194 L13.0718145,10.3256934 L9.33737125,14.2453617 C9.06387054,14.5324278 8.62715259,14.5722464 8.3086863,14.3554399 L8.21697543,14.2826898 L6.08341867,12.3228556 C5.75803313,12.0239642 5.73655536,11.5178878 6.03544673,11.1925022 C6.30716616,10.8966972 6.75011291,10.8520556 7.07287005,11.0709451 L7.16580008,11.1445303 L8.72,12.572 L11.9134043,9.22202415 C12.2181741,8.90213799 12.7245578,8.88988379 13.044444,9.19465363 Z M20.9750732,11.7 C21.416901,11.7 21.7750732,12.0581722 21.7750732,12.5 C21.7750732,12.907841 21.4698851,13.2444016 21.0754235,13.2937669 L20.9750732,13.3 L17.2703125,13.3 C16.8284847,13.3 16.4703125,12.9418278 16.4703125,12.5 C16.4703125,12.092159 16.7755006,11.7555984 17.1699622,11.7062331 L17.2703125,11.7 L20.9750732,11.7 Z" id="Courses-icon-12" fill="url(#linearGradient-1)"></path>
    </g>
</svg>
