<?xml version="1.0" encoding="UTF-8"?>
<svg width="45px" height="37px" viewBox="0 0 45 37" version="1.1" xmlns="http://www.w3.org/2000/svg" xmlns:xlink="http://www.w3.org/1999/xlink">
    <title>Courses-icon-09</title>
    <defs>
        <linearGradient x1="55.6082589%" y1="-41.1100618%" x2="55.6082589%" y2="100%" id="linearGradient-1">
            <stop stop-color="#dc78f4" offset="0%"></stop>
            <stop stop-color="#ee4baf" offset="100%"></stop>
        </linearGradient>
    </defs>
    <g id="Page-1" stroke="none" stroke-width="1" fill="none" fill-rule="evenodd">
        <path d="M38.2435843,5.15939303 L38.3540069,5.18391033 L41.3244221,6.03974284 C43.3027247,6.60972901 44.4857608,8.61224073 44.0586035,10.6025956 L44.0104902,10.8015371 L37.9348997,33.3598113 C37.409167,35.3118228 35.4005584,36.4680502 33.4485468,35.9423175 C33.3597451,35.9184007 33.2718763,35.8911456 33.1851274,35.8606104 C32.7162691,35.6955744 32.4699725,35.1817016 32.6350085,34.7128433 C32.8000445,34.2439851 33.3139173,33.9976885 33.7827756,34.1627245 L33.9166578,34.2042519 C34.859157,34.458094 35.8276168,33.9404325 36.151199,33.0374263 L36.196834,32.8917003 L42.2724246,10.3334261 C42.5567905,9.27759407 41.9833833,8.19016551 40.9733026,7.81765488 L40.8260802,7.76938308 L37.855665,6.91355057 C37.378038,6.77593726 37.1024025,6.27718647 37.2400158,5.79955951 C37.3670435,5.35867308 37.8017859,5.0898977 38.2435843,5.15939303 Z M5.90201197,5.15939303 C6.34381032,5.0898977 6.77855277,5.35867308 6.90558044,5.79955951 C7.04319375,6.27718647 6.76755822,6.77593726 6.28993126,6.91355057 L6.28993126,6.91355057 L3.319516,7.76938308 L3.17229366,7.81765488 C2.1622129,8.19016551 1.58880576,9.27759407 1.87317164,10.3334261 L1.87317164,10.3334261 L7.9487622,32.8917003 L7.99439723,33.0374263 C8.31797943,33.9404325 9.28643929,34.458094 10.2289385,34.2042519 L10.2289385,34.2042519 L10.3628207,34.1627245 C10.8316789,33.9976885 11.3455517,34.2439851 11.5105877,34.7128433 C11.6756237,35.1817016 11.4293271,35.6955744 10.9604688,35.8606104 C10.87372,35.8911456 10.7858511,35.9184007 10.6970494,35.9423175 C8.74503787,36.4680502 6.73642929,35.3118228 6.21069657,33.3598113 L6.21069657,33.3598113 L0.135106004,10.8015371 L0.0869927724,10.6025956 C-0.340164599,8.61224073 0.842871554,6.60972901 2.82117412,6.03974284 L2.82117412,6.03974284 L5.79158937,5.18391033 Z M29.9002453,0 C32.1093843,0 33.9002453,1.790861 33.9002453,4 L33.9002453,28 C33.9002453,30.209139 32.1093843,32 29.9002453,32 L14.9002453,32 C12.6911063,32 10.9002453,30.209139 10.9002453,28 L10.9002453,4 C10.9002453,1.790861 12.6911063,0 14.9002453,0 L29.9002453,0 Z M29.9002453,1.8 L14.9002453,1.8 C13.7380461,1.8 12.78633,2.70118563 12.7057691,3.84288498 L12.7002453,4 L12.7002453,28 C12.7002453,29.1621992 13.6014309,30.1139152 14.7431303,30.1944762 L14.9002453,30.2 L29.9002453,30.2 C31.0624445,30.2 32.0141605,29.2988144 32.0947215,28.157115 L32.1002453,28 L32.1002453,4 C32.1002453,2.83780079 31.1990596,1.88608476 30.0573603,1.80552381 L29.9002453,1.8 Z" id="Courses-icon-09" fill="url(#linearGradient-1)"></path>
    </g>
</svg>
