<?xml version="1.0" encoding="UTF-8"?>
<svg width="233px" height="74px" viewBox="0 0 233 74" version="1.1" xmlns="http://www.w3.org/2000/svg" xmlns:xlink="http://www.w3.org/1999/xlink">
    <title>Group 68</title>
    <g id="Page-1" stroke="none" stroke-width="1" fill="none" fill-rule="evenodd">
        <g id="Group-68" fill="#FFFFFF">
            <path d="M70.460352,67.668114 C70.083352,67.081114 69.726352,66.706114 69.388352,66.543114 C69.050352,66.381114 68.703352,66.414114 68.346352,66.644114 C67.991352,66.872114 67.818352,67.172114 67.828352,67.544114 C67.836352,67.916114 68.018352,68.380114 68.370352,68.939114 L69.083352,70.048114 C69.461352,70.637114 69.827352,71.018114 70.178352,71.189114 C70.530352,71.360114 70.880352,71.334114 71.227352,71.110114 C71.569352,70.890114 71.739352,70.594114 71.735352,70.223114 C71.731352,69.851114 71.549352,69.378114 71.191352,68.804114 L70.460352,67.668114 Z M71.764352,68.170114 C72.285352,68.982114 72.535352,69.675114 72.511352,70.248114 C72.487352,70.821114 72.181352,71.297114 71.592352,71.676114 C71.009352,72.050114 70.454352,72.135114 69.926352,71.928114 C69.398352,71.723114 68.883352,71.239114 68.379352,70.479114 L67.784352,69.553114 C67.269352,68.751114 67.024352,68.066114 67.051352,67.498114 C67.078352,66.930114 67.388352,66.455114 67.979352,66.074114 C68.566352,65.697114 69.120352,65.607114 69.639352,65.805114 C70.158352,66.002114 70.673352,66.491114 71.186352,67.271114 L71.764352,68.170114 Z" id="Fill-23"></path>
            <polygon id="Fill-25" points="76.584852 67.931714 75.935852 68.447714 72.514852 64.149714 71.594852 65.661714 71.128852 65.076714 72.423852 62.911714 72.524852 62.831714"></polygon>
            <path d="M78.383152,61.096814 C77.902152,60.590814 77.480152,60.289814 77.118152,60.193814 C76.757152,60.096814 76.422152,60.194814 76.113152,60.487814 C75.808152,60.778814 75.695152,61.104814 75.773152,61.468814 C75.852152,61.831814 76.117152,62.254814 76.567152,62.736814 L77.475152,63.692814 C77.958152,64.200814 78.388152,64.505814 78.766152,64.607814 C79.144152,64.709814 79.483152,64.618814 79.781152,64.333814 C80.076152,64.053814 80.187152,63.731814 80.113152,63.367814 C80.039152,63.003814 79.773152,62.572814 79.312152,62.075814 L78.383152,61.096814 Z M79.757152,61.346814 C80.422152,62.045814 80.796152,62.679814 80.881152,63.246814 C80.965152,63.813814 80.753152,64.338814 80.245152,64.821814 C79.743152,65.298814 79.214152,65.485814 78.656152,65.381814 C78.099152,65.278814 77.503152,64.900814 76.865152,64.247814 L76.107152,63.449814 C75.450152,62.758814 75.082152,62.131814 75.002152,61.568814 C74.922152,61.005814 75.136152,60.481814 75.647152,59.996814 C76.153152,59.515814 76.679152,59.323814 77.226152,59.420814 C77.773152,59.517814 78.371152,59.900814 79.020152,60.570814 L79.757152,61.346814 Z" id="Fill-27"></path>
            <polygon id="Fill-29" points="84.438852 60.310614 83.888852 60.931614 79.779852 57.284614 79.132852 58.932614 78.573852 58.435614 79.478852 56.081614 79.563852 55.984614"></polygon>
            <path d="M85.052652,53.265714 C84.492652,52.848714 84.027652,52.622714 83.653652,52.588714 C83.280652,52.555714 82.966652,52.708714 82.712652,53.049714 C82.461652,53.387714 82.404652,53.728714 82.544652,54.073714 C82.683652,54.418714 83.015652,54.790714 83.540652,55.189714 L84.598652,55.977714 C85.159652,56.396714 85.635652,56.624714 86.024652,56.661714 C86.414652,56.697714 86.732652,56.550714 86.979652,56.219714 C87.222652,55.892714 87.277652,55.556714 87.143652,55.210714 C87.008652,54.864714 86.672652,54.484714 86.135652,54.072714 L85.052652,53.265714 Z M86.448652,53.278714 C87.223652,53.855714 87.698652,54.416714 87.878652,54.961714 C88.058652,55.506714 87.938652,56.059714 87.519652,56.621714 C87.104652,57.176714 86.614652,57.450714 86.048652,57.442714 C85.481652,57.434714 84.828652,57.163714 84.091652,56.627714 L83.209652,55.969714 C82.444652,55.399714 81.974652,54.844714 81.800652,54.303714 C81.626652,53.761714 81.749652,53.208714 82.170652,52.644714 C82.587652,52.084714 83.073652,51.806714 83.629652,51.80969 C84.184652,51.812714 84.838652,52.089714 85.591652,52.639714 L86.448652,53.278714 Z" id="Fill-31"></path>
            <polygon id="Fill-33" points="90.882252 51.474214 90.445252 52.178214 85.778252 49.281214 85.420252 51.015214 84.784252 50.620214 85.276252 48.146214 85.345252 48.036214"></polygon>
            <path d="M90.294752,44.422014 C89.672752,44.106014 89.174752,43.963014 88.801752,43.993014 C88.427752,44.023014 88.145752,44.228014 87.953752,44.607014 C87.761752,44.983014 87.764752,45.329014 87.960752,45.645014 C88.156752,45.961014 88.546752,46.271014 89.131752,46.575014 L90.307752,47.172014 C90.932752,47.489014 91.440752,47.633014 91.830752,47.603014 C92.220752,47.573014 92.508752,47.374014 92.695752,47.005014 C92.879752,46.643014 92.876752,46.302014 92.685752,45.984014 C92.493752,45.665014 92.098752,45.348014 91.498752,45.034014 L90.294752,44.422014 Z M91.673752,44.198014 C92.534752,44.635014 93.099752,45.107014 93.368752,45.613014 C93.637752,46.120014 93.613752,46.686014 93.295752,47.310014 C92.982752,47.927014 92.545752,48.280014 91.985752,48.369014 C91.425752,48.458014 90.736752,48.301014 89.918752,47.899014 L88.936752,47.401014 C88.087752,46.969014 87.530752,46.501014 87.265752,45.997014 C87.002752,45.493014 87.029752,44.927014 87.348752,44.300014 C87.665752,43.677014 88.097752,43.320014 88.645752,43.229014 C89.192752,43.137014 89.884752,43.299014 90.719752,43.714014 L91.673752,44.198014 Z" id="Fill-35"></path>
            <polygon id="Fill-37" points="95.742052 41.657814 95.430052 42.425814 90.340052 40.359814 90.281052 42.128814 89.587052 41.847814 89.654052 39.325814 89.702052 39.206814"></polygon>
            <path d="M93.973552,34.829214 C93.306552,34.621214 92.792552,34.562214 92.429552,34.654214 C92.065552,34.746214 91.820552,34.995214 91.694552,35.400214 C91.568552,35.803214 91.628552,36.143214 91.873552,36.422214 C92.119552,36.702214 92.556552,36.942214 93.183552,37.145214 L94.443552,37.538214 C95.111552,37.748214 95.636552,37.805214 96.015552,37.710214 C96.395552,37.616214 96.646552,37.372214 96.769552,36.978214 C96.891552,36.590214 96.830552,36.254214 96.589552,35.972214 C96.348552,35.689214 95.905552,35.443214 95.262552,35.232214 L93.973552,34.829214 Z M95.294552,34.379214 C96.216552,34.667214 96.851552,35.038214 97.202552,35.493214 C97.551552,35.948214 97.621552,36.510214 97.411552,37.179214 C97.205552,37.839214 96.833552,38.260214 96.296552,38.440214 C95.759552,38.621214 95.053552,38.580214 94.179552,38.320214 L93.129552,37.992214 C92.219552,37.707214 91.592552,37.338214 91.248552,36.886214 C90.904552,36.433214 90.837552,35.870214 91.048552,35.198214 C91.256552,34.532214 91.622552,34.108214 92.147552,33.927214 C92.673552,33.746214 93.381552,33.790214 94.274552,34.060214 L95.294552,34.379214 Z" id="Fill-39"></path>
            <polygon id="Fill-41" points="98.894852 31.218314 98.710852 32.026314 93.354852 30.809314 93.581852 32.565314 92.851852 32.399314 92.509852 29.900314 92.538852 29.774314"></polygon>
            <path d="M96.072152,24.766714 C95.382152,24.663714 94.864152,24.685714 94.520152,24.832714 C94.175152,24.979714 93.971152,25.263714 93.909152,25.683714 C93.847152,26.100714 93.958152,26.428714 94.244152,26.665714 C94.530152,26.903714 94.999152,27.074714 95.650152,27.177714 L96.955152,27.370714 C97.648152,27.474714 98.175152,27.449714 98.536152,27.297714 C98.896152,27.145714 99.107152,26.865714 99.167152,26.456714 C99.227152,26.054714 99.116152,25.732714 98.834152,25.490714 C98.551152,25.249714 98.076152,25.074714 97.407152,24.965714 L96.072152,24.766714 Z M97.309152,24.117714 C98.263152,24.259714 98.948152,24.527714 99.364152,24.923714 C99.780152,25.318714 99.936152,25.862714 99.833152,26.556714 C99.731152,27.240714 99.428152,27.713714 98.926152,27.974714 C98.423152,28.236714 97.719152,28.306714 96.816152,28.183714 L95.728152,28.021714 C94.784152,27.881714 94.108152,27.614714 93.698152,27.219714 C93.288152,26.825714 93.135152,26.280714 93.239152,25.583714 C93.342152,24.893714 93.638152,24.418714 94.129152,24.157714 C94.619152,23.897714 95.327152,23.831714 96.251152,23.959714 L97.309152,24.117714 Z" id="Fill-43"></path>
            <path d="M5.41101035,30.6624785 C5.03401035,30.0754785 4.67701035,29.7004785 4.33901035,29.5374785 C4.00101035,29.3754785 3.65401035,29.4084785 3.29701035,29.6384785 C2.94201035,29.8664785 2.76901035,30.1664785 2.77901035,30.5384785 C2.78701035,30.9104785 2.96901035,31.3744785 3.32101035,31.9334785 L4.03401035,33.0424785 C4.41201035,33.6314785 4.77801035,34.0124785 5.12901035,34.1834785 C5.48101035,34.3544785 5.83101035,34.3284785 6.17801035,34.1044785 C6.52001035,33.8844785 6.69001035,33.5884785 6.68601035,33.2174785 C6.68201035,32.8454785 6.50001035,32.3724785 6.14201035,31.7984785 L5.41101035,30.6624785 Z M6.71501035,31.1644785 C7.23601035,31.9764785 7.48601035,32.6694785 7.46201035,33.2424785 C7.43801035,33.8154785 7.13201035,34.2914785 6.54301035,34.6704785 C5.96001035,35.0444785 5.40501035,35.1294785 4.87701035,34.9224785 C4.34901035,34.7174785 3.83401035,34.2334785 3.33001035,33.4734785 L2.73501035,32.5474785 C2.22001035,31.7454785 1.97501035,31.0604785 2.00201035,30.4924785 C2.02901035,29.9244785 2.33901035,29.4494785 2.93001035,29.0684785 C3.51701035,28.6914785 4.07101035,28.6014785 4.59001035,28.7994785 C5.10901035,28.9964785 5.62401035,29.4854785 6.13701035,30.2654785 L6.71501035,31.1644785 Z" id="Fill-23" transform="translate(4.731794, 31.865007) rotate(25.000000) translate(-4.731794, -31.865007) "></path>
            <polygon id="Fill-25" transform="translate(9.791097, 30.659264) rotate(25.000000) translate(-9.791097, -30.659264) " points="12.5190968 32.9512636 11.8700968 33.4672636 8.4490968 29.1692636 7.5290968 30.6812636 7.0630968 30.0962636 8.3580968 27.9312636 8.4590968 27.8512636"></polygon>
            <path d="M15.3024848,28.1462548 C14.8214848,27.6402548 14.3994848,27.3392548 14.0374848,27.2432548 C13.6764848,27.1462548 13.3414848,27.2442548 13.0324848,27.5372548 C12.7274848,27.8282548 12.6144848,28.1542548 12.6924848,28.5182548 C12.7714848,28.8812548 13.0364848,29.3042548 13.4864848,29.7862548 L14.3944848,30.7422548 C14.8774848,31.2502548 15.3074848,31.5552548 15.6854848,31.6572548 C16.0634848,31.7592548 16.4024848,31.6682548 16.7004848,31.3832548 C16.9954848,31.1032548 17.1064848,30.7812548 17.0324848,30.4172548 C16.9584848,30.0532548 16.6924848,29.6222548 16.2314848,29.1252548 L15.3024848,28.1462548 Z M16.6764848,28.3962548 C17.3414848,29.0952548 17.7154848,29.7292548 17.8004848,30.2962548 C17.8844848,30.8632548 17.6724848,31.3882548 17.1644848,31.8712548 C16.6624848,32.3482548 16.1334848,32.5352548 15.5754848,32.4312548 C15.0184848,32.3282548 14.4224848,31.9502548 13.7844848,31.2972548 L13.0264848,30.4992548 C12.3694848,29.8082548 12.0014848,29.1812548 11.9214848,28.6182548 C11.8414848,28.0552548 12.0554848,27.5312548 12.5664848,27.0462548 C13.0724848,26.5652548 13.5984848,26.3732548 14.1454848,26.4702548 C14.6924848,26.5672548 15.2904848,26.9502548 15.9394848,27.6202548 L16.6764848,28.3962548 Z" id="Fill-27" transform="translate(14.861764, 29.452487) rotate(25.000000) translate(-14.861764, -29.452487) "></path>
            <polygon id="Fill-29" transform="translate(19.758974, 27.383342) rotate(25.000000) translate(-19.758974, -27.383342) " points="22.6914735 29.235842 22.1414735 29.856842 18.0324735 26.209842 17.3854735 27.857842 16.8264735 27.360842 17.7314735 25.006842 17.8164735 24.909842"></polygon>
            <path d="M24.6121539,23.9596393 C24.0521539,23.5426393 23.5871539,23.3166393 23.2131539,23.2826393 C22.8401539,23.2496393 22.5261539,23.4026393 22.2721539,23.7436393 C22.0211539,24.0816393 21.9641539,24.4226393 22.1041539,24.7676393 C22.2431539,25.1126393 22.5751539,25.4846393 23.1001539,25.8836393 L24.1581539,26.6716393 C24.7191539,27.0906393 25.1951539,27.3186393 25.5841539,27.3556393 C25.9741539,27.3916393 26.2921539,27.2446393 26.5391539,26.9136393 C26.7821539,26.5866393 26.8371539,26.2506393 26.7031539,25.9046393 C26.5681539,25.5586393 26.2321539,25.1786393 25.6951539,24.7666393 L24.6121539,23.9596393 Z M26.0081539,23.9726393 C26.7831539,24.5496393 27.2581539,25.1106393 27.4381539,25.6556393 C27.6181539,26.2006393 27.4981539,26.7536393 27.0791539,27.3156393 C26.6641539,27.8706393 26.1741539,28.1446393 25.6081539,28.1366393 C25.0411539,28.1286393 24.3881539,27.8576393 23.6511539,27.3216393 L22.7691539,26.6636393 C22.0041539,26.0936393 21.5341539,25.5386393 21.3601539,24.9976393 C21.1861539,24.4556393 21.3091539,23.9026393 21.7301539,23.3386393 C22.1471539,22.7786393 22.6331539,22.5006393 23.1891539,22.5036153 C23.7441539,22.5066393 24.3981539,22.7836393 25.1511539,23.3336393 L26.0081539,23.9726393 Z" id="Fill-31" transform="translate(24.401453, 25.320212) rotate(25.000000) translate(-24.401453, -25.320212) "></path>
            <polygon id="Fill-33" transform="translate(29.022335, 22.488720) rotate(25.000000) translate(-29.022335, -22.488720) " points="32.0713351 23.8557198 31.6343351 24.5597198 26.9673351 21.6627198 26.6093351 23.3967198 25.9733351 23.0017198 26.4653351 20.5277198 26.5343351 20.4177198"></polygon>
            <path d="M33.0717046,18.2583462 C32.4497046,17.9423462 31.9517046,17.7993462 31.5787046,17.8293462 C31.2047046,17.8593462 30.9227046,18.0643462 30.7307046,18.4433462 C30.5387046,18.8193462 30.5417046,19.1653462 30.7377046,19.4813462 C30.9337046,19.7973462 31.3237046,20.1073462 31.9087046,20.4113462 L33.0847046,21.0083462 C33.7097046,21.3253462 34.2177046,21.4693462 34.6077046,21.4393462 C34.9977046,21.4093462 35.2857046,21.2103462 35.4727046,20.8413462 C35.6567046,20.4793462 35.6537046,20.1383462 35.4627046,19.8203462 C35.2707046,19.5013462 34.8757046,19.1843462 34.2757046,18.8703462 L33.0717046,18.2583462 Z M34.4507046,18.0343462 C35.3117046,18.4713462 35.8767046,18.9433462 36.1457046,19.4493462 C36.4147046,19.9563462 36.3907046,20.5223462 36.0727046,21.1463462 C35.7597046,21.7633462 35.3227046,22.1163462 34.7627046,22.2053462 C34.2027046,22.2943462 33.5137046,22.1373462 32.6957046,21.7353462 L31.7137046,21.2373462 C30.8647046,20.8053462 30.3077046,20.3373462 30.0427046,19.8333462 C29.7797046,19.3293462 29.8067046,18.7633462 30.1257046,18.1363462 C30.4427046,17.5133462 30.8747046,17.1563462 31.4227046,17.0653462 C31.9697046,16.9733462 32.6617046,17.1353462 33.4967046,17.5503462 L34.4507046,18.0343462 Z" id="Fill-35" transform="translate(33.097419, 19.634925) rotate(25.000000) translate(-33.097419, -19.634925) "></path>
            <polygon id="Fill-37" transform="translate(37.327484, 16.110100) rotate(25.000000) translate(-37.327484, -16.110100) " points="40.4049839 16.9516004 40.0929839 17.7196004 35.0029839 15.6536004 34.9439839 17.4226004 34.2499839 17.1416004 34.3169839 14.6196004 34.3649839 14.5006004"></polygon>
            <path d="M40.4473545,11.2181461 C39.7803545,11.0101461 39.2663545,10.9511461 38.9033545,11.0431461 C38.5393545,11.1351461 38.2943545,11.3841461 38.1683545,11.7891461 C38.0423545,12.1921461 38.1023545,12.5321461 38.3473545,12.8111461 C38.5933545,13.0911461 39.0303545,13.3311461 39.6573545,13.5341461 L40.9173545,13.9271461 C41.5853545,14.1371461 42.1103545,14.1941461 42.4893545,14.0991461 C42.8693545,14.0051461 43.1203545,13.7611461 43.2433545,13.3671461 C43.3653545,12.9791461 43.3043545,12.6431461 43.0633545,12.3611461 C42.8223545,12.0781461 42.3793545,11.8321461 41.7363545,11.6211461 L40.4473545,11.2181461 Z M41.7683545,10.7681461 C42.6903545,11.0561461 43.3253545,11.4271461 43.6763545,11.8821461 C44.0253545,12.3371461 44.0953545,12.8991461 43.8853545,13.5681461 C43.6793545,14.2281461 43.3073545,14.6491461 42.7703545,14.8291461 C42.2333545,15.0101461 41.5273545,14.9691461 40.6533545,14.7091461 L39.6033545,14.3811461 C38.6933545,14.0961461 38.0663545,13.7271461 37.7223545,13.2751461 C37.3783545,12.8221461 37.3113545,12.2591461 37.5223545,11.5871461 C37.7303545,10.9211461 38.0963545,10.4971461 38.6213545,10.3161461 C39.1473545,10.1351461 39.8553545,10.1791461 40.7483545,10.4491461 L41.7683545,10.7681461 Z" id="Fill-39" transform="translate(40.702861, 12.573518) rotate(25.000000) translate(-40.702861, -12.573518) "></path>
            <polygon id="Fill-41" transform="translate(44.157453, 8.651232) rotate(25.000000) translate(-44.157453, -8.651232) " points="47.3499528 8.69973208 47.1659528 9.50773208 41.8099528 8.29073208 42.0369528 10.0467321 41.3069528 9.88073208 40.9649528 7.38173208 40.9939528 7.25573208"></polygon>
            <path d="M46.6046766,3.0781952 C45.9146766,2.9751952 45.3966766,2.9971952 45.0526766,3.1441952 C44.7076766,3.2911952 44.5036766,3.5751952 44.4416766,3.9951952 C44.3796766,4.4121952 44.4906766,4.7401952 44.7766766,4.9771952 C45.0626766,5.2151952 45.5316766,5.3861952 46.1826766,5.4891952 L47.4876766,5.6821952 C48.1806766,5.7861952 48.7076766,5.7611952 49.0686766,5.6091952 C49.4286766,5.4571952 49.6396766,5.1771952 49.6996766,4.7681952 C49.7596766,4.3661952 49.6486766,4.0441952 49.3666766,3.8021952 C49.0836766,3.5611952 48.6086766,3.3861952 47.9396766,3.2771952 L46.6046766,3.0781952 Z M47.8416766,2.4291952 C48.7956766,2.5711952 49.4806766,2.8391952 49.8966766,3.2351952 C50.3126766,3.6301952 50.4686766,4.1741952 50.3656766,4.8681952 C50.2636766,5.5521952 49.9606766,6.0251952 49.4586766,6.2861952 C48.9556766,6.5481952 48.2516766,6.6181952 47.3486766,6.4951952 L46.2606766,6.3331952 C45.3166766,6.1931952 44.6406766,5.9261952 44.2306766,5.5311952 C43.8206766,5.1371952 43.6676766,4.5921952 43.7716766,3.8951952 C43.8746766,3.2051952 44.1706766,2.7301952 44.6616766,2.4691952 C45.1516766,2.2091952 45.8596766,2.1431952 46.7836766,2.2711952 L47.8416766,2.4291952 Z" id="Fill-43" transform="translate(47.068251, 4.380937) rotate(25.000000) translate(-47.068251, -4.380937) "></path>
            <g id="Group-59" transform="translate(138.350149, 23.601648)">
                <path d="M3.95490317,3.298366 C4.65290317,3.314366 5.16390317,3.228366 5.48790317,3.039366 C5.81090317,2.850366 5.97790317,2.544366 5.98790317,2.119366 C5.99790317,1.698366 5.84590317,1.387366 5.53190317,1.186366 C5.21890317,0.985366004 4.73290317,0.875366004 4.07390317,0.854366004 L2.75490317,0.823366004 C2.05490317,0.807366004 1.53490317,0.898366004 1.19590317,1.093366 C0.856903169,1.289366 0.683903169,1.593366 0.673903169,2.006366 C0.664903169,2.413366 0.814903169,2.718366 1.12490317,2.923366 C1.43490317,3.128366 1.92890317,3.242366 2.60490317,3.267366 L3.95490317,3.298366 Z M2.80890317,4.096366 C1.84490317,4.074366 1.13090317,3.892366 0.668903169,3.552366 C0.206903169,3.212366 -0.0160968306,2.691366 0.000903169429,1.990366 C0.0169031694,1.298366 0.257903169,0.792366004 0.724903169,0.469366004 C1.19090317,0.148366004 1.87990317,-0.00863399629 2.79290317,0.000366003707 L3.89290317,0.0263660037 C4.84590317,0.0483660037 5.55090317,0.228366004 6.00590317,0.569366004 C6.46090317,0.909366004 6.68190317,1.431366 6.66490317,2.135366 C6.64890317,2.833366 6.41390317,3.341366 5.95890317,3.661366 C5.50490317,3.980366 4.80990317,4.133366 3.87890317,4.121366 L2.80890317,4.096366 Z" id="Fill-1"></path>
                <polygon id="Fill-3" points="0.369003169 8.291066 0.290003169 7.466066 5.76000317 6.947066 4.99500317 5.350066 5.74000317 5.280066 6.84600317 7.547066 6.85800317 7.675066"></polygon>
                <path d="M5.17660317,13.538066 C5.86160317,13.400066 6.34060317,13.203066 6.61460317,12.948066 C6.88860317,12.693066 6.98460317,12.357066 6.90060317,11.941066 C6.81760317,11.528066 6.60060317,11.258066 6.25160317,11.131066 C5.90160317,11.004066 5.40360317,11.003066 4.75560317,11.127066 L3.46260317,11.388066 C2.77560317,11.526066 2.28760317,11.727066 1.99960317,11.993066 C1.71360317,12.259066 1.61060317,12.594066 1.69260317,12.998066 C1.77260317,13.397066 1.98660317,13.663066 2.33360317,13.794066 C2.68160317,13.925066 3.18860317,13.929066 3.85360317,13.804066 L5.17660317,13.538066 Z M4.23460317,14.568066 C3.28760317,14.759066 2.55260317,14.739066 2.02760317,14.508066 C1.50160317,14.277066 1.17060317,13.818066 1.03160317,13.131066 C0.895603169,12.453066 1.01960317,11.905066 1.40360317,11.488066 C1.78760317,11.072066 2.42660317,10.767066 3.31760317,10.576066 L4.39660317,10.359066 C5.33060317,10.171066 6.05860317,10.193066 6.57660317,10.424066 C7.09660317,10.656066 7.42560317,11.117066 7.56460317,11.808066 C7.70160317,12.492066 7.58460317,13.039066 7.21160317,13.451066 C6.83760317,13.862066 6.19560317,14.164066 5.28260317,14.357066 L4.23460317,14.568066 Z" id="Fill-5"></path>
                <polygon id="Fill-7" points="2.69120317 19.137666 2.44620317 18.345666 7.69320317 16.721666 6.62020317 15.314666 7.33420317 15.093666 8.87920317 17.087666 8.91820317 17.210666"></polygon>
                <path d="M8.45100317,23.289066 C9.09400317,23.017066 9.52300317,22.727066 9.74100317,22.422066 C9.95900317,22.117066 9.98400317,21.769066 9.81800317,21.378066 C9.65400317,20.990066 9.38800317,20.769066 9.01900317,20.715066 C8.65100317,20.662066 8.16300317,20.761066 7.55400317,21.012066 L6.33900317,21.527066 C5.69400317,21.801066 5.25700317,22.096066 5.02900317,22.414066 C4.80100317,22.731066 4.76700317,23.081066 4.92900317,23.461066 C5.08700317,23.836066 5.34900317,24.052066 5.71700317,24.111066 C6.08400317,24.170066 6.58000317,24.072066 7.20800317,23.815066 L8.45100317,23.289066 Z M7.73400317,24.487066 C6.84600317,24.864066 6.12100317,24.993066 5.56000317,24.872066 C5.00000317,24.752066 4.58300317,24.369066 4.30900317,23.724066 C4.03900317,23.086066 4.05000317,22.525066 4.34300317,22.039066 C4.63600317,21.554066 5.19900317,21.128066 6.03400317,20.762066 L7.04800317,20.332066 C7.92500317,19.959066 8.64100317,19.835066 9.19600317,19.957066 C9.75300317,20.080066 10.1670032,20.466066 10.4420032,21.114066 C10.7140032,21.756066 10.7090032,22.317066 10.4270032,22.795066 C10.1430032,23.273066 9.57400317,23.698066 8.71900317,24.070066 L7.73400317,24.487066 Z" id="Fill-9"></path>
                <polygon id="Fill-11" points="7.13170317 29.267066 6.73370317 28.540066 11.5517032 25.901066 10.2177032 24.737066 10.8747032 24.377066 12.7867032 26.022066 12.8487032 26.136066"></polygon>
                <path d="M13.5965032,32.189966 C14.1735032,31.795966 14.5385032,31.428966 14.6925032,31.085966 C14.8445032,30.744966 14.8015032,30.397966 14.5615032,30.046966 C14.3245032,29.698966 14.0195032,29.534966 13.6485032,29.554966 C13.2775032,29.573966 12.8175032,29.767966 12.2695032,30.134966 L11.1805032,30.877966 C10.6015032,31.272966 10.2315032,31.648966 10.0705032,32.005966 C9.90850317,32.361966 9.94450317,32.710966 10.1775032,33.051966 C10.4075032,33.387966 10.7065032,33.548966 11.0785032,33.534966 C11.4505032,33.519966 11.9175032,33.325966 12.4825032,32.950966 L13.5965032,32.189966 Z M13.1305032,33.505966 C12.3335032,34.050966 11.6495032,34.318966 11.0755032,34.311966 C10.5005032,34.303966 10.0175032,34.010966 9.62150317,33.431966 C9.23150317,32.859966 9.13250317,32.307966 9.32350317,31.773966 C9.51450317,31.240966 9.98350317,30.711966 10.7305032,30.187966 L11.6395032,29.566966 C12.4255032,29.028966 13.1045032,28.765966 13.6725032,28.776966 C14.2425032,28.787966 14.7245032,29.083966 15.1215032,29.665966 C15.5155032,30.241966 15.6195032,30.792966 15.4375032,31.316966 C15.2535032,31.840966 14.7795032,32.369966 14.0135032,32.902966 L13.1305032,33.505966 Z" id="Fill-13"></path>
                <polygon id="Fill-15" points="13.4617032 38.314466 12.9317032 37.677466 17.1547032 34.164466 15.6227032 33.277466 16.1987032 32.798466 18.3897032 34.046466 18.4727032 34.146466"></polygon>
                <path d="M20.3485032,39.971166 C20.8425032,39.478166 21.1345032,39.051166 21.2215032,38.686166 C21.3105032,38.322166 21.2035032,37.989166 20.9045032,37.688166 C20.6075032,37.389166 20.2775032,37.283166 19.9165032,37.371166 C19.5545032,37.458166 19.1385032,37.732166 18.6665032,38.194166 L17.7325032,39.124166 C17.2355032,39.618166 16.9405032,40.056166 16.8475032,40.436166 C16.7535032,40.816166 16.8525032,41.152166 17.1445032,41.445166 C17.4315032,41.733166 17.7555032,41.836166 18.1185032,41.754166 C18.4815032,41.672166 18.9055032,41.395166 19.3915032,40.924166 L20.3485032,39.971166 Z M20.1305032,41.350166 C19.4475032,42.032166 18.8225032,42.421166 18.2565032,42.518166 C17.6915032,42.616166 17.1615032,42.416166 16.6675032,41.919166 C16.1795032,41.429166 15.9805032,40.904166 16.0705032,40.344166 C16.1615032,39.784166 16.5255032,39.179166 17.1625032,38.527166 L17.9435032,37.751166 C18.6195032,37.078166 19.2375032,36.695166 19.7975032,36.602166 C20.3595032,36.509166 20.8875032,36.712166 21.3845032,37.210166 C21.8765032,37.705166 22.0805032,38.227166 21.9965032,38.776166 C21.9115032,39.325166 21.5435032,39.931166 20.8885032,40.596166 L20.1305032,41.350166 Z" id="Fill-17"></path>
                <polygon id="Fill-19" points="21.2625032 46.003466 20.6315032 45.466466 24.1905032 41.280466 22.5285032 40.669466 23.0125032 40.099466 25.3865032 40.953466 25.4855032 41.036466"></polygon>
                <path d="M28.2947032,46.484366 C28.7037032,45.919366 28.9237032,45.450366 28.9527032,45.076366 C28.9817032,44.703366 28.8237032,44.391366 28.4807032,44.142366 C28.1397032,43.894366 27.7967032,43.842366 27.4537032,43.985366 C27.1107032,44.130366 26.7437032,44.466366 26.3517032,44.996366 L25.5767032,46.064366 C25.1647032,46.630366 24.9427032,47.109366 24.9117032,47.500366 C24.8797032,47.889366 25.0307032,48.206366 25.3647032,48.448366 C25.6937032,48.687366 26.0307032,48.737366 26.3757032,48.599366 C26.7207032,48.460366 27.0957032,48.119366 27.5007032,47.576366 L28.2947032,46.484366 Z M28.2987032,47.880366 C27.7327032,48.661366 27.1767032,49.145366 26.6347032,49.331366 C26.0917032,49.517366 25.5367032,49.404366 24.9697032,48.992366 C24.4087032,48.586366 24.1297032,48.099366 24.1307005,47.532366 C24.1307005,46.965366 24.3947032,46.310366 24.9197032,45.565366 L25.5657032,44.674366 C26.1267032,43.902366 26.6767032,43.426366 27.2157032,43.245366 C27.7547032,43.064366 28.3087032,43.180366 28.8787032,43.594366 C29.4427032,44.004366 29.7287032,44.486366 29.7317473,45.042366 C29.7357032,45.597366 29.4677032,46.255366 28.9267032,47.015366 L28.2987032,47.880366 Z" id="Fill-21"></path>
            </g>
            <path d="M189.684708,5.298366 C190.382708,5.314366 190.893708,5.228366 191.217708,5.039366 C191.540708,4.850366 191.707708,4.544366 191.717708,4.119366 C191.727708,3.698366 191.575708,3.387366 191.261708,3.186366 C190.948708,2.985366 190.462708,2.875366 189.803708,2.854366 L188.484708,2.823366 C187.784708,2.807366 187.264708,2.898366 186.925708,3.093366 C186.586708,3.289366 186.413708,3.593366 186.403708,4.006366 C186.394708,4.413366 186.544708,4.718366 186.854708,4.923366 C187.164708,5.128366 187.658708,5.242366 188.334708,5.267366 L189.684708,5.298366 Z M188.538708,6.096366 C187.574708,6.074366 186.860708,5.892366 186.398708,5.552366 C185.936708,5.212366 185.713708,4.691366 185.730708,3.990366 C185.746708,3.298366 185.987708,2.792366 186.454708,2.469366 C186.920708,2.148366 187.609708,1.991366 188.522708,2.000366 L189.622708,2.026366 C190.575708,2.048366 191.280708,2.228366 191.735708,2.569366 C192.190708,2.909366 192.411708,3.431366 192.394708,4.135366 C192.378708,4.833366 192.143708,5.341366 191.688708,5.661366 C191.234708,5.980366 190.539708,6.133366 189.608708,6.121366 L188.538708,6.096366 Z" id="Fill-1" transform="translate(189.062712, 4.061010) rotate(-25.000000) translate(-189.062712, -4.061010) "></path>
            <polygon id="Fill-3" transform="translate(191.277903, 8.241020) rotate(-25.000000) translate(-191.277903, -8.241020) " points="188.072903 9.74652029 187.993903 8.92152029 193.463903 8.40252029 192.698903 6.80552029 193.443903 6.73552029 194.549903 9.00252029 194.561903 9.13052029"></polygon>
            <path d="M195.212901,14.1549325 C195.897901,14.0169325 196.376901,13.8199325 196.650901,13.5649325 C196.924901,13.3099325 197.020901,12.9739325 196.936901,12.5579325 C196.853901,12.1449325 196.636901,11.8749325 196.287901,11.7479325 C195.937901,11.6209325 195.439901,11.6199325 194.791901,11.7439325 L193.498901,12.0049325 C192.811901,12.1429325 192.323901,12.3439325 192.035901,12.6099325 C191.749901,12.8759325 191.646901,13.2109325 191.728901,13.6149325 C191.808901,14.0139325 192.022901,14.2799325 192.369901,14.4109325 C192.717901,14.5419325 193.224901,14.5459325 193.889901,14.4209325 L195.212901,14.1549325 Z M194.270901,15.1849325 C193.323901,15.3759325 192.588901,15.3559325 192.063901,15.1249325 C191.537901,14.8939325 191.206901,14.4349325 191.067901,13.7479325 C190.931901,13.0699325 191.055901,12.5219325 191.439901,12.1049325 C191.823901,11.6889325 192.462901,11.3839325 193.353901,11.1929325 L194.432901,10.9759325 C195.366901,10.7879325 196.094901,10.8099325 196.612901,11.0409325 C197.132901,11.2729325 197.461901,11.7339325 197.600901,12.4249325 C197.737901,13.1089325 197.620901,13.6559325 197.247901,14.0679325 C196.873901,14.4789325 196.231901,14.7809325 195.318901,14.9739325 L194.270901,15.1849325 Z" id="Fill-5" transform="translate(194.335414, 13.082109) rotate(-25.000000) translate(-194.335414, -13.082109) "></path>
            <polygon id="Fill-7" transform="translate(197.554270, 16.712307) rotate(-25.000000) translate(-197.554270, -16.712307) " points="194.56327 18.7343065 194.31827 17.9423065 199.56527 16.3183065 198.49227 14.9113065 199.20627 14.6903065 200.75127 16.6843065 200.79027 16.8073065"></polygon>
            <path d="M202.403267,21.6724488 C203.046267,21.4004488 203.475267,21.1104488 203.693267,20.8054488 C203.911267,20.5004488 203.936267,20.1524488 203.770267,19.7614488 C203.606267,19.3734488 203.340267,19.1524488 202.971267,19.0984488 C202.603267,19.0454488 202.115267,19.1444488 201.506267,19.3954488 L200.291267,19.9104488 C199.646267,20.1844488 199.209267,20.4794488 198.981267,20.7974488 C198.753267,21.1144488 198.719267,21.4644488 198.881267,21.8444488 C199.039267,22.2194488 199.301267,22.4354488 199.669267,22.4944488 C200.036267,22.5534488 200.532267,22.4554488 201.160267,22.1984488 L202.403267,21.6724488 Z M201.686267,22.8704488 C200.798267,23.2474488 200.073267,23.3764488 199.512267,23.2554488 C198.952267,23.1354488 198.535267,22.7524488 198.261267,22.1074488 C197.991267,21.4694488 198.002267,20.9084488 198.295267,20.4224488 C198.588267,19.9374488 199.151267,19.5114488 199.986267,19.1454488 L201.000267,18.7154488 C201.877267,18.3424488 202.593267,18.2184488 203.148267,18.3404488 C203.705267,18.4634488 204.119267,18.8494488 204.394267,19.4974488 C204.666267,20.1394488 204.661267,20.7004488 204.379267,21.1784488 C204.095267,21.6564488 203.526267,22.0814488 202.671267,22.4534488 L201.686267,22.8704488 Z" id="Fill-9" transform="translate(201.330694, 20.797258) rotate(-25.000000) translate(-201.330694, -20.797258) "></path>
            <polygon id="Fill-11" transform="translate(205.380391, 23.772754) rotate(-25.000000) translate(-205.380391, -23.772754) " points="202.720891 26.217754 202.322891 25.490754 207.140891 22.851754 205.806891 21.687754 206.463891 21.327754 208.375891 22.972754 208.437891 23.086754"></polygon>
            <path d="M210.939179,27.6055267 C211.516179,27.2115267 211.881179,26.8445267 212.035179,26.5015267 C212.187179,26.1605267 212.144179,25.8135267 211.904179,25.4625267 C211.667179,25.1145267 211.362179,24.9505267 210.991179,24.9705267 C210.620179,24.9895267 210.160179,25.1835267 209.612179,25.5505267 L208.523179,26.2935267 C207.944179,26.6885267 207.574179,27.0645267 207.413179,27.4215267 C207.251179,27.7775267 207.287179,28.1265267 207.520179,28.4675267 C207.750179,28.8035267 208.049179,28.9645267 208.421179,28.9505267 C208.793179,28.9355267 209.260179,28.7415267 209.825179,28.3665267 L210.939179,27.6055267 Z M210.473179,28.9215267 C209.676179,29.4665267 208.992179,29.7345267 208.418179,29.7275267 C207.843179,29.7195267 207.360179,29.4265267 206.964179,28.8475267 C206.574179,28.2755267 206.475179,27.7235267 206.666179,27.1895267 C206.857179,26.6565267 207.326179,26.1275267 208.073179,25.6035267 L208.982179,24.9825267 C209.768179,24.4445267 210.447179,24.1815267 211.015179,24.1925267 C211.585179,24.2035267 212.067179,24.4995267 212.464179,25.0815267 C212.858179,25.6575267 212.962179,26.2085267 212.780179,26.7325267 C212.596179,27.2565267 212.122179,27.7855267 211.356179,28.3185267 L210.473179,28.9215267 Z" id="Fill-13" transform="translate(209.719391, 26.959928) rotate(-25.000000) translate(-209.719391, -26.959928) "></path>
            <polygon id="Fill-15" transform="translate(214.428893, 29.190712) rotate(-25.000000) translate(-214.428893, -29.190712) " points="212.188393 31.9487122 211.658393 31.3117122 215.881393 27.7987122 214.349393 26.9117122 214.925393 26.4327122 217.116393 27.6807122 217.199393 27.7807122"></polygon>
            <path d="M220.455714,31.8228818 C220.949714,31.3298818 221.241714,30.9028818 221.328714,30.5378818 C221.417714,30.1738818 221.310714,29.8408818 221.011714,29.5398818 C220.714714,29.2408818 220.384714,29.1348818 220.023714,29.2228818 C219.661714,29.3098818 219.245714,29.5838818 218.773714,30.0458818 L217.839714,30.9758818 C217.342714,31.4698818 217.047714,31.9078818 216.954714,32.2878818 C216.860714,32.6678818 216.959714,33.0038818 217.251714,33.2968818 C217.538714,33.5848818 217.862714,33.6878818 218.225714,33.6058818 C218.588714,33.5238818 219.012714,33.2468818 219.498714,32.7758818 L220.455714,31.8228818 Z M220.237714,33.2018818 C219.554714,33.8838818 218.929714,34.2728818 218.363714,34.3698818 C217.798714,34.4678818 217.268714,34.2678818 216.774714,33.7708818 C216.286714,33.2808818 216.087714,32.7558818 216.177714,32.1958818 C216.268714,31.6358818 216.632714,31.0308818 217.269714,30.3788818 L218.050714,29.6028818 C218.726714,28.9298818 219.344714,28.5468818 219.904714,28.4538818 C220.466714,28.3608818 220.994714,28.5638818 221.491714,29.0618818 C221.983714,29.5568818 222.187714,30.0788818 222.103714,30.6278818 C222.018714,31.1768818 221.650714,31.7828818 220.995714,32.4478818 L220.237714,33.2018818 Z" id="Fill-17" transform="translate(219.139391, 31.413010) rotate(-25.000000) translate(-219.139391, -31.413010) "></path>
            <polygon id="Fill-19" transform="translate(224.263489, 32.874582) rotate(-25.000000) translate(-224.263489, -32.874582) " points="222.467489 35.8265823 221.836489 35.2895823 225.395489 31.1035823 223.733489 30.4925823 224.217489 29.9225823 226.591489 30.7765823 226.690489 30.8595823"></polygon>
            <path d="M230.50568,34.3673365 C230.91468,33.8023365 231.13468,33.3333365 231.16368,32.9593365 C231.19268,32.5863365 231.03468,32.2743365 230.69168,32.0253365 C230.35068,31.7773365 230.00768,31.7253365 229.66468,31.8683365 C229.32168,32.0133365 228.95468,32.3493365 228.56268,32.8793365 L227.78768,33.9473365 C227.37568,34.5133365 227.15368,34.9923365 227.12268,35.3833365 C227.09068,35.7723365 227.24168,36.0893365 227.57568,36.3313365 C227.90468,36.5703365 228.24168,36.6203365 228.58668,36.4823365 C228.93168,36.3433365 229.30668,36.0023365 229.71168,35.4593365 L230.50568,34.3673365 Z M230.50968,35.7633365 C229.94368,36.5443365 229.38768,37.0283365 228.84568,37.2143365 C228.30268,37.4003365 227.74768,37.2873365 227.18068,36.8753365 C226.61968,36.4693365 226.34068,35.9823365 226.341677,35.4153365 C226.341677,34.8483365 226.60568,34.1933365 227.13068,33.4483365 L227.77668,32.5573365 C228.33768,31.7853365 228.88768,31.3093365 229.42668,31.1283365 C229.96568,30.9473365 230.51968,31.0633365 231.08968,31.4773365 C231.65368,31.8873365 231.93968,32.3693365 231.942724,32.9253365 C231.94668,33.4803365 231.67868,34.1383365 231.13768,34.8983365 L230.50968,35.7633365 Z" id="Fill-21" transform="translate(229.142200, 34.173375) rotate(-25.000000) translate(-229.142200, -34.173375) "></path>
        </g>
    </g>
</svg>