<?xml version="1.0" encoding="UTF-8"?>
<svg width="219px" height="70px" viewBox="0 0 219 70" version="1.1" xmlns="http://www.w3.org/2000/svg" xmlns:xlink="http://www.w3.org/1999/xlink">
    <title>Group 67</title>
    <defs>
        <polygon id="path-1" points="0.271138679 0.751 5.60429551 0.751 5.60429551 7.1518464 0.271138679 7.1518464"></polygon>
        <polygon id="path-3" points="0.271138679 0.751 5.60429551 0.751 5.60429551 7.1518464 0.271138679 7.1518464"></polygon>
    </defs>
    <g id="Page-1" stroke="none" stroke-width="1" fill="none" fill-rule="evenodd">
        <g id="Group-67">
            <path d="M58.7394267,4.2919 C59.0604267,3.6719 59.2064267,3.1749 59.1794267,2.8009 C59.1514267,2.4279 58.9484267,2.1439 58.5714267,1.9489 C58.1974267,1.7549 57.8514267,1.7549 57.5334267,1.9489 C57.2164267,2.1429 56.9034267,2.5309 56.5944267,3.1139 L55.9894267,4.2849 C55.6684267,4.9079 55.5204267,5.4149 55.5484267,5.8049 C55.5754267,6.1949 55.7724267,6.4849 56.1384267,6.6739 C56.5004267,6.8609 56.8414267,6.8599 57.1614267,6.6709 C57.4814267,6.4819 57.8014267,6.0889 58.1194267,5.4919 L58.7394267,4.2919 Z M58.9544267,5.6719 C58.5104267,6.5299 58.0354267,7.0909 57.5264267,7.3559 C57.0184267,7.6219 56.4524267,7.5939 55.8304267,7.2719 C55.2154267,6.9549 54.8654267,6.5159 54.7814267,5.9549 C54.6964267,5.3949 54.8574267,4.7069 55.2654267,3.8909 L55.7704267,2.9129 C56.2084267,2.0659 56.6804267,1.5129 57.1864267,1.2519 C57.6924267,0.9919 58.2574267,1.0239 58.8824267,1.3469 C59.5024267,1.6669 59.8564267,2.1019 59.9444267,2.6499 C60.0314267,3.1989 59.8654267,3.8899 59.4454267,4.7219 L58.9544267,5.6719 Z" id="Fill-63" fill="#FFFFFF"></path>
            <polygon id="Fill-65" fill="#FFFFFF" points="60.7780267 10.0185 60.0740267 9.5815 62.9720267 4.9145 61.2380267 4.5565 61.6330267 3.9205 64.1070267 4.4135 64.2160267 4.4815"></polygon>
            <path d="M67.6305267,10.0204 C68.0415267,9.4564 68.2605267,8.9864 68.2895267,8.6134 C68.3185267,8.2394 68.1615267,7.9284 67.8175267,7.6784 C67.4765267,7.4304 67.1345267,7.3784 66.7915267,7.5214 C66.4485267,7.6664 66.0805267,8.0024 65.6885267,8.5324 L64.9135267,9.5994 C64.5015267,10.1664 64.2795267,10.6454 64.2475267,11.0354 C64.2155267,11.4244 64.3665267,11.7414 64.7005267,11.9834 C65.0295267,12.2234 65.3665267,12.2734 65.7115267,12.1344 C66.0565267,11.9964 66.4315267,11.6554 66.8375267,11.1134 L67.6305267,10.0204 Z M67.6345267,11.4174 C67.0675267,12.1984 66.5125267,12.6814 65.9695267,12.8674 C65.4275267,13.0534 64.8725267,12.9404 64.3055267,12.5284 C63.7455267,12.1214 63.4655267,11.6344 63.466524,11.0674 C63.466524,10.5004 63.7305267,9.8454 64.2565267,9.1004 L64.9035267,8.2104 C65.4635267,7.4384 66.0135267,6.9624 66.5525267,6.7814 C67.0915267,6.6004 67.6465267,6.7164 68.2155267,7.1304 C68.7805267,7.5414 69.0655267,8.0234 69.0685708,8.5794 C69.0725267,9.1344 68.8045267,9.7924 68.2635267,10.5524 L67.6345267,11.4174 Z" id="Fill-67" fill="#FFFFFF"></path>
            <polygon id="Fill-69" fill="#FFFFFF" points="68.8053267 15.978 68.1733267 15.442 71.7223267 11.25 70.0603267 10.642 70.5443267 10.071 72.9193267 10.92 73.0173267 11.004"></polygon>
            <path d="M75.5817267,17.0165 C76.0737267,16.5215 76.3627267,16.0915 76.4487267,15.7265 C76.5347267,15.3625 76.4277267,15.0305 76.1257267,14.7305 C75.8267267,14.4335 75.4977267,14.3295 75.1357267,14.4185 C74.7747267,14.5075 74.3597267,14.7845 73.8917267,15.2475 L72.9607267,16.1835 C72.4667267,16.6805 72.1747267,17.1195 72.0827267,17.4995 C71.9917267,17.8795 72.0927267,18.2155 72.3857267,18.5065 C72.6737267,18.7935 72.9987267,18.8945 73.3617267,18.8105 C73.7237267,18.7265 74.1457267,18.4485 74.6297267,17.9745 L75.5817267,17.0165 Z M75.3717267,18.3965 C74.6907267,19.0815 74.0687267,19.4745 73.5037267,19.5745 C72.9397267,19.6745 72.4087267,19.4775 71.9117267,18.9835 C71.4197267,18.4955 71.2187267,17.9715 71.3067267,17.4125 C71.3937267,16.8515 71.7547267,16.2445 72.3897267,15.5895 L73.1647267,14.8085 C73.8367267,14.1325 74.4537267,13.7455 75.0147267,13.6495 C75.5747267,13.5545 76.1047267,13.7545 76.6037267,14.2495 C77.0987267,14.7425 77.3057267,15.2635 77.2247267,15.8125 C77.1437267,16.3615 76.7767267,16.9705 76.1257267,17.6385 L75.3717267,18.3965 Z" id="Fill-71" fill="#FFFFFF"></path>
            <polygon id="Fill-73" fill="#FFFFFF" points="75.7863267 23.0898 75.2503267 22.4568 79.4443267 18.9078 77.9043267 18.0338 78.4753267 17.5498 80.6783267 18.7788 80.7613267 18.8778"></polygon>
            <path d="M82.2672267,25.2753 C82.8402267,24.8763 83.2012267,24.5043 83.3502267,24.1613 C83.5002267,23.8183 83.4542267,23.4723 83.2112267,23.1233 C82.9702267,22.7773 82.6632267,22.6163 82.2922267,22.6393 C81.9212267,22.6633 81.4632267,22.8613 80.9192267,23.2333 L79.8372267,23.9873 C79.2622267,24.3883 78.8962267,24.7683 78.7382267,25.1263 C78.5802267,25.4843 78.6202267,25.8333 78.8562267,26.1713 C79.0892267,26.5053 79.3912267,26.6633 79.7622267,26.6453 C80.1332267,26.6273 80.6002267,26.4273 81.1602267,26.0473 L82.2672267,25.2753 Z M81.8142267,26.5963 C81.0222267,27.1483 80.3402267,27.4233 79.7662267,27.4213108 C79.1932267,27.4203 78.7052267,27.1313 78.3042267,26.5563 C77.9082267,25.9883 77.8042267,25.4373 77.9902267,24.9013 C78.1762267,24.3663 78.6402267,23.8333 79.3802267,23.3013 L80.2832267,22.6723 C81.0652267,22.1273 81.7402267,21.8573 82.3092267,21.8623 C82.8782267,21.8673 83.3642267,22.1583 83.7662267,22.7363 C84.1652267,23.3093 84.2762267,23.8583 84.0982267,24.3843 C83.9202267,24.9103 83.4512267,25.4433 82.6912267,25.9843 L81.8142267,26.5963 Z" id="Fill-75" fill="#FFFFFF"></path>
            <polygon id="Fill-77" fill="#FFFFFF" points="81.3400267 31.3046 80.9370267 30.5806 85.7360267 27.9066 84.3940267 26.7516 85.0480267 26.3876 86.9710267 28.0196 87.0340267 28.1326"></polygon>
            <path d="M87.2438267,34.7533 C87.8868267,34.4813 88.3168267,34.1913 88.5338267,33.8863 C88.7508267,33.5813 88.7768267,33.2333 88.6108267,32.8423 C88.4458267,32.4543 88.1798267,32.2323 87.8118267,32.1793 C87.4438267,32.1263 86.9548267,32.2253 86.3458267,32.4773 L85.1318267,32.9923 C84.4868267,33.2663 84.0498267,33.5623 83.8218267,33.8803 C83.5938267,34.1973 83.5598267,34.5463 83.7218267,34.9263 C83.8808267,35.3013 84.1428267,35.5183 84.5108267,35.5773 C84.8778267,35.6363 85.3748267,35.5373 86.0008267,35.2813 L87.2438267,34.7533 Z M86.5288267,35.9523 C85.6398267,36.3303 84.9148267,36.4583 84.3538267,36.3373 C83.7928267,36.2183 83.3758267,35.8353 83.1018267,35.1903 C82.8318267,34.5523 82.8428267,33.9913 83.1358267,33.5053 C83.4278267,33.0203 83.9918267,32.5933 84.8268267,32.2273 L85.8388267,31.7963 C86.7168267,31.4243 87.4328267,31.2993 87.9888267,31.4223 C88.5438267,31.5443 88.9588267,31.9293 89.2338267,32.5783 C89.5068267,33.2203 89.5018267,33.7803 89.2198267,34.2583 C88.9368267,34.7363 88.3678267,35.1623 87.5128267,35.5353 L86.5288267,35.9523 Z" id="Fill-79" fill="#FFFFFF"></path>
            <polygon id="Fill-81" fill="#FFFFFF" points="85.0558267 40.4574 84.8188267 39.6634 90.0818267 38.0884 89.0198267 36.6714 89.7378267 36.4574 91.2638267 38.4654 91.3008267 38.5894"></polygon>
            <path d="M90.0568267,45.0956 C90.7438267,44.9706 91.2258267,44.7836 91.5058267,44.5336 C91.7848267,44.2836 91.8858267,43.9496 91.8098267,43.5326 C91.7348267,43.1166 91.5238267,42.8436 91.1768267,42.7096 C90.8288267,42.5766 90.3308267,42.5656 89.6818267,42.6776 L88.3838267,42.9136 C87.6938267,43.0386 87.2028267,43.2316 86.9108267,43.4916 C86.6178267,43.7506 86.5088267,44.0836 86.5818267,44.4896 C86.6548267,44.8906 86.8638267,45.1596 87.2088267,45.2976 C87.5538267,45.4356 88.0598267,45.4496 88.7278267,45.3366 L90.0568267,45.0956 Z M89.0948267,46.1086 C88.1448267,46.2806 87.4098267,46.2456 86.8888267,46.0056 C86.3688267,45.7646 86.0458267,45.2996 85.9198267,44.6106 C85.7968267,43.9296 85.9308267,43.3846 86.3228267,42.9746 C86.7148267,42.5656 87.3588267,42.2736 88.2538267,42.0986 L89.3368267,41.9026 C90.2748267,41.7326 91.0008267,41.7676 91.5158267,42.0096 C92.0308267,42.2516 92.3508267,42.7186 92.4768267,43.4106 C92.6018267,44.0976 92.4738267,44.6436 92.0928267,45.0476 C91.7118267,45.4516 91.0628267,45.7416 90.1468267,45.9166 L89.0948267,46.1086 Z" id="Fill-83" fill="#FFFFFF"></path>
            <path d="M5.98002229,43.2583106 C6.30102229,42.6383106 6.44702229,42.1413106 6.42002229,41.7673106 C6.39202229,41.3943106 6.18902229,41.1103106 5.81202229,40.9153106 C5.43802229,40.7213106 5.09202229,40.7213106 4.77402229,40.9153106 C4.45702229,41.1093106 4.14402229,41.4973106 3.83502229,42.0803106 L3.23002229,43.2513106 C2.90902229,43.8743106 2.76102229,44.3813106 2.78902229,44.7713106 C2.81602229,45.1613106 3.01302229,45.4513106 3.37902229,45.6403106 C3.74102229,45.8273106 4.08202229,45.8263106 4.40202229,45.6373106 C4.72202229,45.4483106 5.04202229,45.0553106 5.36002229,44.4583106 L5.98002229,43.2583106 Z M6.19502229,44.6383106 C5.75102229,45.4963106 5.27602229,46.0573106 4.76702229,46.3223106 C4.25902229,46.5883106 3.69302229,46.5603106 3.07102229,46.2383106 C2.45602229,45.9213106 2.10602229,45.4823106 2.02202229,44.9213106 C1.93702229,44.3613106 2.09802229,43.6733106 2.50602229,42.8573106 L3.01102229,41.8793106 C3.44902229,41.0323106 3.92102229,40.4793106 4.42702229,40.2183106 C4.93302229,39.9583106 5.49802229,39.9903106 6.12302229,40.3133106 C6.74302229,40.6333106 7.09702229,41.0683106 7.18502229,41.6163106 C7.27202229,42.1653106 7.10602229,42.8563106 6.68602229,43.6883106 L6.19502229,44.6383106 Z" id="Fill-63" fill="#FFFFFF" transform="translate(4.603727, 43.273701) rotate(-25.000000) translate(-4.603727, -43.273701) "></path>
            <polygon id="Fill-65" fill="#FFFFFF" transform="translate(10.062694, 43.665566) rotate(-25.000000) translate(-10.062694, -43.665566) " points="8.69569422 46.7145662 7.99169422 46.2775662 10.8896942 41.6105662 9.15569422 41.2525662 9.55069422 40.6165662 12.0246942 41.1095662 12.1336942 41.1775662"></polygon>
            <path d="M16.3693407,44.7065408 C16.7803407,44.1425408 16.9993407,43.6725408 17.0283407,43.2995408 C17.0573407,42.9255408 16.9003407,42.6145408 16.5563407,42.3645408 C16.2153407,42.1165408 15.8733407,42.0645408 15.5303407,42.2075408 C15.1873407,42.3525408 14.8193407,42.6885408 14.4273407,43.2185408 L13.6523407,44.2855408 C13.2403407,44.8525408 13.0183407,45.3315408 12.9863407,45.7215408 C12.9543407,46.1105408 13.1053407,46.4275408 13.4393407,46.6695408 C13.7683407,46.9095408 14.1053407,46.9595408 14.4503407,46.8205408 C14.7953407,46.6825408 15.1703407,46.3415408 15.5763407,45.7995408 L16.3693407,44.7065408 Z M16.3733407,46.1035408 C15.8063407,46.8845408 15.2513407,47.3675408 14.7083407,47.5535408 C14.1663407,47.7395408 13.6113407,47.6265408 13.0443407,47.2145408 C12.4843407,46.8075408 12.2043407,46.3205408 12.205338,45.7535408 C12.205338,45.1865408 12.4693407,44.5315408 12.9953407,43.7865408 L13.6423407,42.8965408 C14.2023407,42.1245408 14.7523407,41.6485408 15.2913407,41.4675408 C15.8303407,41.2865408 16.3853407,41.4025408 16.9543407,41.8165408 C17.5193407,42.2275408 17.8043407,42.7095408 17.8073848,43.2655408 C17.8113407,43.8205408 17.5433407,44.4785408 17.0023407,45.2385408 L16.3733407,46.1035408 Z" id="Fill-67" fill="#FFFFFF" transform="translate(15.006361, 44.512580) rotate(-25.000000) translate(-15.006361, -44.512580) "></path>
            <polygon id="Fill-69" fill="#FFFFFF" transform="translate(20.280220, 45.582009) rotate(-25.000000) translate(-20.280220, -45.582009) " points="18.4902205 48.5355088 17.8582205 47.9995088 21.4072205 43.8075088 19.7452205 43.1995088 20.2292205 42.6285088 22.6042205 43.4775088 22.7022205 43.5615088"></polygon>
            <path d="M26.4395039,47.6872365 C26.9315039,47.1922365 27.2205039,46.7622365 27.3065039,46.3972365 C27.3925039,46.0332365 27.2855039,45.7012365 26.9835039,45.4012365 C26.6845039,45.1042365 26.3555039,45.0002365 25.9935039,45.0892365 C25.6325039,45.1782365 25.2175039,45.4552365 24.7495039,45.9182365 L23.8185039,46.8542365 C23.3245039,47.3512365 23.0325039,47.7902365 22.9405039,48.1702365 C22.8495039,48.5502365 22.9505039,48.8862365 23.2435039,49.1772365 C23.5315039,49.4642365 23.8565039,49.5652365 24.2195039,49.4812365 C24.5815039,49.3972365 25.0035039,49.1192365 25.4875039,48.6452365 L26.4395039,47.6872365 Z M26.2295039,49.0672365 C25.5485039,49.7522365 24.9265039,50.1452365 24.3615039,50.2452365 C23.7975039,50.3452365 23.2665039,50.1482365 22.7695039,49.6542365 C22.2775039,49.1662365 22.0765039,48.6422365 22.1645039,48.0832365 C22.2515039,47.5222365 22.6125039,46.9152365 23.2475039,46.2602365 L24.0225039,45.4792365 C24.6945039,44.8032365 25.3115039,44.4162365 25.8725039,44.3202365 C26.4325039,44.2252365 26.9625039,44.4252365 27.4615039,44.9202365 C27.9565039,45.4132365 28.1635039,45.9342365 28.0825039,46.4832365 C28.0015039,47.0322365 27.6345039,47.6412365 26.9835039,48.3092365 L26.2295039,49.0672365 Z" id="Fill-71" fill="#FFFFFF" transform="translate(25.122002, 47.283890) rotate(-25.000000) translate(-25.122002, -47.283890) "></path>
            <polygon id="Fill-73" fill="#FFFFFF" transform="translate(30.079541, 49.061983) rotate(-25.000000) translate(-30.079541, -49.061983) " points="27.8600413 51.8319833 27.3240413 51.1989833 31.5180413 47.6499833 29.9780413 46.7759833 30.5490413 46.2919833 32.7520413 47.5209833 32.8350413 47.6199833"></polygon>
            <path d="M35.883146,52.3299763 C36.456146,51.9309763 36.817146,51.5589763 36.966146,51.2159763 C37.116146,50.8729763 37.070146,50.5269763 36.827146,50.1779763 C36.586146,49.8319763 36.279146,49.6709763 35.908146,49.6939763 C35.537146,49.7179763 35.079146,49.9159763 34.535146,50.2879763 L33.453146,51.0419763 C32.878146,51.4429763 32.512146,51.8229763 32.354146,52.1809763 C32.196146,52.5389763 32.236146,52.8879763 32.472146,53.2259763 C32.705146,53.5599763 33.007146,53.7179763 33.378146,53.6999763 C33.749146,53.6819763 34.216146,53.4819763 34.776146,53.1019763 L35.883146,52.3299763 Z M35.430146,53.6509763 C34.638146,54.2029763 33.956146,54.4779763 33.382146,54.4759872 C32.809146,54.4749763 32.321146,54.1859763 31.920146,53.6109763 C31.524146,53.0429763 31.420146,52.4919763 31.606146,51.9559763 C31.792146,51.4209763 32.256146,50.8879763 32.996146,50.3559763 L33.899146,49.7269763 C34.681146,49.1819763 35.356146,48.9119763 35.925146,48.9169763 C36.494146,48.9219763 36.980146,49.2129763 37.382146,49.7909763 C37.781146,50.3639763 37.892146,50.9129763 37.714146,51.4389763 C37.536146,51.9649763 37.067146,52.4979763 36.307146,53.0389763 L35.430146,53.6509763 Z" id="Fill-75" fill="#FFFFFF" transform="translate(34.656570, 51.696448) rotate(-25.000000) translate(-34.656570, -51.696448) "></path>
            <polygon id="Fill-77" fill="#FFFFFF" transform="translate(39.102360, 54.262305) rotate(-25.000000) translate(-39.102360, -54.262305) " points="36.4568601 56.720805 36.0538601 55.996805 40.8528601 53.322805 39.5108601 52.167805 40.1648601 51.803805 42.0878601 53.435805 42.1508601 53.548805"></polygon>
            <path d="M44.2828585,58.7742647 C44.9258585,58.5022647 45.3558585,58.2122647 45.5728585,57.9072647 C45.7898585,57.6022647 45.8158585,57.2542647 45.6498585,56.8632647 C45.4848585,56.4752647 45.2188585,56.2532647 44.8508585,56.2002647 C44.4828585,56.1472647 43.9938585,56.2462647 43.3848585,56.4982647 L42.1708585,57.0132647 C41.5258585,57.2872647 41.0888585,57.5832647 40.8608585,57.9012647 C40.6328585,58.2182647 40.5988585,58.5672647 40.7608585,58.9472647 C40.9198585,59.3222647 41.1818585,59.5392647 41.5498585,59.5982647 C41.9168585,59.6572647 42.4138585,59.5582647 43.0398585,59.3022647 L44.2828585,58.7742647 Z M43.5678585,59.9732647 C42.6788585,60.3512647 41.9538585,60.4792647 41.3928585,60.3582647 C40.8318585,60.2392647 40.4148585,59.8562647 40.1408585,59.2112647 C39.8708585,58.5732647 39.8818585,58.0122647 40.1748585,57.5262647 C40.4668585,57.0412647 41.0308585,56.6142647 41.8658585,56.2482647 L42.8778585,55.8172647 C43.7558585,55.4452647 44.4718585,55.3202647 45.0278585,55.4432647 C45.5828585,55.5652647 45.9978585,55.9502647 46.2728585,56.5992647 C46.5458585,57.2412647 46.5408585,57.8012647 46.2588585,58.2792647 C45.9758585,58.7572647 45.4068585,59.1832647 44.5518585,59.5562647 L43.5678585,59.9732647 Z" id="Fill-79" fill="#FFFFFF" transform="translate(43.210220, 57.899923) rotate(-25.000000) translate(-43.210220, -57.899923) "></path>
            <polygon id="Fill-81" fill="#FFFFFF" transform="translate(46.856841, 61.251227) rotate(-25.000000) translate(-46.856841, -61.251227) " points="43.8528408 63.2512275 43.6158408 62.4572275 48.8788408 60.8822275 47.8168408 59.4652275 48.5348408 59.2512275 50.0608408 61.2592275 50.0978408 61.3832275"></polygon>
            <path d="M51.0922089,66.8879107 C51.7792089,66.7629107 52.2612089,66.5759107 52.5412089,66.3259107 C52.8202089,66.0759107 52.9212089,65.7419107 52.8452089,65.3249107 C52.7702089,64.9089107 52.5592089,64.6359107 52.2122089,64.5019107 C51.8642089,64.3689107 51.3662089,64.3579107 50.7172089,64.4699107 L49.4192089,64.7059107 C48.7292089,64.8309107 48.2382089,65.0239107 47.9462089,65.2839107 C47.6532089,65.5429107 47.5442089,65.8759107 47.6172089,66.2819107 C47.6902089,66.6829107 47.8992089,66.9519107 48.2442089,67.0899107 C48.5892089,67.2279107 49.0952089,67.2419107 49.7632089,67.1289107 L51.0922089,66.8879107 Z M50.1302089,67.9009107 C49.1802089,68.0729107 48.4452089,68.0379107 47.9242089,67.7979107 C47.4042089,67.5569107 47.0812089,67.0919107 46.9552089,66.4029107 C46.8322089,65.7219107 46.9662089,65.1769107 47.3582089,64.7669107 C47.7502089,64.3579107 48.3942089,64.0659107 49.2892089,63.8909107 L50.3722089,63.6949107 C51.3102089,63.5249107 52.0362089,63.5599107 52.5512089,63.8019107 C53.0662089,64.0439107 53.3862089,64.5109107 53.5122089,65.2029107 C53.6372089,65.8899107 53.5092089,66.4359107 53.1282089,66.8399107 C52.7472089,67.2439107 52.0982089,67.5339107 51.1822089,67.7089107 L50.1302089,67.9009107 Z" id="Fill-83" fill="#FFFFFF" transform="translate(50.234800, 65.798782) rotate(-25.000000) translate(-50.234800, -65.798782) "></path>
            <path d="M127.985804,42.9272 C127.307804,42.7632 126.790804,42.7402 126.433804,42.8552 C126.077804,42.9712 125.848804,43.2362 125.750804,43.6482 C125.651804,44.0582 125.733804,44.3952 125.997804,44.6562 C126.260804,44.9192 126.712804,45.1302 127.351804,45.2902 L128.634804,45.5992 C129.316804,45.7632 129.842804,45.7862 130.214804,45.6662 C130.588804,45.5472 130.822804,45.2862 130.919804,44.8852 C131.014804,44.4892 130.932804,44.1582 130.672804,43.8932 C130.413804,43.6272 129.954804,43.4102 129.297804,43.2432 L127.985804,42.9272 Z M129.275804,42.3902 C130.213804,42.6162 130.872804,42.9442 131.251804,43.3752 C131.630804,43.8052 131.737804,44.3612 131.573804,45.0432 C131.411804,45.7152 131.067804,46.1602 130.544804,46.3762 C130.019804,46.5922 129.313804,46.5982 128.423804,46.3972 L127.353804,46.1382 C126.426804,45.9152 125.776804,45.5892 125.403804,45.1602 C125.030804,44.7312 124.926804,44.1742 125.091804,43.4902 C125.255804,42.8112 125.591804,42.3642 126.104804,42.1482 C126.616804,41.9322 127.326804,41.9292 128.235804,42.1392 L129.275804,42.3902 Z" id="Fill-85" fill="#FFFFFF"></path>
            <polygon id="Fill-87" fill="#FFFFFF" points="133.082504 39.5888 132.818504 40.3748 127.610504 38.6238 127.659504 40.3938 126.950504 40.1558 126.862504 37.6348 126.903504 37.5118"></polygon>
            <path d="M131.577604,32.9057 C130.937604,32.6267 130.432604,32.5127 130.061604,32.5647 C129.690604,32.6167 129.420604,32.8367 129.250604,33.2267 C129.082604,33.6127 129.103604,33.9587 129.317604,34.2617 C129.531604,34.5667 129.939604,34.8527 130.542604,35.1217 L131.750604,35.6497 C132.392604,35.9307 132.908604,36.0437 133.296604,35.9917 C133.683604,35.9387 133.959604,35.7227 134.125604,35.3447 C134.287604,34.9717 134.265604,34.6317 134.055604,34.3247 C133.846604,34.0177 133.431604,33.7247 132.815604,33.4457 L131.577604,32.9057 Z M132.940604,32.6007 C133.825604,32.9877 134.417604,33.4257 134.715604,33.9157 C135.014604,34.4047 135.021604,34.9707 134.742604,35.6137 C134.465604,36.2477 134.050604,36.6257 133.496604,36.7467 C132.941604,36.8677 132.245604,36.7517 131.404604,36.3987 L130.395604,35.9577 C129.521604,35.5767 128.939604,35.1417 128.645604,34.6547 C128.353604,34.1667 128.348604,33.6007 128.629604,32.9557 C128.909604,32.3157 129.318604,31.9347 129.860604,31.8107 C130.402604,31.6877 131.101604,31.8077 131.961604,32.1737 L132.940604,32.6007 Z" id="Fill-89" fill="#FFFFFF"></path>
            <polygon id="Fill-91" fill="#FFFFFF" points="137.173304 30.5121 136.777304 31.2401 131.952304 28.6121 131.694304 30.3641 131.036304 30.0061 131.387304 27.5081 131.448304 27.3951"></polygon>
            <path d="M136.848104,23.6733 C136.266104,23.2873 135.788104,23.0883 135.413104,23.0743 C135.038104,23.0623 134.734104,23.2323 134.499104,23.5863 C134.266104,23.9383 134.229104,24.2813 134.387104,24.6183 C134.545104,24.9553 134.898104,25.3083 135.445104,25.6773 L136.543104,26.4063 C137.127104,26.7943 137.615104,26.9943 138.006104,27.0093 C138.397104,27.0253 138.706104,26.8603 138.935104,26.5163 C139.160104,26.1773 139.195104,25.8383 139.041104,25.5003 C138.888104,25.1613 138.532104,24.8003 137.973104,24.4193 L136.848104,23.6733 Z M138.243104,23.6093 C139.047104,24.1423 139.554104,24.6763 139.762104,25.2113 C139.972104,25.7453 139.883104,26.3043 139.495104,26.8883 C139.113104,27.4653 138.638104,27.7653 138.073104,27.7883 C137.505104,27.8123 136.839104,27.5773 136.073104,27.0833 L135.156104,26.4753 C134.361104,25.9483 133.862104,25.4193 133.658104,24.8883 C133.453104,24.3573 133.546104,23.7983 133.935104,23.2123 C134.321104,22.6303 134.791104,22.3253 135.346104,22.2983 C135.901104,22.2703 136.569104,22.5103 137.351104,23.0183 L138.243104,23.6093 Z" id="Fill-93" fill="#FFFFFF"></path>
            <polygon id="Fill-95" fill="#FFFFFF" points="142.772004 22.2768 142.256004 22.9258 137.955004 19.5098 137.399004 21.1918 136.813004 20.7268 137.586004 18.3248 137.667004 18.2238"></polygon>
            <path d="M143.596204,15.496 C143.087204,15.018 142.649204,14.741 142.283204,14.665 C141.915204,14.59 141.586204,14.707 141.295204,15.017 C141.006204,15.324 140.912204,15.657 141.012204,16.015 C141.111204,16.374 141.400204,16.781 141.876204,17.236 L142.836204,18.139 C143.348204,18.62 143.794204,18.899 144.178204,18.98 C144.561204,19.06 144.893204,18.95 145.176204,18.649 C145.454204,18.352 145.546204,18.024 145.452204,17.665 C145.359204,17.306 145.067204,16.891 144.579204,16.42 L143.596204,15.496 Z M144.982204,15.667 C145.686204,16.328 146.095204,16.939 146.211204,17.5 C146.328204,18.062 146.146204,18.599 145.666204,19.109 C145.193204,19.614 144.674204,19.83 144.113204,19.759 C143.550204,19.687 142.933204,19.343 142.259204,18.728 L141.457204,17.975 C140.762204,17.321 140.359204,16.716 140.247204,16.159 C140.135204,15.601 140.321204,15.066 140.801204,14.553 C141.280204,14.044 141.794204,13.823 142.346204,13.889 C142.898204,13.954 143.517204,14.303 144.201204,14.935 L144.982204,15.667 Z" id="Fill-97" fill="#FFFFFF"></path>
            <polygon id="Fill-99" fill="#FFFFFF" points="149.663604 15.0971 149.049604 15.6541 145.358604 11.5851 144.537604 13.1531 144.034604 12.5991 145.187604 10.3561 145.283604 10.2691"></polygon>
            <path d="M151.560104,8.5185 C151.131104,7.9675 150.742104,7.6255 150.391104,7.4945 C150.040104,7.3625 149.698104,7.4265 149.363104,7.6865 C149.029104,7.9455 148.884104,8.2605 148.926104,8.6295 C148.968104,8.9985 149.190104,9.4455 149.589104,9.9705 L150.399104,11.0115 C150.829104,11.5645 151.227104,11.9115 151.592104,12.0505 C151.958104,12.1895 152.304104,12.1325 152.630104,11.8795 C152.952104,11.6295 153.093104,11.3195 153.057104,10.9495 C153.019104,10.5805 152.796104,10.1245 152.387104,9.5845 L151.560104,8.5185 Z M152.903104,8.9025 C153.495104,9.6655 153.804104,10.3325 153.831104,10.9055 C153.860104,11.4785 153.597104,11.9805 153.043104,12.4105 C152.497104,12.8345 151.951104,12.9685 151.407104,12.8105 C150.863104,12.6515 150.306104,12.2155 149.738104,11.5035 L149.062104,10.6345 C148.477104,9.8815 148.172104,9.2205 148.149104,8.6525 C148.124104,8.0845 148.391104,7.5835 148.946104,7.1525 C149.497104,6.7245 150.040104,6.5855 150.575104,6.7355 C151.110104,6.8865 151.666104,7.3275 152.246104,8.0585 L152.903104,8.9025 Z" id="Fill-101" fill="#FFFFFF"></path>
            <polygon id="Fill-103" fill="#FFFFFF" points="157.613804 9.0395 156.924804 9.4995 153.872804 4.9325 152.829804 6.3625 152.414804 5.7405 153.884804 3.6915 153.992804 3.6195"></polygon>
            <g id="Group-107" transform="translate(156.759404, 0.000000)">
                <mask id="mask-2" fill="white">
                    <use xlink:href="#path-1"></use>
                </mask>
                <g id="Clip-106"></g>
                <path d="M3.6757,2.7831 C3.3267,2.1781 2.9887,1.7861 2.6597,1.6071 C2.3307,1.4281 1.9817,1.4451 1.6127,1.6561 C1.2477,1.8671 1.0617,2.1581 1.0527,2.5291 C1.0427,2.9011 1.2007,3.3741 1.5247,3.9491 L2.1827,5.0921 C2.5307,5.7001 2.8777,6.0971 3.2217,6.2861 C3.5647,6.4741 3.9137,6.4651 4.2727,6.2591 C4.6247,6.0561 4.8087,5.7691 4.8217,5.3971 C4.8367,5.0261 4.6787,4.5451 4.3497,3.9531 L3.6757,2.7831 Z M4.9517,3.3491 C5.4337,4.1861 5.6487,4.8901 5.5967,5.4611 C5.5447,6.0321 5.2157,6.4921 4.6077,6.8421 C4.0077,7.1871 3.4487,7.2441 2.9327,7.0121 C2.4147,6.7801 1.9237,6.2721 1.4587,5.4881 L0.9097,4.5341 C0.4347,3.7071 0.2247,3.0111 0.2797,2.4451 C0.3327,1.8791 0.6657,1.4201 1.2767,1.0691 C1.8807,0.7211 2.4377,0.6581 2.9467,0.8821 C3.4547,1.1051 3.9467,1.6181 4.4187,2.4221 L4.9517,3.3491 Z" id="Fill-105" fill="#FFFFFF" mask="url(#mask-2)"></path>
            </g>
            <path d="M168.423697,64.5850499 C167.745697,64.4210499 167.228697,64.3980499 166.871697,64.5130499 C166.515697,64.6290499 166.286697,64.8940499 166.188697,65.3060499 C166.089697,65.7160499 166.171697,66.0530499 166.435697,66.3140499 C166.698697,66.5770499 167.150697,66.7880499 167.789697,66.9480499 L169.072697,67.2570499 C169.754697,67.4210499 170.280697,67.4440499 170.652697,67.3240499 C171.026697,67.2050499 171.260697,66.9440499 171.357697,66.5430499 C171.452697,66.1470499 171.370697,65.8160499 171.110697,65.5510499 C170.851697,65.2850499 170.392697,65.0680499 169.735697,64.9010499 L168.423697,64.5850499 Z M169.713697,64.0480499 C170.651697,64.2740499 171.310697,64.6020499 171.689697,65.0330499 C172.068697,65.4630499 172.175697,66.0190499 172.011697,66.7010499 C171.849697,67.3730499 171.505697,67.8180499 170.982697,68.0340499 C170.457697,68.2500499 169.751697,68.2560499 168.861697,68.0550499 L167.791697,67.7960499 C166.864697,67.5730499 166.214697,67.2470499 165.841697,66.8180499 C165.468697,66.3890499 165.364697,65.8320499 165.529697,65.1480499 C165.693697,64.4690499 166.029697,64.0220499 166.542697,63.8060499 C167.054697,63.5900499 167.764697,63.5870499 168.673697,63.7970499 L169.713697,64.0480499 Z" id="Fill-85" fill="#FFFFFF" transform="translate(168.769948, 65.921428) rotate(25.000000) translate(-168.769948, -65.921428) "></path>
            <polygon id="Fill-87" fill="#FFFFFF" transform="translate(172.501132, 61.801512) rotate(25.000000) translate(-172.501132, -61.801512) " points="175.611132 62.4375122 175.347132 63.2235122 170.139132 61.4725122 170.188132 63.2425122 169.479132 63.0045122 169.391132 60.4835122 169.432132 60.3605122"></polygon>
            <path d="M175.921271,56.9158107 C175.281271,56.6368107 174.776271,56.5228107 174.405271,56.5748107 C174.034271,56.6268107 173.764271,56.8468107 173.594271,57.2368107 C173.426271,57.6228107 173.447271,57.9688107 173.661271,58.2718107 C173.875271,58.5768107 174.283271,58.8628107 174.886271,59.1318107 L176.094271,59.6598107 C176.736271,59.9408107 177.252271,60.0538107 177.640271,60.0018107 C178.027271,59.9488107 178.303271,59.7328107 178.469271,59.3548107 C178.631271,58.9818107 178.609271,58.6418107 178.399271,58.3348107 C178.190271,58.0278107 177.775271,57.7348107 177.159271,57.4558107 L175.921271,56.9158107 Z M177.284271,56.6108107 C178.169271,56.9978107 178.761271,57.4358107 179.059271,57.9258107 C179.358271,58.4148107 179.365271,58.9808107 179.086271,59.6238107 C178.809271,60.2578107 178.394271,60.6358107 177.840271,60.7568107 C177.285271,60.8778107 176.589271,60.7618107 175.748271,60.4088107 L174.739271,59.9678107 C173.865271,59.5868107 173.283271,59.1518107 172.989271,58.6648107 C172.697271,58.1768107 172.692271,57.6108107 172.973271,56.9658107 C173.253271,56.3258107 173.662271,55.9448107 174.204271,55.8208107 C174.746271,55.6978107 175.445271,55.8178107 176.305271,56.1838107 L177.284271,56.6108107 Z" id="Fill-89" fill="#FFFFFF" transform="translate(176.028017, 58.288654) rotate(25.000000) translate(-176.028017, -58.288654) "></path>
            <polygon id="Fill-91" fill="#FFFFFF" transform="translate(180.318279, 54.815441) rotate(25.000000) translate(-180.318279, -54.815441) " points="183.386779 56.0099409 182.990779 56.7379409 178.165779 54.1099409 177.907779 55.8619409 177.249779 55.5039409 177.600779 53.0059409 177.661779 52.8929409"></polygon>
            <path d="M184.623767,50.6736894 C184.041767,50.2876894 183.563767,50.0886894 183.188767,50.0746894 C182.813767,50.0626894 182.509767,50.2326894 182.274767,50.5866894 C182.041767,50.9386894 182.004767,51.2816894 182.162767,51.6186894 C182.320767,51.9556894 182.673767,52.3086894 183.220767,52.6776894 L184.318767,53.4066894 C184.902767,53.7946894 185.390767,53.9946894 185.781767,54.0096894 C186.172767,54.0256894 186.481767,53.8606894 186.710767,53.5166894 C186.935767,53.1776894 186.970767,52.8386894 186.816767,52.5006894 C186.663767,52.1616894 186.307767,51.8006894 185.748767,51.4196894 L184.623767,50.6736894 Z M186.018767,50.6096894 C186.822767,51.1426894 187.329767,51.6766894 187.537767,52.2116894 C187.747767,52.7456894 187.658767,53.3046894 187.270767,53.8886894 C186.888767,54.4656894 186.413767,54.7656894 185.848767,54.7886894 C185.280767,54.8126894 184.614767,54.5776894 183.848767,54.0836894 L182.931767,53.4756894 C182.136767,52.9486894 181.637767,52.4196894 181.433767,51.8886894 C181.228767,51.3576894 181.321767,50.7986894 181.710767,50.2126894 C182.096767,49.6306894 182.566767,49.3256894 183.121767,49.2986894 C183.676767,49.2706894 184.344767,49.5106894 185.126767,50.0186894 L186.018767,50.6096894 Z" id="Fill-93" fill="#FFFFFF" transform="translate(184.488152, 52.043426) rotate(25.000000) translate(-184.488152, -52.043426) "></path>
            <polygon id="Fill-95" fill="#FFFFFF" transform="translate(189.167953, 49.295499) rotate(25.000000) translate(-189.167953, -49.295499) " points="192.147453 50.9974991 191.631453 51.6464991 187.330453 48.2304991 186.774453 49.9124991 186.188453 49.4474991 186.961453 47.0454991 187.042453 46.9444991"></polygon>
            <path d="M194.234311,46.0210288 C193.725311,45.5430288 193.287311,45.2660288 192.921311,45.1900288 C192.553311,45.1150288 192.224311,45.2320288 191.933311,45.5420288 C191.644311,45.8490288 191.550311,46.1820288 191.650311,46.5400288 C191.749311,46.8990288 192.038311,47.3060288 192.514311,47.7610288 L193.474311,48.6640288 C193.986311,49.1450288 194.432311,49.4240288 194.816311,49.5050288 C195.199311,49.5850288 195.531311,49.4750288 195.814311,49.1740288 C196.092311,48.8770288 196.184311,48.5490288 196.090311,48.1900288 C195.997311,47.8310288 195.705311,47.4160288 195.217311,46.9450288 L194.234311,46.0210288 Z M195.620311,46.1920288 C196.324311,46.8530288 196.733311,47.4640288 196.849311,48.0250288 C196.966311,48.5870288 196.784311,49.1240288 196.304311,49.6340288 C195.831311,50.1390288 195.312311,50.3550288 194.751311,50.2840288 C194.188311,50.2120288 193.571311,49.8680288 192.897311,49.2530288 L192.095311,48.5000288 C191.400311,47.8460288 190.997311,47.2410288 190.885311,46.6840288 C190.773311,46.1260288 190.959311,45.5910288 191.439311,45.0780288 C191.918311,44.5690288 192.432311,44.3480288 192.984311,44.4140288 C193.536311,44.4790288 194.155311,44.8280288 194.839311,45.4600288 L195.620311,46.1920288 Z" id="Fill-97" fill="#FFFFFF" transform="translate(193.868684, 47.349923) rotate(25.000000) translate(-193.868684, -47.349923) "></path>
            <polygon id="Fill-99" fill="#FFFFFF" transform="translate(198.780881, 45.377845) rotate(25.000000) translate(-198.780881, -45.377845) " points="201.595381 47.5133446 200.981381 48.0703446 197.290381 44.0013446 196.469381 45.5693446 195.966381 45.0153446 197.119381 42.7723446 197.215381 42.6853446"></polygon>
            <path d="M204.450218,42.9834008 C204.021218,42.4324008 203.632218,42.0904008 203.281218,41.9594008 C202.930218,41.8274008 202.588218,41.8914008 202.253218,42.1514008 C201.919218,42.4104008 201.774218,42.7254008 201.816218,43.0944008 C201.858218,43.4634008 202.080218,43.9104008 202.479218,44.4354008 L203.289218,45.4764008 C203.719218,46.0294008 204.117218,46.3764008 204.482218,46.5154008 C204.848218,46.6544008 205.194218,46.5974008 205.520218,46.3444008 C205.842218,46.0944008 205.983218,45.7844008 205.947218,45.4144008 C205.909218,45.0454008 205.686218,44.5894008 205.277218,44.0494008 L204.450218,42.9834008 Z M205.793218,43.3674008 C206.385218,44.1304008 206.694218,44.7974008 206.721218,45.3704008 C206.750218,45.9434008 206.487218,46.4454008 205.933218,46.8754008 C205.387218,47.2994008 204.841218,47.4334008 204.297218,47.2754008 C203.753218,47.1164008 203.196218,46.6804008 202.628218,45.9684008 L201.952218,45.0994008 C201.367218,44.3464008 201.062218,43.6854008 201.039218,43.1174008 C201.014218,42.5494008 201.281218,42.0484008 201.836218,41.6174008 C202.387218,41.1894008 202.930218,41.0504008 203.465218,41.2004008 C204.000218,41.3514008 204.556218,41.7924008 205.136218,42.5234008 L205.793218,43.3674008 Z" id="Fill-101" fill="#FFFFFF" transform="translate(203.880495, 44.240785) rotate(25.000000) translate(-203.880495, -44.240785) "></path>
            <polygon id="Fill-103" fill="#FFFFFF" transform="translate(208.886710, 43.026334) rotate(25.000000) translate(-208.886710, -43.026334) " points="211.48621 45.5063342 210.79721 45.9663342 207.74521 41.3993342 206.70221 42.8293342 206.28721 42.2073342 207.75721 40.1583342 207.86521 40.0863342"></polygon>
            <g id="Group-107" transform="translate(214.268923, 42.712005) rotate(25.000000) translate(-214.268923, -42.712005) translate(211.268923, 38.712005)">
                <mask id="mask-4" fill="white">
                    <use xlink:href="#path-3"></use>
                </mask>
                <g id="Clip-106"></g>
                <path d="M3.6757,2.7831 C3.3267,2.1781 2.9887,1.7861 2.6597,1.6071 C2.3307,1.4281 1.9817,1.4451 1.6127,1.6561 C1.2477,1.8671 1.0617,2.1581 1.0527,2.5291 C1.0427,2.9011 1.2007,3.3741 1.5247,3.9491 L2.1827,5.0921 C2.5307,5.7001 2.8777,6.0971 3.2217,6.2861 C3.5647,6.4741 3.9137,6.4651 4.2727,6.2591 C4.6247,6.0561 4.8087,5.7691 4.8217,5.3971 C4.8367,5.0261 4.6787,4.5451 4.3497,3.9531 L3.6757,2.7831 Z M4.9517,3.3491 C5.4337,4.1861 5.6487,4.8901 5.5967,5.4611 C5.5447,6.0321 5.2157,6.4921 4.6077,6.8421 C4.0077,7.1871 3.4487,7.2441 2.9327,7.0121 C2.4147,6.7801 1.9237,6.2721 1.4587,5.4881 L0.9097,4.5341 C0.4347,3.7071 0.2247,3.0111 0.2797,2.4451 C0.3327,1.8791 0.6657,1.4201 1.2767,1.0691 C1.8807,0.7211 2.4377,0.6581 2.9467,0.8821 C3.4547,1.1051 3.9467,1.6181 4.4187,2.4221 L4.9517,3.3491 Z" id="Fill-105" fill="#FFFFFF" mask="url(#mask-4)"></path>
            </g>
        </g>
    </g>
</svg>