<?xml version="1.0" encoding="UTF-8"?>
<svg width="7px" height="15px" viewBox="0 0 7 15" version="1.1" xmlns="http://www.w3.org/2000/svg" xmlns:xlink="http://www.w3.org/1999/xlink">
    <title>Group 58</title>
    <defs>
        <polygon id="path-1" points="0 0.398 6.665 0.398 6.665 4.4917 0 4.4917"></polygon>
        <polygon id="path-3" points="0 0.6526 6.665 0.6526 6.665 4.7476 0 4.7476"></polygon>
    </defs>
    <g id="Page-1" stroke="none" stroke-width="1" fill="none" fill-rule="evenodd">
        <g id="Group-58">
            <g id="Group-3">
                <mask id="mask-2" fill="white">
                    <use xlink:href="#path-1"></use>
                </mask>
                <g id="Clip-2"></g>
                <path d="M3.9829,3.6677 C4.6809,3.6677 5.1899,3.5697 5.5089,3.3737 C5.8289,3.1777 5.9879,2.8677 5.9879,2.4427 C5.9879,2.0207 5.8299,1.7127 5.5109,1.5207 C5.1929,1.3277 4.7049,1.2277 4.0449,1.2217 L2.7269,1.2217 C2.0249,1.2217 1.5079,1.3237 1.1729,1.5267 C0.8389,1.7307 0.6729,2.0387 0.6729,2.4517 C0.6729,2.8577 0.8309,3.1607 1.1449,3.3577 C1.4599,3.5557 1.9559,3.6587 2.6329,3.6677 L3.9829,3.6677 Z M2.8559,4.4917 C1.8909,4.4917 1.1729,4.3277 0.7039,3.9977 C0.2339,3.6677 -0.0001,3.1527 -0.0001,2.4517 C-0.0001,1.7597 0.2289,1.2477 0.6879,0.9147 C1.1479,0.5817 1.8329,0.4097 2.7449,0.3977 L3.8449,0.3977 C4.7979,0.3977 5.5069,0.5627 5.9699,0.8927 C6.4339,1.2217 6.6659,1.7387 6.6659,2.4427 C6.6659,3.1407 6.4409,3.6547 5.9949,3.9837 C5.5479,4.3137 4.8579,4.4827 3.9249,4.4917 L2.8559,4.4917 Z" id="Fill-1" fill="#FFFFFF" mask="url(#mask-2)"></path>
            </g>
            <polygon id="Fill-4" fill="#FFFFFF" points="0.0889 8.2487 0.0889 7.4197 5.5829 7.4197 4.9719 5.7587 5.7209 5.7587 6.6079 8.1197 6.6079 8.2487"></polygon>
            <g id="Group-8" transform="translate(0.000000, 10.000000)">
                <mask id="mask-4" fill="white">
                    <use xlink:href="#path-3"></use>
                </mask>
                <g id="Clip-7"></g>
                <path d="M3.9829,3.9236 C4.6809,3.9236 5.1899,3.8256 5.5089,3.6296 C5.8289,3.4336 5.9879,3.1226 5.9879,2.6976 C5.9879,2.2766 5.8299,1.9686 5.5109,1.7766 C5.1929,1.5826 4.7049,1.4836 4.0449,1.4776 L2.7269,1.4776 C2.0249,1.4776 1.5079,1.5786 1.1729,1.7826 C0.8389,1.9866 0.6729,2.2946 0.6729,2.7076 C0.6729,3.1136 0.8309,3.4166 1.1449,3.6136 C1.4599,3.8116 1.9559,3.9146 2.6329,3.9236 L3.9829,3.9236 Z M2.8559,4.7476 C1.8909,4.7476 1.1729,4.5826 0.7039,4.2536 C0.2339,3.9236 -0.0001,3.4076 -0.0001,2.7076 C-0.0001,2.0156 0.2289,1.5026 0.6879,1.1706 C1.1479,0.8376 1.8329,0.6656 2.7449,0.6526 L3.8449,0.6526 C4.7979,0.6526 5.5069,0.8186 5.9699,1.1476 C6.4339,1.4776 6.6659,1.9946 6.6659,2.6976 C6.6659,3.3966 6.4409,3.9096 5.9949,4.2396 C5.5479,4.5696 4.8579,4.7386 3.9249,4.7476 L2.8559,4.7476 Z" id="Fill-6" fill="#FFFFFF" mask="url(#mask-4)"></path>
            </g>
        </g>
    </g>
</svg>