<?xml version="1.0" encoding="UTF-8"?>
<svg width="178px" height="181px" viewBox="0 0 178 181" version="1.1" xmlns="http://www.w3.org/2000/svg" xmlns:xlink="http://www.w3.org/1999/xlink">
    <title>ai-connector-top+middle-mobile</title>
    <defs>
        <rect id="path-1" x="0" y="0" width="178" height="181"></rect>
        <polygon id="path-3" points="0 0.398 6.665 0.398 6.665 4.4917 0 4.4917"></polygon>
        <polygon id="path-5" points="0 0.6526 6.665 0.6526 6.665 4.7476 0 4.7476"></polygon>
    </defs>
    <g id="Page-1" stroke="none" stroke-width="1" fill="none" fill-rule="evenodd">
        <g id="ai-connector-top+middle-mobile">
            <mask id="mask-2" fill="white">
                <use xlink:href="#path-1"></use>
            </mask>
            <g id="Mask"></g>
            <g id="Group-10" mask="url(#mask-2)">
                <g transform="translate(11.000000, 3.000000)">
                    <g id="bg-ai" transform="translate(18.000000, 28.000000)">
                        <g id="Group-55">
                            <g id="Group-54">
                                <g id="Group-53">
                                    <g id="Group-32-Copy">
                                        <g id="Group-18" opacity="0.200000003" transform="translate(1.430253, 1.445870)" stroke="#FFFFFF">
                                            <g id="Group-17">
                                                <g id="Group-16">
                                                    <polyline id="Path-21" points="41.6240735 87.3174982 41.6240735 90.3291389 39.393323 92.6502378 35.731249 92.6502378 33.1722783 94.5976836 33.1722783 111.438372"></polyline>
                                                    <polyline id="Path-22" points="37.3981759 84.9787796 37.3981759 86.8317127 34.133445 88.7631738 29.1454356 93.8184502 29.1454356 98.2433549"></polyline>
                                                    <polyline id="Path-23" points="33.1722783 81.5058276 33.1722783 84.0359913 23.6203603 93.3166822"></polyline>
                                                    <polyline id="Path-24" points="27.2899975 71.8652403 26.3444258 83.713888 15.9144726 94.0953236 15.9144726 98.7321309 13.674573 100.923552 7.80157542 100.923552"></polyline>
                                                    <polyline id="Path-25" points="25.7340081 68.8294375 23.6203603 70.4038713 19.3834866 70.4038713 16.9070634 72.8536771 16.9070634 80.4463571 1.6866632 96.1208145"></polyline>
                                                    <polyline id="Path-26" points="6.89894441 77.4874524 6.89894441 68.59086 9.7881048 65.8327647 20.7042457 65.8327647 24.6564587 63.3908921"></polyline>
                                                    <polyline id="Path-27" points="0.953170233 58.535908 6.89894441 52.6450531 18.0989473 52.6450531 23.6203603 56.7860564"></polyline>
                                                    <polyline id="Path-28" points="23.6203603 60.0358407 19.6045116 61.7266192 5.59604257 61.7266192 2.39657119 64.322652 2.39657119 73.1895949"></polyline>
                                                    <polyline id="Path-29" points="6.89894441 42.2390217 12.2540832 42.2390217 14.3179377 40.0981792 19.3541738 40.0981792 21.3922533 42.2390217 21.3922533 45.7841816 25.1900562 47.0900902"></polyline>
                                                    <polyline id="Path-30" points="2.55247308e-15 35.181721 20.3885438 35.181721 23.6203603 37.3306499 23.6203603 40.0981792 27.2899975 41.3093729"></polyline>
                                                    <polyline id="Path-31" points="6.89894441 28.1971969 26.4643723 28.1971969 28.390502 29.9317564 32.3909641 33.7469108"></polyline>
                                                    <polyline id="Path-32" points="6.19307956 14.4562489 13.6147683 14.4562489 16.4596226 17.0671065 25.845098 17.0671065 38.4986529 28.1971969"></polyline>
                                                    <polyline id="Path-33" points="12.2345414 7.18803108 24.0199573 7.18803108 35.2578647 17.6274183 43.9617341 17.6274183 46.7070261 19.4616561 46.7070261 24.7906165"></polyline>
                                                    <polyline id="Path-34" points="35.4367736 2.67925622 40.1891476 7.18803108 47.2282543 7.18803108 50.1369565 9.41883353 50.1369565 23.6528177"></polyline>
                                                    <polyline id="Path-35" points="43.5803313 0 49.3657276 4.67117648 52.0284721 4.67117648 55.5749797 7.77327556 55.5749797 22.806875"></polyline>
                                                    <polyline id="Path-36" points="66.173734 4.47003027 63.2576193 7.18803108 63.2576193 18.0691313 58.8123916 22.806875"></polyline>
                                                    <polyline id="Path-37" points="69.9564284 11.5910105 69.9564284 16.0697987 64.4056138 22.806875"></polyline>
                                                    <polyline id="Path-38" points="74.0635847 7.74733207 74.0635847 12.8983766 75.9096153 14.4562489 75.9096153 19.7376004 74.0635847 22.0688076 68.9777815 24.0043501"></polyline>
                                                    <polyline id="Path" points="76.7296982 27.8331262 77.9797025 27.8331262 77.9797025 24.7135879 80.7134967 24.7135879 80.7134967 11.8189749 83.6868175 8.86722749 90.7282073 8.86722749 99.6235142 6.82978829e-13"></polyline>
                                                    <polyline id="Path-2" points="90.7196465 15.0035749 90.7196465 24.2830882 82.2753207 33.0051253"></polyline>
                                                    <polyline id="Path-3" points="107.321686 15.0035749 100.910024 15.0035749 98.8951658 17.097535 98.8951658 22.0418832 88.8054625 32.2651339 88.8054625 39.988486"></polyline>
                                                    <polyline id="Path-4" points="114.615447 17.1427357 109.567684 22.4093107 109.567684 29.6561589 107.321686 31.4217285 102.751271 31.4217285 97.4549047 36.7451468 97.4549047 44.771366 95.9985491 46.6242553 91.9660247 46.6242553"></polyline>
                                                    <polyline id="Path-5" points="105.332167 37.183115 108.1918 39.9691263 108.1918 48.2713441 106.081404 50.4399539 92.9943316 50.4399539"></polyline>
                                                    <polyline id="Path-6" points="115.685199 43.8115345 115.685199 52.6476008 113.534737 55.9212325 96.5875287 55.9212325 93.6327716 56.9501439"></polyline>
                                                    <polyline id="Path-7" points="112.801245 60.2454399 108.881797 64.7134679 95.5753055 64.7134679 93.1003476 62.6970448"></polyline>
                                                    <line x1="91.6474982" y1="68.4538318" x2="113.392629" y2="68.4538318" id="Path-8"></line>
                                                    <polyline id="Path-9" points="90.4531789 71.5427342 92.8358647 71.6925357 95.1263796 73.4029738 95.1263796 75.8955229 97.8521236 78.0117411 106.757361 78.0117411 109.054382 75.3767411 113.392629 75.3767411"></polyline>
                                                    <polyline id="Path-10" points="88.9575302 74.6326407 90.6580095 74.6326407 92.7875825 76.7889229 92.7875825 80.413888 96.5875287 83.61424 116.251391 83.61424"></polyline>
                                                    <polyline id="Path-11" points="84.7322567 80.0998793 84.7322567 81.268936 87.8360429 80.684408 99.3273091 92.5838538 106.208445 92.5838538 108.1918 94.5007775 108.1918 100.613497 113.392629 105.420188"></polyline>
                                                    <line x1="82.3554495" y1="82.947528" x2="92.5174051" y2="92.7600342" id="Path-12"></line>
                                                    <polyline id="Path-13" points="70.4954284 89.5837607 72.4866137 89.409184 83.5604611 89.409184 93.1731585 99.5899738 99.3273091 99.5899738 101.326077 101.632569 101.326077 107.996633"></polyline>
                                                    <polyline id="Path-14" points="66.8649388 90.9398727 69.2530463 91.2350218 69.2530463 96.2358705 72.0109783 98.9369593 79.827288 98.9369593 94.7459404 113.70734"></polyline>
                                                    <polyline id="Path-16" points="61.8673587 92.26236 65.4394023 94.1744415 65.4394023 106.337901 67.4977495 108.881472 76.6334422 108.881472 79.1776982 105.420188"></polyline>
                                                    <polyline id="Path-17" points="59.1263609 90.9573469 59.1263609 92.7600342 61.1335312 95.2787789 61.1335312 110.990156 65.2520929 115.518452 74.6035164 115.518452"></polyline>
                                                    <polyline id="Path-18" points="56.0311352 90.9398727 56.0311352 93.1985156 52.0500428 97.0066807 52.0500428 109.366695 56.0311352 113.08393"></polyline>
                                                    <polyline id="Path-19" points="50.682377 90.3382844 50.682377 91.6955898 47.0827518 96.1208145"></polyline>
                                                    <polyline id="Path-20" points="44.6881381 88.8382276 44.6881381 91.4762633 42.7308076 94.7990342 40.0191036 94.7990342 38.560009 96.1208145 38.560009 101.898295 41.6240735 103.493677 41.6240735 108.881472"></polyline>
                                                </g>
                                            </g>
                                        </g>
                                        <g id="Group-31" fill="#574390" fill-rule="nonzero">
                                            <path d="M100.83231,2.67574233 C101.365839,2.67574233 101.798351,2.24323109 101.798351,1.70970143 C101.798351,1.17617177 101.365839,0.743660538 100.83231,0.743660538 C100.29878,0.743660538 99.8662684,1.17617177 99.8662684,1.70970143 C99.8662684,2.24323109 100.29878,2.67574233 100.83231,2.67574233 Z" id="Oval"></path>
                                            <path d="M109.30482,17.4154858 C109.838349,17.4154858 110.27086,16.9829745 110.27086,16.4494449 C110.27086,15.9159153 109.838349,15.483404 109.30482,15.483404 C108.77129,15.483404 108.338779,15.9159153 108.338779,16.4494449 C108.338779,16.9829745 108.77129,17.4154858 109.30482,17.4154858 Z" id="Oval-Copy-2"></path>
                                            <path d="M92.153512,16.9025244 C92.6870415,16.9025244 93.1195527,16.4700132 93.1195527,15.9364835 C93.1195527,15.4029538 92.6870415,14.9704426 92.153512,14.9704426 C91.6199825,14.9704426 91.1874713,15.4029538 91.1874713,15.9364835 C91.1874713,16.4700132 91.6199825,16.9025244 92.153512,16.9025244 Z" id="Oval-Copy-5"></path>
                                            <path d="M75.4841084,9.56944647 C76.0176378,9.56944647 76.4501491,9.13693527 76.4501491,8.6034056 C76.4501491,8.06987593 76.0176378,7.63736465 75.4841084,7.63736465 C74.9505789,7.63736465 74.5180676,8.06987593 74.5180676,8.6034056 C74.5180676,9.13693527 74.9505789,9.56944647 75.4841084,9.56944647 Z" id="Oval-Copy-6"></path>
                                            <path d="M71.3740753,13.3553614 C71.907605,13.3553614 72.3401162,12.9228501 72.3401162,12.3893204 C72.3401162,11.8557908 71.907605,11.4232796 71.3740753,11.4232796 C70.8405457,11.4232796 70.4080344,11.8557908 70.4080344,12.3893204 C70.4080344,12.9228501 70.8405457,13.3553614 71.3740753,13.3553614 Z" id="Oval-Copy-7"></path>
                                            <path d="M68.1630465,6.395719 C68.6965762,6.395719 69.1290875,5.96320776 69.1290875,5.42967811 C69.1290875,4.89614845 68.6965762,4.46363721 68.1630465,4.46363721 C67.6295169,4.46363721 67.1970057,4.89614845 67.1970057,5.42967811 C67.1970057,5.96320776 67.6295169,6.395719 68.1630465,6.395719 Z" id="Oval-Copy-8"></path>
                                            <path d="M44.4947576,1.9320818 C45.0282873,1.9320818 45.4607985,1.49957055 45.4607985,0.966040895 C45.4607985,0.432511241 45.0282873,2.92726689e-14 44.4947576,2.92726689e-14 C43.961228,2.92726689e-14 43.5287167,0.432511241 43.5287167,0.966040895 C43.5287167,1.49957055 43.961228,1.9320818 44.4947576,1.9320818 Z" id="Oval-Copy-9"></path>
                                            <path d="M36.3808646,4.54825124 C36.9143943,4.54825124 37.3469055,4.11574 37.3469055,3.58221034 C37.3469055,3.04868069 36.9143943,2.61616945 36.3808646,2.61616945 C35.847335,2.61616945 35.4148237,3.04868069 35.4148237,3.58221034 C35.4148237,4.11574 35.847335,4.54825124 36.3808646,4.54825124 Z" id="Oval-Copy-10"></path>
                                            <path d="M12.8849383,9.59994204 C13.418468,9.59994204 13.8509792,9.16743076 13.8509792,8.63390109 C13.8509792,8.10037149 13.418468,7.66786022 12.8849383,7.66786022 C12.3514087,7.66786022 11.9188974,8.10037149 11.9188974,8.63390109 C11.9188974,9.16743076 12.3514087,9.59994204 12.8849383,9.59994204 Z" id="Oval-Copy-11"></path>
                                            <path d="M6.83395687,16.8681599 C7.36748655,16.8681599 7.79999775,16.4356486 7.79999775,15.902119 C7.79999775,15.3685893 7.36748655,14.936078 6.83395687,14.936078 C6.30042721,14.936078 5.86791597,15.3685893 5.86791597,15.902119 C5.86791597,16.4356486 6.30042721,16.8681599 6.83395687,16.8681599 Z" id="Oval-Copy-12"></path>
                                            <path d="M7.53744931,30.6091078 C8.07097891,30.6091078 8.50349018,30.1765965 8.50349018,29.6430669 C8.50349018,29.1095372 8.07097891,28.677026 7.53744931,28.677026 C7.00391963,28.677026 6.57140839,29.1095372 6.57140839,29.6430669 C6.57140839,30.1765965 7.00391963,30.6091078 7.53744931,30.6091078 Z" id="Oval-Copy-13"></path>
                                            <path d="M0.966040895,37.593632 C1.49957055,37.593632 1.9320818,37.1611207 1.9320818,36.6275911 C1.9320818,36.0940615 1.49957055,35.6615502 0.966040895,35.6615502 C0.432511241,35.6615502 -1.28273493e-14,36.0940615 -1.28273493e-14,36.6275911 C-1.28273493e-14,37.1611207 0.432511241,37.593632 0.966040895,37.593632 Z" id="Oval-Copy-14"></path>
                                            <path d="M7.62741142,44.6873247 C8.16094109,44.6873247 8.59345236,44.2548135 8.59345236,43.7212838 C8.59345236,43.1877541 8.16094109,42.7552429 7.62741142,42.7552429 C7.09388179,42.7552429 6.66137055,43.1877541 6.66137055,43.7212838 C6.66137055,44.2548135 7.09388179,44.6873247 7.62741142,44.6873247 Z" id="Oval-Copy-15"></path>
                                            <path d="M1.85573964,61.4817108 C2.3892693,61.4817108 2.82178055,61.0491996 2.82178055,60.5156699 C2.82178055,59.9821402 2.3892693,59.549629 1.85573964,59.549629 C1.32220999,59.549629 0.889698749,59.9821402 0.889698749,60.5156699 C0.889698749,61.0491996 1.32220999,61.4817108 1.85573964,61.4817108 Z" id="Oval-Copy-16"></path>
                                            <path d="M3.82647273,76.4017993 C4.36000239,76.4017993 4.79251362,75.9692887 4.79251362,75.4357585 C4.79251362,74.9022291 4.36000239,74.4697178 3.82647273,74.4697178 C3.29294308,74.4697178 2.86043183,74.9022291 2.86043183,75.4357585 C2.86043183,75.9692887 3.29294308,76.4017993 3.82647273,76.4017993 Z" id="Oval-Copy-17"></path>
                                            <path d="M8.31694138,80.7636575 C8.85047098,80.7636575 9.28298225,80.3311462 9.28298225,79.7976167 C9.28298225,79.2640873 8.85047098,78.831576 8.31694138,78.831576 C7.78341171,78.831576 7.35090044,79.2640873 7.35090044,79.7976167 C7.35090044,80.3311462 7.78341171,80.7636575 8.31694138,80.7636575 Z" id="Oval-Copy-36"></path>
                                            <path d="M2.59016524,99.1728953 C3.12369489,99.1728953 3.55620613,98.740384 3.55620613,98.2068538 C3.55620613,97.6733244 3.12369489,97.2408131 2.59016524,97.2408131 C2.05663558,97.2408131 1.62412433,97.6733244 1.62412433,98.2068538 C1.62412433,98.740384 2.05663558,99.1728953 2.59016524,99.1728953 Z" id="Oval-Copy-18"></path>
                                            <path d="M8.41187091,103.335463 C8.94540058,103.335463 9.37791185,102.902951 9.37791185,102.369422 C9.37791185,101.835892 8.94540058,101.403381 8.41187091,101.403381 C7.87834124,101.403381 7.44583004,101.835892 7.44583004,102.369422 C7.44583004,102.902951 7.87834124,103.335463 8.41187091,103.335463 Z" id="Oval-Copy-19"></path>
                                            <path d="M34.5976571,114.645789 C35.1311868,114.645789 35.563698,114.213278 35.563698,113.679748 C35.563698,113.146219 35.1311868,112.713708 34.5976571,112.713708 C34.0641274,112.713708 33.6316162,113.146219 33.6316162,113.679748 C33.6316162,114.213278 34.0641274,114.645789 34.5976571,114.645789 Z" id="Oval-Copy-20"></path>
                                            <path d="M24.5756657,96.2303615 C25.1091953,96.2303615 25.5417066,95.7978502 25.5417066,95.26432 C25.5417066,94.7307905 25.1091953,94.2982793 24.5756657,94.2982793 C24.0421361,94.2982793 23.6096248,94.7307905 23.6096248,95.26432 C23.6096248,95.7978502 24.0421361,96.2303615 24.5756657,96.2303615 Z" id="Oval-Copy-21"></path>
                                            <path d="M43.0511035,112.066261 C43.5846332,112.066261 44.0171444,111.63375 44.0171444,111.10022 C44.0171444,110.56669 43.5846332,110.13418 43.0511035,110.13418 C42.5175738,110.13418 42.0850626,110.56669 42.0850626,111.10022 C42.0850626,111.63375 42.5175738,112.066261 43.0511035,112.066261 Z" id="Oval-Copy-22"></path>
                                            <path d="M48.2196378,98.9902684 C48.7531675,98.9902684 49.1856788,98.5577571 49.1856788,98.0242276 C49.1856788,97.4906975 48.7531675,97.0581862 48.2196378,97.0581862 C47.6861082,97.0581862 47.2535969,97.4906975 47.2535969,98.0242276 C47.2535969,98.5577571 47.6861082,98.9902684 48.2196378,98.9902684 Z" id="Oval-Copy-23"></path>
                                            <path d="M30.5756788,101.529594 C31.1092085,101.529594 31.5417197,101.097083 31.5417197,100.563553 C31.5417197,100.030023 31.1092085,99.597512 30.5756788,99.597512 C30.0421492,99.597512 29.609638,100.030023 29.609638,100.563553 C29.609638,101.097083 30.0421492,101.529594 30.5756788,101.529594 Z" id="Oval-Copy-37"></path>
                                            <path d="M57.9212965,115.939788 C58.4548262,115.939788 58.8873375,115.507276 58.8873375,114.973747 C58.8873375,114.440217 58.4548262,114.007706 57.9212965,114.007706 C57.3877668,114.007706 56.9552556,114.440217 56.9552556,114.973747 C56.9552556,115.507276 57.3877668,115.939788 57.9212965,115.939788 Z" id="Oval-Copy-24"></path>
                                            <path d="M76.4594291,118.014805 C76.9929593,118.014805 77.4254698,117.582294 77.4254698,117.048764 C77.4254698,116.515234 76.9929593,116.082723 76.4594291,116.082723 C75.9258996,116.082723 75.4933884,116.515234 75.4933884,117.048764 C75.4933884,117.582294 75.9258996,118.014805 76.4594291,118.014805 Z" id="Oval-Copy-25"></path>
                                            <path d="M81.0028218,107.44618 C81.5363513,107.44618 81.9688625,107.01367 81.9688625,106.48014 C81.9688625,105.94661 81.5363513,105.514099 81.0028218,105.514099 C80.4692924,105.514099 80.0367811,105.94661 80.0367811,106.48014 C80.0367811,107.01367 80.4692924,107.44618 81.0028218,107.44618 Z" id="Oval-Copy-26"></path>
                                            <path d="M96.736264,116.57549 C97.2697935,116.57549 97.7023047,116.142979 97.7023047,115.609449 C97.7023047,115.075919 97.2697935,114.643408 96.736264,114.643408 C96.2027338,114.643408 95.7702225,115.075919 95.7702225,115.609449 C95.7702225,116.142979 96.2027338,116.57549 96.736264,116.57549 Z" id="Oval-Copy-27"></path>
                                            <path d="M102.765078,111.112168 C103.298608,111.112168 103.731119,110.679657 103.731119,110.146127 C103.731119,109.612597 103.298608,109.180086 102.765078,109.180086 C102.231548,109.180086 101.799037,109.612597 101.799037,110.146127 C101.799037,110.679657 102.231548,111.112168 102.765078,111.112168 Z" id="Oval-Copy-28"></path>
                                            <path d="M115.382487,108.373191 C115.916017,108.373191 116.348527,107.940679 116.348527,107.40715 C116.348527,106.87362 115.916017,106.441109 115.382487,106.441109 C114.848957,106.441109 114.416446,106.87362 114.416446,107.40715 C114.416446,107.940679 114.848957,108.373191 115.382487,108.373191 Z" id="Oval-Copy-29"></path>
                                            <path d="M94.5219011,95.640312 C95.0554313,95.640312 95.4879425,95.2078007 95.4879425,94.6742705 C95.4879425,94.1407411 95.0554313,93.7082298 94.5219011,93.7082298 C93.9883716,93.7082298 93.5558604,94.1407411 93.5558604,94.6742705 C93.5558604,95.2078007 93.9883716,95.640312 94.5219011,95.640312 Z" id="Oval-Copy-30"></path>
                                            <path d="M118.321201,86.0261505 C118.854731,86.0261505 119.287242,85.5936393 119.287242,85.0601098 C119.287242,84.5265804 118.854731,84.0940691 118.321201,84.0940691 C117.787672,84.0940691 117.355161,84.5265804 117.355161,85.0601098 C117.355161,85.5936393 117.787672,86.0261505 118.321201,86.0261505 Z" id="Oval-Copy-31"></path>
                                            <path d="M115.101065,77.7654938 C115.634595,77.7654938 116.067106,77.3329825 116.067106,76.7994531 C116.067106,76.2659236 115.634595,75.8334124 115.101065,75.8334124 C114.567535,75.8334124 114.135024,76.2659236 114.135024,76.7994531 C114.135024,77.3329825 114.567535,77.7654938 115.101065,77.7654938 Z" id="Oval-Copy-32"></path>
                                            <path d="M115.584296,70.8657428 C116.117825,70.8657428 116.550337,70.4332315 116.550337,69.8997018 C116.550337,69.3661722 116.117825,68.9336609 115.584296,68.9336609 C115.050766,68.9336609 114.618255,69.3661722 114.618255,69.8997018 C114.618255,70.4332315 115.050766,70.8657428 115.584296,70.8657428 Z" id="Oval-Copy-33"></path>
                                            <path d="M114.693961,62.2117367 C115.22749,62.2117367 115.660001,61.7792254 115.660001,61.2456957 C115.660001,60.7121661 115.22749,60.2796548 114.693961,60.2796548 C114.160431,60.2796548 113.72792,60.7121661 113.72792,61.2456957 C113.72792,61.7792254 114.160431,62.2117367 114.693961,62.2117367 Z" id="Oval-Copy-34"></path>
                                            <path d="M117.118748,45.8837513 C117.652278,45.8837513 118.084789,45.4512401 118.084789,44.9177104 C118.084789,44.3841807 117.652278,43.9516695 117.118748,43.9516695 C116.585218,43.9516695 116.152707,44.3841807 116.152707,44.9177104 C116.152707,45.4512401 116.585218,45.8837513 117.118748,45.8837513 Z" id="Oval-Copy-35"></path>
                                            <path d="M116.338967,19.277594 C116.872496,19.277594 117.305007,18.8450827 117.305007,18.311553 C117.305007,17.7780234 116.872496,17.3455121 116.338967,17.3455121 C115.805437,17.3455121 115.372926,17.7780234 115.372926,18.311553 C115.372926,18.8450827 115.805437,19.277594 116.338967,19.277594 Z" id="Oval-Copy-3"></path>
                                            <path d="M106.728711,39.4434786 C107.26224,39.4434786 107.694751,39.0109674 107.694751,38.4774377 C107.694751,37.9439081 107.26224,37.5113969 106.728711,37.5113969 C106.195181,37.5113969 105.76267,37.9439081 105.76267,38.4774377 C105.76267,39.0109674 106.195181,39.4434786 106.728711,39.4434786 Z" id="Oval-Copy-4"></path>
                                        </g>
                                    </g>
                                </g>
                            </g>
                        </g>
                        <g id="Combined-Shape-Copy" transform="translate(24.727273, 24.272727)" fill="#CC6CB2">
                            <g id="path-3-link">
                                <path d="M35.5153719,0.328595055 C54.9582291,0.328595055 70.7197796,16.0901452 70.7197796,35.5330028 C70.7197796,54.9758604 54.9582291,70.7374102 35.5153719,70.7374102 C16.0725144,70.7374102 0.310964218,54.9758604 0.310964218,35.5330028 C0.310964218,16.0901452 16.0725144,0.328595055 35.5153719,0.328595055 Z M35.5153719,1.91066735 C16.9462688,1.91066735 1.89303651,16.9638996 1.89303651,35.5330028 C1.89303651,54.1021062 16.9462688,69.1553382 35.5153719,69.1553382 C54.0844749,69.1553382 69.1377076,54.1021062 69.1377076,35.5330028 C69.1377076,16.9638996 54.0844749,1.91066735 35.5153719,1.91066735 Z" id="path-3"></path>
                            </g>
                        </g>
                    </g>
                    <g id="ai-connector-top-mobile">
                        <g id="Group-4" transform="translate(46.000000, 0.000000)" fill="#FFFFFF" fill-rule="nonzero">
                            <path d="M4.98058983,3.64874492 C5.55358983,3.24974492 5.91458983,2.87774492 6.06358983,2.53474492 C6.21358983,2.19174492 6.16758983,1.84574492 5.92458983,1.49674492 C5.68358983,1.15074492 5.37658983,0.989744915 5.00558983,1.01274492 C4.63458983,1.03674492 4.17658983,1.23474492 3.63258983,1.60674492 L2.55058983,2.36074492 C1.97558983,2.76174492 1.60958983,3.14174492 1.45158983,3.49974492 C1.29358983,3.85774492 1.33358983,4.20674492 1.56958983,4.54474492 C1.80258983,4.87874492 2.10458983,5.03674492 2.47558983,5.01874492 C2.84658983,5.00074492 3.31358983,4.80074492 3.87358983,4.42074492 L4.98058983,3.64874492 Z M4.52758983,4.96974492 C3.73558983,5.52174492 3.05358983,5.79674492 2.47958983,5.79476643 C1.90658983,5.79374492 1.41858983,5.50474492 1.01758983,4.92974492 C0.621589833,4.36174492 0.517589833,3.81074492 0.703589833,3.27474492 C0.889589833,2.73974492 1.35358983,2.20674492 2.09358983,1.67474492 L2.99658983,1.04574492 C3.77858983,0.500744915 4.45358983,0.230744915 5.02258983,0.235744915 C5.59158983,0.240744915 6.07758983,0.531744915 6.47958983,1.10974492 C6.87858983,1.68274492 6.98958983,2.23174492 6.81158983,2.75774492 C6.63358983,3.28374492 6.16458983,3.81674492 5.40458983,4.35774492 L4.52758983,4.96974492 Z" id="Fill-75"></path>
                            <polygon id="Fill-77" points="4.05338983 9.67804492 3.65038983 8.95404492 8.44938983 6.28004492 7.10738983 5.12504492 7.76138983 4.76104492 9.68438983 6.39304492 9.74738983 6.50604492"></polygon>
                            <path d="M9.95718983,13.1267449 C10.6001898,12.8547449 11.0301898,12.5647449 11.2471898,12.2597449 C11.4641898,11.9547449 11.4901898,11.6067449 11.3241898,11.2157449 C11.1591898,10.8277449 10.8931898,10.6057449 10.5251898,10.5527449 C10.1571898,10.4997449 9.66818983,10.5987449 9.05918983,10.8507449 L7.84518983,11.3657449 C7.20018983,11.6397449 6.76318983,11.9357449 6.53518983,12.2537449 C6.30718983,12.5707449 6.27318983,12.9197449 6.43518983,13.2997449 C6.59418983,13.6747449 6.85618983,13.8917449 7.22418983,13.9507449 C7.59118983,14.0097449 8.08818983,13.9107449 8.71418983,13.6547449 L9.95718983,13.1267449 Z M9.24218983,14.3257449 C8.35318983,14.7037449 7.62818983,14.8317449 7.06718983,14.7107449 C6.50618983,14.5917449 6.08918983,14.2087449 5.81518983,13.5637449 C5.54518983,12.9257449 5.55618983,12.3647449 5.84918983,11.8787449 C6.14118983,11.3937449 6.70518983,10.9667449 7.54018983,10.6007449 L8.55218983,10.1697449 C9.43018983,9.79774492 10.1461898,9.67274492 10.7021898,9.79574492 C11.2571898,9.91774492 11.6721898,10.3027449 11.9471898,10.9517449 C12.2201898,11.5937449 12.2151898,12.1537449 11.9331898,12.6317449 C11.6501898,13.1097449 11.0811898,13.5357449 10.2261898,13.9087449 L9.24218983,14.3257449 Z" id="Fill-79"></path>
                            <polygon id="Fill-81" points="7.76918983 18.8308449 7.53218983 18.0368449 12.7951898 16.4618449 11.7331898 15.0448449 12.4511898 14.8308449 13.9771898 16.8388449 14.0141898 16.9628449"></polygon>
                            <path d="M12.7701898,23.4690449 C13.4571898,23.3440449 13.9391898,23.1570449 14.2191898,22.9070449 C14.4981898,22.6570449 14.5991898,22.3230449 14.5231898,21.9060449 C14.4481898,21.4900449 14.2371898,21.2170449 13.8901898,21.0830449 C13.5421898,20.9500449 13.0441898,20.9390449 12.3951898,21.0510449 L11.0971898,21.2870449 C10.4071898,21.4120449 9.91618983,21.6050449 9.62418983,21.8650449 C9.33118983,22.1240449 9.22218983,22.4570449 9.29518983,22.8630449 C9.36818983,23.2640449 9.57718983,23.5330449 9.92218983,23.6710449 C10.2671898,23.8090449 10.7731898,23.8230449 11.4411898,23.7100449 L12.7701898,23.4690449 Z M11.8081898,24.4820449 C10.8581898,24.6540449 10.1231898,24.6190449 9.60218983,24.3790449 C9.08218983,24.1380449 8.75918983,23.6730449 8.63318983,22.9840449 C8.51018983,22.3030449 8.64418983,21.7580449 9.03618983,21.3480449 C9.42818983,20.9390449 10.0721898,20.6470449 10.9671898,20.4720449 L12.0501898,20.2760449 C12.9881898,20.1060449 13.7141898,20.1410449 14.2291898,20.3830449 C14.7441898,20.6250449 15.0641898,21.0920449 15.1901898,21.7840449 C15.3151898,22.4710449 15.1871898,23.0170449 14.8061898,23.4210449 C14.4251898,23.8250449 13.7761898,24.1150449 12.8601898,24.2900449 L11.8081898,24.4820449 Z" id="Fill-83"></path>
                        </g>
                        <g id="Group" transform="translate(93.729261, 0.251063)" fill="#FFFFFF" fill-rule="nonzero">
                            <path d="M2.96990613,21.0495818 C2.29190613,20.8855818 1.77490613,20.8625818 1.41790613,20.9775818 C1.06190613,21.0935818 0.832906134,21.3585818 0.734906134,21.7705818 C0.635906134,22.1805818 0.717906134,22.5175818 0.981906134,22.7785818 C1.24490613,23.0415818 1.69690613,23.2525818 2.33590613,23.4125818 L3.61890613,23.7215818 C4.30090613,23.8855818 4.82690613,23.9085818 5.19890613,23.7885818 C5.57290613,23.6695818 5.80690613,23.4085818 5.90390613,23.0075818 C5.99890613,22.6115818 5.91690613,22.2805818 5.65690613,22.0155818 C5.39790613,21.7495818 4.93890613,21.5325818 4.28190613,21.3655818 L2.96990613,21.0495818 Z M4.25990613,20.5125818 C5.19790613,20.7385818 5.85690613,21.0665818 6.23590613,21.4975818 C6.61490613,21.9275818 6.72190613,22.4835818 6.55790613,23.1655818 C6.39590613,23.8375818 6.05190613,24.2825818 5.52890613,24.4985818 C5.00390613,24.7145818 4.29790613,24.7205818 3.40790613,24.5195818 L2.33790613,24.2605818 C1.41090613,24.0375818 0.760906134,23.7115818 0.387906134,23.2825818 C0.0149061338,22.8535818 -0.0890938662,22.2965818 0.0759061338,21.6125818 C0.239906134,20.9335818 0.575906134,20.4865818 1.08890613,20.2705818 C1.60090613,20.0545818 2.31090613,20.0515818 3.21990613,20.2615818 L4.25990613,20.5125818 Z" id="Fill-85"></path>
                            <polygon id="Fill-87" points="8.06660613 17.7111818 7.80260613 18.4971818 2.59460613 16.7461818 2.64360613 18.5161818 1.93460613 18.2781818 1.84660613 15.7571818 1.88760613 15.6341818"></polygon>
                            <path d="M6.56170613,11.0280818 C5.92170613,10.7490818 5.41670613,10.6350818 5.04570613,10.6870818 C4.67470613,10.7390818 4.40470613,10.9590818 4.23470613,11.3490818 C4.06670613,11.7350818 4.08770613,12.0810818 4.30170613,12.3840818 C4.51570613,12.6890818 4.92370613,12.9750818 5.52670613,13.2440818 L6.73470613,13.7720818 C7.37670613,14.0530818 7.89270613,14.1660818 8.28070613,14.1140818 C8.66770613,14.0610818 8.94370613,13.8450818 9.10970613,13.4670818 C9.27170613,13.0940818 9.24970613,12.7540818 9.03970613,12.4470818 C8.83070613,12.1400818 8.41570613,11.8470818 7.79970613,11.5680818 L6.56170613,11.0280818 Z M7.92470613,10.7230818 C8.80970613,11.1100818 9.40170613,11.5480818 9.69970613,12.0380818 C9.99870613,12.5270818 10.0057061,13.0930818 9.72670613,13.7360818 C9.44970613,14.3700818 9.03470613,14.7480818 8.48070613,14.8690818 C7.92570613,14.9900818 7.22970613,14.8740818 6.38870613,14.5210818 L5.37970613,14.0800818 C4.50570613,13.6990818 3.92370613,13.2640818 3.62970613,12.7770818 C3.33770613,12.2890818 3.33270613,11.7230818 3.61370613,11.0780818 C3.89370613,10.4380818 4.30270613,10.0570818 4.84470613,9.93308176 C5.38670613,9.81008176 6.08570613,9.93008176 6.94570613,10.2960818 L7.92470613,10.7230818 Z" id="Fill-89"></path>
                            <polygon id="Fill-91" points="12.1574061 8.63448176 11.7614061 9.36248176 6.93640613 6.73448176 6.67840613 8.48648176 6.02040613 8.12848176 6.37140613 5.63048176 6.43240613 5.51748176"></polygon>
                            <path d="M11.8322061,1.79568176 C11.2502061,1.40968176 10.7722061,1.21068176 10.3972061,1.19668176 C10.0222061,1.18468176 9.71820613,1.35468176 9.48320613,1.70868176 C9.25020613,2.06068176 9.21320613,2.40368176 9.37120613,2.74068176 C9.52920613,3.07768176 9.88220613,3.43068176 10.4292061,3.79968176 L11.5272061,4.52868176 C12.1112061,4.91668176 12.5992061,5.11668176 12.9902061,5.13168176 C13.3812061,5.14768176 13.6902061,4.98268176 13.9192061,4.63868176 C14.1442061,4.29968176 14.1792061,3.96068176 14.0252061,3.62268176 C13.8722061,3.28368176 13.5162061,2.92268176 12.9572061,2.54168176 L11.8322061,1.79568176 Z M13.2272061,1.73168176 C14.0312061,2.26468176 14.5382061,2.79868176 14.7462061,3.33368176 C14.9562061,3.86768176 14.8672061,4.42668176 14.4792061,5.01068176 C14.0972061,5.58768176 13.6222061,5.88768176 13.0572061,5.91068176 C12.4892061,5.93468176 11.8232061,5.69968176 11.0572061,5.20568176 L10.1402061,4.59768176 C9.34520613,4.07068176 8.84620613,3.54168176 8.64220613,3.01068176 C8.43720613,2.47968176 8.53020613,1.92068176 8.91920613,1.33468176 C9.30520613,0.752681756 9.77520613,0.447681756 10.3302061,0.420681756 C10.8852061,0.392681756 11.5532061,0.632681756 12.3352061,1.14068176 L13.2272061,1.73168176 Z" id="Fill-93"></path>
                        </g>
                        <g id="Group-3" transform="translate(0.000000, 18.670736)" fill="#FFFFFF" fill-rule="nonzero">
                            <path d="M5.73873618,5.03268385 C6.31173618,4.63368385 6.67273618,4.26168385 6.82173618,3.91868385 C6.97173618,3.57568385 6.92573618,3.22968385 6.68273618,2.88068385 C6.44173618,2.53468385 6.13473618,2.37368385 5.76373618,2.39668385 C5.39273618,2.42068385 4.93473618,2.61868385 4.39073618,2.99068385 L3.30873618,3.74468385 C2.73373618,4.14568385 2.36773618,4.52568385 2.20973618,4.88368385 C2.05173618,5.24168385 2.09173618,5.59068385 2.32773618,5.92868385 C2.56073618,6.26268385 2.86273618,6.42068385 3.23373618,6.40268385 C3.60473618,6.38468385 4.07173618,6.18468385 4.63173618,5.80468385 L5.73873618,5.03268385 Z M5.28573618,6.35368385 C4.49373618,6.90568385 3.81173618,7.18068385 3.23773618,7.17870546 C2.66473618,7.17768385 2.17673618,6.88868385 1.77573618,6.31368385 C1.37973618,5.74568385 1.27573618,5.19468385 1.46173618,4.65868385 C1.64773618,4.12368385 2.11173618,3.59068385 2.85173618,3.05868385 L3.75473618,2.42968385 C4.53673618,1.88468385 5.21173618,1.61468385 5.78073618,1.61968385 C6.34973618,1.62468385 6.83573618,1.91568385 7.23773618,2.49368385 C7.63673618,3.06668385 7.74773618,3.61568385 7.56973618,4.14168385 C7.39173618,4.66768385 6.92273618,5.20068385 6.16273618,5.74168385 L5.28573618,6.35368385 Z" id="Fill-75" transform="translate(4.512160, 4.399166) rotate(-25.000000) translate(-4.512160, -4.399166) "></path>
                            <polygon id="Fill-77" transform="translate(8.957946, 6.965013) rotate(-25.000000) translate(-8.957946, -6.965013) " points="6.31244589 9.42351338 5.90944589 8.69951338 10.7084459 6.02551338 9.36644589 4.87051338 10.0204459 4.50651338 11.9434459 6.13851338 12.0064459 6.25151338"></polygon>
                            <path d="M14.1384443,11.476973 C14.7814443,11.204973 15.2114443,10.914973 15.4284443,10.609973 C15.6454443,10.304973 15.6714443,9.95697295 15.5054443,9.56597295 C15.3404443,9.17797295 15.0744443,8.95597295 14.7064443,8.90297295 C14.3384443,8.84997295 13.8494443,8.94897295 13.2404443,9.20097295 L12.0264443,9.71597295 C11.3814443,9.98997295 10.9444443,10.285973 10.7164443,10.603973 C10.4884443,10.920973 10.4544443,11.269973 10.6164443,11.649973 C10.7754443,12.024973 11.0374443,12.241973 11.4054443,12.300973 C11.7724443,12.359973 12.2694443,12.260973 12.8954443,12.004973 L14.1384443,11.476973 Z M13.4234443,12.675973 C12.5344443,13.053973 11.8094443,13.181973 11.2484443,13.060973 C10.6874443,12.941973 10.2704443,12.558973 9.9964443,11.913973 C9.7264443,11.275973 9.7374443,10.714973 10.0304443,10.228973 C10.3224443,9.74397295 10.8864443,9.31697295 11.7214443,8.95097295 L12.7334443,8.51997295 C13.6114443,8.14797295 14.3274443,8.02297295 14.8834443,8.14597295 C15.4384443,8.26797295 15.8534443,8.65297295 16.1284443,9.30197295 C16.4014443,9.94397295 16.3964443,10.503973 16.1144443,10.981973 C15.8314443,11.459973 15.2624443,11.885973 14.4074443,12.258973 L13.4234443,12.675973 Z" id="Fill-79" transform="translate(13.065806, 10.602631) rotate(-25.000000) translate(-13.065806, -10.602631) "></path>
                            <polygon id="Fill-81" transform="translate(16.712427, 13.953936) rotate(-25.000000) translate(-16.712427, -13.953936) " points="13.7084268 15.953936 13.4714268 15.159936 18.7344268 13.584936 17.6724268 12.167936 18.3904268 11.953936 19.9164268 13.961936 19.9534268 14.085936"></polygon>
                            <path d="M20.9477947,19.5906191 C21.6347947,19.4656191 22.1167947,19.2786191 22.3967947,19.0286191 C22.6757947,18.7786191 22.7767947,18.4446191 22.7007947,18.0276191 C22.6257947,17.6116191 22.4147947,17.3386191 22.0677947,17.2046191 C21.7197947,17.0716191 21.2217947,17.0606191 20.5727947,17.1726191 L19.2747947,17.4086191 C18.5847947,17.5336191 18.0937947,17.7266191 17.8017947,17.9866191 C17.5087947,18.2456191 17.3997947,18.5786191 17.4727947,18.9846191 C17.5457947,19.3856191 17.7547947,19.6546191 18.0997947,19.7926191 C18.4447947,19.9306191 18.9507947,19.9446191 19.6187947,19.8316191 L20.9477947,19.5906191 Z M19.9857947,20.6036191 C19.0357947,20.7756191 18.3007947,20.7406191 17.7797947,20.5006191 C17.2597947,20.2596191 16.9367947,19.7946191 16.8107947,19.1056191 C16.6877947,18.4246191 16.8217947,17.8796191 17.2137947,17.4696191 C17.6057947,17.0606191 18.2497947,16.7686191 19.1447947,16.5936191 L20.2277947,16.3976191 C21.1657947,16.2276191 21.8917947,16.2626191 22.4067947,16.5046191 C22.9217947,16.7466191 23.2417947,17.2136191 23.3677947,17.9056191 C23.4927947,18.5926191 23.3647947,19.1386191 22.9837947,19.5426191 C22.6027947,19.9466191 21.9537947,20.2366191 21.0377947,20.4116191 L19.9857947,20.6036191 Z" id="Fill-83" transform="translate(20.090386, 18.501490) rotate(-25.000000) translate(-20.090386, -18.501490) "></path>
                        </g>
                        <g id="Group-2" transform="translate(134.309376, 18.776092)" fill="#FFFFFF" fill-rule="nonzero">
                            <path d="M3.96990613,17.1824024 C3.29190613,17.0184024 2.77490613,16.9954024 2.41790613,17.1104024 C2.06190613,17.2264024 1.83290613,17.4914024 1.73490613,17.9034024 C1.63590613,18.3134024 1.71790613,18.6504024 1.98190613,18.9114024 C2.24490613,19.1744024 2.69690613,19.3854024 3.33590613,19.5454024 L4.61890613,19.8544024 C5.30090613,20.0184024 5.82690613,20.0414024 6.19890613,19.9214024 C6.57290613,19.8024024 6.80690613,19.5414024 6.90390613,19.1404024 C6.99890613,18.7444024 6.91690613,18.4134024 6.65690613,18.1484024 C6.39790613,17.8824024 5.93890613,17.6654024 5.28190613,17.4984024 L3.96990613,17.1824024 Z M5.25990613,16.6454024 C6.19790613,16.8714024 6.85690613,17.1994024 7.23590613,17.6304024 C7.61490613,18.0604024 7.72190613,18.6164024 7.55790613,19.2984024 C7.39590613,19.9704024 7.05190613,20.4154024 6.52890613,20.6314024 C6.00390613,20.8474024 5.29790613,20.8534024 4.40790613,20.6524024 L3.33790613,20.3934024 C2.41090613,20.1704024 1.76090613,19.8444024 1.38790613,19.4154024 C1.01490613,18.9864024 0.910906134,18.4294024 1.07590613,17.7454024 C1.23990613,17.0664024 1.57590613,16.6194024 2.08890613,16.4034024 C2.60090613,16.1874024 3.31090613,16.1844024 4.21990613,16.3944024 L5.25990613,16.6454024 Z" id="Fill-85" transform="translate(4.316157, 18.518781) rotate(25.000000) translate(-4.316157, -18.518781) "></path>
                            <polygon id="Fill-87" transform="translate(8.047341, 14.398865) rotate(25.000000) translate(-8.047341, -14.398865) " points="11.1573412 15.0348648 10.8933412 15.8208648 5.68534125 14.0698648 5.73434125 15.8398648 5.02534125 15.6018648 4.93734125 13.0808648 4.97834125 12.9578648"></polygon>
                            <path d="M11.4674805,9.513163 C10.8274805,9.234163 10.3224805,9.120163 9.95148046,9.172163 C9.58048046,9.224163 9.31048046,9.444163 9.14048046,9.834163 C8.97248046,10.220163 8.99348046,10.566163 9.20748046,10.869163 C9.42148046,11.174163 9.82948046,11.460163 10.4324805,11.729163 L11.6404805,12.257163 C12.2824805,12.538163 12.7984805,12.651163 13.1864805,12.599163 C13.5734805,12.546163 13.8494805,12.330163 14.0154805,11.952163 C14.1774805,11.579163 14.1554805,11.239163 13.9454805,10.932163 C13.7364805,10.625163 13.3214805,10.332163 12.7054805,10.053163 L11.4674805,9.513163 Z M12.8304805,9.208163 C13.7154805,9.595163 14.3074805,10.033163 14.6054805,10.523163 C14.9044805,11.012163 14.9114805,11.578163 14.6324805,12.221163 C14.3554805,12.855163 13.9404805,13.233163 13.3864805,13.354163 C12.8314805,13.475163 12.1354805,13.359163 11.2944805,13.006163 L10.2854805,12.565163 C9.41148046,12.184163 8.82948046,11.749163 8.53548046,11.262163 C8.24348046,10.774163 8.23848046,10.208163 8.51948046,9.563163 C8.79948046,8.923163 9.20848046,8.542163 9.75048046,8.418163 C10.2924805,8.295163 10.9914805,8.415163 11.8514805,8.781163 L12.8304805,9.208163 Z" id="Fill-89" transform="translate(11.574226, 10.886006) rotate(25.000000) translate(-11.574226, -10.886006) "></path>
                            <polygon id="Fill-91" transform="translate(15.864488, 7.412794) rotate(25.000000) translate(-15.864488, -7.412794) " points="18.9329884 8.60729354 18.5369884 9.33529354 13.7119884 6.70729354 13.4539884 8.45929354 12.7959884 8.10129354 13.1469884 5.60329354 13.2079884 5.49029354"></polygon>
                            <path d="M20.1699762,3.27104191 C19.5879762,2.88504191 19.1099762,2.68604191 18.7349762,2.67204191 C18.3599762,2.66004191 18.0559762,2.83004191 17.8209762,3.18404191 C17.5879762,3.53604191 17.5509762,3.87904191 17.7089762,4.21604191 C17.8669762,4.55304191 18.2199762,4.90604191 18.7669762,5.27504191 L19.8649762,6.00404191 C20.4489762,6.39204191 20.9369762,6.59204191 21.3279762,6.60704191 C21.7189762,6.62304191 22.0279762,6.45804191 22.2569762,6.11404191 C22.4819762,5.77504191 22.5169762,5.43604191 22.3629762,5.09804191 C22.2099762,4.75904191 21.8539762,4.39804191 21.2949762,4.01704191 L20.1699762,3.27104191 Z M21.5649762,3.20704191 C22.3689762,3.74004191 22.8759762,4.27404191 23.0839762,4.80904191 C23.2939762,5.34304191 23.2049762,5.90204191 22.8169762,6.48604191 C22.4349762,7.06304191 21.9599762,7.36304191 21.3949762,7.38604191 C20.8269762,7.41004191 20.1609762,7.17504191 19.3949762,6.68104191 L18.4779762,6.07304191 C17.6829762,5.54604191 17.1839762,5.01704191 16.9799762,4.48604191 C16.7749762,3.95504191 16.8679762,3.39604191 17.2569762,2.81004191 C17.6429762,2.22804191 18.1129762,1.92304191 18.6679762,1.89604191 C19.2229762,1.86804191 19.8909762,2.10804191 20.6729762,2.61604191 L21.5649762,3.20704191 Z" id="Fill-93" transform="translate(20.034361, 4.640779) rotate(25.000000) translate(-20.034361, -4.640779) "></path>
                        </g>
                    </g>
                    <g id="ai-connector-middle-mobile" opacity="0.900000036" transform="translate(78.000000, 149.000000)">
                        <g id="Group-3">
                            <g id="Fill-1-Clipped">
                                <mask id="mask-4" fill="white">
                                    <use xlink:href="#path-3"></use>
                                </mask>
                                <g id="path-1"></g>
                                <path d="M3.9829,3.6677 C4.6809,3.6677 5.1899,3.5697 5.5089,3.3737 C5.8289,3.1777 5.9879,2.8677 5.9879,2.4427 C5.9879,2.0207 5.8299,1.7127 5.5109,1.5207 C5.1929,1.3277 4.7049,1.2277 4.0449,1.2217 L2.7269,1.2217 C2.0249,1.2217 1.5079,1.3237 1.1729,1.5267 C0.8389,1.7307 0.6729,2.0387 0.6729,2.4517 C0.6729,2.8577 0.8309,3.1607 1.1449,3.3577 C1.4599,3.5557 1.9559,3.6587 2.6329,3.6677 L3.9829,3.6677 Z M2.8559,4.4917 C1.8909,4.4917 1.1729,4.3277 0.7039,3.9977 C0.2339,3.6677 -0.0001,3.1527 -0.0001,2.4517 C-0.0001,1.7597 0.2289,1.2477 0.6879,0.9147 C1.1479,0.5817 1.8329,0.4097 2.7449,0.3977 L3.8449,0.3977 C4.7979,0.3977 5.5069,0.5627 5.9699,0.8927 C6.4339,1.2217 6.6659,1.7387 6.6659,2.4427 C6.6659,3.1407 6.4409,3.6547 5.9949,3.9837 C5.5479,4.3137 4.8579,4.4827 3.9249,4.4917 L2.8559,4.4917 Z" id="Fill-1" fill="#FFFFFF" fill-rule="nonzero" mask="url(#mask-4)"></path>
                            </g>
                        </g>
                        <polygon id="Fill-4" fill="#FFFFFF" fill-rule="nonzero" points="0.0889 8.2487 0.0889 7.4197 5.5829 7.4197 4.9719 5.7587 5.7209 5.7587 6.6079 8.1197 6.6079 8.2487"></polygon>
                        <g id="Group-8" transform="translate(0.000000, 10.000000)">
                            <g id="Fill-6-Clipped">
                                <mask id="mask-6" fill="white">
                                    <use xlink:href="#path-5"></use>
                                </mask>
                                <g id="path-3"></g>
                                <path d="M3.9829,3.9236 C4.6809,3.9236 5.1899,3.8256 5.5089,3.6296 C5.8289,3.4336 5.9879,3.1226 5.9879,2.6976 C5.9879,2.2766 5.8299,1.9686 5.5109,1.7766 C5.1929,1.5826 4.7049,1.4836 4.0449,1.4776 L2.7269,1.4776 C2.0249,1.4776 1.5079,1.5786 1.1729,1.7826 C0.8389,1.9866 0.6729,2.2946 0.6729,2.7076 C0.6729,3.1136 0.8309,3.4166 1.1449,3.6136 C1.4599,3.8116 1.9559,3.9146 2.6329,3.9236 L3.9829,3.9236 Z M2.8559,4.7476 C1.8909,4.7476 1.1729,4.5826 0.7039,4.2536 C0.2339,3.9236 -0.0001,3.4076 -0.0001,2.7076 C-0.0001,2.0156 0.2289,1.5026 0.6879,1.1706 C1.1479,0.8376 1.8329,0.6656 2.7449,0.6526 L3.8449,0.6526 C4.7979,0.6526 5.5069,0.8186 5.9699,1.1476 C6.4339,1.4776 6.6659,1.9946 6.6659,2.6976 C6.6659,3.3966 6.4409,3.9096 5.9949,4.2396 C5.5479,4.5696 4.8579,4.7386 3.9249,4.7476 L2.8559,4.7476 Z" id="Fill-6" fill="#FFFFFF" fill-rule="nonzero" mask="url(#mask-6)"></path>
                            </g>
                        </g>
                    </g>
                </g>
            </g>
        </g>
    </g>
</svg>