<?xml version="1.0" encoding="UTF-8"?>
<svg width="168px" height="43px" viewBox="0 0 168 43" version="1.1" xmlns="http://www.w3.org/2000/svg" xmlns:xlink="http://www.w3.org/1999/xlink">
    <title>ai-connector-bottom-mobile</title>
    <g id="Page-1" stroke="none" stroke-width="1" fill="none" fill-rule="evenodd">
        <g id="ai-connector-bottom-mobile" fill="#FFFFFF" fill-rule="nonzero">
            <g id="Group-6" transform="translate(58.937190, 29.137069) rotate(5.000000) translate(-58.937190, -29.137069) translate(51.937190, 16.637069)">
                <path d="M3.57052943,20.5256402 C2.94852943,20.2096402 2.45052943,20.0666402 2.07752943,20.0966402 C1.70352943,20.1266402 1.42152943,20.3316402 1.22952943,20.7106402 C1.03752943,21.0866402 1.04052943,21.4326402 1.23652943,21.7486402 C1.43252943,22.0646402 1.82252943,22.3746402 2.40752943,22.6786402 L3.58352943,23.2756402 C4.20852943,23.5926402 4.71652943,23.7366402 5.10652943,23.7066402 C5.49652943,23.6766402 5.78452943,23.4776402 5.97152943,23.1086402 C6.15552943,22.7466402 6.15252943,22.4056402 5.96152943,22.0876402 C5.76952943,21.7686402 5.37452943,21.4516402 4.77452943,21.1376402 L3.57052943,20.5256402 Z M4.94952943,20.3016402 C5.81052943,20.7386402 6.37552943,21.2106402 6.64452943,21.7166402 C6.91352943,22.2236402 6.88952943,22.7896402 6.57152943,23.4136402 C6.25852943,24.0306402 5.82152943,24.3836402 5.26152943,24.4726402 C4.70152943,24.5616402 4.01252943,24.4046402 3.19452943,24.0026402 L2.21252943,23.5046402 C1.36352943,23.0726402 0.806529428,22.6046402 0.541529428,22.1006402 C0.278529428,21.5966402 0.305529428,21.0306402 0.624529428,20.4036402 C0.941529428,19.7806402 1.37352943,19.4236402 1.92152943,19.3326402 C2.46852943,19.2406402 3.16052943,19.4026402 3.99552943,19.8176402 L4.94952943,20.3016402 Z" id="Fill-35"></path>
                <polygon id="Fill-37" points="9.01782943 17.7614402 8.70582943 18.5294402 3.61582943 16.4634402 3.55682943 18.2324402 2.86282943 17.9514402 2.92982943 15.4294402 2.97782943 15.3104402"></polygon>
                <path d="M7.24932943,10.9328402 C6.58232943,10.7248402 6.06832943,10.6658402 5.70532943,10.7578402 C5.34132943,10.8498402 5.09632943,11.0988402 4.97032943,11.5038402 C4.84432943,11.9068402 4.90432943,12.2468402 5.14932943,12.5258402 C5.39532943,12.8058402 5.83232943,13.0458402 6.45932943,13.2488402 L7.71932943,13.6418402 C8.38732943,13.8518402 8.91232943,13.9088402 9.29132943,13.8138402 C9.67132943,13.7198402 9.92232943,13.4758402 10.0453294,13.0818402 C10.1673294,12.6938402 10.1063294,12.3578402 9.86532943,12.0758402 C9.62432943,11.7928402 9.18132943,11.5468402 8.53832943,11.3358402 L7.24932943,10.9328402 Z M8.57032943,10.4828402 C9.49232943,10.7708402 10.1273294,11.1418402 10.4783294,11.5968402 C10.8273294,12.0518402 10.8973294,12.6138402 10.6873294,13.2828402 C10.4813294,13.9428402 10.1093294,14.3638402 9.57232943,14.5438402 C9.03532943,14.7248402 8.32932943,14.6838402 7.45532943,14.4238402 L6.40532943,14.0958402 C5.49532943,13.8108402 4.86832943,13.4418402 4.52432943,12.9898402 C4.18032943,12.5368402 4.11332943,11.9738402 4.32432943,11.3018402 C4.53232943,10.6358402 4.89832943,10.2118402 5.42332943,10.0308402 C5.94932943,9.84984021 6.65732943,9.89384021 7.55032943,10.1638402 L8.57032943,10.4828402 Z" id="Fill-39"></path>
                <polygon id="Fill-41" points="12.1706294 7.32194021 11.9866294 8.12994021 6.63062943 6.91294021 6.85762943 8.66894021 6.12762943 8.50294021 5.78562943 6.00394021 5.81462943 5.87794021"></polygon>
                <path d="M9.34792943,0.870340206 C8.65792943,0.767340206 8.13992943,0.789340206 7.79592943,0.936340206 C7.45092943,1.08334021 7.24692943,1.36734021 7.18492943,1.78734021 C7.12292943,2.20434021 7.23392943,2.53234021 7.51992943,2.76934021 C7.80592943,3.00734021 8.27492943,3.17834021 8.92592943,3.28134021 L10.2309294,3.47434021 C10.9239294,3.57834021 11.4509294,3.55334021 11.8119294,3.40134021 C12.1719294,3.24934021 12.3829294,2.96934021 12.4429294,2.56034021 C12.5029294,2.15834021 12.3919294,1.83634021 12.1099294,1.59434021 C11.8269294,1.35334021 11.3519294,1.17834021 10.6829294,1.06934021 L9.34792943,0.870340206 Z M10.5849294,0.221340206 C11.5389294,0.363340206 12.2239294,0.631340206 12.6399294,1.02734021 C13.0559294,1.42234021 13.2119294,1.96634021 13.1089294,2.66034021 C13.0069294,3.34434021 12.7039294,3.81734021 12.2019294,4.07834021 C11.6989294,4.34034021 10.9949294,4.41034021 10.0919294,4.28734021 L9.00392943,4.12534021 C8.05992943,3.98534021 7.38392943,3.71834021 6.97392943,3.32334021 C6.56392943,2.92934021 6.41092943,2.38434021 6.51492943,1.68734021 C6.61792943,0.997340206 6.91392943,0.522340206 7.40492943,0.261340206 C7.89492943,0.00134020619 8.60292943,-0.0646597938 9.52692943,0.0633402062 L10.5849294,0.221340206 Z" id="Fill-43"></path>
            </g>
            <g id="Group-5" transform="translate(111.194444, 28.973077) rotate(-5.000000) translate(-111.194444, -28.973077) translate(105.694444, 16.473077)">
                <path d="M3.95490317,3.298366 C4.65290317,3.314366 5.16390317,3.228366 5.48790317,3.039366 C5.81090317,2.850366 5.97790317,2.544366 5.98790317,2.119366 C5.99790317,1.698366 5.84590317,1.387366 5.53190317,1.186366 C5.21890317,0.985366004 4.73290317,0.875366004 4.07390317,0.854366004 L2.75490317,0.823366004 C2.05490317,0.807366004 1.53490317,0.898366004 1.19590317,1.093366 C0.856903169,1.289366 0.683903169,1.593366 0.673903169,2.006366 C0.664903169,2.413366 0.814903169,2.718366 1.12490317,2.923366 C1.43490317,3.128366 1.92890317,3.242366 2.60490317,3.267366 L3.95490317,3.298366 Z M2.80890317,4.096366 C1.84490317,4.074366 1.13090317,3.892366 0.668903169,3.552366 C0.206903169,3.212366 -0.0160968306,2.691366 0.000903169434,1.990366 C0.0169031694,1.298366 0.257903169,0.792366004 0.724903169,0.469366004 C1.19090317,0.148366004 1.87990317,-0.00863399629 2.79290317,0.000366003707 L3.89290317,0.0263660037 C4.84590317,0.0483660037 5.55090317,0.228366004 6.00590317,0.569366004 C6.46090317,0.909366004 6.68190317,1.431366 6.66490317,2.135366 C6.64890317,2.833366 6.41390317,3.341366 5.95890317,3.661366 C5.50490317,3.980366 4.80990317,4.133366 3.87890317,4.121366 L2.80890317,4.096366 Z" id="Fill-1"></path>
                <polygon id="Fill-3" points="0.369003169 8.291066 0.290003169 7.466066 5.76000317 6.947066 4.99500317 5.350066 5.74000317 5.280066 6.84600317 7.547066 6.85800317 7.675066"></polygon>
                <path d="M5.17660317,13.538066 C5.86160317,13.400066 6.34060317,13.203066 6.61460317,12.948066 C6.88860317,12.693066 6.98460317,12.357066 6.90060317,11.941066 C6.81760317,11.528066 6.60060317,11.258066 6.25160317,11.131066 C5.90160317,11.004066 5.40360317,11.003066 4.75560317,11.127066 L3.46260317,11.388066 C2.77560317,11.526066 2.28760317,11.727066 1.99960317,11.993066 C1.71360317,12.259066 1.61060317,12.594066 1.69260317,12.998066 C1.77260317,13.397066 1.98660317,13.663066 2.33360317,13.794066 C2.68160317,13.925066 3.18860317,13.929066 3.85360317,13.804066 L5.17660317,13.538066 Z M4.23460317,14.568066 C3.28760317,14.759066 2.55260317,14.739066 2.02760317,14.508066 C1.50160317,14.277066 1.17060317,13.818066 1.03160317,13.131066 C0.895603169,12.453066 1.01960317,11.905066 1.40360317,11.488066 C1.78760317,11.072066 2.42660317,10.767066 3.31760317,10.576066 L4.39660317,10.359066 C5.33060317,10.171066 6.05860317,10.193066 6.57660317,10.424066 C7.09660317,10.656066 7.42560317,11.117066 7.56460317,11.808066 C7.70160317,12.492066 7.58460317,13.039066 7.21160317,13.451066 C6.83760317,13.862066 6.19560317,14.164066 5.28260317,14.357066 L4.23460317,14.568066 Z" id="Fill-5"></path>
                <polygon id="Fill-7" points="2.69120317 19.137666 2.44620317 18.345666 7.69320317 16.721666 6.62020317 15.314666 7.33420317 15.093666 8.87920317 17.087666 8.91820317 17.210666"></polygon>
                <path d="M8.45100317,23.289066 C9.09400317,23.017066 9.52300317,22.727066 9.74100317,22.422066 C9.95900317,22.117066 9.98400317,21.769066 9.81800317,21.378066 C9.65400317,20.990066 9.38800317,20.769066 9.01900317,20.715066 C8.65100317,20.662066 8.16300317,20.761066 7.55400317,21.012066 L6.33900317,21.527066 C5.69400317,21.801066 5.25700317,22.096066 5.02900317,22.414066 C4.80100317,22.731066 4.76700317,23.081066 4.92900317,23.461066 C5.08700317,23.836066 5.34900317,24.052066 5.71700317,24.111066 C6.08400317,24.170066 6.58000317,24.072066 7.20800317,23.815066 L8.45100317,23.289066 Z M7.73400317,24.487066 C6.84600317,24.864066 6.12100317,24.993066 5.56000317,24.872066 C5.00000317,24.752066 4.58300317,24.369066 4.30900317,23.724066 C4.03900317,23.086066 4.05000317,22.525066 4.34300317,22.039066 C4.63600317,21.554066 5.19900317,21.128066 6.03400317,20.762066 L7.04800317,20.332066 C7.92500317,19.959066 8.64100317,19.835066 9.19600317,19.957066 C9.75300317,20.080066 10.1670032,20.466066 10.4420032,21.114066 C10.7140032,21.756066 10.7090032,22.317066 10.4270032,22.795066 C10.1430032,23.273066 9.57400317,23.698066 8.71900317,24.070066 L7.73400317,24.487066 Z" id="Fill-9"></path>
            </g>
            <g id="Group-7" transform="translate(0.000000, 0.207855)">
                <path d="M4.78797045,18.0504911 C4.16597045,17.7344911 3.66797045,17.5914911 3.29497045,17.6214911 C2.92097045,17.6514911 2.63897045,17.8564911 2.44697045,18.2354911 C2.25497045,18.6114911 2.25797045,18.9574911 2.45397045,19.2734911 C2.64997045,19.5894911 3.03997045,19.8994911 3.62497045,20.2034911 L4.80097045,20.8004911 C5.42597045,21.1174911 5.93397045,21.2614911 6.32397045,21.2314911 C6.71397045,21.2014911 7.00197045,21.0024911 7.18897045,20.6334911 C7.37297045,20.2714911 7.36997045,19.9304911 7.17897045,19.6124911 C6.98697045,19.2934911 6.59197045,18.9764911 5.99197045,18.6624911 L4.78797045,18.0504911 Z M6.16697045,17.8264911 C7.02797045,18.2634911 7.59297045,18.7354911 7.86197045,19.2414911 C8.13097045,19.7484911 8.10697045,20.3144911 7.78897045,20.9384911 C7.47597045,21.5554911 7.03897045,21.9084911 6.47897045,21.9974911 C5.91897045,22.0864911 5.22997045,21.9294911 4.41197045,21.5274911 L3.42997045,21.0294911 C2.58097045,20.5974911 2.02397045,20.1294911 1.75897045,19.6254911 C1.49597045,19.1214911 1.52297045,18.5554911 1.84197045,17.9284911 C2.15897045,17.3054911 2.59097045,16.9484911 3.13897045,16.8574911 C3.68597045,16.7654911 4.37797045,16.9274911 5.21297045,17.3424911 L6.16697045,17.8264911 Z" id="Fill-35" transform="translate(4.813685, 19.427070) rotate(25.000000) translate(-4.813685, -19.427070) "></path>
                <polygon id="Fill-37" transform="translate(9.043750, 15.902245) rotate(25.000000) translate(-9.043750, -15.902245) " points="12.1212495 16.7437453 11.8092495 17.5117453 6.7192495 15.4457453 6.6602495 17.2147453 5.9662495 16.9337453 6.0332495 14.4117453 6.0812495 14.2927453"></polygon>
                <path d="M12.1636201,11.0102909 C11.4966201,10.8022909 10.9826201,10.7432909 10.6196201,10.8352909 C10.2556201,10.9272909 10.0106201,11.1762909 9.88462008,11.5812909 C9.75862008,11.9842909 9.81862008,12.3242909 10.0636201,12.6032909 C10.3096201,12.8832909 10.7466201,13.1232909 11.3736201,13.3262909 L12.6336201,13.7192909 C13.3016201,13.9292909 13.8266201,13.9862909 14.2056201,13.8912909 C14.5856201,13.7972909 14.8366201,13.5532909 14.9596201,13.1592909 C15.0816201,12.7712909 15.0206201,12.4352909 14.7796201,12.1532909 C14.5386201,11.8702909 14.0956201,11.6242909 13.4526201,11.4132909 L12.1636201,11.0102909 Z M13.4846201,10.5602909 C14.4066201,10.8482909 15.0416201,11.2192909 15.3926201,11.6742909 C15.7416201,12.1292909 15.8116201,12.6912909 15.6016201,13.3602909 C15.3956201,14.0202909 15.0236201,14.4412909 14.4866201,14.6212909 C13.9496201,14.8022909 13.2436201,14.7612909 12.3696201,14.5012909 L11.3196201,14.1732909 C10.4096201,13.8882909 9.78262008,13.5192909 9.43862008,13.0672909 C9.09462008,12.6142909 9.02762008,12.0512909 9.23862008,11.3792909 C9.44662008,10.7132909 9.81262008,10.2892909 10.3376201,10.1082909 C10.8636201,9.92729091 11.5716201,9.97129091 12.4646201,10.2412909 L13.4846201,10.5602909 Z" id="Fill-39" transform="translate(12.419126, 12.365663) rotate(25.000000) translate(-12.419126, -12.365663) "></path>
                <polygon id="Fill-41" transform="translate(15.873719, 8.443377) rotate(25.000000) translate(-15.873719, -8.443377) " points="19.0662185 8.49187696 18.8822185 9.29987696 13.5262185 8.08287696 13.7532185 9.83887698 13.0232185 9.67287696 12.6812185 7.17387696 12.7102185 7.04787696"></polygon>
                <path d="M18.3209423,2.87034021 C17.6309423,2.76734021 17.1129423,2.78934021 16.7689423,2.93634021 C16.4239423,3.08334021 16.2199423,3.36734021 16.1579423,3.78734021 C16.0959423,4.20434021 16.2069423,4.53234021 16.4929423,4.76934021 C16.7789423,5.00734021 17.2479423,5.17834021 17.8989423,5.28134021 L19.2039423,5.47434021 C19.8969423,5.57834021 20.4239423,5.55334021 20.7849423,5.40134021 C21.1449423,5.24934021 21.3559423,4.96934021 21.4159423,4.56034021 C21.4759423,4.15834021 21.3649423,3.83634021 21.0829423,3.59434021 C20.7999423,3.35334021 20.3249423,3.17834021 19.6559423,3.06934021 L18.3209423,2.87034021 Z M19.5579423,2.22134021 C20.5119423,2.36334021 21.1969423,2.63134021 21.6129423,3.02734021 C22.0289423,3.42234021 22.1849423,3.96634021 22.0819423,4.66034021 C21.9799423,5.34434021 21.6769423,5.81734021 21.1749423,6.07834021 C20.6719423,6.34034021 19.9679423,6.41034021 19.0649423,6.28734021 L17.9769423,6.12534021 C17.0329423,5.98534021 16.3569423,5.71834021 15.9469423,5.32334021 C15.5369423,4.92934021 15.3839423,4.38434021 15.4879423,3.68734021 C15.5909423,2.99734021 15.8869423,2.52234021 16.3779423,2.26134021 C16.8679423,2.00134021 17.5759423,1.93534021 18.4999423,2.06334021 L19.5579423,2.22134021 Z" id="Fill-43" transform="translate(18.784517, 4.173082) rotate(25.000000) translate(-18.784517, -4.173082) "></path>
            </g>
            <g id="Group-8" transform="translate(146.446071, 0.000000)">
                <path d="M4.95490317,5.298366 C5.65290317,5.314366 6.16390317,5.228366 6.48790317,5.039366 C6.81090317,4.850366 6.97790317,4.544366 6.98790317,4.119366 C6.99790317,3.698366 6.84590317,3.387366 6.53190317,3.186366 C6.21890317,2.985366 5.73290317,2.875366 5.07390317,2.854366 L3.75490317,2.823366 C3.05490317,2.807366 2.53490317,2.898366 2.19590317,3.093366 C1.85690317,3.289366 1.68390317,3.593366 1.67390317,4.006366 C1.66490317,4.413366 1.81490317,4.718366 2.12490317,4.923366 C2.43490317,5.128366 2.92890317,5.242366 3.60490317,5.267366 L4.95490317,5.298366 Z M3.80890317,6.096366 C2.84490317,6.074366 2.13090317,5.892366 1.66890317,5.552366 C1.20690317,5.212366 0.983903169,4.691366 1.00090317,3.990366 C1.01690317,3.298366 1.25790317,2.792366 1.72490317,2.469366 C2.19090317,2.148366 2.87990317,1.991366 3.79290317,2.000366 L4.89290317,2.026366 C5.84590317,2.048366 6.55090317,2.228366 7.00590317,2.569366 C7.46090317,2.909366 7.68190317,3.431366 7.66490317,4.135366 C7.64890317,4.833366 7.41390317,5.341366 6.95890317,5.661366 C6.50490317,5.980366 5.80990317,6.133366 4.87890317,6.121366 L3.80890317,6.096366 Z" id="Fill-1" transform="translate(4.332907, 4.061010) rotate(-25.000000) translate(-4.332907, -4.061010) "></path>
                <polygon id="Fill-3" transform="translate(6.548098, 8.241020) rotate(-25.000000) translate(-6.548098, -8.241020) " points="3.34309817 9.74652023 3.26409817 8.92152023 8.73409817 8.40252023 7.96909817 6.80552023 8.71409817 6.73552023 9.82009817 9.00252023 9.83209817 9.13052023"></polygon>
                <path d="M10.4830961,14.1549322 C11.1680961,14.0169322 11.6470961,13.8199322 11.9210961,13.5649322 C12.1950961,13.3099322 12.2910961,12.9739322 12.2070961,12.5579322 C12.1240961,12.1449322 11.9070961,11.8749322 11.5580961,11.7479322 C11.2080961,11.6209322 10.7100961,11.6199322 10.0620961,11.7439322 L8.76909608,12.0049322 C8.08209608,12.1429322 7.59409608,12.3439322 7.30609608,12.6099322 C7.02009608,12.8759322 6.91709608,13.2109322 6.99909608,13.6149322 C7.07909608,14.0139322 7.29309608,14.2799322 7.64009608,14.4109322 C7.98809608,14.5419322 8.49509608,14.5459322 9.16009608,14.4209322 L10.4830961,14.1549322 Z M9.54109608,15.1849322 C8.59409608,15.3759322 7.85909608,15.3559322 7.33409608,15.1249322 C6.80809608,14.8939322 6.47709608,14.4349322 6.33809608,13.7479322 C6.20209608,13.0699322 6.32609608,12.5219322 6.71009608,12.1049322 C7.09409608,11.6889322 7.73309608,11.3839322 8.62409608,11.1929322 L9.70309608,10.9759322 C10.6370961,10.7879322 11.3650961,10.8099322 11.8830961,11.0409322 C12.4030961,11.2729322 12.7320961,11.7339322 12.8710961,12.4249322 C13.0080961,13.1089322 12.8910961,13.6559322 12.5180961,14.0679322 C12.1440961,14.4789322 11.5020961,14.7809322 10.5890961,14.9739322 L9.54109608,15.1849322 Z" id="Fill-5" transform="translate(9.605610, 13.082109) rotate(-25.000000) translate(-9.605610, -13.082109) "></path>
                <polygon id="Fill-7" transform="translate(12.824465, 16.712307) rotate(-25.000000) translate(-12.824465, -16.712307) " points="9.83346484 18.7343065 9.58846484 17.9423065 14.8354648 16.3183065 13.7624648 14.9113065 14.4764648 14.6903065 16.0214648 16.6843065 16.0604648 16.8073065"></polygon>
                <path d="M17.6734621,21.6724484 C18.3164621,21.4004484 18.7454621,21.1104484 18.9634621,20.8054484 C19.1814621,20.5004484 19.2064621,20.1524484 19.0404621,19.7614484 C18.8764621,19.3734484 18.6104621,19.1524484 18.2414621,19.0984484 C17.8734621,19.0454484 17.3854621,19.1444484 16.7764621,19.3954484 L15.5614621,19.9104484 C14.9164621,20.1844484 14.4794621,20.4794484 14.2514621,20.7974484 C14.0234621,21.1144484 13.9894621,21.4644484 14.1514621,21.8444484 C14.3094621,22.2194484 14.5714621,22.4354484 14.9394621,22.4944484 C15.3064621,22.5534484 15.8024621,22.4554484 16.4304621,22.1984484 L17.6734621,21.6724484 Z M16.9564621,22.8704484 C16.0684621,23.2474484 15.3434621,23.3764484 14.7824621,23.2554484 C14.2224621,23.1354484 13.8054621,22.7524484 13.5314621,22.1074484 C13.2614621,21.4694484 13.2724621,20.9084484 13.5654621,20.4224484 C13.8584621,19.9374484 14.4214621,19.5114484 15.2564621,19.1454484 L16.2704621,18.7154484 C17.1474621,18.3424484 17.8634621,18.2184484 18.4184621,18.3404484 C18.9754621,18.4634484 19.3894621,18.8494484 19.6644621,19.4974484 C19.9364621,20.1394484 19.9314621,20.7004484 19.6494621,21.1784484 C19.3654621,21.6564484 18.7964621,22.0814484 17.9414621,22.4534484 L16.9564621,22.8704484 Z" id="Fill-9" transform="translate(16.600890, 20.797258) rotate(-25.000000) translate(-16.600890, -20.797258) "></path>
            </g>
        </g>
    </g>
</svg>