<?xml version="1.0" encoding="UTF-8"?>
<svg width="15px" height="15px" viewBox="0 0 15 15" version="1.1" xmlns="http://www.w3.org/2000/svg" xmlns:xlink="http://www.w3.org/1999/xlink">
    <title>LinkedIn</title>
    <defs>
        <linearGradient x1="55.6082589%" y1="-41.1100618%" x2="55.6082589%" y2="100%" id="linearGradient-1">
            <stop stop-color="#E56F9F" offset="0%"></stop>
            <stop stop-color="#EA635F" offset="100%"></stop>
        </linearGradient>
    </defs>
    <g id="Page-1" stroke="none" stroke-width="1" fill="none" fill-rule="evenodd">
        <path d="M14.4491199,8.74279468 L14.4491199,14.26 L11.7246815,14.26 L11.7246815,9.11230383 C11.7246815,7.81916059 11.2620491,6.93664089 10.1042884,6.93664089 C9.22048501,6.93664089 8.69453297,7.53139449 8.46314738,8.10671851 C8.37876745,8.31239459 8.35704795,8.59866877 8.35704795,8.88657364 L8.35704795,14.26 L5.53266036,14.26 C5.53266036,14.26 5.57575241,5.5414923 5.53266036,4.63818989 L8.35673568,4.63818989 L8.35673568,6.00204296 C8.35024759,6.01224349 8.34181654,6.02324203 8.33571009,6.0331303 L8.35673568,6.0331303 L8.35673568,6.00204296 C8.78179264,5.34736989 9.54089975,4.41214743 11.2400173,4.41214743 C13.3451092,4.41214743 14.4491199,5.787346 14.4491199,8.74279468 Z M1.81052545,0 C0.715945664,0 0,0.717958015 0,1.66209726 C0,2.58566197 0.695232335,3.32540888 1.76805792,3.32540888 L1.78943047,3.32540888 C2.90520932,3.32540888 3.59912322,2.58580075 3.59912322,1.66209726 C3.57809762,0.717958015 2.90520932,0 1.81052545,0 Z M0.383663274,14.26 L3.18956979,14.26 L3.18956979,4.63818989 L0.383663274,4.63818989 L0.383663274,14.26 Z" id="LinkedIn" fill="url(#linearGradient-1)"></path>
    </g>
</svg>