<?xml version="1.0" encoding="UTF-8"?>
<svg width="17px" height="12px" viewBox="0 0 17 12" version="1.1" xmlns="http://www.w3.org/2000/svg" xmlns:xlink="http://www.w3.org/1999/xlink">
    <title>Combined Shape</title>
    <defs>
        <linearGradient x1="55.6082589%" y1="-41.1100618%" x2="55.6082589%" y2="100%" id="linearGradient-1">
            <stop stop-color="#E56F9F" offset="0%"></stop>
            <stop stop-color="#EA635F" offset="100%"></stop>
        </linearGradient>
    </defs>
    <g id="Page-1" stroke="none" stroke-width="1" fill="none" fill-rule="evenodd">
        <path d="M14.7890173,1.5392132e-12 C15.9565902,1.5392132e-12 16.9134483,0.924652444 16.9944462,2.09518853 L17,2.25626741 L17,9.74373259 C17,10.9352193 16.0939059,11.9116755 14.9468633,11.9943324 L14.7890173,12 L2.21098266,12 C1.04340984,12 0.0865517395,11.0753476 0.00555381885,9.90481147 L0,9.74373259 L0,2.25626741 C0,1.06478068 0.90609407,0.0883244689 2.05313673,0.00566757067 L2.21098266,1.5392132e-12 L14.7890173,1.5392132e-12 Z M14.7890173,1.30362117 L2.21098266,1.30362117 C1.73265278,1.30362117 1.33772178,1.67177484 1.28374352,2.14525315 L1.27745665,2.25626741 L1.27745665,9.74373259 C1.27745665,10.2318595 1.63822123,10.6348794 2.10219652,10.6899632 L2.21098266,10.6963788 L14.7890173,10.6963788 C15.2673472,10.6963788 15.6622782,10.3282252 15.7162565,9.85474685 L15.7225434,9.74373259 L15.7225434,2.25626741 C15.7225434,1.73059229 15.3041418,1.30362117 14.7890173,1.30362117 Z M3.439213,3.10129994 L3.53161314,3.14987862 L7.05094115,5.38015274 C7.14792442,5.41229291 7.23779932,5.46814024 7.31141517,5.54557674 L8.50098266,6.30150418 L9.67982574,5.55497423 C9.75823304,5.46912878 9.8562145,5.40855627 9.96209302,5.37598974 L13.4889431,3.14930916 C13.7888311,2.95974458 14.1825265,3.05415864 14.3682864,3.36018887 C14.5354703,3.63561608 14.4772482,3.98858357 14.2453136,4.19461538 L14.1616392,4.25754266 L11.376,6.017 L14.1645441,7.80097812 C14.4634324,7.99217991 14.5538405,8.39443905 14.3664762,8.69944907 C14.1978484,8.97395808 13.8616953,9.07613942 13.5782614,8.9544445 L13.4860382,8.9055171 L10.167,6.782 L8.83634805,7.62375463 C8.65944156,7.7355804 8.4423953,7.75139338 8.25415387,7.67125187 L8.16275274,7.62318518 L6.835,6.781 L3.53492429,8.90467976 C3.23648919,9.09661728 2.84208655,9.00532881 2.65400133,8.70078124 C2.48472464,8.42668843 2.54025654,8.07326979 2.77061487,7.86540454 L2.85380747,7.80181546 L5.629,6.016 L2.85711862,4.2569732 C2.55753881,4.06690183 2.46567212,3.66498698 2.65192864,3.35927125 C2.8195595,3.08412709 3.1553396,2.98067658 3.439213,3.10129994 Z" id="Combined-Shape" fill="url(#linearGradient-1)"></path>
    </g>
</svg>