<?xml version="1.0" encoding="UTF-8"?>
<svg width="20px" height="20px" viewBox="0 0 20 20" version="1.1" xmlns="http://www.w3.org/2000/svg" xmlns:xlink="http://www.w3.org/1999/xlink">
    <title>Combined Shape</title>
    <defs>
        <linearGradient x1="55.6082589%" y1="-41.1100618%" x2="55.6082589%" y2="100%" id="linearGradient-1">
            <stop stop-color="#E56F9F" offset="0%"></stop>
            <stop stop-color="#EA635F" offset="100%"></stop>
        </linearGradient>
    </defs>
    <g id="Page-1" stroke="none" stroke-width="1" fill="none" fill-rule="evenodd">
        <g id="Website-Our-Page-Web" transform="translate(-282.000000, -2076.000000)" fill="url(#linearGradient-1)">
            <g id="Group-19" transform="translate(282.000000, 2074.000000)">
                <path d="M9.654,2.35 C15.0036006,2.35 19.3,6.62559119 19.3,11.967 C19.3,17.3146617 14.9683084,21.65 9.625,21.65 C4.31553208,21.65 -7.08766379e-13,17.189008 -7.08766379e-13,11.804 C-7.08766379e-13,6.64414659 4.0375209,2.56957825 9.2378251,2.3594877 C9.29225322,2.35737809 9.34263197,2.35562069 9.3902819,2.35421511 L9.3902819,2.35421511 Z M11.6426039,17.0811713 L7.66429848,17.0815357 C8.15294903,18.1526306 8.78238483,19.2257365 9.55284012,20.2914061 L9.595,20.35 L9.625,20.35 C9.65336457,20.35 9.68169622,20.3498588 9.70999429,20.3495772 L9.5255,20.6 C10.4008053,19.4329263 11.1064036,18.2558344 11.6426039,17.0811713 Z M6.24841853,17.0819445 L3.09602429,17.0819857 C4.27898298,18.6179574 5.96209004,19.7348475 7.88728297,20.1606002 C7.22207232,19.1400512 6.67604452,18.1112043 6.24841853,17.0819445 Z M16.2612187,17.0814339 L13.0585383,17.0817431 C12.6313126,18.1094635 12.0859925,19.1367748 11.4227375,20.1556318 C13.3785104,19.7284039 15.0793976,18.6155353 16.2612187,17.0814339 Z M1.34118645,12.6507018 C1.45045346,13.7690008 1.7735741,14.8276919 2.26788594,15.7817994 L5.77102292,15.7815174 C5.43637528,14.731987 5.22516988,13.6855766 5.137577,12.6508888 Z M12.8658275,12.6501186 L6.44188074,12.6504949 C6.53804024,13.6825199 6.77060862,14.7292556 7.13981006,15.7816603 L12.1672959,15.781585 C12.5367824,14.7290783 12.7695515,13.6822449 12.8658275,12.6501186 Z M17.9725577,12.6505643 L14.170137,12.6505633 C14.0824355,13.6853814 13.8710429,14.7319183 13.5361297,15.7815754 L17.0845381,15.7818444 C17.5717694,14.8292248 17.8822213,13.771012 17.9725577,12.6505643 Z M5.61972949,7.9630984 L2.25244218,7.96311782 C1.70916733,8.97723432 1.37789811,10.1236572 1.31212217,11.3502232 L5.09269221,11.3506627 C5.11132768,10.1979013 5.28692564,9.06461371 5.61972949,7.9630984 Z M12.3213392,7.96319308 L6.98645841,7.96362963 C6.61265053,9.0598587 6.41473287,10.1933337 6.39303491,11.3507649 L12.9147835,11.350669 C12.8931792,10.1931396 12.6952546,9.05955512 12.3213392,7.96319308 Z M16.9831837,7.96375216 L13.6883755,7.96361887 C14.0210794,9.06497032 14.1965812,10.1980556 14.2151242,11.3505937 L17.9777967,11.3502702 C17.8893203,10.1266945 17.5394759,8.9797119 16.9831837,7.96375216 Z M7.70781552,3.86528129 L7.52958472,3.90716742 C5.75352024,4.34602247 4.22233731,5.32547845 3.1224549,6.66373211 L6.09215344,6.66297805 C6.50367987,5.69784098 7.04217505,4.76230256 7.70781552,3.86528129 Z M9.654,3.65 L9.558,3.65 L9.51257832,3.70175829 C8.68400817,4.64084346 8.0201363,5.63198762 7.52126241,6.66310264 L11.7869549,6.66372898 C11.288034,5.63244028 10.6240229,4.64109043 9.79522142,3.70175622 L9.75,3.651 L9.654,3.65 Z M11.6076093,3.87574964 L11.6333043,3.91032122 C12.2837668,4.79374736 12.8112514,5.71424115 13.215926,6.66333041 L16.1004858,6.66309117 C14.96839,5.29529716 13.4032759,4.29929752 11.6076093,3.87574964 Z" id="Combined-Shape"></path>
            </g>
        </g>
    </g>
</svg>