<?xml version="1.0" encoding="UTF-8"?>
<svg width="48px" height="48px" viewBox="0 0 48 48" version="1.1" xmlns="http://www.w3.org/2000/svg" xmlns:xlink="http://www.w3.org/1999/xlink">
    <title>linkedin-hover</title>
    <defs>
        <circle id="path-1" cx="24" cy="24" r="24"></circle>
        <linearGradient x1="55.6082589%" y1="-41.1100618%" x2="55.6082589%" y2="100%" id="linearGradient-2">
            <stop stop-color="#E56F9F" offset="0%"></stop>
            <stop stop-color="#EA635F" offset="100%"></stop>
        </linearGradient>
    </defs>
    <g id="Page-1" stroke="none" stroke-width="1" fill="none" fill-rule="evenodd">
        <g id="Artboard" transform="translate(-22.000000, -95.000000)">
            <g id="linkedin-hover" transform="translate(22.000000, 95.000000)">
                <g id="Linkedin">
                    <g id="Oval">
                        <use fill-opacity="0.08" fill="#8279DE" fill-rule="evenodd" style="mix-blend-mode: multiply;" xlink:href="#path-1"></use>
                        <circle stroke="#E56F9F" stroke-width="1" stroke-linejoin="square" cx="24" cy="24" r="23.5"></circle>
                    </g>
                    <path d="M31.9232082,24.7427947 L31.9232082,30.26 L28.7246815,30.26 L28.7246815,25.1123038 C28.7246815,23.8191606 28.2620491,22.9366409 27.1042884,22.9366409 C26.220485,22.9366409 25.694533,23.5313945 25.4631474,24.1067185 C25.3787675,24.3123946 25.3570479,24.5986688 25.3570479,24.8865736 L25.3570479,30.26 L22.1574457,30.26 C22.1574457,30.26 22.2005377,21.5414923 22.1574457,20.6381899 L25.3567357,20.6381899 L25.3567357,22.002043 C25.3502476,22.0122435 25.3418165,22.023242 25.3357101,22.0331303 L25.3567357,22.0331303 L25.3567357,22.002043 C25.7817926,21.3473699 26.5408998,20.4121474 28.2400173,20.4121474 C30.3451092,20.4121474 31.9232082,21.787346 31.9232082,24.7427947 Z M18.8105254,16 C17.7159457,16 17,16.717958 17,17.6620973 C17,18.585662 17.6952323,19.3254089 18.7680579,19.3254089 L18.7894305,19.3254089 C19.9052093,19.3254089 20.5991232,18.5858008 20.5991232,17.6620973 C20.5780976,16.717958 19.9052093,16 18.8105254,16 Z M17.1900283,30.26 L20.3884163,30.26 L20.3884163,20.6381899 L17.1900283,20.6381899 L17.1900283,30.26 Z" id="LinkedIn" fill="url(#linearGradient-2)"></path>
                </g>
            </g>
        </g>
    </g>
</svg>