<?xml version="1.0" encoding="UTF-8"?>
<svg width="48px" height="48px" viewBox="0 0 48 48" version="1.1" xmlns="http://www.w3.org/2000/svg" xmlns:xlink="http://www.w3.org/1999/xlink">
    <title>twitter-normal</title>
    <defs>
        <circle id="path-1" cx="24" cy="24" r="24"></circle>
    </defs>
    <g id="Page-1" stroke="none" stroke-width="1" fill="none" fill-rule="evenodd">
        <g id="Artboard" transform="translate(-210.000000, -20.000000)">
            <g id="twitter-normal" transform="translate(210.000000, 20.000000)">
                <g id="Linkedin">
                    <g id="Oval">
                        <use fill-opacity="0.08" fill="#8279DE" fill-rule="evenodd" style="mix-blend-mode: multiply;" xlink:href="#path-1"></use>
                        <circle stroke="#3C3465" stroke-width="1" stroke-linejoin="square" cx="24" cy="24" r="23.5"></circle>
                    </g>
                    <path d="M33.2046875,18.6588542 C32.5703125,18.9395833 31.8921875,19.1291667 31.1776042,19.2166667 C31.9067708,18.7791667 32.4682292,18.0864583 32.7307292,17.2625 C32.0489583,17.6671875 31.2942708,17.9625 30.4885417,18.1192708 C29.8432292,17.4302083 28.9244792,17 27.9109375,17 C25.9604167,17 24.3817708,18.5822917 24.3817708,20.5328125 C24.3817708,20.8098958 24.4109375,21.0796875 24.4729167,21.3385417 C21.5380208,21.1927083 18.9348958,19.7854167 17.1958333,17.6453125 C16.8932292,18.1666667 16.7182292,18.7755208 16.7182292,19.4208333 C16.7182292,20.6458333 17.3416667,21.7286458 18.2895833,22.3630208 C17.7098958,22.3484375 17.1630208,22.1880208 16.6890625,21.921875 C16.6890625,21.9364583 16.6890625,21.9510417 16.6890625,21.965625 C16.6890625,23.6791667 17.9067708,25.1046875 19.521875,25.4291667 C19.2265625,25.509375 18.9130208,25.553125 18.5921875,25.553125 C18.3661458,25.553125 18.14375,25.53125 17.9286458,25.4875 C18.3770833,26.8911458 19.6822917,27.9119792 21.228125,27.9411458 C20.0213542,28.8890625 18.4973958,29.4541667 16.8421875,29.4541667 C16.5578125,29.4541667 16.2770833,29.4359375 16,29.403125 C17.5604167,30.4166667 19.4161458,31 21.4067708,31 C27.9036458,31 31.4546875,25.6151042 31.4546875,20.9447917 C31.4546875,20.7916667 31.4510417,20.6385417 31.44375,20.4890625 C32.1328125,19.9895833 32.7307292,19.3661458 33.2046875,18.6588542 Z" id="Path" fill="#B0A4F5" fill-rule="nonzero" opacity="0.5"></path>
                </g>
            </g>
        </g>
    </g>
</svg>