<?xml version="1.0" encoding="UTF-8"?>
<svg width="48px" height="48px" viewBox="0 0 48 48" version="1.1" xmlns="http://www.w3.org/2000/svg" xmlns:xlink="http://www.w3.org/1999/xlink">
    <title>youtube-normal</title>
    <defs>
        <circle id="path-1" cx="24" cy="24" r="24"></circle>
    </defs>
    <g id="Page-1" stroke="none" stroke-width="1" fill="none" fill-rule="evenodd">
        <g id="Artboard" transform="translate(-84.000000, -20.000000)">
            <g id="youtube-normal" transform="translate(84.000000, 20.000000)">
                <g id="Linkedin">
                    <g id="Oval">
                        <use fill-opacity="0.08" fill="#8279DE" fill-rule="evenodd" style="mix-blend-mode: multiply;" xlink:href="#path-1"></use>
                        <circle stroke="#3C3465" stroke-width="1" stroke-linejoin="square" cx="24" cy="24" r="23.5"></circle>
                    </g>
                    <path d="M24.1416117,16.9987299 C24.8480397,17.0009879 28.0661196,17.0207456 30.296625,17.193626 C30.6481875,17.2369385 31.414875,17.2414385 32.0994375,18.0053135 C32.638875,18.5880635 32.814375,19.911626 32.814375,19.911626 C32.814375,19.911626 32.994375,21.4646885 32.994375,23.0183135 L32.994375,23.0183135 L32.994375,24.4740635 C32.994375,26.0276885 32.814375,27.580751 32.814375,27.580751 C32.814375,27.580751 32.6383125,28.903751 32.0994375,29.485376 C31.414875,30.249251 30.6481875,30.253751 30.296625,30.298751 C27.9941679,30.475151 24.6361026,30.4959134 24.0773502,30.4981767 L23.9852466,30.4983188 C23.7247618,30.4956703 19.2759761,30.4485414 17.878875,30.305501 C17.478375,30.225626 16.5800625,30.2486885 15.8949375,29.4848135 C15.3555,28.9031885 15.18,27.5801885 15.18,27.5801885 C15.18,27.5801885 15,26.0276885 15,24.473501 L15.0009912,22.8153053 C15.0153119,21.3325754 15.18,19.911626 15.18,19.911626 C15.18,19.911626 15.3560625,18.5880635 15.8949375,18.0053135 C16.5800625,17.2414385 17.3461875,17.2369385 17.69775,17.193626 C19.9277571,17.0207456 23.1457802,17.0009879 23.8522016,16.9987299 Z M21.75,20.3734385 L21.75,27.1234385 L27.375,23.7484385 L21.75,20.3734385 Z" id="Combined-Shape" fill="#B0A4F5" fill-rule="nonzero" opacity="0.5"></path>
                </g>
            </g>
        </g>
    </g>
</svg>